<?xml version="1.0" encoding="UTF-8" standalone="no"?>
<!DOCTYPE svg PUBLIC "-//W3C//DTD SVG 1.1//EN"
 "http://www.w3.org/Graphics/SVG/1.1/DTD/svg11.dtd">
<!-- Generated by graphviz version 2.40.1 (20161225.0304)
 -->
<!-- Title: packages Pages: 1 -->
<svg width="720pt" height="720pt"
 viewBox="0.00 0.00 720.00 720.00" xmlns="http://www.w3.org/2000/svg" xmlns:xlink="http://www.w3.org/1999/xlink">
<g id="graph0" class="graph" transform="scale(.5369 .5369) rotate(0) translate(4 1337)">
<title>packages</title>
<polygon fill="#ffffff" stroke="transparent" points="-4,4 -4,-1337 1337,-1337 1337,4 -4,4"/>
<g id="clust1" class="cluster">
<title>cluster </title>
<polygon fill="none" stroke="#a473ff" points="145,-27.3436 145,-451.1692 319,-451.1692 319,-27.3436 145,-27.3436"/>
</g>
<g id="clust2" class="cluster">
<title>cluster links</title>
<polygon fill="none" stroke="#e2446b" points="327,-273.4359 327,-1021.9667 954,-1021.9667 954,-273.4359 327,-273.4359"/>
<text text-anchor="middle" x="640.5" y="-1006.7667" font-family="Times,serif" font-size="14.00" fill="#000000">links</text>
</g>
<g id="clust3" class="cluster">
<title>cluster codegen</title>
<polygon fill="none" stroke="#856663" points="8,-519.5282 8,-1305.6564 134,-1305.6564 134,-519.5282 8,-519.5282"/>
<text text-anchor="middle" x="71" y="-1290.4564" font-family="Times,serif" font-size="14.00" fill="#000000">codegen</text>
</g>
<g id="clust4" class="cluster">
<title>cluster examples</title>
<polygon fill="none" stroke="#e8f445" points="558,-1049.3103 558,-1305.6564 1325,-1305.6564 1325,-1049.3103 558,-1049.3103"/>
<text text-anchor="middle" x="941.5" y="-1290.4564" font-family="Times,serif" font-size="14.00" fill="#000000">examples</text>
</g>
<!-- gql_pedantic -->
<g id="node1" class="node">
<title>gql_pedantic</title>
<polygon fill="none" stroke="#89da51" points="311,-134.3436 225,-134.3436 225,-98.3436 311,-98.3436 311,-134.3436"/>
<text text-anchor="middle" x="268" y="-112.6436" font-family="Times,serif" font-size="14.00" fill="#000000">gql_pedantic</text>
</g>
<!-- cats -->
<g id="node2" class="node">
<title>cats</title>
<polygon fill="none" stroke="#e2592e" points="207,-134.3436 153,-134.3436 153,-98.3436 207,-98.3436 207,-134.3436"/>
<text text-anchor="middle" x="180" y="-112.6436" font-family="Times,serif" font-size="14.00" fill="#000000">cats</text>
</g>
<!-- gql -->
<g id="node3" class="node">
<title>gql</title>
<polygon fill="none" stroke="#68217c" points="311,-380.3436 257,-380.3436 257,-344.3436 311,-344.3436 311,-380.3436"/>
<text text-anchor="middle" x="284" y="-358.6436" font-family="Times,serif" font-size="14.00" fill="#000000">gql</text>
</g>
<!-- gql&#45;&gt;gql_pedantic -->
<g id="edge1" class="edge">
<title>gql&#45;&gt;gql_pedantic</title>
<path fill="none" stroke="#89da51" stroke-dasharray="5,2" d="M282.8235,-344.2546C280.0611,-301.7827 273.144,-195.4329 269.8283,-144.454"/>
<polygon fill="#89da51" stroke="#89da51" points="273.32,-144.2108 269.1782,-134.4591 266.3348,-144.6652 273.32,-144.2108"/>
</g>
<!-- gql&#45;&gt;cats -->
<g id="edge2" class="edge">
<title>gql&#45;&gt;cats</title>
<path fill="none" stroke="#e2592e" stroke-dasharray="5,2" d="M276.3526,-344.2546C258.3219,-301.605 213.0594,-194.5418 191.6148,-143.8171"/>
<polygon fill="#e2592e" stroke="#e2592e" points="194.7763,-142.3069 187.6586,-134.4591 188.3288,-145.0327 194.7763,-142.3069"/>
</g>
<!-- gql_exec -->
<g id="node4" class="node">
<title>gql_exec</title>
<polygon fill="none" stroke="#5b9240" points="848.5,-380.3436 783.5,-380.3436 783.5,-344.3436 848.5,-344.3436 848.5,-380.3436"/>
<text text-anchor="middle" x="816" y="-358.6436" font-family="Times,serif" font-size="14.00" fill="#000000">gql_exec</text>
</g>
<!-- gql_exec&#45;&gt;gql_pedantic -->
<g id="edge4" class="edge">
<title>gql_exec&#45;&gt;gql_pedantic</title>
<path fill="none" stroke="#89da51" stroke-dasharray="5,2" d="M783.4629,-347.4566C775.4684,-343.8114 766.9287,-339.9281 759,-336.3436 597.8351,-263.4815 406.4638,-178.0461 317.7411,-138.4987"/>
<polygon fill="#89da51" stroke="#89da51" points="319.0167,-135.2354 308.458,-134.3613 316.167,-141.6291 319.0167,-135.2354"/>
</g>
<!-- gql_exec&#45;&gt;gql -->
<g id="edge3" class="edge">
<title>gql_exec&#45;&gt;gql</title>
<path fill="none" stroke="#68217c" d="M783.4522,-362.3436C629.3567,-362.3436 475.2611,-362.3436 321.1656,-362.3436"/>
<polygon fill="#68217c" stroke="#68217c" points="321.0157,-358.8437 311.0156,-362.3436 321.0156,-365.8437 321.0157,-358.8437"/>
</g>
<!-- gql_link -->
<g id="node5" class="node">
<title>gql_link</title>
<polygon fill="none" stroke="#7c0063" points="858,-626.3436 796,-626.3436 796,-590.3436 858,-590.3436 858,-626.3436"/>
<text text-anchor="middle" x="827" y="-604.6436" font-family="Times,serif" font-size="14.00" fill="#000000">gql_link</text>
</g>
<!-- gql_link&#45;&gt;gql_pedantic -->
<g id="edge7" class="edge">
<title>gql_link&#45;&gt;gql_pedantic</title>
<path fill="none" stroke="#89da51" stroke-dasharray="5,2" d="M822.9747,-590.1002C811.658,-542.6143 775.4198,-413.5141 701,-336.3436 591.2692,-222.5569 410.0426,-157.443 320.8816,-130.7363"/>
<polygon fill="#89da51" stroke="#89da51" points="321.8329,-127.3679 311.2512,-127.8942 319.8515,-134.0816 321.8329,-127.3679"/>
</g>
<!-- gql_link&#45;&gt;gql -->
<g id="edge5" class="edge">
<title>gql_link&#45;&gt;gql</title>
<path fill="none" stroke="#68217c" d="M795.7092,-596.9057C715.17,-566.9973 494.9891,-482.2548 323,-388.3436 321.6608,-387.6124 320.3086,-386.8488 318.9525,-386.0615"/>
<polygon fill="#68217c" stroke="#68217c" points="320.3988,-382.8435 310.0413,-380.6136 316.7476,-388.8158 320.3988,-382.8435"/>
</g>
<!-- gql_link&#45;&gt;gql_exec -->
<g id="edge6" class="edge">
<title>gql_link&#45;&gt;gql_exec</title>
<path fill="none" stroke="#5b9240" d="M826.1911,-590.2546C824.292,-547.7827 819.5365,-441.4329 817.257,-390.454"/>
<polygon fill="#5b9240" stroke="#5b9240" points="820.7534,-390.2927 816.81,-380.4591 813.7603,-390.6055 820.7534,-390.2927"/>
</g>
<!-- gql_websocket_link -->
<g id="node6" class="node">
<title>gql_websocket_link</title>
<polygon fill="none" stroke="#bb5677" points="573.5,-872.3436 448.5,-872.3436 448.5,-836.3436 573.5,-836.3436 573.5,-872.3436"/>
<text text-anchor="middle" x="511" y="-850.6436" font-family="Times,serif" font-size="14.00" fill="#000000">gql_websocket_link</text>
</g>
<!-- gql_websocket_link&#45;&gt;gql_pedantic -->
<g id="edge11" class="edge">
<title>gql_websocket_link&#45;&gt;gql_pedantic</title>
<path fill="none" stroke="#89da51" stroke-dasharray="5,2" d="M504.9932,-836.1008C472.3968,-737.1044 316.7573,-264.4214 277.1737,-144.2046"/>
<polygon fill="#89da51" stroke="#89da51" points="280.4663,-143.0131 274.0143,-134.6094 273.8175,-145.2024 280.4663,-143.0131"/>
</g>
<!-- gql_websocket_link&#45;&gt;gql -->
<g id="edge10" class="edge">
<title>gql_websocket_link&#45;&gt;gql</title>
<path fill="none" stroke="#68217c" d="M502.6517,-836.2496C468.3432,-761.8893 338.0675,-479.5295 296.6927,-389.8538"/>
<polygon fill="#68217c" stroke="#68217c" points="299.7917,-388.216 292.4242,-380.6021 293.4356,-391.1486 299.7917,-388.216"/>
</g>
<!-- gql_websocket_link&#45;&gt;gql_exec -->
<g id="edge8" class="edge">
<title>gql_websocket_link&#45;&gt;gql_exec</title>
<path fill="none" stroke="#5b9240" d="M532.9246,-836.1732C575.0608,-800.1964 667.9534,-715.6181 722,-626.3436 734.6796,-605.3993 785.537,-454.1677 806.6939,-390.489"/>
<polygon fill="#5b9240" stroke="#5b9240" points="810.1127,-391.2991 809.9395,-380.7057 803.4688,-389.095 810.1127,-391.2991"/>
</g>
<!-- gql_websocket_link&#45;&gt;gql_link -->
<g id="edge9" class="edge">
<title>gql_websocket_link&#45;&gt;gql_link</title>
<path fill="none" stroke="#7c0063" d="M534.2362,-836.2546C590.1633,-792.7165 732.3165,-682.0529 795.6856,-632.7212"/>
<polygon fill="#7c0063" stroke="#7c0063" points="797.9889,-635.3638 803.7297,-626.4591 793.6888,-629.8402 797.9889,-635.3638"/>
</g>
<!-- gql_transform_link -->
<g id="node7" class="node">
<title>gql_transform_link</title>
<polygon fill="none" stroke="#21d185" points="714,-872.3436 592,-872.3436 592,-836.3436 714,-836.3436 714,-872.3436"/>
<text text-anchor="middle" x="653" y="-850.6436" font-family="Times,serif" font-size="14.00" fill="#000000">gql_transform_link</text>
</g>
<!-- gql_transform_link&#45;&gt;gql_pedantic -->
<g id="edge15" class="edge">
<title>gql_transform_link&#45;&gt;gql_pedantic</title>
<path fill="none" stroke="#89da51" stroke-dasharray="5,2" d="M643.4831,-836.1008C591.7348,-736.9054 344.2572,-262.5196 282.1586,-143.4839"/>
<polygon fill="#89da51" stroke="#89da51" points="285.2573,-141.8566 277.5289,-134.6094 279.0511,-145.0943 285.2573,-141.8566"/>
</g>
<!-- gql_transform_link&#45;&gt;gql -->
<g id="edge14" class="edge">
<title>gql_transform_link&#45;&gt;gql</title>
<path fill="none" stroke="#68217c" stroke-dasharray="5,2" d="M639.4295,-836.2496C583.4333,-761.5879 370.1704,-477.2375 303.8221,-388.773"/>
<polygon fill="#68217c" stroke="#68217c" points="306.494,-386.5022 297.6939,-380.6021 300.8939,-390.7022 306.494,-386.5022"/>
</g>
<!-- gql_transform_link&#45;&gt;gql_exec -->
<g id="edge12" class="edge">
<title>gql_transform_link&#45;&gt;gql_exec</title>
<path fill="none" stroke="#5b9240" d="M660.7725,-836.2448C677.0588,-797.9532 715.4513,-705.7317 742,-626.3436 770.4101,-541.3893 797.0404,-438.6716 809.1546,-390.2169"/>
<polygon fill="#5b9240" stroke="#5b9240" points="812.5653,-391.0047 811.5818,-380.4556 805.7721,-389.3155 812.5653,-391.0047"/>
</g>
<!-- gql_transform_link&#45;&gt;gql_link -->
<g id="edge13" class="edge">
<title>gql_transform_link&#45;&gt;gql_link</title>
<path fill="none" stroke="#7c0063" d="M665.7946,-836.2546C696.15,-793.3385 772.6374,-685.201 808.2356,-634.8726"/>
<polygon fill="#7c0063" stroke="#7c0063" points="811.2694,-636.6444 814.1866,-626.4591 805.5545,-632.6021 811.2694,-636.6444"/>
</g>
<!-- gql_http_link -->
<g id="node8" class="node">
<title>gql_http_link</title>
<polygon fill="none" stroke="#ab8a09" points="821.5,-872.3436 732.5,-872.3436 732.5,-836.3436 821.5,-836.3436 821.5,-872.3436"/>
<text text-anchor="middle" x="777" y="-850.6436" font-family="Times,serif" font-size="14.00" fill="#000000">gql_http_link</text>
</g>
<!-- gql_http_link&#45;&gt;gql_pedantic -->
<g id="edge19" class="edge">
<title>gql_http_link&#45;&gt;gql_pedantic</title>
<path fill="none" stroke="#89da51" stroke-dasharray="5,2" d="M764.4179,-836.1008C695.934,-736.8059 368.1613,-261.5676 286.4724,-143.1268"/>
<polygon fill="#89da51" stroke="#89da51" points="289.1568,-140.8542 280.5979,-134.6094 283.3944,-144.8285 289.1568,-140.8542"/>
</g>
<!-- gql_http_link&#45;&gt;gql -->
<g id="edge16" class="edge">
<title>gql_http_link&#45;&gt;gql</title>
<path fill="none" stroke="#68217c" d="M758.8692,-836.2496C683.7538,-761.2866 396.8239,-474.9386 309.4194,-387.7114"/>
<polygon fill="#68217c" stroke="#68217c" points="311.8463,-385.1887 302.2957,-380.6021 306.9016,-390.1435 311.8463,-385.1887"/>
</g>
<!-- gql_http_link&#45;&gt;gql_exec -->
<g id="edge17" class="edge">
<title>gql_http_link&#45;&gt;gql_exec</title>
<path fill="none" stroke="#5b9240" d="M777.077,-836.1639C777.3911,-792.3901 778.9805,-677.6966 787,-582.3436 792.8214,-513.1258 804.8283,-432.2771 811.4199,-390.5174"/>
<polygon fill="#5b9240" stroke="#5b9240" points="814.8934,-390.9601 813.0105,-380.534 807.9806,-389.8587 814.8934,-390.9601"/>
</g>
<!-- gql_http_link&#45;&gt;gql_link -->
<g id="edge18" class="edge">
<title>gql_http_link&#45;&gt;gql_link</title>
<path fill="none" stroke="#7c0063" d="M780.6766,-836.2546C789.3091,-793.7827 810.9249,-687.4329 821.2865,-636.454"/>
<polygon fill="#7c0063" stroke="#7c0063" points="824.756,-636.9559 823.318,-626.4591 817.8962,-635.5615 824.756,-636.9559"/>
</g>
<!-- gql_error_link -->
<g id="node9" class="node">
<title>gql_error_link</title>
<polygon fill="none" stroke="#5f79bc" points="430.5,-872.3436 335.5,-872.3436 335.5,-836.3436 430.5,-836.3436 430.5,-872.3436"/>
<text text-anchor="middle" x="383" y="-850.6436" font-family="Times,serif" font-size="14.00" fill="#000000">gql_error_link</text>
</g>
<!-- gql_error_link&#45;&gt;gql_pedantic -->
<g id="edge23" class="edge">
<title>gql_error_link&#45;&gt;gql_pedantic</title>
<path fill="none" stroke="#89da51" stroke-dasharray="5,2" d="M381.5408,-836.3432C375.9835,-769.6951 354.6896,-530.7664 320,-336.3436 307.544,-266.5319 286.7664,-185.6708 275.6193,-144.1358"/>
<polygon fill="#89da51" stroke="#89da51" points="278.9907,-143.1951 273.0037,-134.4541 272.233,-145.0208 278.9907,-143.1951"/>
</g>
<!-- gql_error_link&#45;&gt;gql -->
<g id="edge22" class="edge">
<title>gql_error_link&#45;&gt;gql</title>
<path fill="none" stroke="#68217c" stroke-dasharray="5,2" d="M379.3591,-836.2496C364.4419,-762.1153 307.9251,-481.2441 289.7012,-390.6769"/>
<polygon fill="#68217c" stroke="#68217c" points="293.0779,-389.7152 287.674,-380.6021 286.2155,-391.0961 293.0779,-389.7152"/>
</g>
<!-- gql_error_link&#45;&gt;gql_exec -->
<g id="edge20" class="edge">
<title>gql_error_link&#45;&gt;gql_exec</title>
<path fill="none" stroke="#5b9240" d="M398.9242,-836.2496C464.7651,-761.4373 715.8949,-476.0889 793.2092,-388.2398"/>
<polygon fill="#5b9240" stroke="#5b9240" points="795.9517,-390.4213 799.931,-380.6021 790.6969,-385.7967 795.9517,-390.4213"/>
</g>
<!-- gql_error_link&#45;&gt;gql_link -->
<g id="edge21" class="edge">
<title>gql_error_link&#45;&gt;gql_link</title>
<path fill="none" stroke="#7c0063" d="M415.6484,-836.2546C495.4346,-792.0487 700.1189,-678.6426 787.0192,-630.4951"/>
<polygon fill="#7c0063" stroke="#7c0063" points="788.741,-633.5425 795.7919,-625.6346 785.3485,-627.4195 788.741,-633.5425"/>
</g>
<!-- gql_code_builder -->
<g id="node10" class="node">
<title>gql_code_builder</title>
<polygon fill="none" stroke="#1da059" points="126.5,-626.3436 15.5,-626.3436 15.5,-590.3436 126.5,-590.3436 126.5,-626.3436"/>
<text text-anchor="middle" x="71" y="-604.6436" font-family="Times,serif" font-size="14.00" fill="#000000">gql_code_builder</text>
</g>
<!-- gql_code_builder&#45;&gt;gql_pedantic -->
<g id="edge26" class="edge">
<title>gql_code_builder&#45;&gt;gql_pedantic</title>
<path fill="none" stroke="#89da51" stroke-dasharray="5,2" d="M78.245,-590.2496C107.9891,-515.9646 220.849,-234.1015 256.8754,-144.127"/>
<polygon fill="#89da51" stroke="#89da51" points="260.2211,-145.1866 260.6892,-134.6021 253.7227,-142.5846 260.2211,-145.1866"/>
</g>
<!-- gql_code_builder&#45;&gt;gql -->
<g id="edge24" class="edge">
<title>gql_code_builder&#45;&gt;gql</title>
<path fill="none" stroke="#68217c" d="M86.6624,-590.2546C123.9754,-547.1607 218.2291,-438.3044 261.5685,-388.2504"/>
<polygon fill="#68217c" stroke="#68217c" points="264.4148,-390.3101 268.3146,-380.4591 259.1228,-385.728 264.4148,-390.3101"/>
</g>
<!-- gql_code_builder&#45;&gt;gql_exec -->
<g id="edge25" class="edge">
<title>gql_code_builder&#45;&gt;gql_exec</title>
<path fill="none" stroke="#5b9240" d="M125.7816,-590.2546C267.9379,-543.3144 646.3913,-418.3486 773.6074,-376.3417"/>
<polygon fill="#5b9240" stroke="#5b9240" points="774.9822,-379.5737 783.3805,-373.1146 772.7873,-372.9267 774.9822,-379.5737"/>
</g>
<!-- gql_build -->
<g id="node11" class="node">
<title>gql_build</title>
<polygon fill="none" stroke="#3380b0" points="126,-872.3436 58,-872.3436 58,-836.3436 126,-836.3436 126,-872.3436"/>
<text text-anchor="middle" x="92" y="-850.6436" font-family="Times,serif" font-size="14.00" fill="#000000">gql_build</text>
</g>
<!-- gql_build&#45;&gt;gql_pedantic -->
<g id="edge29" class="edge">
<title>gql_build&#45;&gt;gql_pedantic</title>
<path fill="none" stroke="#89da51" stroke-dasharray="5,2" d="M78.7521,-836.0604C48.8545,-792.5254 -19.3412,-679.1241 6,-582.3436 54.1347,-398.5128 192.8622,-210.6551 246.4851,-142.7983"/>
<polygon fill="#89da51" stroke="#89da51" points="249.3945,-144.7633 252.8847,-134.7598 243.918,-140.4033 249.3945,-144.7633"/>
</g>
<!-- gql_build&#45;&gt;gql -->
<g id="edge27" class="edge">
<title>gql_build&#45;&gt;gql</title>
<path fill="none" stroke="#68217c" d="M96.8735,-836.2262C108.9362,-792.1172 141.9084,-675.9048 179,-582.3436 207.2292,-511.1371 248.0258,-430.651 269.5096,-389.5983"/>
<polygon fill="#68217c" stroke="#68217c" points="272.732,-390.9903 274.2878,-380.5103 266.5362,-387.7327 272.732,-390.9903"/>
</g>
<!-- gql_build&#45;&gt;gql_code_builder -->
<g id="edge28" class="edge">
<title>gql_build&#45;&gt;gql_code_builder</title>
<path fill="none" stroke="#1da059" d="M90.4558,-836.2546C86.8302,-793.7827 77.7515,-687.4329 73.3997,-636.454"/>
<polygon fill="#1da059" stroke="#1da059" points="76.8844,-636.1251 72.5464,-626.4591 69.9098,-636.7206 76.8844,-636.1251"/>
</g>
<!-- gql_example_http_auth_link -->
<g id="node12" class="node">
<title>gql_example_http_auth_link</title>
<polygon fill="none" stroke="#8a0733" points="739.5,-1156.3436 566.5,-1156.3436 566.5,-1120.3436 739.5,-1120.3436 739.5,-1156.3436"/>
<text text-anchor="middle" x="653" y="-1134.6436" font-family="Times,serif" font-size="14.00" fill="#000000">gql_example_http_auth_link</text>
</g>
<!-- gql_example_http_auth_link&#45;&gt;gql_pedantic -->
<g id="edge36" class="edge">
<title>gql_example_http_auth_link&#45;&gt;gql_pedantic</title>
<path fill="none" stroke="#89da51" stroke-dasharray="5,2" d="M703.3053,-1120.3393C780.671,-1089.5751 926.176,-1018.7824 986,-903.3436 1102.0905,-679.3305 1114.2027,-534.4839 958,-336.3436 876.7571,-233.2884 469.248,-152.0239 321.5576,-125.5319"/>
<polygon fill="#89da51" stroke="#89da51" points="321.8397,-122.0271 311.3809,-123.7195 320.6123,-128.9187 321.8397,-122.0271"/>
</g>
<!-- gql_example_http_auth_link&#45;&gt;gql -->
<g id="edge30" class="edge">
<title>gql_example_http_auth_link&#45;&gt;gql</title>
<path fill="none" stroke="#68217c" d="M568.3716,-1120.2984C464.5652,-1093.127 293.0364,-1030.7043 217,-903.3436 114.334,-731.3784 227.1886,-474.0336 269.4017,-389.9774"/>
<polygon fill="#68217c" stroke="#68217c" points="272.6441,-391.3231 274.0659,-380.8241 266.4072,-388.145 272.6441,-391.3231"/>
</g>
<!-- gql_example_http_auth_link&#45;&gt;gql_exec -->
<g id="edge32" class="edge">
<title>gql_example_http_auth_link&#45;&gt;gql_exec</title>
<path fill="none" stroke="#5b9240" d="M700.9295,-1120.2718C775.804,-1089.0966 917.9513,-1017.3638 976,-903.3436 1070.1107,-718.4898 899.0077,-469.2325 837.0936,-388.6428"/>
<polygon fill="#5b9240" stroke="#5b9240" points="839.6785,-386.265 830.7787,-380.5165 834.1512,-390.5603 839.6785,-386.265"/>
</g>
<!-- gql_example_http_auth_link&#45;&gt;gql_link -->
<g id="edge31" class="edge">
<title>gql_example_http_auth_link&#45;&gt;gql_link</title>
<path fill="none" stroke="#7c0063" d="M696.0738,-1120.311C765.892,-1088.4058 901.4489,-1014.6873 956,-903.3436 1003.9545,-805.4642 904.0167,-685.544 853.6588,-633.9446"/>
<polygon fill="#7c0063" stroke="#7c0063" points="855.8501,-631.1839 846.3222,-626.5505 850.8811,-636.1143 855.8501,-631.1839"/>
</g>
<!-- gql_example_http_auth_link&#45;&gt;gql_transform_link -->
<g id="edge34" class="edge">
<title>gql_example_http_auth_link&#45;&gt;gql_transform_link</title>
<path fill="none" stroke="#21d185" d="M653,-1120.1461C653,-1071.9557 653,-940.7562 653,-882.6679"/>
<polygon fill="#21d185" stroke="#21d185" points="656.5001,-882.3895 653,-872.3895 649.5001,-882.3896 656.5001,-882.3895"/>
</g>
<!-- gql_example_http_auth_link&#45;&gt;gql_http_link -->
<g id="edge35" class="edge">
<title>gql_example_http_auth_link&#45;&gt;gql_http_link</title>
<path fill="none" stroke="#ab8a09" d="M660.9454,-1120.1461C682.1175,-1071.6551 739.9865,-939.1163 765.1039,-881.5896"/>
<polygon fill="#ab8a09" stroke="#ab8a09" points="768.3269,-882.9546 769.1208,-872.3895 761.9117,-880.1536 768.3269,-882.9546"/>
</g>
<!-- gql_example_http_auth_link&#45;&gt;gql_error_link -->
<g id="edge33" class="edge">
<title>gql_example_http_auth_link&#45;&gt;gql_error_link</title>
<path fill="none" stroke="#5f79bc" d="M635.6996,-1120.1461C589.1227,-1071.1542 460.9819,-936.369 407.2309,-879.8309"/>
<polygon fill="#5f79bc" stroke="#5f79bc" points="409.5832,-877.2254 400.1564,-872.3895 404.51,-882.0486 409.5832,-877.2254"/>
</g>
<!-- gql_example_http_auth_link&#45;&gt;gql_build -->
<g id="edge37" class="edge">
<title>gql_example_http_auth_link&#45;&gt;gql_build</title>
<path fill="none" stroke="#3380b0" stroke-dasharray="5,2" d="M614.869,-1120.2803C533.9095,-1081.7448 339.145,-988.065 179,-903.3436 163.5191,-895.1537 146.707,-885.7963 132.0256,-877.4686"/>
<polygon fill="#3380b0" stroke="#3380b0" points="133.6122,-874.3444 123.1906,-872.4361 130.1475,-880.4269 133.6122,-874.3444"/>
</g>
<!-- gql_example_flutter -->
<g id="node13" class="node">
<title>gql_example_flutter</title>
<polygon fill="none" stroke="#671702" points="1051.5,-1156.3436 924.5,-1156.3436 924.5,-1120.3436 1051.5,-1120.3436 1051.5,-1156.3436"/>
<text text-anchor="middle" x="988" y="-1134.6436" font-family="Times,serif" font-size="14.00" fill="#000000">gql_example_flutter</text>
</g>
<!-- gql_example_flutter&#45;&gt;gql_pedantic -->
<g id="edge42" class="edge">
<title>gql_example_flutter&#45;&gt;gql_pedantic</title>
<path fill="none" stroke="#89da51" stroke-dasharray="5,2" d="M1001.6599,-1120.1308C1029.1254,-1082.2354 1090.2655,-991.1071 1112,-903.3436 1173.2388,-656.0632 1210.7254,-513.8519 1028,-336.3436 924.2232,-235.5298 476.6084,-151.6609 321.309,-125.1151"/>
<polygon fill="#89da51" stroke="#89da51" points="321.5197,-121.6008 311.0748,-123.3765 320.3473,-128.5019 321.5197,-121.6008"/>
</g>
<!-- gql_example_flutter&#45;&gt;gql -->
<g id="edge38" class="edge">
<title>gql_example_flutter&#45;&gt;gql</title>
<path fill="none" stroke="#68217c" d="M938.4766,-1120.292C930.9562,-1117.5995 923.2795,-1114.8786 916,-1112.3436 640.1911,-1016.2955 465.5051,-1139.0081 293,-903.3436 175.1688,-742.3707 246.64,-476.1717 274.4262,-390.1057"/>
<polygon fill="#68217c" stroke="#68217c" points="277.7787,-391.115 277.5826,-380.522 271.13,-388.9252 277.7787,-391.115"/>
</g>
<!-- gql_example_flutter&#45;&gt;gql_exec -->
<g id="edge41" class="edge">
<title>gql_example_flutter&#45;&gt;gql_exec</title>
<path fill="none" stroke="#5b9240" d="M998.7588,-1120.0055C1039.6508,-1047.7425 1178.538,-777.1127 1086,-582.3436 1038.6118,-482.6035 921.4295,-413.2083 858.1487,-381.6218"/>
<polygon fill="#5b9240" stroke="#5b9240" points="859.3654,-378.3202 848.8461,-377.0573 856.2819,-384.6045 859.3654,-378.3202"/>
</g>
<!-- gql_example_flutter&#45;&gt;gql_link -->
<g id="edge39" class="edge">
<title>gql_example_flutter&#45;&gt;gql_link</title>
<path fill="none" stroke="#7c0063" d="M993.7329,-1120.3346C1007.9903,-1072.4884 1041.4323,-938.854 1006,-836.3436 976.207,-750.1484 898.8953,-671.7334 856.2709,-633.2771"/>
<polygon fill="#7c0063" stroke="#7c0063" points="858.5314,-630.6035 848.7349,-626.5686 853.877,-635.832 858.5314,-630.6035"/>
</g>
<!-- gql_example_flutter&#45;&gt;gql_http_link -->
<g id="edge40" class="edge">
<title>gql_example_flutter&#45;&gt;gql_http_link</title>
<path fill="none" stroke="#ab8a09" d="M974.48,-1120.1461C938.23,-1071.3546 838.7595,-937.4701 796.4543,-880.5286"/>
<polygon fill="#ab8a09" stroke="#ab8a09" points="799.1807,-878.3293 790.4074,-872.3895 793.5617,-882.5039 799.1807,-878.3293"/>
</g>
<!-- gql_example_flutter&#45;&gt;gql_build -->
<g id="edge43" class="edge">
<title>gql_example_flutter&#45;&gt;gql_build</title>
<path fill="none" stroke="#3380b0" stroke-dasharray="5,2" d="M938.9111,-1120.2979C931.2606,-1117.5779 923.4307,-1114.8472 916,-1112.3436 762.8998,-1060.7588 283.4536,-913.1361 135.7541,-867.77"/>
<polygon fill="#3380b0" stroke="#3380b0" points="136.6933,-864.3972 126.1064,-864.8073 134.6383,-871.0888 136.6933,-864.3972"/>
</g>
<!-- gql_example_cli_github -->
<g id="node14" class="node">
<title>gql_example_cli_github</title>
<polygon fill="none" stroke="#9b3b01" points="906.5,-1156.3436 757.5,-1156.3436 757.5,-1120.3436 906.5,-1120.3436 906.5,-1156.3436"/>
<text text-anchor="middle" x="832" y="-1134.6436" font-family="Times,serif" font-size="14.00" fill="#000000">gql_example_cli_github</text>
</g>
<!-- gql_example_cli_github&#45;&gt;gql_pedantic -->
<g id="edge49" class="edge">
<title>gql_example_cli_github&#45;&gt;gql_pedantic</title>
<path fill="none" stroke="#89da51" stroke-dasharray="5,2" d="M857.3357,-1120.0855C904.5853,-1084.4523 1005.4749,-1000.5669 1051,-903.3436 1158.481,-673.8074 1175.924,-508.5971 990,-336.3436 889.3403,-243.0851 470.1385,-155.1701 320.9764,-126.2746"/>
<polygon fill="#89da51" stroke="#89da51" points="321.611,-122.8326 311.1294,-124.3769 320.2864,-129.7061 321.611,-122.8326"/>
</g>
<!-- gql_example_cli_github&#45;&gt;gql -->
<g id="edge44" class="edge">
<title>gql_example_cli_github&#45;&gt;gql</title>
<path fill="none" stroke="#68217c" d="M778.1229,-1120.2417C640.7627,-1073.5676 286.0848,-949.5678 255,-903.3436 143.6722,-737.795 236.7269,-475.198 271.9138,-390.0075"/>
<polygon fill="#68217c" stroke="#68217c" points="275.1607,-391.3151 275.8049,-380.7398 268.7065,-388.6052 275.1607,-391.3151"/>
</g>
<!-- gql_example_cli_github&#45;&gt;gql_exec -->
<g id="edge46" class="edge">
<title>gql_example_cli_github&#45;&gt;gql_exec</title>
<path fill="none" stroke="#5b9240" d="M851.0986,-1119.9521C921.7169,-1049.6393 1159.2097,-791.2949 1065,-582.3436 1022.3513,-487.7513 916.7027,-417.4725 857.6434,-384.0408"/>
<polygon fill="#5b9240" stroke="#5b9240" points="859.0209,-380.8018 848.5815,-378.9935 855.6147,-386.9172 859.0209,-380.8018"/>
</g>
<!-- gql_example_cli_github&#45;&gt;gql_link -->
<g id="edge45" class="edge">
<title>gql_example_cli_github&#45;&gt;gql_link</title>
<path fill="none" stroke="#7c0063" d="M853.3377,-1120.2395C904.1907,-1074.7717 1025.6455,-951.187 989,-836.3436 962.2225,-752.4255 892.0484,-672.9513 853.427,-633.7616"/>
<polygon fill="#7c0063" stroke="#7c0063" points="855.6888,-631.0734 846.1456,-626.4714 850.7361,-636.0201 855.6888,-631.0734"/>
</g>
<!-- gql_example_cli_github&#45;&gt;gql_transform_link -->
<g id="edge48" class="edge">
<title>gql_example_cli_github&#45;&gt;gql_transform_link</title>
<path fill="none" stroke="#21d185" d="M820.5304,-1120.1461C789.8412,-1071.4547 705.7394,-938.0195 669.7256,-880.8803"/>
<polygon fill="#21d185" stroke="#21d185" points="672.6671,-878.9832 664.374,-872.3895 666.7452,-882.7156 672.6671,-878.9832"/>
</g>
<!-- gql_example_cli_github&#45;&gt;gql_http_link -->
<g id="edge47" class="edge">
<title>gql_example_cli_github&#45;&gt;gql_http_link</title>
<path fill="none" stroke="#ab8a09" d="M828.4758,-1120.1461C819.1238,-1071.8555 793.6291,-940.2103 782.4154,-882.3066"/>
<polygon fill="#ab8a09" stroke="#ab8a09" points="785.8323,-881.5417 780.4948,-872.3895 778.96,-882.8726 785.8323,-881.5417"/>
</g>
<!-- gql_example_cli_github&#45;&gt;gql_build -->
<g id="edge50" class="edge">
<title>gql_example_cli_github&#45;&gt;gql_build</title>
<path fill="none" stroke="#3380b0" stroke-dasharray="5,2" d="M784.1005,-1120.2009C680.5316,-1080.9374 428.057,-985.0329 217,-903.3436 189.9658,-892.88 159.6977,-881.0187 135.7179,-871.5872"/>
<polygon fill="#3380b0" stroke="#3380b0" points="136.7764,-868.2425 126.1893,-867.8372 134.2129,-874.7562 136.7764,-868.2425"/>
</g>
<!-- gql_example_cli -->
<g id="node15" class="node">
<title>gql_example_cli</title>
<polygon fill="none" stroke="#18510b" points="1176.5,-1156.3436 1069.5,-1156.3436 1069.5,-1120.3436 1176.5,-1120.3436 1176.5,-1156.3436"/>
<text text-anchor="middle" x="1123" y="-1134.6436" font-family="Times,serif" font-size="14.00" fill="#000000">gql_example_cli</text>
</g>
<!-- gql_example_cli&#45;&gt;gql_pedantic -->
<g id="edge55" class="edge">
<title>gql_example_cli&#45;&gt;gql_pedantic</title>
<path fill="none" stroke="#89da51" stroke-dasharray="5,2" d="M1129.3614,-1120.0668C1162.6149,-1020.8473 1305.8875,-543.7499 1063,-336.3436 947.7763,-237.9519 479.8664,-151.9061 321.0402,-125.0208"/>
<polygon fill="#89da51" stroke="#89da51" points="321.4749,-121.5449 311.0326,-123.336 320.3127,-128.4477 321.4749,-121.5449"/>
</g>
<!-- gql_example_cli&#45;&gt;gql -->
<g id="edge51" class="edge">
<title>gql_example_cli&#45;&gt;gql</title>
<path fill="none" stroke="#68217c" d="M1081.9166,-1120.2969C1074.9894,-1117.4904 1067.8307,-1114.7332 1061,-1112.3436 739.2225,-999.7754 538.2537,-1167.6884 323,-903.3436 258.5245,-824.1637 275.3009,-490.8834 281.9359,-390.8488"/>
<polygon fill="#68217c" stroke="#68217c" points="285.4457,-390.8227 282.6345,-380.6077 278.4619,-390.3463 285.4457,-390.8227"/>
</g>
<!-- gql_example_cli&#45;&gt;gql_exec -->
<g id="edge53" class="edge">
<title>gql_example_cli&#45;&gt;gql_exec</title>
<path fill="none" stroke="#5b9240" d="M1127.7924,-1120.1512C1145.9369,-1047.3196 1204.5927,-771.5938 1107,-582.3436 1053.1877,-477.9916 924.7128,-409.4059 857.9283,-379.5078"/>
<polygon fill="#5b9240" stroke="#5b9240" points="859.1016,-376.2003 848.5388,-375.3777 856.2831,-382.6078 859.1016,-376.2003"/>
</g>
<!-- gql_example_cli&#45;&gt;gql_link -->
<g id="edge52" class="edge">
<title>gql_example_cli&#45;&gt;gql_link</title>
<path fill="none" stroke="#7c0063" d="M1119.8612,-1120.2953C1110.883,-1071.7934 1082.0643,-935.5958 1026,-836.3436 978.8068,-752.796 897.6681,-672.4144 855.0371,-633.2033"/>
<polygon fill="#7c0063" stroke="#7c0063" points="857.2896,-630.5207 847.5419,-626.3694 852.5733,-635.6933 857.2896,-630.5207"/>
</g>
<!-- gql_example_cli&#45;&gt;gql_http_link -->
<g id="edge54" class="edge">
<title>gql_example_cli&#45;&gt;gql_http_link</title>
<path fill="none" stroke="#ab8a09" d="M1099.5288,-1120.2194C1049.443,-1081.378 928.6915,-986.8504 831,-903.3436 822.159,-895.7863 812.7087,-887.3423 804.2251,-879.6213"/>
<polygon fill="#ab8a09" stroke="#ab8a09" points="806.4907,-876.9503 796.751,-872.7801 801.7644,-882.1138 806.4907,-876.9503"/>
</g>
<!-- gql_example_cli&#45;&gt;gql_build -->
<g id="edge56" class="edge">
<title>gql_example_cli&#45;&gt;gql_build</title>
<path fill="none" stroke="#3380b0" stroke-dasharray="5,2" d="M1082.2838,-1120.3394C1075.249,-1117.4969 1067.9598,-1114.717 1061,-1112.3436 880.7436,-1050.8734 300.7975,-906.0196 136.0312,-865.2131"/>
<polygon fill="#3380b0" stroke="#3380b0" points="136.7835,-861.7938 126.2355,-862.7886 135.1016,-868.5887 136.7835,-861.7938"/>
</g>
<!-- gql_example_build -->
<g id="node16" class="node">
<title>gql_example_build</title>
<polygon fill="none" stroke="#628320" points="1317,-1156.3436 1195,-1156.3436 1195,-1120.3436 1317,-1120.3436 1317,-1156.3436"/>
<text text-anchor="middle" x="1256" y="-1134.6436" font-family="Times,serif" font-size="14.00" fill="#000000">gql_example_build</text>
</g>
<!-- gql_example_build&#45;&gt;gql_pedantic -->
<g id="edge57" class="edge">
<title>gql_example_build&#45;&gt;gql_pedantic</title>
<path fill="none" stroke="#89da51" stroke-dasharray="5,2" d="M1259.472,-1120.1991C1277.16,-1021.6755 1347.1441,-547.6399 1101,-336.3436 980.3646,-232.7871 485.673,-149.513 321.344,-124.2453"/>
<polygon fill="#89da51" stroke="#89da51" points="321.4192,-120.7162 311.0052,-122.6652 320.3616,-127.6358 321.4192,-120.7162"/>
</g>
<!-- gql_example_build&#45;&gt;gql_build -->
<g id="edge58" class="edge">
<title>gql_example_build&#45;&gt;gql_build</title>
<path fill="none" stroke="#3380b0" stroke-dasharray="5,2" d="M1209.9618,-1120.3229C1202.0271,-1117.4823 1193.8178,-1114.7074 1186,-1112.3436 979.5201,-1049.9129 313.7525,-902.8928 135.9806,-863.949"/>
<polygon fill="#3380b0" stroke="#3380b0" points="136.7033,-860.5244 126.1861,-861.8046 135.2061,-867.3624 136.7033,-860.5244"/>
</g>
<!-- gql_dedupe_link -->
<g id="node17" class="node">
<title>gql_dedupe_link</title>
<polygon fill="none" stroke="#cf6bf6" points="946.5,-872.3436 839.5,-872.3436 839.5,-836.3436 946.5,-836.3436 946.5,-872.3436"/>
<text text-anchor="middle" x="893" y="-850.6436" font-family="Times,serif" font-size="14.00" fill="#000000">gql_dedupe_link</text>
</g>
<!-- gql_dedupe_link&#45;&gt;gql_pedantic -->
<g id="edge62" class="edge">
<title>gql_dedupe_link&#45;&gt;gql_pedantic</title>
<path fill="none" stroke="#89da51" stroke-dasharray="5,2" d="M877.5505,-836.1008C793.2907,-736.6069 389.3735,-259.6614 290.0829,-142.419"/>
<polygon fill="#89da51" stroke="#89da51" points="292.6026,-139.9786 283.469,-134.6094 287.2608,-144.5024 292.6026,-139.9786"/>
</g>
<!-- gql_dedupe_link&#45;&gt;gql -->
<g id="edge61" class="edge">
<title>gql_dedupe_link&#45;&gt;gql</title>
<path fill="none" stroke="#68217c" stroke-dasharray="5,2" d="M870.6031,-836.2496C777.5338,-761.0606 421.2309,-473.2099 314.4306,-386.9279"/>
<polygon fill="#68217c" stroke="#68217c" points="316.5787,-384.1639 306.6005,-380.6021 312.1797,-389.609 316.5787,-384.1639"/>
</g>
<!-- gql_dedupe_link&#45;&gt;gql_exec -->
<g id="edge59" class="edge">
<title>gql_dedupe_link&#45;&gt;gql_exec</title>
<path fill="none" stroke="#5b9240" d="M892.0924,-836.0928C889.7263,-792.1632 882.4509,-677.1537 867,-582.3436 855.6053,-512.4233 834.889,-431.6069 823.6862,-390.1076"/>
<polygon fill="#5b9240" stroke="#5b9240" points="827.057,-389.165 821.0544,-380.4347 820.3025,-391.0028 827.057,-389.165"/>
</g>
<!-- gql_dedupe_link&#45;&gt;gql_link -->
<g id="edge60" class="edge">
<title>gql_dedupe_link&#45;&gt;gql_link</title>
<path fill="none" stroke="#7c0063" d="M888.1469,-836.2546C876.7281,-793.6939 848.0996,-686.9876 834.4562,-636.1348"/>
<polygon fill="#7c0063" stroke="#7c0063" points="837.8321,-635.2105 831.8603,-626.4591 831.0712,-637.0245 837.8321,-635.2105"/>
</g>
<!-- end_to_end_test -->
<g id="node18" class="node">
<title>end_to_end_test</title>
<polygon fill="none" stroke="#97b336" points="125.5,-1156.3436 20.5,-1156.3436 20.5,-1120.3436 125.5,-1120.3436 125.5,-1156.3436"/>
<text text-anchor="middle" x="73" y="-1134.6436" font-family="Times,serif" font-size="14.00" fill="#000000">end_to_end_test</text>
</g>
<!-- end_to_end_test&#45;&gt;gql_exec -->
<g id="edge65" class="edge">
<title>end_to_end_test&#45;&gt;gql_exec</title>
<path fill="none" stroke="#5b9240" d="M125.6949,-1132.5951C299.8976,-1112.4056 852.0721,-1038.5482 956,-903.3436 1082.329,-738.9963 900.263,-472.13 836.5868,-388.3551"/>
<polygon fill="#5b9240" stroke="#5b9240" points="839.3302,-386.1809 830.4624,-380.3832 833.7791,-390.4455 839.3302,-386.1809"/>
</g>
<!-- end_to_end_test&#45;&gt;gql_code_builder -->
<g id="edge64" class="edge">
<title>end_to_end_test&#45;&gt;gql_code_builder</title>
<path fill="none" stroke="#1da059" d="M69.96,-1120.3276C62.415,-1073.5405 43.8035,-944.3031 49,-836.3436 52.4722,-764.2062 62.0898,-679.6746 67.3861,-636.6382"/>
<polygon fill="#1da059" stroke="#1da059" points="70.8706,-636.9795 68.6332,-626.6236 63.9242,-636.1145 70.8706,-636.9795"/>
</g>
<!-- end_to_end_test&#45;&gt;gql_build -->
<g id="edge63" class="edge">
<title>end_to_end_test&#45;&gt;gql_build</title>
<path fill="none" stroke="#3380b0" d="M74.2174,-1120.1461C77.4414,-1071.9557 86.2189,-940.7562 90.1051,-882.6679"/>
<polygon fill="#3380b0" stroke="#3380b0" points="93.6173,-882.6009 90.7927,-872.3895 86.6329,-882.1336 93.6173,-882.6009"/>
</g>
</g>
</svg>
