<?xml version="1.0" encoding="UTF-8" standalone="no"?>
<!DOCTYPE svg PUBLIC "-//W3C//DTD SVG 1.1//EN"
 "http://www.w3.org/Graphics/SVG/1.1/DTD/svg11.dtd">
<!-- Generated by graphviz version 2.40.1 (20161225.0304)
 -->
<!-- Title: packages Pages: 1 -->
<svg width="720pt" height="720pt"
 viewBox="0.00 0.00 720.00 720.00" xmlns="http://www.w3.org/2000/svg" xmlns:xlink="http://www.w3.org/1999/xlink">
<g id="graph0" class="graph" transform="scale(.414 .414) rotate(0) translate(4 1735)">
<title>packages</title>
<polygon fill="#ffffff" stroke="transparent" points="-4,4 -4,-1735 1735,-1735 1735,4 -4,4"/>
<g id="clust1" class="cluster">
<title>cluster </title>
<polygon fill="none" stroke="#a473ff" points="188,-35.5077 188,-585.8769 386,-585.8769 386,-35.5077 188,-35.5077"/>
</g>
<g id="clust2" class="cluster">
<title>cluster links</title>
<polygon fill="none" stroke="#e2446b" points="394,-355.0769 394,-1327.1 1276,-1327.1 1276,-355.0769 394,-355.0769"/>
<text text-anchor="middle" x="835" y="-1311.9" font-family="Times,serif" font-size="14.00" fill="#000000">links</text>
</g>
<g id="clust3" class="cluster">
<title>cluster codegen</title>
<polygon fill="none" stroke="#856663" points="8,-674.6462 8,-1695.4923 164,-1695.4923 164,-674.6462 8,-674.6462"/>
<text text-anchor="middle" x="86" y="-1680.2923" font-family="Times,serif" font-size="14.00" fill="#000000">codegen</text>
</g>
<g id="clust4" class="cluster">
<title>cluster examples</title>
<polygon fill="none" stroke="#e8f445" points="602,-1362.6077 602,-1695.4923 1723,-1695.4923 1723,-1362.6077 602,-1362.6077"/>
<text text-anchor="middle" x="1162.5" y="-1680.2923" font-family="Times,serif" font-size="14.00" fill="#000000">examples</text>
</g>
<!-- gql_pedantic -->
<g id="node1" class="node">
<title>gql_pedantic</title>
<polygon fill="none" stroke="#89da51" points="377.5,-168.5077 268.5,-168.5077 268.5,-132.5077 377.5,-132.5077 377.5,-168.5077"/>
<text text-anchor="middle" x="323" y="-146.8077" font-family="Times,serif" font-size="14.00" fill="#000000">gql_pedantic</text>
</g>
<!-- cats -->
<g id="node2" class="node">
<title>cats</title>
<polygon fill="none" stroke="#e2592e" points="250,-168.5077 196,-168.5077 196,-132.5077 250,-132.5077 250,-168.5077"/>
<text text-anchor="middle" x="223" y="-146.8077" font-family="Times,serif" font-size="14.00" fill="#000000">cats</text>
</g>
<!-- gql -->
<g id="node3" class="node">
<title>gql</title>
<polygon fill="none" stroke="#68217c" points="378,-488.5077 324,-488.5077 324,-452.5077 378,-452.5077 378,-488.5077"/>
<text text-anchor="middle" x="351" y="-466.8077" font-family="Times,serif" font-size="14.00" fill="#000000">gql</text>
</g>
<!-- gql&#45;&gt;gql_pedantic -->
<g id="edge1" class="edge">
<title>gql&#45;&gt;gql_pedantic</title>
<path fill="none" stroke="#89da51" stroke-dasharray="5,2" d="M349.4144,-452.3862C344.7665,-399.2679 331.1488,-243.6367 325.5,-179.0793"/>
<polygon fill="#89da51" stroke="#89da51" points="328.9614,-178.4839 324.6029,-168.827 321.988,-179.0941 328.9614,-178.4839"/>
</g>
<!-- gql&#45;&gt;cats -->
<g id="edge2" class="edge">
<title>gql&#45;&gt;cats</title>
<path fill="none" stroke="#e2592e" stroke-dasharray="5,2" d="M343.7514,-452.3862C322.4163,-399.0484 259.7364,-242.3487 234.1104,-178.2837"/>
<polygon fill="#e2592e" stroke="#e2592e" points="237.2914,-176.8119 230.3277,-168.827 230.792,-179.4117 237.2914,-176.8119"/>
</g>
<!-- gql_exec -->
<g id="node4" class="node">
<title>gql_exec</title>
<polygon fill="none" stroke="#5b9240" points="1104,-488.5077 1024,-488.5077 1024,-452.5077 1104,-452.5077 1104,-488.5077"/>
<text text-anchor="middle" x="1064" y="-466.8077" font-family="Times,serif" font-size="14.00" fill="#000000">gql_exec</text>
</g>
<!-- gql_exec&#45;&gt;gql_pedantic -->
<g id="edge4" class="edge">
<title>gql_exec&#45;&gt;gql_pedantic</title>
<path fill="none" stroke="#89da51" stroke-dasharray="5,2" d="M1025.5083,-452.4566C1019.6555,-449.7641 1013.6766,-447.043 1008,-444.5077 773.5359,-339.7897 491.0124,-220.7798 375.7858,-172.543"/>
<polygon fill="#89da51" stroke="#89da51" points="377.0453,-169.276 366.4693,-168.6445 374.3432,-175.7335 377.0453,-169.276"/>
</g>
<!-- gql_exec&#45;&gt;gql -->
<g id="edge3" class="edge">
<title>gql_exec&#45;&gt;gql</title>
<path fill="none" stroke="#68217c" d="M1023.8138,-470.5077C811.9571,-470.5077 600.1004,-470.5077 388.2437,-470.5077"/>
<polygon fill="#68217c" stroke="#68217c" points="388.1553,-467.0078 378.1553,-470.5077 388.1552,-474.0078 388.1553,-467.0078"/>
</g>
<!-- gql_link -->
<g id="node5" class="node">
<title>gql_link</title>
<polygon fill="none" stroke="#7c0063" points="1129,-808.5077 1055,-808.5077 1055,-772.5077 1129,-772.5077 1129,-808.5077"/>
<text text-anchor="middle" x="1092" y="-786.8077" font-family="Times,serif" font-size="14.00" fill="#000000">gql_link</text>
</g>
<!-- gql_link&#45;&gt;gql_pedantic -->
<g id="edge7" class="edge">
<title>gql_link&#45;&gt;gql_pedantic</title>
<path fill="none" stroke="#89da51" stroke-dasharray="5,2" d="M1088.6542,-772.2071C1077.5258,-716.1164 1036.8307,-544.3622 940,-444.5077 780.5153,-280.0426 510.6438,-196.4256 387.6054,-165.2551"/>
<polygon fill="#89da51" stroke="#89da51" points="388.1328,-161.7793 377.5826,-162.7499 386.4354,-168.5704 388.1328,-161.7793"/>
</g>
<!-- gql_link&#45;&gt;gql -->
<g id="edge5" class="edge">
<title>gql_link&#45;&gt;gql</title>
<path fill="none" stroke="#68217c" d="M1054.6941,-777.7493C948.0064,-740.6635 633.6514,-627.1912 390,-496.5077 388.4716,-495.688 386.9275,-494.8245 385.3807,-493.9303"/>
<polygon fill="#68217c" stroke="#68217c" points="386.9448,-490.7846 376.5855,-488.5629 383.2982,-496.7598 386.9448,-490.7846"/>
</g>
<!-- gql_link&#45;&gt;gql_exec -->
<g id="edge6" class="edge">
<title>gql_link&#45;&gt;gql_exec</title>
<path fill="none" stroke="#5b9240" d="M1090.4144,-772.3862C1085.7665,-719.2679 1072.1488,-563.6367 1066.5,-499.0793"/>
<polygon fill="#5b9240" stroke="#5b9240" points="1069.9614,-498.4839 1065.6029,-488.827 1062.988,-499.0941 1069.9614,-498.4839"/>
</g>
<!-- gql_websocket_link -->
<g id="node6" class="node">
<title>gql_websocket_link</title>
<polygon fill="none" stroke="#bb5677" points="866,-1127.5077 708,-1127.5077 708,-1091.5077 866,-1091.5077 866,-1127.5077"/>
<text text-anchor="middle" x="787" y="-1105.8077" font-family="Times,serif" font-size="14.00" fill="#000000">gql_websocket_link</text>
</g>
<!-- gql_websocket_link&#45;&gt;gql_pedantic -->
<g id="edge11" class="edge">
<title>gql_websocket_link&#45;&gt;gql_pedantic</title>
<path fill="none" stroke="#89da51" stroke-dasharray="5,2" d="M778.1453,-1091.2067C721.0678,-973.2384 405.2221,-320.4451 336.2893,-177.9741"/>
<polygon fill="#89da51" stroke="#89da51" points="339.2658,-176.0898 331.7598,-168.6125 332.9646,-179.1386 339.2658,-176.0898"/>
</g>
<!-- gql_websocket_link&#45;&gt;gql -->
<g id="edge8" class="edge">
<title>gql_websocket_link&#45;&gt;gql</title>
<path fill="none" stroke="#68217c" d="M774.6537,-1091.413C713.3909,-1001.6265 442.0864,-604.0036 369.1209,-497.0656"/>
<polygon fill="#68217c" stroke="#68217c" points="371.9738,-495.0369 363.4465,-488.7492 366.1916,-498.9823 371.9738,-495.0369"/>
</g>
<!-- gql_websocket_link&#45;&gt;gql_exec -->
<g id="edge9" class="edge">
<title>gql_websocket_link&#45;&gt;gql_exec</title>
<path fill="none" stroke="#5b9240" d="M801.8168,-1091.3834C837.886,-1046.3697 930.9576,-924.707 981,-808.5077 1028.0242,-699.3166 1051.7937,-558.311 1060.2771,-498.8934"/>
<polygon fill="#5b9240" stroke="#5b9240" points="1063.7734,-499.1613 1061.6854,-488.7743 1056.8402,-498.1964 1063.7734,-499.1613"/>
</g>
<!-- gql_websocket_link&#45;&gt;gql_link -->
<g id="edge10" class="edge">
<title>gql_websocket_link&#45;&gt;gql_link</title>
<path fill="none" stroke="#7c0063" d="M804.272,-1091.4429C855.6326,-1037.7247 1007.5476,-878.8366 1067.3824,-816.2553"/>
<polygon fill="#7c0063" stroke="#7c0063" points="1070.1584,-818.4165 1074.5394,-808.7698 1065.0989,-813.579 1070.1584,-818.4165"/>
</g>
<!-- gql_transform_link -->
<g id="node7" class="node">
<title>gql_transform_link</title>
<polygon fill="none" stroke="#21d185" points="690,-1127.5077 538,-1127.5077 538,-1091.5077 690,-1091.5077 690,-1127.5077"/>
<text text-anchor="middle" x="614" y="-1105.8077" font-family="Times,serif" font-size="14.00" fill="#000000">gql_transform_link</text>
</g>
<!-- gql_transform_link&#45;&gt;gql_pedantic -->
<g id="edge15" class="edge">
<title>gql_transform_link&#45;&gt;gql_pedantic</title>
<path fill="none" stroke="#89da51" stroke-dasharray="5,2" d="M608.4467,-1091.2067C572.6861,-973.3564 374.962,-321.7501 331.4646,-178.403"/>
<polygon fill="#89da51" stroke="#89da51" points="334.7467,-177.1653 328.4937,-168.6125 328.0483,-179.1979 334.7467,-177.1653"/>
</g>
<!-- gql_transform_link&#45;&gt;gql -->
<g id="edge14" class="edge">
<!-- gql_dedupe_link&#45;&gt;gql -->
<g id="edge69" class="edge">
<title>gql_dedupe_link&#45;&gt;gql</title>
<path fill="none" stroke="#68217c" stroke-dasharray="5,2" d="M1176.9304,-1091.413C1056.6567,-1000.9955 521.1218,-598.3993 383.3857,-494.8542"/>
<polygon fill="#68217c" stroke="#68217c" points="385.3614,-491.9606 375.2649,-488.7492 381.155,-497.5559 385.3614,-491.9606"/>
</g>
<!-- gql_dedupe_link&#45;&gt;gql_exec -->
<g id="edge67" class="edge">
<title>gql_dedupe_link&#45;&gt;gql_exec</title>
<path fill="none" stroke="#5b9240" d="M1198.1369,-1091.4666C1189.8955,-1040.1204 1164.9747,-888.8681 1138,-764.5077 1116.6541,-666.0977 1085.8832,-550.5749 1071.6967,-498.4813"/>
<polygon fill="#5b9240" stroke="#5b9240" points="1075.0209,-497.3682 1069.0093,-488.644 1068.2684,-499.2129 1075.0209,-497.3682"/>
</g>
<!-- gql_dedupe_link&#45;&gt;gql_link -->
<g id="edge68" class="edge">
<title>gql_dedupe_link&#45;&gt;gql_link</title>
<path fill="none" stroke="#7c0063" d="M1194.8274,-1091.4429C1176.6966,-1038.3811 1123.5029,-882.7041 1101.5963,-818.5923"/>
<polygon fill="#7c0063" stroke="#7c0063" points="1104.7855,-817.1009 1098.24,-808.7698 1098.1615,-819.3643 1104.7855,-817.1009"/>
</g>
<!-- end_to_end_test -->
<g id="node20" class="node">
<title>end_to_end_test</title>
<polygon fill="none" stroke="#97b336" points="156,-1496.5077 22,-1496.5077 22,-1460.5077 156,-1460.5077 156,-1496.5077"/>
<text text-anchor="middle" x="89" y="-1474.8077" font-family="Times,serif" font-size="14.00" fill="#000000">end_to_end_test</text>
</g>
<!-- end_to_end_test&#45;&gt;gql_exec -->
<g id="edge71" class="edge">
<title>end_to_end_test&#45;&gt;gql_exec</title>
<path fill="none" stroke="#5b9240" d="M156.271,-1470.9705C386.5304,-1443.6602 1136.6045,-1341.7242 1277,-1158.5077 1361.4296,-1048.3268 1139.187,-611.7457 1078.7171,-497.8173"/>
<polygon fill="#5b9240" stroke="#5b9240" points="1081.6464,-495.872 1073.8537,-488.694 1075.4693,-499.1649 1081.6464,-495.872"/>
</g>
<!-- end_to_end_test&#45;&gt;gql_code_builder -->
<g id="edge73" class="edge">
<title>end_to_end_test&#45;&gt;gql_code_builder</title>
<path fill="none" stroke="#1da059" d="M86.4241,-1460.393C78.859,-1405.1363 57.5705,-1233.8261 63,-1091.5077 66.8319,-991.0665 77.8311,-872.1828 83.108,-818.8626"/>
<polygon fill="#1da059" stroke="#1da059" points="86.6014,-819.1018 84.1129,-808.8034 79.6361,-818.4059 86.6014,-819.1018"/>
</g>
<!-- end_to_end_test&#45;&gt;gql_build -->
<g id="edge72" class="edge">
<title>end_to_end_test&#45;&gt;gql_build</title>
<path fill="none" stroke="#3380b0" d="M90.2227,-1460.4603C94.2602,-1400.8664 107.1878,-1210.056 112.0903,-1137.6942"/>
<polygon fill="#3380b0" stroke="#3380b0" points="115.5956,-1137.7341 112.7796,-1127.5204 108.6116,-1137.2609 115.5956,-1137.7341"/>
</g>
</g>
</svg>