<?xml version="1.0" encoding="UTF-8" standalone="no"?>
<!DOCTYPE svg PUBLIC "-//W3C//DTD SVG 1.1//EN"
 "http://www.w3.org/Graphics/SVG/1.1/DTD/svg11.dtd">
<!-- Generated by graphviz version 5.0.0 (20220707.1540)
 -->
<!-- Title: packages Pages: 1 -->
<svg width="720pt" height="653pt"
 viewBox="0.00 0.00 720.00 652.78" xmlns="http://www.w3.org/2000/svg" xmlns:xlink="http://www.w3.org/1999/xlink">
<g id="graph0" class="graph" transform="scale(0.467944 0.467944) rotate(0) translate(4 1391)">
<title>packages</title>
<polygon fill="white" stroke="transparent" points="-4,4 -4,-1391 1534.64,-1391 1534.64,4 -4,4"/>
<g id="clust4" class="cluster">
<title>cluster examples</title>
<polygon fill="none" stroke="#e8f445" points="454,-1091.82 454,-1358.55 1379,-1358.55 1379,-1091.82 454,-1091.82"/>
<text text-anchor="middle" x="916.5" y="-1343.35" font-family="Times,serif" font-size="14.00">examples</text>
</g>
<g id="clust3" class="cluster">
<title>cluster codegen</title>
<polygon fill="none" stroke="#856663" points="8,-540.57 8,-1358.55 136,-1358.55 136,-540.57 8,-540.57"/>
<text text-anchor="middle" x="72" y="-1343.35" font-family="Times,serif" font-size="14.00">codegen</text>
</g>
<g id="clust2" class="cluster">
<title>cluster links</title>
<polygon fill="none" stroke="#e2446b" points="366,-284.51 366,-1063.37 1099,-1063.37 1099,-284.51 366,-284.51"/>
<text text-anchor="middle" x="732.5" y="-1048.17" font-family="Times,serif" font-size="14.00">links</text>
</g>
<g id="clust1" class="cluster">
<title>cluster </title>
<polygon fill="none" stroke="#a473ff" points="256,-28.45 256,-469.45 358,-469.45 358,-28.45 256,-28.45"/>
</g>
<!-- gql_pedantic -->
<g id="node1" class="node">
<title>gql_pedantic</title>
<polygon fill="none" stroke="#89da51" points="350,-138.45 264,-138.45 264,-102.45 350,-102.45 350,-138.45"/>
<text text-anchor="middle" x="307" y="-116.75" font-family="Times,serif" font-size="14.00">gql_pedantic</text>
</g>
<!-- gql -->
<g id="node2" class="node">
<title>gql</title>
<polygon fill="none" stroke="#68217c" points="350,-395.45 296,-395.45 296,-359.45 350,-359.45 350,-395.45"/>
<text text-anchor="middle" x="323" y="-373.75" font-family="Times,serif" font-size="14.00">gql</text>
</g>
<!-- gql&#45;&gt;gql_pedantic -->
<g id="edge1" class="edge">
<title>gql&#45;&gt;gql_pedantic</title>
<path fill="none" stroke="#89da51" stroke-dasharray="5,2" d="M321.93,-359.32C319.2,-315.95 312.02,-201.51 308.71,-148.77"/>
<polygon fill="#89da51" stroke="#89da51" points="312.19,-148.27 308.07,-138.5 305.2,-148.7 312.19,-148.27"/>
</g>
<!-- gql_exec -->
<g id="node3" class="node">
<title>gql_exec</title>
<polygon fill="none" stroke="#5b9240" points="968.5,-395.45 903.5,-395.45 903.5,-359.45 968.5,-359.45 968.5,-395.45"/>
<text text-anchor="middle" x="936" y="-373.75" font-family="Times,serif" font-size="14.00">gql_exec</text>
</g>
<!-- gql_exec&#45;&gt;gql_pedantic -->
<g id="edge3" class="edge">
<title>gql_exec&#45;&gt;gql_pedantic</title>
<path fill="none" stroke="#89da51" stroke-dasharray="5,2" d="M903.43,-360.37C897.02,-357.33 890.33,-354.23 884,-351.45 693.17,-267.66 461.62,-179.3 359.59,-141.02"/>
<polygon fill="#89da51" stroke="#89da51" points="360.72,-137.71 350.13,-137.48 358.26,-144.26 360.72,-137.71"/>
</g>
<!-- gql_exec&#45;&gt;gql -->
<g id="edge2" class="edge">
<title>gql_exec&#45;&gt;gql</title>
<path fill="none" stroke="#68217c" d="M903.39,-377.45C722.43,-377.45 541.47,-377.45 360.5,-377.45"/>
<polygon fill="#68217c" stroke="#68217c" points="360.24,-373.95 350.24,-377.45 360.24,-380.95 360.24,-373.95"/>
</g>
<!-- gql_link -->
<g id="node4" class="node">
<title>gql_link</title>
<polygon fill="none" stroke="#7c0063" points="992,-651.45 930,-651.45 930,-615.45 992,-615.45 992,-651.45"/>
<text text-anchor="middle" x="961" y="-629.75" font-family="Times,serif" font-size="14.00">gql_link</text>
</g>
<!-- gql_link&#45;&gt;gql_pedantic -->
<g id="edge6" class="edge">
<title>gql_link&#45;&gt;gql_pedantic</title>
<path fill="none" stroke="#89da51" stroke-dasharray="5,2" d="M956.45,-615.16C942.99,-567.09 899.01,-430.26 816,-351.45 680.53,-222.84 460.73,-157.55 360.22,-133.11"/>
<polygon fill="#89da51" stroke="#89da51" points="360.83,-129.66 350.29,-130.74 359.2,-136.47 360.83,-129.66"/>
</g>
<!-- gql_link&#45;&gt;gql -->
<g id="edge4" class="edge">
<title>gql_link&#45;&gt;gql</title>
<path fill="none" stroke="#68217c" d="M929.82,-623.04C839.44,-595.21 570.45,-508.71 362,-403.45 360.28,-402.58 358.53,-401.65 356.79,-400.69"/>
<polygon fill="#68217c" stroke="#68217c" points="358.55,-397.66 348.15,-395.63 355.01,-403.7 358.55,-397.66"/>
</g>
<!-- gql_link&#45;&gt;gql_exec -->
<g id="edge5" class="edge">
<title>gql_link&#45;&gt;gql_exec</title>
<path fill="none" stroke="#5b9240" d="M959.32,-615.39C955.08,-572.3 943.9,-458.74 938.72,-406.05"/>
<polygon fill="#5b9240" stroke="#5b9240" points="942.17,-405.38 937.7,-395.77 935.2,-406.07 942.17,-405.38"/>
</g>
<!-- gql_websocket_link -->
<g id="node5" class="node">
<title>gql_websocket_link</title>
<polygon fill="none" stroke="#bb5677" points="1090.5,-907.45 965.5,-907.45 965.5,-871.45 1090.5,-871.45 1090.5,-907.45"/>
<text text-anchor="middle" x="1028" y="-885.75" font-family="Times,serif" font-size="14.00">gql_websocket_link</text>
</g>
<!-- gql_websocket_link&#45;&gt;gql_pedantic -->
<g id="edge10" class="edge">
<title>gql_websocket_link&#45;&gt;gql_pedantic</title>
<path fill="none" stroke="#89da51" stroke-dasharray="5,2" d="M1011.93,-871.36C918.09,-771.53 441.32,-264.34 330.18,-146.11"/>
<polygon fill="#89da51" stroke="#89da51" points="332.51,-143.48 323.11,-138.59 327.41,-148.27 332.51,-143.48"/>
</g>
<!-- gql_websocket_link&#45;&gt;gql -->
<g id="edge7" class="edge">
<title>gql_websocket_link&#45;&gt;gql</title>
<path fill="none" stroke="#68217c" d="M1004.14,-871.19C898.79,-794.98 475.23,-488.58 354.98,-401.59"/>
<polygon fill="#68217c" stroke="#68217c" points="357.01,-398.73 346.85,-395.71 352.91,-404.4 357.01,-398.73"/>
</g>
<!-- gql_websocket_link&#45;&gt;gql_exec -->
<g id="edge8" class="edge">
<title>gql_websocket_link&#45;&gt;gql_exec</title>
<path fill="none" stroke="#5b9240" d="M1027.43,-871.19C1025.72,-826.98 1019.6,-706.18 1001,-607.45 986.97,-532.97 959.69,-447.69 945.34,-405.3"/>
<polygon fill="#5b9240" stroke="#5b9240" points="948.61,-404.05 942.07,-395.72 941.99,-406.31 948.61,-404.05"/>
</g>
<!-- gql_websocket_link&#45;&gt;gql_link -->
<g id="edge9" class="edge">
<title>gql_websocket_link&#45;&gt;gql_link</title>
<path fill="none" stroke="#7c0063" d="M1023.5,-871.39C1012.11,-828.21 982.05,-714.27 968.19,-661.72"/>
<polygon fill="#7c0063" stroke="#7c0063" points="971.5,-660.55 965.57,-651.77 964.74,-662.33 971.5,-660.55"/>
</g>
<!-- gql_transform_link -->
<g id="node6" class="node">
<title>gql_transform_link</title>
<polygon fill="none" stroke="#21d185" points="610,-907.45 488,-907.45 488,-871.45 610,-871.45 610,-907.45"/>
<text text-anchor="middle" x="549" y="-885.75" font-family="Times,serif" font-size="14.00">gql_transform_link</text>
</g>
<!-- gql_transform_link&#45;&gt;gql_pedantic -->
<g id="edge14" class="edge">
<title>gql_transform_link&#45;&gt;gql_pedantic</title>
<path fill="none" stroke="#89da51" stroke-dasharray="5,2" d="M543.61,-871.36C512.3,-772.13 354,-270.41 315.46,-148.28"/>
<polygon fill="#89da51" stroke="#89da51" points="318.75,-147.07 312.41,-138.59 312.08,-149.18 318.75,-147.07"/>
</g>
<!-- gql_transform_link&#45;&gt;gql -->
<g id="edge13" class="edge">
<title>gql_transform_link&#45;&gt;gql</title>
<path fill="none" stroke="#68217c" stroke-dasharray="5,2" d="M541.35,-871.19C508.02,-795.97 375.31,-496.5 334.8,-405.09"/>
<polygon fill="#68217c" stroke="#68217c" points="337.9,-403.43 330.65,-395.71 331.5,-406.27 337.9,-403.43"/>
</g>
<!-- gql_transform_link&#45;&gt;gql_exec -->
<g id="edge11" class="edge">
<title>gql_transform_link&#45;&gt;gql_exec</title>
<path fill="none" stroke="#5b9240" d="M579.05,-871.22C636.76,-836.69 763.77,-753.52 836,-651.45 850.85,-630.47 905.36,-470.09 927.03,-405.39"/>
<polygon fill="#5b9240" stroke="#5b9240" points="930.48,-406.11 930.33,-395.51 923.84,-403.89 930.48,-406.11"/>
</g>
<!-- gql_transform_link&#45;&gt;gql_link -->
<g id="edge12" class="edge">
<title>gql_transform_link&#45;&gt;gql_link</title>
<path fill="none" stroke="#7c0063" d="M576.67,-871.39C648.86,-826.89 842.9,-707.26 924.28,-657.09"/>
<polygon fill="#7c0063" stroke="#7c0063" points="926.5,-659.83 933.18,-651.6 922.83,-653.87 926.5,-659.83"/>
</g>
<!-- gql_http_link -->
<g id="node7" class="node">
<title>gql_http_link</title>
<polygon fill="none" stroke="#ab8a09" points="717.5,-907.45 628.5,-907.45 628.5,-871.45 717.5,-871.45 717.5,-907.45"/>
<text text-anchor="middle" x="673" y="-885.75" font-family="Times,serif" font-size="14.00">gql_http_link</text>
</g>
<!-- gql_http_link&#45;&gt;gql_pedantic -->
<g id="edge18" class="edge">
<title>gql_http_link&#45;&gt;gql_pedantic</title>
<path fill="none" stroke="#89da51" stroke-dasharray="5,2" d="M664.84,-871.36C617.45,-772.03 377.6,-269.4 319.63,-147.91"/>
<polygon fill="#89da51" stroke="#89da51" points="322.64,-146.11 315.18,-138.59 316.33,-149.12 322.64,-146.11"/>
</g>
<!-- gql_http_link&#45;&gt;gql -->
<g id="edge15" class="edge">
<title>gql_http_link&#45;&gt;gql</title>
<path fill="none" stroke="#68217c" d="M661.15,-871.19C609.32,-795.67 402.35,-494.07 340.52,-403.99"/>
<polygon fill="#68217c" stroke="#68217c" points="343.39,-401.97 334.84,-395.71 337.62,-405.93 343.39,-401.97"/>
</g>
<!-- gql_http_link&#45;&gt;gql_exec -->
<g id="edge16" class="edge">
<title>gql_http_link&#45;&gt;gql_exec</title>
<path fill="none" stroke="#5b9240" d="M690,-871.31C725.78,-834.32 809.38,-742.93 856,-651.45 898.93,-567.2 922.39,-456.28 931.5,-405.7"/>
<polygon fill="#5b9240" stroke="#5b9240" points="934.99,-406.03 933.27,-395.57 928.1,-404.82 934.99,-406.03"/>
</g>
<!-- gql_http_link&#45;&gt;gql_link -->
<g id="edge17" class="edge">
<title>gql_http_link&#45;&gt;gql_link</title>
<path fill="none" stroke="#7c0063" d="M692.34,-871.39C742.33,-827.3 875.93,-709.48 933.73,-658.51"/>
<polygon fill="#7c0063" stroke="#7c0063" points="936.18,-661.01 941.36,-651.77 931.55,-655.76 936.18,-661.01"/>
</g>
<!-- gql_error_link -->
<g id="node8" class="node">
<title>gql_error_link</title>
<polygon fill="none" stroke="#5f79bc" points="469.5,-907.45 374.5,-907.45 374.5,-871.45 469.5,-871.45 469.5,-907.45"/>
<text text-anchor="middle" x="422" y="-885.75" font-family="Times,serif" font-size="14.00">gql_error_link</text>
</g>
<!-- gql_error_link&#45;&gt;gql_pedantic -->
<g id="edge22" class="edge">
<title>gql_error_link&#45;&gt;gql_pedantic</title>
<path fill="none" stroke="#89da51" stroke-dasharray="5,2" d="M420.64,-871.2C415.23,-804.15 393.77,-554.54 359,-351.45 346.33,-277.43 325.11,-191.38 314.11,-148.56"/>
<polygon fill="#89da51" stroke="#89da51" points="317.43,-147.44 311.54,-138.64 310.66,-149.2 317.43,-147.44"/>
</g>
<!-- gql_error_link&#45;&gt;gql -->
<g id="edge21" class="edge">
<title>gql_error_link&#45;&gt;gql</title>
<path fill="none" stroke="#68217c" stroke-dasharray="5,2" d="M418.65,-871.19C404.08,-796.12 346.15,-497.72 328.28,-405.65"/>
<polygon fill="#68217c" stroke="#68217c" points="331.69,-404.86 326.35,-395.71 324.82,-406.19 331.69,-404.86"/>
</g>
<!-- gql_error_link&#45;&gt;gql_exec -->
<g id="edge19" class="edge">
<title>gql_error_link&#45;&gt;gql_exec</title>
<path fill="none" stroke="#5b9240" d="M439.4,-871.19C515.82,-795.36 821.93,-491.64 911.35,-402.91"/>
<polygon fill="#5b9240" stroke="#5b9240" points="913.97,-405.24 918.61,-395.71 909.04,-400.27 913.97,-405.24"/>
</g>
<!-- gql_error_link&#45;&gt;gql_link -->
<g id="edge20" class="edge">
<title>gql_error_link&#45;&gt;gql_link</title>
<path fill="none" stroke="#7c0063" d="M458.2,-871.39C554.93,-825.81 818.9,-701.42 920.45,-653.56"/>
<polygon fill="#7c0063" stroke="#7c0063" points="922.2,-656.6 929.75,-649.18 919.22,-650.27 922.2,-656.6"/>
</g>
<!-- gql_code_builder -->
<g id="node9" class="node">
<title>gql_code_builder</title>
<polygon fill="none" stroke="#1da059" points="127.5,-651.45 16.5,-651.45 16.5,-615.45 127.5,-615.45 127.5,-651.45"/>
<text text-anchor="middle" x="72" y="-629.75" font-family="Times,serif" font-size="14.00">gql_code_builder</text>
</g>
<!-- gql_code_builder&#45;&gt;gql_pedantic -->
<g id="edge25" class="edge">
<title>gql_code_builder&#45;&gt;gql_pedantic</title>
<path fill="none" stroke="#89da51" stroke-dasharray="5,2" d="M79.82,-615.45C114.32,-540.43 253.08,-238.7 294.97,-147.61"/>
<polygon fill="#89da51" stroke="#89da51" points="298.15,-149.06 299.15,-138.52 291.79,-146.14 298.15,-149.06"/>
</g>
<!-- gql_code_builder&#45;&gt;gql -->
<g id="edge23" class="edge">
<title>gql_code_builder&#45;&gt;gql</title>
<path fill="none" stroke="#68217c" d="M88.86,-615.39C132.25,-571.48 247.91,-454.44 298.61,-403.13"/>
<polygon fill="#68217c" stroke="#68217c" points="301.34,-405.34 305.88,-395.77 296.37,-400.42 301.34,-405.34"/>
</g>
<!-- gql_code_builder&#45;&gt;gql_exec -->
<g id="edge24" class="edge">
<title>gql_code_builder&#45;&gt;gql_exec</title>
<path fill="none" stroke="#5b9240" d="M127.69,-616.08C288.41,-568.83 750.65,-432.94 893.45,-390.96"/>
<polygon fill="#5b9240" stroke="#5b9240" points="894.57,-394.28 903.17,-388.1 892.59,-387.56 894.57,-394.28"/>
</g>
<!-- gql_build -->
<g id="node10" class="node">
<title>gql_build</title>
<polygon fill="none" stroke="#3380b0" points="128,-907.45 60,-907.45 60,-871.45 128,-871.45 128,-907.45"/>
<text text-anchor="middle" x="94" y="-885.75" font-family="Times,serif" font-size="14.00">gql_build</text>
</g>
<!-- gql_build&#45;&gt;gql_pedantic -->
<g id="edge28" class="edge">
<title>gql_build&#45;&gt;gql_pedantic</title>
<path fill="none" stroke="#89da51" stroke-dasharray="5,2" d="M81.61,-871.43C51.4,-827.77 -21.58,-708.17 7,-607.45 63.06,-409.92 224.73,-213.95 284.46,-146.27"/>
<polygon fill="#89da51" stroke="#89da51" points="287.2,-148.46 291.23,-138.66 281.97,-143.81 287.2,-148.46"/>
</g>
<!-- gql_build&#45;&gt;gql -->
<g id="edge26" class="edge">
<title>gql_build&#45;&gt;gql</title>
<path fill="none" stroke="#68217c" d="M97.57,-871.43C107.29,-826.76 136.42,-703.09 180,-607.45 215.84,-528.81 274.24,-444.65 304.1,-403.72"/>
<polygon fill="#68217c" stroke="#68217c" points="306.92,-405.8 310.02,-395.66 301.28,-401.65 306.92,-405.8"/>
</g>
<!-- gql_build&#45;&gt;gql_code_builder -->
<g id="edge27" class="edge">
<title>gql_build&#45;&gt;gql_code_builder</title>
<path fill="none" stroke="#1da059" d="M92.52,-871.39C88.79,-828.3 78.95,-714.74 74.39,-662.05"/>
<polygon fill="#1da059" stroke="#1da059" points="77.85,-661.43 73.5,-651.77 70.88,-662.04 77.85,-661.43"/>
</g>
<!-- gql_example_http_auth_link -->
<g id="node11" class="node">
<title>gql_example_http_auth_link</title>
<polygon fill="none" stroke="#8a0733" points="635.5,-1202.45 462.5,-1202.45 462.5,-1166.45 635.5,-1166.45 635.5,-1202.45"/>
<text text-anchor="middle" x="549" y="-1180.75" font-family="Times,serif" font-size="14.00">gql_example_http_auth_link</text>
</g>
<!-- gql_example_http_auth_link&#45;&gt;gql_pedantic -->
<g id="edge36" class="edge">
<title>gql_example_http_auth_link&#45;&gt;gql_pedantic</title>
<path fill="none" stroke="#89da51" stroke-dasharray="5,2" d="M603.35,-1166.37C732.34,-1124.96 1052.02,-1016.84 1131,-938.45 1329.88,-741.07 1536.75,-569.68 1361,-351.45 1232.68,-192.11 555.78,-137.23 360.05,-124.56"/>
<polygon fill="#89da51" stroke="#89da51" points="360.22,-121.06 350.01,-123.92 359.77,-128.05 360.22,-121.06"/>
</g>
<!-- gql_example_http_auth_link&#45;&gt;gql -->
<g id="edge29" class="edge">
<title>gql_example_http_auth_link&#45;&gt;gql</title>
<path fill="none" stroke="#68217c" d="M504.75,-1166.44C429.44,-1134.75 278.65,-1058.8 218,-938.45 123.06,-750.05 259.19,-486.88 307.27,-404.29"/>
<polygon fill="#68217c" stroke="#68217c" points="310.36,-405.95 312.42,-395.56 304.33,-402.4 310.36,-405.95"/>
</g>
<!-- gql_example_http_auth_link&#45;&gt;gql_exec -->
<g id="edge31" class="edge">
<title>gql_example_http_auth_link&#45;&gt;gql_exec</title>
<path fill="none" stroke="#5b9240" d="M610.45,-1166.44C745.8,-1127.62 1062.37,-1028.8 1122,-938.45 1242.97,-755.17 1030.94,-486.18 958.76,-403.53"/>
<polygon fill="#5b9240" stroke="#5b9240" points="961.27,-401.09 952.03,-395.9 956.02,-405.72 961.27,-401.09"/>
</g>
<!-- gql_example_http_auth_link&#45;&gt;gql_link -->
<g id="edge33" class="edge">
<title>gql_example_http_auth_link&#45;&gt;gql_link</title>
<path fill="none" stroke="#7c0063" d="M607.4,-1166.31C737.22,-1126.89 1042.82,-1026.46 1100,-938.45 1162.96,-841.55 1043.87,-711.46 987.85,-658.44"/>
<polygon fill="#7c0063" stroke="#7c0063" points="990.09,-655.75 980.39,-651.49 985.32,-660.87 990.09,-655.75"/>
</g>
<!-- gql_example_http_auth_link&#45;&gt;gql_transform_link -->
<g id="edge34" class="edge">
<title>gql_example_http_auth_link&#45;&gt;gql_transform_link</title>
<path fill="none" stroke="#21d185" d="M549,-1166.43C549,-1117.68 549,-977.21 549,-917.66"/>
<polygon fill="#21d185" stroke="#21d185" points="552.5,-917.52 549,-907.52 545.5,-917.52 552.5,-917.52"/>
</g>
<!-- gql_example_http_auth_link&#45;&gt;gql_http_link -->
<g id="edge32" class="edge">
<title>gql_example_http_auth_link&#45;&gt;gql_http_link</title>
<path fill="none" stroke="#ab8a09" d="M556.2,-1166.43C576.92,-1117.48 636.78,-976.04 661.8,-916.92"/>
<polygon fill="#ab8a09" stroke="#ab8a09" points="665.1,-918.09 665.78,-907.52 658.66,-915.36 665.1,-918.09"/>
</g>
<!-- gql_example_http_auth_link&#45;&gt;gql_error_link -->
<g id="edge30" class="edge">
<title>gql_example_http_auth_link&#45;&gt;gql_error_link</title>
<path fill="none" stroke="#5f79bc" d="M541.62,-1166.43C520.4,-1117.48 459.1,-976.04 433.47,-916.92"/>
<polygon fill="#5f79bc" stroke="#5f79bc" points="436.59,-915.3 429.4,-907.52 430.16,-918.08 436.59,-915.3"/>
</g>
<!-- gql_example_http_auth_link&#45;&gt;gql_build -->
<g id="edge35" class="edge">
<title>gql_example_http_auth_link&#45;&gt;gql_build</title>
<path fill="none" stroke="#3380b0" stroke-dasharray="5,2" d="M522.57,-1166.43C444.82,-1116.37 216.85,-969.56 129.04,-913.02"/>
<polygon fill="#3380b0" stroke="#3380b0" points="130.8,-909.99 120.5,-907.52 127.01,-915.87 130.8,-909.99"/>
</g>
<!-- gql_example_flutter -->
<g id="node12" class="node">
<title>gql_example_flutter</title>
<polygon fill="none" stroke="#671702" points="947.5,-1202.45 820.5,-1202.45 820.5,-1166.45 947.5,-1166.45 947.5,-1202.45"/>
<text text-anchor="middle" x="884" y="-1180.75" font-family="Times,serif" font-size="14.00">gql_example_flutter</text>
</g>
<!-- gql_example_flutter&#45;&gt;gql_pedantic -->
<g id="edge41" class="edge">
<title>gql_example_flutter&#45;&gt;gql_pedantic</title>
<path fill="none" stroke="#89da51" stroke-dasharray="5,2" d="M910.05,-1166.16C1044.82,-1074.76 1646.98,-641.07 1392,-351.45 1252.86,-193.41 559.52,-137.53 360.5,-124.61"/>
<polygon fill="#89da51" stroke="#89da51" points="360.5,-121.1 350.29,-123.96 360.05,-128.09 360.5,-121.1"/>
</g>
<!-- gql_example_flutter&#45;&gt;gql -->
<g id="edge37" class="edge">
<title>gql_example_flutter&#45;&gt;gql</title>
<path fill="none" stroke="#68217c" d="M839.15,-1166.39C704.23,-1114.87 310.32,-962.9 294,-938.45 178.32,-765.16 276.34,-490.21 311.59,-404.7"/>
<polygon fill="#68217c" stroke="#68217c" points="314.83,-406.03 315.46,-395.45 308.37,-403.33 314.83,-406.03"/>
</g>
<!-- gql_example_flutter&#45;&gt;gql_exec -->
<g id="edge40" class="edge">
<title>gql_example_flutter&#45;&gt;gql_exec</title>
<path fill="none" stroke="#5b9240" d="M926.14,-1166.43C1027.15,-1124.68 1278.04,-1015.04 1323,-938.45 1397.48,-811.59 1395.87,-735.25 1323,-607.45 1247.47,-475 1061.93,-411.36 978.2,-388.63"/>
<polygon fill="#5b9240" stroke="#5b9240" points="979.07,-385.24 968.51,-386.06 977.28,-392 979.07,-385.24"/>
</g>
<!-- gql_example_flutter&#45;&gt;gql_link -->
<g id="edge38" class="edge">
<title>gql_example_flutter&#45;&gt;gql_link</title>
<path fill="none" stroke="#7c0063" d="M919.47,-1166.33C983.93,-1132.95 1118.46,-1052.38 1171,-938.45 1223.98,-823.56 1070.67,-705.26 997.5,-656.99"/>
<polygon fill="#7c0063" stroke="#7c0063" points="999.28,-653.98 988.99,-651.46 995.46,-659.85 999.28,-653.98"/>
</g>
<!-- gql_example_flutter&#45;&gt;gql_http_link -->
<g id="edge39" class="edge">
<title>gql_example_flutter&#45;&gt;gql_http_link</title>
<path fill="none" stroke="#ab8a09" d="M871.74,-1166.43C836.27,-1117.18 733.37,-974.28 691.27,-915.83"/>
<polygon fill="#ab8a09" stroke="#ab8a09" points="693.97,-913.59 685.29,-907.52 688.29,-917.68 693.97,-913.59"/>
</g>
<!-- gql_example_flutter&#45;&gt;gql_build -->
<g id="edge42" class="edge">
<title>gql_example_flutter&#45;&gt;gql_build</title>
<path fill="none" stroke="#3380b0" stroke-dasharray="5,2" d="M838.11,-1166.43C697.74,-1114.37 275.32,-957.7 137.79,-906.69"/>
<polygon fill="#3380b0" stroke="#3380b0" points="138.99,-903.4 128.39,-903.21 136.55,-909.97 138.99,-903.4"/>
</g>
<!-- gql_dio_link -->
<g id="node13" class="node">
<title>gql_dio_link</title>
<polygon fill="none" stroke="#45c9c3" points="822,-907.45 736,-907.45 736,-871.45 822,-871.45 822,-907.45"/>
<text text-anchor="middle" x="779" y="-885.75" font-family="Times,serif" font-size="14.00">gql_dio_link</text>
</g>
<!-- gql_dio_link&#45;&gt;gql_pedantic -->
<g id="edge46" class="edge">
<title>gql_dio_link&#45;&gt;gql_pedantic</title>
<path fill="none" stroke="#89da51" stroke-dasharray="5,2" d="M768.48,-871.36C707.23,-771.83 396.8,-267.38 322.84,-147.19"/>
<polygon fill="#89da51" stroke="#89da51" points="325.77,-145.27 317.55,-138.59 319.81,-148.94 325.77,-145.27"/>
</g>
<!-- gql_dio_link&#45;&gt;gql -->
<g id="edge43" class="edge">
<title>gql_dio_link&#45;&gt;gql</title>
<path fill="none" stroke="#68217c" d="M763.57,-871.19C695.84,-795.44 424.75,-492.25 345.11,-403.18"/>
<polygon fill="#68217c" stroke="#68217c" points="347.7,-400.83 338.43,-395.71 342.49,-405.5 347.7,-400.83"/>
</g>
<!-- gql_dio_link&#45;&gt;gql_exec -->
<g id="edge44" class="edge">
<title>gql_dio_link&#45;&gt;gql_exec</title>
<path fill="none" stroke="#5b9240" d="M787.23,-871.29C805.43,-832.76 849.58,-736.12 876,-651.45 903.53,-563.19 923.32,-455.1 931.64,-405.57"/>
<polygon fill="#5b9240" stroke="#5b9240" points="935.1,-406.09 933.28,-395.65 928.19,-404.94 935.1,-406.09"/>
</g>
<!-- gql_dio_link&#45;&gt;gql_link -->
<g id="edge45" class="edge">
<title>gql_dio_link&#45;&gt;gql_link</title>
<path fill="none" stroke="#7c0063" d="M791.22,-871.39C822.49,-827.76 905.52,-711.88 942.63,-660.09"/>
<polygon fill="#7c0063" stroke="#7c0063" points="945.61,-661.94 948.59,-651.77 939.92,-657.86 945.61,-661.94"/>
</g>
<!-- gql_example_dio_link -->
<g id="node14" class="node">
<title>gql_example_dio_link</title>
<polygon fill="none" stroke="#058cba" points="1104.5,-1202.45 965.5,-1202.45 965.5,-1166.45 1104.5,-1166.45 1104.5,-1202.45"/>
<text text-anchor="middle" x="1035" y="-1180.75" font-family="Times,serif" font-size="14.00">gql_example_dio_link</text>
</g>
<!-- gql_example_dio_link&#45;&gt;gql -->
<g id="edge47" class="edge">
<title>gql_example_dio_link&#45;&gt;gql</title>
<path fill="none" stroke="#68217c" d="M983.58,-1166.4C823.18,-1113.12 342.09,-952.41 332,-938.45 210.23,-769.95 285.58,-492.29 313.73,-405.34"/>
<polygon fill="#68217c" stroke="#68217c" points="317.1,-406.29 316.91,-395.7 310.45,-404.1 317.1,-406.29"/>
</g>
<!-- gql_example_dio_link&#45;&gt;gql_exec -->
<g id="edge49" class="edge">
<title>gql_example_dio_link&#45;&gt;gql_exec</title>
<path fill="none" stroke="#5b9240" d="M1064.65,-1166.35C1121.88,-1131.59 1247.07,-1046.72 1305,-938.45 1374.99,-807.65 1423.22,-735.32 1348,-607.45 1266.28,-468.53 1066.44,-407.82 978.6,-387.21"/>
<polygon fill="#5b9240" stroke="#5b9240" points="979.24,-383.76 968.71,-384.95 977.68,-390.59 979.24,-383.76"/>
</g>
<!-- gql_example_dio_link&#45;&gt;gql_link -->
<g id="edge48" class="edge">
<title>gql_example_dio_link&#45;&gt;gql_link</title>
<path fill="none" stroke="#7c0063" d="M1068.48,-1166.34C1150.34,-1122.08 1349.39,-998.34 1285,-871.45 1224.78,-752.79 1074.17,-679.3 1001.49,-649.61"/>
<polygon fill="#7c0063" stroke="#7c0063" points="1002.77,-646.35 992.19,-645.87 1000.16,-652.84 1002.77,-646.35"/>
</g>
<!-- gql_example_dio_link&#45;&gt;gql_dio_link -->
<g id="edge50" class="edge">
<title>gql_example_dio_link&#45;&gt;gql_dio_link</title>
<path fill="none" stroke="#45c9c3" d="M1020.13,-1166.43C976.92,-1116.97 851.22,-973.11 800.55,-915.11"/>
<polygon fill="#45c9c3" stroke="#45c9c3" points="803.13,-912.75 793.91,-907.52 797.86,-917.35 803.13,-912.75"/>
</g>
<!-- gql_example_cli_github -->
<g id="node15" class="node">
<title>gql_example_cli_github</title>
<polygon fill="none" stroke="#9b3b01" points="802.5,-1202.45 653.5,-1202.45 653.5,-1166.45 802.5,-1166.45 802.5,-1202.45"/>
<text text-anchor="middle" x="728" y="-1180.75" font-family="Times,serif" font-size="14.00">gql_example_cli_github</text>
</g>
<!-- gql_example_cli_github&#45;&gt;gql_pedantic -->
<g id="edge57" class="edge">
<title>gql_example_cli_github&#45;&gt;gql_pedantic</title>
<path fill="none" stroke="#89da51" stroke-dasharray="5,2" d="M785.81,-1166.44C915.12,-1127.1 1220.86,-1026.45 1278,-938.45 1302.95,-900.03 1359.22,-889 1271,-607.45 1230.31,-477.59 1212.51,-432.25 1103,-351.45 865.53,-176.24 497.46,-134.14 360.62,-124.33"/>
<polygon fill="#89da51" stroke="#89da51" points="360.62,-120.82 350.41,-123.63 360.14,-127.81 360.62,-120.82"/>
</g>
<!-- gql_example_cli_github&#45;&gt;gql -->
<g id="edge51" class="edge">
<title>gql_example_cli_github&#45;&gt;gql</title>
<path fill="none" stroke="#68217c" d="M681.54,-1166.44C572.28,-1125.4 304.6,-1018.44 256,-938.45 147.31,-759.58 266.85,-488.97 309.25,-404.55"/>
<polygon fill="#68217c" stroke="#68217c" points="312.38,-406.13 313.8,-395.63 306.14,-402.95 312.38,-406.13"/>
</g>
<!-- gql_example_cli_github&#45;&gt;gql_exec -->
<g id="edge52" class="edge">
<title>gql_example_cli_github&#45;&gt;gql_exec</title>
<path fill="none" stroke="#5b9240" d="M781.25,-1166.4C902.58,-1126.34 1193.26,-1023.24 1247,-938.45 1325.75,-814.19 1313.37,-738.74 1247,-607.45 1190.16,-495.01 1049.2,-424.25 978.23,-394.57"/>
<polygon fill="#5b9240" stroke="#5b9240" points="979.28,-391.22 968.7,-390.65 976.62,-397.69 979.28,-391.22"/>
</g>
<!-- gql_example_cli_github&#45;&gt;gql_link -->
<g id="edge54" class="edge">
<title>gql_example_cli_github&#45;&gt;gql_link</title>
<path fill="none" stroke="#7c0063" d="M765.91,-1166.43C858.53,-1123.97 1091.78,-1011.56 1133,-938.45 1192,-833.81 1056.68,-709.07 992.46,-658.01"/>
<polygon fill="#7c0063" stroke="#7c0063" points="994.3,-655 984.27,-651.58 989.98,-660.51 994.3,-655"/>
</g>
<!-- gql_example_cli_github&#45;&gt;gql_transform_link -->
<g id="edge55" class="edge">
<title>gql_example_cli_github&#45;&gt;gql_transform_link</title>
<path fill="none" stroke="#21d185" d="M717.6,-1166.43C687.57,-1117.28 600.57,-974.87 564.72,-916.19"/>
<polygon fill="#21d185" stroke="#21d185" points="567.63,-914.23 559.43,-907.52 561.65,-917.88 567.63,-914.23"/>
</g>
<!-- gql_example_cli_github&#45;&gt;gql_http_link -->
<g id="edge53" class="edge">
<title>gql_example_cli_github&#45;&gt;gql_http_link</title>
<path fill="none" stroke="#ab8a09" d="M724.81,-1166.43C715.65,-1117.68 689.29,-977.21 678.11,-917.66"/>
<polygon fill="#ab8a09" stroke="#ab8a09" points="681.49,-916.7 676.2,-907.52 674.61,-917.99 681.49,-916.7"/>
</g>
<!-- gql_example_cli_github&#45;&gt;gql_build -->
<g id="edge56" class="edge">
<title>gql_example_cli_github&#45;&gt;gql_build</title>
<path fill="none" stroke="#3380b0" stroke-dasharray="5,2" d="M691.17,-1166.43C581.17,-1115.6 255.36,-965.02 137.32,-910.47"/>
<polygon fill="#3380b0" stroke="#3380b0" points="138.74,-907.27 128.2,-906.25 135.81,-913.63 138.74,-907.27"/>
</g>
<!-- gql_example_cli -->
<g id="node16" class="node">
<title>gql_example_cli</title>
<polygon fill="none" stroke="#18510b" points="1370.5,-1202.45 1263.5,-1202.45 1263.5,-1166.45 1370.5,-1166.45 1370.5,-1202.45"/>
<text text-anchor="middle" x="1317" y="-1180.75" font-family="Times,serif" font-size="14.00">gql_example_cli</text>
</g>
<!-- gql_example_cli&#45;&gt;gql_pedantic -->
<g id="edge63" class="edge">
<title>gql_example_cli&#45;&gt;gql_pedantic</title>
<path fill="none" stroke="#89da51" stroke-dasharray="5,2" d="M1328.24,-1166.29C1388.55,-1071.88 1663.28,-610.66 1451,-351.45 1309.85,-179.1 566.92,-133.13 360.34,-123.6"/>
<polygon fill="#89da51" stroke="#89da51" points="360.2,-120.09 350.06,-123.13 359.89,-127.08 360.2,-120.09"/>
</g>
<!-- gql_example_cli&#45;&gt;gql -->
<g id="edge58" class="edge">
<title>gql_example_cli&#45;&gt;gql</title>
<path fill="none" stroke="#68217c" d="M1276.29,-1166.36C1268.93,-1163.54 1261.28,-1160.78 1254,-1158.45 865.11,-1033.97 624.82,-1250.95 362,-938.45 293.46,-856.95 313.52,-506.51 320.86,-405.68"/>
<polygon fill="#68217c" stroke="#68217c" points="324.35,-405.91 321.6,-395.68 317.37,-405.39 324.35,-405.91"/>
</g>
<!-- gql_example_cli&#45;&gt;gql_exec -->
<g id="edge59" class="edge">
<title>gql_example_cli&#45;&gt;gql_exec</title>
<path fill="none" stroke="#5b9240" d="M1325.52,-1166.27C1360.71,-1092.63 1487.6,-798.75 1372,-607.45 1284.18,-462.13 1070.22,-404.46 978.69,-385.91"/>
<polygon fill="#5b9240" stroke="#5b9240" points="979.15,-382.43 968.66,-383.94 977.8,-389.3 979.15,-382.43"/>
</g>
<!-- gql_example_cli&#45;&gt;gql_link -->
<g id="edge61" class="edge">
<title>gql_example_cli&#45;&gt;gql_link</title>
<path fill="none" stroke="#7c0063" d="M1321.37,-1166.16C1332.92,-1116.55 1359.74,-970.95 1305,-871.45 1237.75,-749.22 1077.33,-676.87 1001.74,-648.45"/>
<polygon fill="#7c0063" stroke="#7c0063" points="1002.68,-645.06 992.08,-644.88 1000.25,-651.63 1002.68,-645.06"/>
</g>
<!-- gql_example_cli&#45;&gt;gql_http_link -->
<g id="edge60" class="edge">
<title>gql_example_cli&#45;&gt;gql_http_link</title>
<path fill="none" stroke="#ab8a09" d="M1274.77,-1166.36C1143.85,-1113.33 752.02,-954.14 727,-938.45 716.32,-931.75 705.69,-922.91 696.73,-914.64"/>
<polygon fill="#ab8a09" stroke="#ab8a09" points="698.98,-911.95 689.33,-907.59 694.16,-917.02 698.98,-911.95"/>
</g>
<!-- gql_example_cli&#45;&gt;gql_build -->
<g id="edge62" class="edge">
<title>gql_example_cli&#45;&gt;gql_build</title>
<path fill="none" stroke="#3380b0" stroke-dasharray="5,2" d="M1276.65,-1166.4C1269.19,-1163.55 1261.41,-1160.76 1254,-1158.45 1034.81,-1090.07 322.37,-938.52 137.92,-899.67"/>
<polygon fill="#3380b0" stroke="#3380b0" points="138.54,-896.22 128.04,-897.59 137.1,-903.07 138.54,-896.22"/>
</g>
<!-- gql_example_build -->
<g id="node17" class="node">
<title>gql_example_build</title>
<polygon fill="none" stroke="#628320" points="1245,-1202.45 1123,-1202.45 1123,-1166.45 1245,-1166.45 1245,-1202.45"/>
<text text-anchor="middle" x="1184" y="-1180.75" font-family="Times,serif" font-size="14.00">gql_example_build</text>
</g>
<!-- gql_example_build&#45;&gt;gql_pedantic -->
<g id="edge65" class="edge">
<title>gql_example_build&#45;&gt;gql_pedantic</title>
<path fill="none" stroke="#89da51" stroke-dasharray="5,2" d="M1198.86,-1166.23C1277.96,-1072.46 1637.99,-617.82 1421,-351.45 1284.15,-183.46 563.41,-134.47 360.31,-123.91"/>
<polygon fill="#89da51" stroke="#89da51" points="360.36,-120.4 350.19,-123.39 360,-127.4 360.36,-120.4"/>
</g>
<!-- gql_example_build&#45;&gt;gql_build -->
<g id="edge64" class="edge">
<title>gql_example_build&#45;&gt;gql_build</title>
<path fill="none" stroke="#3380b0" stroke-dasharray="5,2" d="M1137.87,-1166.34C1129.95,-1163.59 1121.77,-1160.85 1114,-1158.45 740.71,-1042.99 280.95,-933.79 138.31,-900.65"/>
<polygon fill="#3380b0" stroke="#3380b0" points="138.73,-897.15 128.2,-898.31 137.15,-903.97 138.73,-897.15"/>
</g>
<!-- gql_dedupe_link -->
<g id="node18" class="node">
<title>gql_dedupe_link</title>
<polygon fill="none" stroke="#cf6bf6" points="947.5,-907.45 840.5,-907.45 840.5,-871.45 947.5,-871.45 947.5,-907.45"/>
<text text-anchor="middle" x="894" y="-885.75" font-family="Times,serif" font-size="14.00">gql_dedupe_link</text>
</g>
<!-- gql_dedupe_link&#45;&gt;gql_pedantic -->
<g id="edge69" class="edge">
<title>gql_dedupe_link&#45;&gt;gql_pedantic</title>
<path fill="none" stroke="#89da51" stroke-dasharray="5,2" d="M880.92,-871.36C804.67,-771.73 417.91,-266.37 326.42,-146.83"/>
<polygon fill="#89da51" stroke="#89da51" points="328.97,-144.4 320.11,-138.59 323.41,-148.66 328.97,-144.4"/>
</g>
<!-- gql_dedupe_link&#45;&gt;gql -->
<g id="edge68" class="edge">
<title>gql_dedupe_link&#45;&gt;gql</title>
<path fill="none" stroke="#68217c" stroke-dasharray="5,2" d="M874.67,-871.19C789.61,-795.21 448.35,-490.41 349.78,-402.37"/>
<polygon fill="#68217c" stroke="#68217c" points="352.11,-399.76 342.32,-395.71 347.45,-404.98 352.11,-399.76"/>
</g>
<!-- gql_dedupe_link&#45;&gt;gql_exec -->
<g id="edge66" class="edge">
<title>gql_dedupe_link&#45;&gt;gql_exec</title>
<path fill="none" stroke="#5b9240" d="M895.42,-871.19C901.6,-796.2 926.13,-498.32 933.74,-405.93"/>
<polygon fill="#5b9240" stroke="#5b9240" points="937.25,-405.96 934.58,-395.71 930.27,-405.39 937.25,-405.96"/>
</g>
<!-- gql_dedupe_link&#45;&gt;gql_link -->
<g id="edge67" class="edge">
<title>gql_dedupe_link&#45;&gt;gql_link</title>
<path fill="none" stroke="#7c0063" d="M898.5,-871.39C909.89,-828.21 939.95,-714.27 953.81,-661.72"/>
<polygon fill="#7c0063" stroke="#7c0063" points="957.26,-662.33 956.43,-651.77 950.5,-660.55 957.26,-662.33"/>
</g>
<!-- end_to_end_test -->
<g id="node19" class="node">
<title>end_to_end_test</title>
<polygon fill="none" stroke="#97b336" points="127.5,-1202.45 22.5,-1202.45 22.5,-1166.45 127.5,-1166.45 127.5,-1202.45"/>
<text text-anchor="middle" x="75" y="-1180.75" font-family="Times,serif" font-size="14.00">end_to_end_test</text>
</g>
<!-- end_to_end_test&#45;&gt;gql_exec -->
<g id="edge70" class="edge">
<title>end_to_end_test&#45;&gt;gql_exec</title>
<path fill="none" stroke="#5b9240" d="M127.55,-1179.24C319.28,-1162.67 976.38,-1095.1 1100,-938.45 1235.14,-767.21 1026.91,-487.84 957.33,-403.4"/>
<polygon fill="#5b9240" stroke="#5b9240" points="959.95,-401.07 950.86,-395.62 954.57,-405.55 959.95,-401.07"/>
</g>
<!-- end_to_end_test&#45;&gt;gql_code_builder -->
<g id="edge72" class="edge">
<title>end_to_end_test&#45;&gt;gql_code_builder</title>
<path fill="none" stroke="#1da059" d="M72.21,-1166.23C64.88,-1119.1 46.02,-984.07 51,-871.45 54.36,-795.37 63.78,-705.94 68.78,-661.86"/>
<polygon fill="#1da059" stroke="#1da059" points="72.29,-662 69.95,-651.66 65.33,-661.2 72.29,-662"/>
</g>
<!-- end_to_end_test&#45;&gt;gql_build -->
<g id="edge71" class="edge">
<title>end_to_end_test&#45;&gt;gql_build</title>
<path fill="none" stroke="#3380b0" d="M76.1,-1166.43C79.26,-1117.68 88.37,-977.21 92.24,-917.66"/>
<polygon fill="#3380b0" stroke="#3380b0" points="95.74,-917.72 92.89,-907.52 88.75,-917.27 95.74,-917.72"/>
</g>
</g>
</svg>
