<?xml version="1.0" encoding="UTF-8" standalone="no"?>
<!DOCTYPE svg PUBLIC "-//W3C//DTD SVG 1.1//EN"
 "http://www.w3.org/Graphics/SVG/1.1/DTD/svg11.dtd">
<!-- Generated by graphviz version 2.44.1 (20200629.0846)
 -->
<!-- Title: packages Pages: 1 -->
<svg width="720pt" height="709pt"
 viewBox="0.00 0.00 720.00 709.45" xmlns="http://www.w3.org/2000/svg" xmlns:xlink="http://www.w3.org/1999/xlink">
<g id="graph0" class="graph" transform="scale(0.48 0.48) rotate(0) translate(4 1478)">
<title>packages</title>
<polygon fill="white" stroke="transparent" points="-4,4 -4,-1478 1500.04,-1478 1500.04,4 -4,4"/>
<g id="clust2" class="cluster">
<title>cluster links</title>
<polygon fill="none" stroke="#e2446b" points="366,-302.36 366,-1130.07 1099,-1130.07 1099,-302.36 366,-302.36"/>
<text text-anchor="middle" x="732.5" y="-1114.87" font-family="Times,serif" font-size="14.00">links</text>
</g>
<g id="clust3" class="cluster">
<title>cluster codegen</title>
<polygon fill="none" stroke="#856663" points="8,-574.48 8,-1443.76 136,-1443.76 136,-574.48 8,-574.48"/>
<text text-anchor="middle" x="72" y="-1428.56" font-family="Times,serif" font-size="14.00">codegen</text>
</g>
<g id="clust4" class="cluster">
<title>cluster examples</title>
<polygon fill="none" stroke="#e8f445" points="542,-1160.3 542,-1443.76 1466,-1443.76 1466,-1160.3 542,-1160.3"/>
<text text-anchor="middle" x="1004" y="-1428.56" font-family="Times,serif" font-size="14.00">examples</text>
</g>
<g id="clust1" class="cluster">
<title>cluster </title>
<polygon fill="none" stroke="#a473ff" points="184,-30.24 184,-498.89 358,-498.89 358,-30.24 184,-30.24"/>
</g>
<!-- gql_pedantic -->
<g id="node1" class="node">
<title>gql_pedantic</title>
<polygon fill="none" stroke="#89da51" points="350,-146.24 264,-146.24 264,-110.24 350,-110.24 350,-146.24"/>
<text text-anchor="middle" x="307" y="-124.54" font-family="Times,serif" font-size="14.00">gql_pedantic</text>
</g>
<!-- cats -->
<g id="node2" class="node">
<title>cats</title>
<polygon fill="none" stroke="#e2592e" points="246,-146.24 192,-146.24 192,-110.24 246,-110.24 246,-146.24"/>
<text text-anchor="middle" x="219" y="-124.54" font-family="Times,serif" font-size="14.00">cats</text>
</g>
<!-- gql -->
<g id="node3" class="node">
<title>gql</title>
<polygon fill="none" stroke="#68217c" points="350,-418.24 296,-418.24 296,-382.24 350,-382.24 350,-418.24"/>
<text text-anchor="middle" x="323" y="-396.54" font-family="Times,serif" font-size="14.00">gql</text>
</g>
<!-- gql&#45;&gt;gql_pedantic -->
<g id="edge1" class="edge">
<title>gql&#45;&gt;gql_pedantic</title>
<path fill="none" stroke="#89da51" stroke-dasharray="5,2" d="M321.97,-381.94C319.27,-336.22 311.9,-211.91 308.62,-156.51"/>
<polygon fill="#89da51" stroke="#89da51" points="312.1,-156.17 308.02,-146.39 305.11,-156.58 312.1,-156.17"/>
</g>
<!-- gql&#45;&gt;cats -->
<g id="edge2" class="edge">
<title>gql&#45;&gt;cats</title>
<path fill="none" stroke="#e2592e" stroke-dasharray="5,2" d="M316.34,-381.94C298.65,-336.03 250.44,-210.87 229.24,-155.82"/>
<polygon fill="#e2592e" stroke="#e2592e" points="232.47,-154.47 225.61,-146.39 225.94,-156.98 232.47,-154.47"/>
</g>
<!-- gql_exec -->
<g id="node4" class="node">
<title>gql_exec</title>
<polygon fill="none" stroke="#5b9240" points="978.5,-418.24 913.5,-418.24 913.5,-382.24 978.5,-382.24 978.5,-418.24"/>
<text text-anchor="middle" x="946" y="-396.54" font-family="Times,serif" font-size="14.00">gql_exec</text>
</g>
<!-- gql_exec&#45;&gt;gql_pedantic -->
<g id="edge4" class="edge">
<title>gql_exec&#45;&gt;gql_pedantic</title>
<path fill="none" stroke="#89da51" stroke-dasharray="5,2" d="M913.39,-383.23C906.99,-380.19 900.31,-377.07 894,-374.24 698.79,-286.65 462.83,-191.3 359.62,-150.11"/>
<polygon fill="#89da51" stroke="#89da51" points="360.64,-146.75 350.05,-146.3 358.04,-153.25 360.64,-146.75"/>
</g>
<!-- gql_exec&#45;&gt;gql -->
<g id="edge3" class="edge">
<title>gql_exec&#45;&gt;gql</title>
<path fill="none" stroke="#68217c" d="M913.41,-400.24C729.02,-400.24 544.64,-400.24 360.25,-400.24"/>
<polygon fill="#68217c" stroke="#68217c" points="360.07,-396.74 350.07,-400.24 360.07,-403.74 360.07,-396.74"/>
</g>
<!-- gql_link -->
<g id="node5" class="node">
<title>gql_link</title>
<polygon fill="none" stroke="#7c0063" points="1002,-691.24 940,-691.24 940,-655.24 1002,-655.24 1002,-691.24"/>
<text text-anchor="middle" x="971" y="-669.54" font-family="Times,serif" font-size="14.00">gql_link</text>
</g>
<!-- gql_link&#45;&gt;gql_pedantic -->
<g id="edge7" class="edge">
<title>gql_link&#45;&gt;gql_pedantic</title>
<path fill="none" stroke="#89da51" stroke-dasharray="5,2" d="M966.96,-655.06C954.46,-605.29 911.94,-459.17 826,-374.24 688.83,-238.67 462.4,-168.05 360.09,-141.66"/>
<polygon fill="#89da51" stroke="#89da51" points="360.85,-138.24 350.29,-139.17 359.12,-145.02 360.85,-138.24"/>
</g>
<!-- gql_link&#45;&gt;gql -->
<g id="edge5" class="edge">
<title>gql_link&#45;&gt;gql</title>
<path fill="none" stroke="#68217c" d="M939.68,-661.91C848.26,-631.28 574.74,-536.17 362,-426.24 360.29,-425.35 358.55,-424.41 356.81,-423.43"/>
<polygon fill="#68217c" stroke="#68217c" points="358.58,-420.41 348.19,-418.34 355.02,-426.44 358.58,-420.41"/>
</g>
<!-- gql_link&#45;&gt;gql_exec -->
<g id="edge6" class="edge">
<title>gql_link&#45;&gt;gql_exec</title>
<path fill="none" stroke="#5b9240" d="M969.4,-654.87C965.16,-608.98 953.65,-484.21 948.53,-428.61"/>
<polygon fill="#5b9240" stroke="#5b9240" points="951.99,-428.09 947.59,-418.46 945.02,-428.74 951.99,-428.09"/>
</g>
<!-- gql_websocket_link -->
<g id="node6" class="node">
<title>gql_websocket_link</title>
<polygon fill="none" stroke="#bb5677" points="753.5,-963.24 628.5,-963.24 628.5,-927.24 753.5,-927.24 753.5,-963.24"/>
<text text-anchor="middle" x="691" y="-941.54" font-family="Times,serif" font-size="14.00">gql_websocket_link</text>
</g>
<!-- gql_websocket_link&#45;&gt;gql_pedantic -->
<g id="edge11" class="edge">
<title>gql_websocket_link&#45;&gt;gql_pedantic</title>
<path fill="none" stroke="#89da51" stroke-dasharray="5,2" d="M682.98,-927.21C634.38,-824.06 379.36,-282.82 319.56,-155.89"/>
<polygon fill="#89da51" stroke="#89da51" points="322.57,-154.06 315.14,-146.51 316.23,-157.05 322.57,-154.06"/>
</g>
<!-- gql_websocket_link&#45;&gt;gql -->
<g id="edge8" class="edge">
<title>gql_websocket_link&#45;&gt;gql</title>
<path fill="none" stroke="#68217c" d="M679.38,-927.09C626,-848.33 404.21,-521.07 340.31,-426.77"/>
<polygon fill="#68217c" stroke="#68217c" points="343.13,-424.7 334.62,-418.39 337.34,-428.63 343.13,-424.7"/>
</g>
<!-- gql_websocket_link&#45;&gt;gql_exec -->
<g id="edge9" class="edge">
<title>gql_websocket_link&#45;&gt;gql_exec</title>
<path fill="none" stroke="#5b9240" d="M705.97,-927.1C739.4,-887.99 820.78,-788.01 866,-691.24 908.82,-599.6 932.64,-480.65 941.7,-428.15"/>
<polygon fill="#5b9240" stroke="#5b9240" points="945.15,-428.72 943.36,-418.28 938.25,-427.56 945.15,-428.72"/>
</g>
<!-- gql_websocket_link&#45;&gt;gql_link -->
<g id="edge10" class="edge">
<title>gql_websocket_link&#45;&gt;gql_link</title>
<path fill="none" stroke="#7c0063" d="M708.94,-926.94C757.24,-880.36 890.13,-752.22 945.87,-698.47"/>
<polygon fill="#7c0063" stroke="#7c0063" points="948.44,-700.85 953.21,-691.39 943.58,-695.81 948.44,-700.85"/>
</g>
<!-- gql_transform_link -->
<g id="node7" class="node">
<title>gql_transform_link</title>
<polygon fill="none" stroke="#21d185" points="610,-963.24 488,-963.24 488,-927.24 610,-927.24 610,-963.24"/>
<text text-anchor="middle" x="549" y="-941.54" font-family="Times,serif" font-size="14.00">gql_transform_link</text>
</g>
<!-- gql_transform_link&#45;&gt;gql_pedantic -->
<g id="edge15" class="edge">
<title>gql_transform_link&#45;&gt;gql_pedantic</title>
<path fill="none" stroke="#89da51" stroke-dasharray="5,2" d="M543.95,-927.21C513.35,-824.16 352.93,-283.9 315.03,-156.27"/>
<polygon fill="#89da51" stroke="#89da51" points="318.33,-155.1 312.13,-146.51 311.62,-157.09 318.33,-155.1"/>
</g>
<!-- gql_transform_link&#45;&gt;gql -->
<g id="edge14" class="edge">
<title>gql_transform_link&#45;&gt;gql</title>
<path fill="none" stroke="#68217c" stroke-dasharray="5,2" d="M541.86,-927.09C509.18,-848.56 373.7,-523.05 333.99,-427.63"/>
<polygon fill="#68217c" stroke="#68217c" points="337.21,-426.28 330.14,-418.39 330.75,-428.96 337.21,-426.28"/>
</g>
<!-- gql_transform_link&#45;&gt;gql_exec -->
<g id="edge12" class="edge">
<title>gql_transform_link&#45;&gt;gql_exec</title>
<path fill="none" stroke="#5b9240" d="M577.97,-927.13C636.84,-890.95 771.19,-800.91 846,-691.24 861.38,-668.68 916.27,-496.24 937.52,-428.46"/>
<polygon fill="#5b9240" stroke="#5b9240" points="940.98,-429.11 940.63,-418.52 934.3,-427.02 940.98,-429.11"/>
</g>
<!-- gql_transform_link&#45;&gt;gql_link -->
<g id="edge13" class="edge">
<title>gql_transform_link&#45;&gt;gql_link</title>
<path fill="none" stroke="#7c0063" d="M575.72,-927.14C649.05,-880.22 853.47,-749.43 935.89,-696.7"/>
<polygon fill="#7c0063" stroke="#7c0063" points="937.86,-699.59 944.4,-691.26 934.09,-693.7 937.86,-699.59"/>
</g>
<!-- gql_http_link -->
<g id="node8" class="node">
<title>gql_http_link</title>
<polygon fill="none" stroke="#ab8a09" points="860.5,-963.24 771.5,-963.24 771.5,-927.24 860.5,-927.24 860.5,-963.24"/>
<text text-anchor="middle" x="816" y="-941.54" font-family="Times,serif" font-size="14.00">gql_http_link</text>
</g>
<!-- gql_http_link&#45;&gt;gql_pedantic -->
<g id="edge19" class="edge">
<title>gql_http_link&#45;&gt;gql_pedantic</title>
<path fill="none" stroke="#89da51" stroke-dasharray="5,2" d="M805.37,-927.21C740.81,-823.85 401.56,-280.65 323.17,-155.13"/>
<polygon fill="#89da51" stroke="#89da51" points="326.05,-153.14 317.79,-146.51 320.12,-156.84 326.05,-153.14"/>
</g>
<!-- gql_http_link&#45;&gt;gql -->
<g id="edge16" class="edge">
<title>gql_http_link&#45;&gt;gql</title>
<path fill="none" stroke="#68217c" d="M800.43,-927.09C728.71,-848.09 430,-519.09 345.41,-425.92"/>
<polygon fill="#68217c" stroke="#68217c" points="347.89,-423.44 338.57,-418.39 342.7,-428.14 347.89,-423.44"/>
</g>
<!-- gql_http_link&#45;&gt;gql_exec -->
<g id="edge17" class="edge">
<title>gql_http_link&#45;&gt;gql_exec</title>
<path fill="none" stroke="#5b9240" d="M821.15,-927.16C833.3,-886.51 864.39,-780.72 886,-691.24 909.21,-595.12 931.41,-479.75 941.02,-428.3"/>
<polygon fill="#5b9240" stroke="#5b9240" points="944.49,-428.79 942.87,-418.32 937.6,-427.51 944.49,-428.79"/>
</g>
<!-- gql_http_link&#45;&gt;gql_link -->
<g id="edge18" class="edge">
<title>gql_http_link&#45;&gt;gql_link</title>
<path fill="none" stroke="#7c0063" d="M825.93,-926.94C852.4,-880.83 924.73,-754.83 956.13,-700.14"/>
<polygon fill="#7c0063" stroke="#7c0063" points="959.21,-701.81 961.15,-691.39 953.14,-698.32 959.21,-701.81"/>
</g>
<!-- gql_error_link -->
<g id="node9" class="node">
<title>gql_error_link</title>
<polygon fill="none" stroke="#5f79bc" points="469.5,-963.24 374.5,-963.24 374.5,-927.24 469.5,-927.24 469.5,-963.24"/>
<text text-anchor="middle" x="422" y="-941.54" font-family="Times,serif" font-size="14.00">gql_error_link</text>
</g>
<!-- gql_error_link&#45;&gt;gql_pedantic -->
<g id="edge23" class="edge">
<title>gql_error_link&#45;&gt;gql_pedantic</title>
<path fill="none" stroke="#89da51" stroke-dasharray="5,2" d="M420.71,-926.9C415.42,-857.22 393.89,-590.98 359,-374.24 346.14,-294.35 324.5,-201.15 313.64,-156.2"/>
<polygon fill="#89da51" stroke="#89da51" points="317.01,-155.24 311.25,-146.35 310.21,-156.9 317.01,-155.24"/>
</g>
<!-- gql_error_link&#45;&gt;gql -->
<g id="edge22" class="edge">
<title>gql_error_link&#45;&gt;gql</title>
<path fill="none" stroke="#68217c" stroke-dasharray="5,2" d="M418.87,-927.09C404.6,-848.8 345.57,-525.02 327.97,-428.51"/>
<polygon fill="#68217c" stroke="#68217c" points="331.36,-427.6 326.13,-418.39 324.48,-428.85 331.36,-427.6"/>
</g>
<!-- gql_error_link&#45;&gt;gql_exec -->
<g id="edge20" class="edge">
<title>gql_error_link&#45;&gt;gql_exec</title>
<path fill="none" stroke="#5b9240" d="M438.55,-927.09C514.86,-848.01 832.91,-518.43 922.45,-425.64"/>
<polygon fill="#5b9240" stroke="#5b9240" points="925.02,-428.01 929.45,-418.39 919.99,-423.15 925.02,-428.01"/>
</g>
<!-- gql_error_link&#45;&gt;gql_link -->
<g id="edge21" class="edge">
<title>gql_error_link&#45;&gt;gql_link</title>
<path fill="none" stroke="#7c0063" d="M456.76,-927.14C553.79,-879.42 827.21,-744.95 930.66,-694.07"/>
<polygon fill="#7c0063" stroke="#7c0063" points="932.41,-697.11 939.84,-689.56 929.33,-690.83 932.41,-697.11"/>
</g>
<!-- gql_code_builder -->
<g id="node10" class="node">
<title>gql_code_builder</title>
<polygon fill="none" stroke="#1da059" points="127.5,-691.24 16.5,-691.24 16.5,-655.24 127.5,-655.24 127.5,-691.24"/>
<text text-anchor="middle" x="72" y="-669.54" font-family="Times,serif" font-size="14.00">gql_code_builder</text>
</g>
<!-- gql_code_builder&#45;&gt;gql_pedantic -->
<g id="edge26" class="edge">
<title>gql_code_builder&#45;&gt;gql_pedantic</title>
<path fill="none" stroke="#89da51" stroke-dasharray="5,2" d="M79.42,-655.09C113.4,-576.56 254.28,-251.05 295.58,-155.63"/>
<polygon fill="#89da51" stroke="#89da51" points="298.82,-156.96 299.58,-146.39 292.39,-154.18 298.82,-156.96"/>
</g>
<!-- gql_code_builder&#45;&gt;gql -->
<g id="edge24" class="edge">
<title>gql_code_builder&#45;&gt;gql</title>
<path fill="none" stroke="#68217c" d="M88.08,-654.87C131.29,-608.22 250.02,-480.03 300.17,-425.89"/>
<polygon fill="#68217c" stroke="#68217c" points="302.82,-428.17 307.05,-418.46 297.69,-423.41 302.82,-428.17"/>
</g>
<!-- gql_code_builder&#45;&gt;gql_exec -->
<g id="edge25" class="edge">
<title>gql_code_builder&#45;&gt;gql_exec</title>
<path fill="none" stroke="#5b9240" d="M127,-655.18C288.46,-605.12 758.76,-459.29 903.26,-414.49"/>
<polygon fill="#5b9240" stroke="#5b9240" points="904.58,-417.74 913.1,-411.44 902.51,-411.06 904.58,-417.74"/>
</g>
<!-- gql_build -->
<g id="node11" class="node">
<title>gql_build</title>
<polygon fill="none" stroke="#3380b0" points="128,-963.24 60,-963.24 60,-927.24 128,-927.24 128,-963.24"/>
<text text-anchor="middle" x="94" y="-941.54" font-family="Times,serif" font-size="14.00">gql_build</text>
</g>
<!-- gql_build&#45;&gt;gql_pedantic -->
<g id="edge29" class="edge">
<title>gql_build&#45;&gt;gql_pedantic</title>
<path fill="none" stroke="#89da51" stroke-dasharray="5,2" d="M82.05,-926.91C52.12,-881.3 -21.72,-754.13 7,-647.24 63.23,-437.95 226.9,-225.93 285.67,-154.48"/>
<polygon fill="#89da51" stroke="#89da51" points="288.62,-156.41 292.31,-146.48 283.23,-151.94 288.62,-156.41"/>
</g>
<!-- gql_build&#45;&gt;gql -->
<g id="edge27" class="edge">
<title>gql_build&#45;&gt;gql</title>
<path fill="none" stroke="#68217c" d="M97.44,-926.99C107.04,-880.53 136.3,-749.4 180,-647.24 216.35,-562.25 275.96,-470.08 305.4,-426.63"/>
<polygon fill="#68217c" stroke="#68217c" points="308.3,-428.59 311.04,-418.36 302.52,-424.65 308.3,-428.59"/>
</g>
<!-- gql_build&#45;&gt;gql_code_builder -->
<g id="edge28" class="edge">
<title>gql_build&#45;&gt;gql_code_builder</title>
<path fill="none" stroke="#1da059" d="M92.59,-926.94C88.87,-881.22 78.74,-756.91 74.22,-701.51"/>
<polygon fill="#1da059" stroke="#1da059" points="77.7,-701.07 73.4,-691.39 70.72,-701.64 77.7,-701.07"/>
</g>
<!-- gql_example_http_auth_link -->
<g id="node12" class="node">
<title>gql_example_http_auth_link</title>
<polygon fill="none" stroke="#8a0733" points="723.5,-1276.24 550.5,-1276.24 550.5,-1240.24 723.5,-1240.24 723.5,-1276.24"/>
<text text-anchor="middle" x="637" y="-1254.54" font-family="Times,serif" font-size="14.00">gql_example_http_auth_link</text>
</g>
<!-- gql_example_http_auth_link&#45;&gt;gql_pedantic -->
<g id="edge36" class="edge">
<title>gql_example_http_auth_link&#45;&gt;gql_pedantic</title>
<path fill="none" stroke="#89da51" stroke-dasharray="5,2" d="M684.62,-1240.21C801.74,-1197.25 1098.26,-1081.7 1152,-994.24 1296.71,-758.73 1286.65,-580.82 1103,-374.24 1001.13,-259.64 521.68,-166.76 360.22,-138.27"/>
<polygon fill="#89da51" stroke="#89da51" points="360.51,-134.77 350.06,-136.49 359.3,-141.66 360.51,-134.77"/>
</g>
<!-- gql_example_http_auth_link&#45;&gt;gql -->
<g id="edge30" class="edge">
<title>gql_example_http_auth_link&#45;&gt;gql</title>
<path fill="none" stroke="#68217c" d="M577.1,-1240.23C480.96,-1209.32 295.2,-1133.84 218,-994.24 109.38,-797.82 256.77,-513.81 307.19,-427.25"/>
<polygon fill="#68217c" stroke="#68217c" points="310.23,-428.98 312.29,-418.58 304.2,-425.42 310.23,-428.98"/>
</g>
<!-- gql_example_http_auth_link&#45;&gt;gql_exec -->
<g id="edge32" class="edge">
<title>gql_example_http_auth_link&#45;&gt;gql_exec</title>
<path fill="none" stroke="#5b9240" d="M680.52,-1240.18C789.69,-1196.42 1070.19,-1077.78 1122,-994.24 1203.32,-863.1 1182.27,-793.46 1133,-647.24 1101.17,-552.76 1017,-465.81 973.26,-425.25"/>
<polygon fill="#5b9240" stroke="#5b9240" points="975.58,-422.63 965.84,-418.45 970.85,-427.79 975.58,-422.63"/>
</g>
<!-- gql_example_http_auth_link&#45;&gt;gql_link -->
<g id="edge31" class="edge">
<title>gql_example_http_auth_link&#45;&gt;gql_link</title>
<path fill="none" stroke="#7c0063" d="M678.36,-1240.15C782.8,-1196.1 1052.22,-1076.33 1100,-994.24 1160.17,-890.86 1047.99,-754.06 995.72,-698.88"/>
<polygon fill="#7c0063" stroke="#7c0063" points="997.93,-696.12 988.47,-691.34 992.88,-700.97 997.93,-696.12"/>
</g>
<!-- gql_example_http_auth_link&#45;&gt;gql_transform_link -->
<g id="edge34" class="edge">
<title>gql_example_http_auth_link&#45;&gt;gql_transform_link</title>
<path fill="none" stroke="#21d185" d="M632.14,-1240.07C617.6,-1188.67 574.31,-1035.69 556.64,-973.24"/>
<polygon fill="#21d185" stroke="#21d185" points="559.93,-972.02 553.84,-963.35 553.2,-973.92 559.93,-972.02"/>
</g>
<!-- gql_example_http_auth_link&#45;&gt;gql_http_link -->
<g id="edge35" class="edge">
<title>gql_example_http_auth_link&#45;&gt;gql_http_link</title>
<path fill="none" stroke="#ab8a09" d="M646.88,-1240.07C676.65,-1188.35 765.61,-1033.79 801.12,-972.09"/>
<polygon fill="#ab8a09" stroke="#ab8a09" points="804.2,-973.76 806.15,-963.35 798.13,-970.27 804.2,-973.76"/>
</g>
<!-- gql_example_http_auth_link&#45;&gt;gql_error_link -->
<g id="edge33" class="edge">
<title>gql_example_http_auth_link&#45;&gt;gql_error_link</title>
<path fill="none" stroke="#5f79bc" d="M625.13,-1240.07C589.31,-1188.25 482.09,-1033.15 439.61,-971.71"/>
<polygon fill="#5f79bc" stroke="#5f79bc" points="442.39,-969.58 433.83,-963.35 436.64,-973.56 442.39,-969.58"/>
</g>
<!-- gql_example_http_auth_link&#45;&gt;gql_build -->
<g id="edge37" class="edge">
<title>gql_example_http_auth_link&#45;&gt;gql_build</title>
<path fill="none" stroke="#3380b0" stroke-dasharray="5,2" d="M607.03,-1240.07C514.88,-1187.29 235.7,-1027.4 132.71,-968.41"/>
<polygon fill="#3380b0" stroke="#3380b0" points="134.29,-965.28 123.87,-963.35 130.81,-971.35 134.29,-965.28"/>
</g>
<!-- gql_example_flutter -->
<g id="node13" class="node">
<title>gql_example_flutter</title>
<polygon fill="none" stroke="#671702" points="1160,-1276.24 1034,-1276.24 1034,-1240.24 1160,-1240.24 1160,-1276.24"/>
<text text-anchor="middle" x="1097" y="-1254.54" font-family="Times,serif" font-size="14.00">gql_example_flutter</text>
</g>
<!-- gql_example_flutter&#45;&gt;gql_pedantic -->
<g id="edge42" class="edge">
<title>gql_example_flutter&#45;&gt;gql_pedantic</title>
<path fill="none" stroke="#89da51" stroke-dasharray="5,2" d="M1135.29,-1240.23C1207.25,-1205.85 1360.88,-1120.48 1421,-994.24 1446.52,-940.65 1503.33,-914.35 1411,-647.24 1361.95,-505.33 1335.7,-459.34 1212,-374.24 932.74,-182.09 508.94,-140.43 360.56,-131.57"/>
<polygon fill="#89da51" stroke="#89da51" points="360.54,-128.07 350.36,-130.99 360.14,-135.05 360.54,-128.07"/>
</g>
<!-- gql_example_flutter&#45;&gt;gql -->
<g id="edge38" class="edge">
<title>gql_example_flutter&#45;&gt;gql</title>
<path fill="none" stroke="#68217c" d="M1047.82,-1240.13C1040.18,-1237.49 1032.38,-1234.78 1025,-1232.24 717.18,-1125.94 523.22,-1257.84 332,-994.24 265.65,-902.77 306.46,-532.25 319.45,-428.41"/>
<polygon fill="#68217c" stroke="#68217c" points="322.93,-428.77 320.72,-418.41 315.98,-427.89 322.93,-428.77"/>
</g>
<!-- gql_example_flutter&#45;&gt;gql_exec -->
<g id="edge41" class="edge">
<title>gql_example_flutter&#45;&gt;gql_exec</title>
<path fill="none" stroke="#5b9240" d="M1130.23,-1240.01C1194.84,-1204.39 1335.83,-1115.65 1390,-994.24 1420.53,-925.8 1507.86,-851.62 1386,-647.24 1296.79,-497.62 1080.32,-431.95 988.41,-410.13"/>
<polygon fill="#5b9240" stroke="#5b9240" points="989.14,-406.71 978.61,-407.86 987.56,-413.53 989.14,-406.71"/>
</g>
<!-- gql_example_flutter&#45;&gt;gql_link -->
<g id="edge39" class="edge">
<title>gql_example_flutter&#45;&gt;gql_link</title>
<path fill="none" stroke="#7c0063" d="M1113.55,-1239.96C1158.56,-1190.79 1276.6,-1045.99 1227,-927.24 1182.33,-820.29 1068.01,-735.51 1008.41,-696.91"/>
<polygon fill="#7c0063" stroke="#7c0063" points="1009.99,-693.77 999.68,-691.33 1006.22,-699.67 1009.99,-693.77"/>
</g>
<!-- gql_example_flutter&#45;&gt;gql_http_link -->
<g id="edge40" class="edge">
<title>gql_example_flutter&#45;&gt;gql_http_link</title>
<path fill="none" stroke="#ab8a09" d="M1081.49,-1240.07C1034.47,-1188.03 893.38,-1031.88 838.34,-970.96"/>
<polygon fill="#ab8a09" stroke="#ab8a09" points="840.76,-968.42 831.46,-963.35 835.57,-973.11 840.76,-968.42"/>
</g>
<!-- gql_example_flutter&#45;&gt;gql_build -->
<g id="edge43" class="edge">
<title>gql_example_flutter&#45;&gt;gql_build</title>
<path fill="none" stroke="#3380b0" stroke-dasharray="5,2" d="M1048.67,-1240.19C1040.78,-1237.48 1032.67,-1234.75 1025,-1232.24 685.51,-1121.19 272.36,-998.67 138.28,-959.22"/>
<polygon fill="#3380b0" stroke="#3380b0" points="138.96,-955.77 128.38,-956.31 136.99,-962.49 138.96,-955.77"/>
</g>
<!-- gql_dio_link -->
<g id="node14" class="node">
<title>gql_dio_link</title>
<polygon fill="none" stroke="#45c9c3" points="965,-963.24 879,-963.24 879,-927.24 965,-927.24 965,-963.24"/>
<text text-anchor="middle" x="922" y="-941.54" font-family="Times,serif" font-size="14.00">gql_dio_link</text>
</g>
<!-- gql_dio_link&#45;&gt;gql_pedantic -->
<g id="edge47" class="edge">
<title>gql_dio_link&#45;&gt;gql_pedantic</title>
<path fill="none" stroke="#89da51" stroke-dasharray="5,2" d="M909.15,-927.21C831.08,-823.75 420.43,-279.56 326.26,-154.76"/>
<polygon fill="#89da51" stroke="#89da51" points="328.85,-152.38 320.03,-146.51 323.26,-156.6 328.85,-152.38"/>
</g>
<!-- gql_dio_link&#45;&gt;gql -->
<g id="edge46" class="edge">
<title>gql_dio_link&#45;&gt;gql</title>
<path fill="none" stroke="#68217c" stroke-dasharray="5,2" d="M903.08,-927.09C815.76,-847.93 451.55,-517.77 349.61,-425.36"/>
<polygon fill="#68217c" stroke="#68217c" points="351.68,-422.51 341.92,-418.39 346.98,-427.7 351.68,-422.51"/>
</g>
<!-- gql_dio_link&#45;&gt;gql_exec -->
<g id="edge44" class="edge">
<title>gql_dio_link&#45;&gt;gql_exec</title>
<path fill="none" stroke="#5b9240" d="M922.33,-927.15C923.27,-881.64 926.14,-753.65 931,-647.24 934.62,-567.87 940.88,-474.21 944.05,-428.75"/>
<polygon fill="#5b9240" stroke="#5b9240" points="947.56,-428.74 944.76,-418.52 940.57,-428.26 947.56,-428.74"/>
</g>
<!-- gql_dio_link&#45;&gt;gql_link -->
<g id="edge45" class="edge">
<title>gql_dio_link&#45;&gt;gql_link</title>
<path fill="none" stroke="#7c0063" d="M925.14,-926.94C933.44,-881.22 956,-756.91 966.05,-701.51"/>
<polygon fill="#7c0063" stroke="#7c0063" points="969.54,-701.86 967.89,-691.39 962.66,-700.61 969.54,-701.86"/>
</g>
<!-- gql_example_dio_link -->
<g id="node15" class="node">
<title>gql_example_dio_link</title>
<polygon fill="none" stroke="#058cba" points="1457.5,-1276.24 1318.5,-1276.24 1318.5,-1240.24 1457.5,-1240.24 1457.5,-1276.24"/>
<text text-anchor="middle" x="1388" y="-1254.54" font-family="Times,serif" font-size="14.00">gql_example_dio_link</text>
</g>
<!-- gql_example_dio_link&#45;&gt;gql -->
<g id="edge48" class="edge">
<title>gql_example_dio_link&#45;&gt;gql</title>
<path fill="none" stroke="#68217c" d="M1335.44,-1240.12C1326.64,-1237.39 1317.58,-1234.67 1309,-1232.24 891.49,-1113.83 639.95,-1327.52 362,-994.24 325.43,-950.38 322.94,-538.92 322.94,-428.43"/>
<polygon fill="#68217c" stroke="#68217c" points="326.44,-428.42 322.95,-418.42 319.44,-428.42 326.44,-428.42"/>
</g>
<!-- gql_example_dio_link&#45;&gt;gql_exec -->
<g id="edge50" class="edge">
<title>gql_example_dio_link&#45;&gt;gql_exec</title>
<path fill="none" stroke="#5b9240" d="M1394.93,-1240.05C1424.5,-1163.7 1533.2,-850.14 1411,-647.24 1316.44,-490.23 1084.37,-428.21 988.5,-408.74"/>
<polygon fill="#5b9240" stroke="#5b9240" points="989.06,-405.28 978.58,-406.78 987.71,-412.15 989.06,-405.28"/>
</g>
<!-- gql_example_dio_link&#45;&gt;gql_link -->
<g id="edge49" class="edge">
<title>gql_example_dio_link&#45;&gt;gql_link</title>
<path fill="none" stroke="#7c0063" d="M1383.43,-1240.18C1369.22,-1189.16 1322.11,-1034.6 1246,-927.24 1175.52,-827.81 1060.39,-738.07 1004.1,-697.34"/>
<polygon fill="#7c0063" stroke="#7c0063" points="1006.07,-694.45 995.91,-691.46 1001.99,-700.13 1006.07,-694.45"/>
</g>
<!-- gql_example_dio_link&#45;&gt;gql_dio_link -->
<g id="edge51" class="edge">
<title>gql_example_dio_link&#45;&gt;gql_dio_link</title>
<path fill="none" stroke="#45c9c3" d="M1357.55,-1240.23C1287.54,-1200.63 1110.7,-1097.71 975,-994.24 965.48,-986.97 955.61,-978.37 947,-970.46"/>
<polygon fill="#45c9c3" stroke="#45c9c3" points="949.2,-967.73 939.5,-963.46 944.42,-972.84 949.2,-967.73"/>
</g>
<!-- gql_example_cli_github -->
<g id="node16" class="node">
<title>gql_example_cli_github</title>
<polygon fill="none" stroke="#9b3b01" points="890.5,-1276.24 741.5,-1276.24 741.5,-1240.24 890.5,-1240.24 890.5,-1276.24"/>
<text text-anchor="middle" x="816" y="-1254.54" font-family="Times,serif" font-size="14.00">gql_example_cli_github</text>
</g>
<!-- gql_example_cli_github&#45;&gt;gql_pedantic -->
<g id="edge57" class="edge">
<title>gql_example_cli_github&#45;&gt;gql_pedantic</title>
<path fill="none" stroke="#89da51" stroke-dasharray="5,2" d="M855.55,-1240.19C931.29,-1205.47 1096.91,-1119.11 1183,-994.24 1272.83,-863.93 1297.19,-801.77 1263,-647.24 1234.1,-516.57 1237.36,-461.6 1136,-374.24 900.61,-171.35 503.64,-136.38 360.48,-130.43"/>
<polygon fill="#89da51" stroke="#89da51" points="360.35,-126.92 350.22,-130.04 360.08,-133.92 360.35,-126.92"/>
</g>
<!-- gql_example_cli_github&#45;&gt;gql -->
<g id="edge52" class="edge">
<title>gql_example_cli_github&#45;&gt;gql</title>
<path fill="none" stroke="#68217c" d="M762.4,-1240.23C633.9,-1198.26 314.6,-1086.49 256,-994.24 173.31,-864.05 235.56,-800.1 256,-647.24 266.91,-565.63 297.34,-472.74 313.16,-428.04"/>
<polygon fill="#68217c" stroke="#68217c" points="316.5,-429.1 316.58,-418.51 309.91,-426.74 316.5,-429.1"/>
</g>
<!-- gql_example_cli_github&#45;&gt;gql_exec -->
<g id="edge54" class="edge">
<title>gql_example_cli_github&#45;&gt;gql_exec</title>
<path fill="none" stroke="#5b9240" d="M862.91,-1240.11C978.28,-1196.92 1270.34,-1080.88 1323,-994.24 1403.1,-862.45 1396.44,-782.85 1323,-647.24 1250.58,-513.51 1070.43,-440.94 988.17,-413.83"/>
<polygon fill="#5b9240" stroke="#5b9240" points="989.23,-410.49 978.64,-410.74 987.08,-417.15 989.23,-410.49"/>
</g>
<!-- gql_example_cli_github&#45;&gt;gql_link -->
<g id="edge53" class="edge">
<title>gql_example_cli_github&#45;&gt;gql_link</title>
<path fill="none" stroke="#7c0063" d="M860.6,-1240.16C940.35,-1206.86 1105.18,-1124.91 1171,-994.24 1229.76,-877.57 1075.65,-748.51 1004.63,-697.14"/>
<polygon fill="#7c0063" stroke="#7c0063" points="1006.57,-694.23 996.4,-691.27 1002.51,-699.93 1006.57,-694.23"/>
</g>
<!-- gql_example_cli_github&#45;&gt;gql_transform_link -->
<g id="edge56" class="edge">
<title>gql_example_cli_github&#45;&gt;gql_transform_link</title>
<path fill="none" stroke="#21d185" d="M801.26,-1240.07C756.59,-1188.03 622.53,-1031.88 570.22,-970.96"/>
<polygon fill="#21d185" stroke="#21d185" points="572.86,-968.65 563.69,-963.35 567.55,-973.21 572.86,-968.65"/>
</g>
<!-- gql_example_cli_github&#45;&gt;gql_http_link -->
<g id="edge55" class="edge">
<title>gql_example_cli_github&#45;&gt;gql_http_link</title>
<path fill="none" stroke="#ab8a09" d="M816,-1240.07C816,-1188.78 816,-1036.32 816,-973.63"/>
<polygon fill="#ab8a09" stroke="#ab8a09" points="819.5,-973.35 816,-963.35 812.5,-973.35 819.5,-973.35"/>
</g>
<!-- gql_example_cli_github&#45;&gt;gql_build -->
<g id="edge58" class="edge">
<title>gql_example_cli_github&#45;&gt;gql_build</title>
<path fill="none" stroke="#3380b0" stroke-dasharray="5,2" d="M776.41,-1240.18C651.67,-1186.45 267.4,-1020.93 137.46,-964.96"/>
<polygon fill="#3380b0" stroke="#3380b0" points="138.76,-961.7 128.19,-960.96 135.99,-968.13 138.76,-961.7"/>
</g>
<!-- gql_example_cli -->
<g id="node17" class="node">
<title>gql_example_cli</title>
<polygon fill="none" stroke="#18510b" points="1015.5,-1276.24 908.5,-1276.24 908.5,-1240.24 1015.5,-1240.24 1015.5,-1276.24"/>
<text text-anchor="middle" x="962" y="-1254.54" font-family="Times,serif" font-size="14.00">gql_example_cli</text>
</g>
<!-- gql_example_cli&#45;&gt;gql_pedantic -->
<g id="edge63" class="edge">
<title>gql_example_cli&#45;&gt;gql_pedantic</title>
<path fill="none" stroke="#89da51" stroke-dasharray="5,2" d="M986.23,-1239.97C1037.65,-1201.93 1157.84,-1105.4 1217,-994.24 1346.77,-750.4 1378.66,-559.74 1174,-374.24 932.37,-155.22 509.23,-130.44 360.52,-128.79"/>
<polygon fill="#89da51" stroke="#89da51" points="360.32,-125.29 350.29,-128.71 360.27,-132.29 360.32,-125.29"/>
</g>
<!-- gql_example_cli&#45;&gt;gql -->
<g id="edge59" class="edge">
<title>gql_example_cli&#45;&gt;gql</title>
<path fill="none" stroke="#68217c" d="M919.66,-1240.11C913.09,-1237.46 906.36,-1234.77 900,-1232.24 631.15,-1125.24 456.97,-1233.34 294,-994.24 230.29,-900.77 297.14,-531.68 317.51,-428.29"/>
<polygon fill="#68217c" stroke="#68217c" points="320.97,-428.82 319.49,-418.33 314.11,-427.46 320.97,-428.82"/>
</g>
<!-- gql_example_cli&#45;&gt;gql_exec -->
<g id="edge61" class="edge">
<title>gql_example_cli&#45;&gt;gql_exec</title>
<path fill="none" stroke="#5b9240" d="M996.1,-1240.16C1085.11,-1194.83 1320.33,-1069.75 1361,-994.24 1434.13,-858.45 1437.34,-781.24 1361,-647.24 1279.16,-503.59 1076.79,-435.21 988.43,-411.43"/>
<polygon fill="#5b9240" stroke="#5b9240" points="989.29,-408.03 978.73,-408.87 987.51,-414.8 989.29,-408.03"/>
</g>
<!-- gql_example_cli&#45;&gt;gql_link -->
<g id="edge60" class="edge">
<title>gql_example_cli&#45;&gt;gql_link</title>
<path fill="none" stroke="#7c0063" d="M988.07,-1240.05C1041.79,-1202.86 1163.57,-1108.97 1209,-994.24 1259.44,-866.86 1089.71,-745.21 1010.04,-696.54"/>
<polygon fill="#7c0063" stroke="#7c0063" points="1011.62,-693.4 1001.25,-691.24 1008,-699.4 1011.62,-693.4"/>
</g>
<!-- gql_example_cli&#45;&gt;gql_http_link -->
<g id="edge62" class="edge">
<title>gql_example_cli&#45;&gt;gql_http_link</title>
<path fill="none" stroke="#ab8a09" d="M953.94,-1240.07C929.71,-1188.46 857.4,-1034.42 828.32,-972.47"/>
<polygon fill="#ab8a09" stroke="#ab8a09" points="831.45,-970.91 824.03,-963.35 825.11,-973.89 831.45,-970.91"/>
</g>
<!-- gql_example_cli&#45;&gt;gql_build -->
<g id="edge64" class="edge">
<title>gql_example_cli&#45;&gt;gql_build</title>
<path fill="none" stroke="#3380b0" stroke-dasharray="5,2" d="M920.41,-1240.18C913.61,-1237.48 906.62,-1234.74 900,-1232.24 611.33,-1122.87 259.93,-1002.51 138.09,-961.15"/>
<polygon fill="#3380b0" stroke="#3380b0" points="138.96,-957.75 128.36,-957.85 136.71,-964.37 138.96,-957.75"/>
</g>
<!-- gql_example_build -->
<g id="node18" class="node">
<title>gql_example_build</title>
<polygon fill="none" stroke="#628320" points="1300,-1276.24 1178,-1276.24 1178,-1240.24 1300,-1240.24 1300,-1276.24"/>
<text text-anchor="middle" x="1239" y="-1254.54" font-family="Times,serif" font-size="14.00">gql_example_build</text>
</g>
<!-- gql_example_build&#45;&gt;gql_pedantic -->
<g id="edge65" class="edge">
<title>gql_example_build&#45;&gt;gql_pedantic</title>
<path fill="none" stroke="#89da51" stroke-dasharray="5,2" d="M1260.42,-1240.01C1306.14,-1201.67 1412.26,-1104.02 1451,-994.24 1546.99,-722.21 1492.27,-543.93 1259,-374.24 969.28,-163.48 514.55,-133.62 360.26,-129.71"/>
<polygon fill="#89da51" stroke="#89da51" points="360.18,-126.2 350.1,-129.48 360.02,-133.2 360.18,-126.2"/>
</g>
<!-- gql_example_build&#45;&gt;gql_build -->
<g id="edge66" class="edge">
<title>gql_example_build&#45;&gt;gql_build</title>
<path fill="none" stroke="#3380b0" stroke-dasharray="5,2" d="M1192.87,-1240.15C1184.94,-1237.39 1176.76,-1234.65 1169,-1232.24 773.25,-1109.16 285.58,-991.45 138.2,-956.6"/>
<polygon fill="#3380b0" stroke="#3380b0" points="138.72,-953.13 128.18,-954.23 137.11,-959.94 138.72,-953.13"/>
</g>
<!-- gql_dedupe_link -->
<g id="node19" class="node">
<title>gql_dedupe_link</title>
<polygon fill="none" stroke="#cf6bf6" points="1090.5,-963.24 983.5,-963.24 983.5,-927.24 1090.5,-927.24 1090.5,-963.24"/>
<text text-anchor="middle" x="1037" y="-941.54" font-family="Times,serif" font-size="14.00">gql_dedupe_link</text>
</g>
<!-- gql_dedupe_link&#45;&gt;gql_pedantic -->
<g id="edge70" class="edge">
<title>gql_dedupe_link&#45;&gt;gql_pedantic</title>
<path fill="none" stroke="#89da51" stroke-dasharray="5,2" d="M1021.75,-927.21C928.89,-823.54 439.69,-277.38 329.19,-154.01"/>
<polygon fill="#89da51" stroke="#89da51" points="331.75,-151.62 322.47,-146.51 326.54,-156.29 331.75,-151.62"/>
</g>
<!-- gql_dedupe_link&#45;&gt;gql -->
<g id="edge69" class="edge">
<title>gql_dedupe_link&#45;&gt;gql</title>
<path fill="none" stroke="#68217c" stroke-dasharray="5,2" d="M1014.45,-927.09C910.05,-847.69 473.61,-515.78 353.64,-424.53"/>
<polygon fill="#68217c" stroke="#68217c" points="355.63,-421.66 345.55,-418.39 351.39,-427.23 355.63,-421.66"/>
</g>
<!-- gql_dedupe_link&#45;&gt;gql_exec -->
<g id="edge67" class="edge">
<title>gql_dedupe_link&#45;&gt;gql_exec</title>
<path fill="none" stroke="#5b9240" d="M1036.52,-927.03C1035.03,-881.2 1029.38,-752.53 1011,-647.24 996.83,-566.09 968.82,-472.63 954.64,-427.86"/>
<polygon fill="#5b9240" stroke="#5b9240" points="957.97,-426.77 951.6,-418.31 951.3,-428.9 957.97,-426.77"/>
</g>
<!-- gql_dedupe_link&#45;&gt;gql_link -->
<g id="edge68" class="edge">
<title>gql_dedupe_link&#45;&gt;gql_link</title>
<path fill="none" stroke="#7c0063" d="M1032.77,-926.94C1021.57,-881.12 991.08,-756.39 977.58,-701.16"/>
<polygon fill="#7c0063" stroke="#7c0063" points="980.97,-700.28 975.19,-691.39 974.17,-701.94 980.97,-700.28"/>
</g>
<!-- end_to_end_test -->
<g id="node20" class="node">
<title>end_to_end_test</title>
<polygon fill="none" stroke="#97b336" points="127.5,-1276.24 22.5,-1276.24 22.5,-1240.24 127.5,-1240.24 127.5,-1276.24"/>
<text text-anchor="middle" x="75" y="-1254.54" font-family="Times,serif" font-size="14.00">end_to_end_test</text>
</g>
<!-- end_to_end_test&#45;&gt;gql_exec -->
<g id="edge71" class="edge">
<title>end_to_end_test&#45;&gt;gql_exec</title>
<path fill="none" stroke="#5b9240" d="M127.6,-1252.06C319.52,-1232.01 977.18,-1152.55 1100,-994.24 1171.7,-901.82 1006.55,-530.54 958.58,-427.74"/>
<polygon fill="#5b9240" stroke="#5b9240" points="961.61,-425.95 954.19,-418.38 955.27,-428.92 961.61,-425.95"/>
</g>
<!-- end_to_end_test&#45;&gt;gql_code_builder -->
<g id="edge73" class="edge">
<title>end_to_end_test&#45;&gt;gql_code_builder</title>
<path fill="none" stroke="#1da059" d="M72.37,-1240.08C65.17,-1191.23 46.03,-1047.19 51,-927.24 54.41,-844.88 64.05,-747.84 68.99,-701.51"/>
<polygon fill="#1da059" stroke="#1da059" points="72.49,-701.7 70.08,-691.38 65.53,-700.95 72.49,-701.7"/>
</g>
<!-- end_to_end_test&#45;&gt;gql_build -->
<g id="edge72" class="edge">
<title>end_to_end_test&#45;&gt;gql_build</title>
<path fill="none" stroke="#3380b0" d="M76.05,-1240.07C79.18,-1188.78 88.5,-1036.32 92.33,-973.63"/>
<polygon fill="#3380b0" stroke="#3380b0" points="95.84,-973.54 92.95,-963.35 88.85,-973.11 95.84,-973.54"/>
</g>
</g>
</svg>
