<?xml version="1.0" encoding="UTF-8" standalone="no"?>
<!DOCTYPE svg PUBLIC "-//W3C//DTD SVG 1.1//EN"
 "http://www.w3.org/Graphics/SVG/1.1/DTD/svg11.dtd">
<!-- Generated by graphviz version 6.0.1 (20220911.1526)
 -->
<!-- Title: packages Pages: 1 -->
<svg width="720pt" height="709pt"
 viewBox="0.00 0.00 720.00 709.41" xmlns="http://www.w3.org/2000/svg" xmlns:xlink="http://www.w3.org/1999/xlink">
<g id="graph0" class="graph" transform="scale(0.390642 0.390642) rotate(0) translate(4 1812)">
<title>packages</title>
<polygon fill="white" stroke="none" points="-4,4 -4,-1812 1839.12,-1812 1839.12,4 -4,4"/>
<g id="clust1" class="cluster">
<title>cluster </title>
<polygon fill="none" stroke="#a473ff" points="436.12,-37.09 436.12,-611.94 538.12,-611.94 538.12,-37.09 436.12,-37.09"/>
</g>
<g id="clust2" class="cluster">
<title>cluster links</title>
<polygon fill="none" stroke="#e2446b" points="546.12,-370.87 546.12,-1386.13 1278.12,-1386.13 1278.12,-370.87 546.12,-370.87"/>
<text text-anchor="middle" x="912.12" y="-1370.93" font-family="Times,serif" font-size="14.00">links</text>
</g>
<g id="clust3" class="cluster">
<title>cluster codegen</title>
<polygon fill="none" stroke="#856663" points="35.12,-370.87 35.12,-1770.91 356.12,-1770.91 356.12,-370.87 35.12,-370.87"/>
<text text-anchor="middle" x="195.62" y="-1755.71" font-family="Times,serif" font-size="14.00">codegen</text>
</g>
<g id="clust4" class="cluster">
<title>cluster examples</title>
<polygon fill="none" stroke="#e8f445" points="902.12,-1423.22 902.12,-1770.91 1827.12,-1770.91 1827.12,-1423.22 902.12,-1423.22"/>
<text text-anchor="middle" x="1364.62" y="-1755.71" font-family="Times,serif" font-size="14.00">examples</text>
</g>
<!-- gql_pedantic -->
<g id="node1" class="node">
<title>gql_pedantic</title>
<polygon fill="none" stroke="#89da51" points="530.12,-176.09 444.12,-176.09 444.12,-140.09 530.12,-140.09 530.12,-176.09"/>
<text text-anchor="middle" x="487.12" y="-154.39" font-family="Times,serif" font-size="14.00">gql_pedantic</text>
</g>
<!-- gql -->
<g id="node2" class="node">
<title>gql</title>
<polygon fill="none" stroke="#68217c" points="530.12,-509.09 476.12,-509.09 476.12,-473.09 530.12,-473.09 530.12,-509.09"/>
<text text-anchor="middle" x="503.12" y="-487.39" font-family="Times,serif" font-size="14.00">gql</text>
</g>
<!-- gql&#45;&gt;gql_pedantic -->
<g id="edge1" class="edge">
<title>gql&#45;&gt;gql_pedantic</title>
<path fill="none" stroke="#89da51" stroke-dasharray="5,2" d="M502.28,-472.76C499.66,-418.58 491.61,-252.08 488.43,-186.26"/>
<polygon fill="#89da51" stroke="#89da51" points="491.93,-186.06 487.95,-176.25 484.94,-186.4 491.93,-186.06"/>
</g>
<!-- gql_exec -->
<g id="node3" class="node">
<title>gql_exec</title>
<polygon fill="none" stroke="#5b9240" points="1178.62,-509.09 1113.62,-509.09 1113.62,-473.09 1178.62,-473.09 1178.62,-509.09"/>
<text text-anchor="middle" x="1146.12" y="-487.39" font-family="Times,serif" font-size="14.00">gql_exec</text>
</g>
<!-- gql_exec&#45;&gt;gql_pedantic -->
<g id="edge3" class="edge">
<title>gql_exec&#45;&gt;gql_pedantic</title>
<path fill="none" stroke="#89da51" stroke-dasharray="5,2" d="M1113.44,-473.67C1004.47,-418.94 653.5,-242.66 530.33,-180.79"/>
<polygon fill="#89da51" stroke="#89da51" points="531.69,-177.55 521.18,-176.19 528.54,-183.81 531.69,-177.55"/>
</g>
<!-- gql_exec&#45;&gt;gql -->
<g id="edge2" class="edge">
<title>gql_exec&#45;&gt;gql</title>
<path fill="none" stroke="#68217c" d="M1113.33,-491.09C922.35,-491.09 731.36,-491.09 540.37,-491.09"/>
<polygon fill="#68217c" stroke="#68217c" points="540.12,-487.59 530.12,-491.09 540.12,-494.59 540.12,-487.59"/>
</g>
<!-- gql_link -->
<g id="node4" class="node">
<title>gql_link</title>
<polygon fill="none" stroke="#7c0063" points="1152.12,-843.09 1090.12,-843.09 1090.12,-807.09 1152.12,-807.09 1152.12,-843.09"/>
<text text-anchor="middle" x="1121.12" y="-821.39" font-family="Times,serif" font-size="14.00">gql_link</text>
</g>
<!-- gql_link&#45;&gt;gql_pedantic -->
<g id="edge6" class="edge">
<title>gql_link&#45;&gt;gql_pedantic</title>
<path fill="none" stroke="#89da51" stroke-dasharray="5,2" d="M1119.27,-806.73C1112.56,-751.09 1084.97,-574.45 996.12,-465.09 869.84,-309.65 642.17,-213.93 539.66,-176.79"/>
<polygon fill="#89da51" stroke="#89da51" points="540.73,-173.45 530.14,-173.37 538.37,-180.04 540.73,-173.45"/>
</g>
<!-- gql_link&#45;&gt;gql -->
<g id="edge4" class="edge">
<title>gql_link&#45;&gt;gql</title>
<path fill="none" stroke="#68217c" d="M1089.87,-808.66C1002.2,-765.14 746.94,-636.76 542.12,-517.09 540.82,-516.33 539.5,-515.54 538.17,-514.74"/>
<polygon fill="#68217c" stroke="#68217c" points="539.72,-511.59 529.37,-509.33 536.05,-517.55 539.72,-511.59"/>
</g>
<!-- gql_link&#45;&gt;gql_exec -->
<g id="edge5" class="edge">
<title>gql_link&#45;&gt;gql_exec</title>
<path fill="none" stroke="#5b9240" d="M1122.43,-806.7C1126.52,-752.36 1139.1,-585.36 1144.07,-519.35"/>
<polygon fill="#5b9240" stroke="#5b9240" points="1147.56,-519.53 1144.82,-509.3 1140.58,-519.01 1147.56,-519.53"/>
</g>
<!-- gql_websocket_link -->
<g id="node5" class="node">
<title>gql_websocket_link</title>
<polygon fill="none" stroke="#bb5677" points="679.62,-1177.09 554.62,-1177.09 554.62,-1141.09 679.62,-1141.09 679.62,-1177.09"/>
<text text-anchor="middle" x="617.12" y="-1155.39" font-family="Times,serif" font-size="14.00">gql_websocket_link</text>
</g>
<!-- gql_websocket_link&#45;&gt;gql_pedantic -->
<g id="edge10" class="edge">
<title>gql_websocket_link&#45;&gt;gql_pedantic</title>
<path fill="none" stroke="#89da51" stroke-dasharray="5,2" d="M615.54,-1140.9C608.31,-1062.8 577.02,-733.63 539.12,-465.09 524.54,-361.76 502.26,-239.65 492.27,-186.31"/>
<polygon fill="#89da51" stroke="#89da51" points="495.68,-185.47 490.39,-176.29 488.8,-186.76 495.68,-185.47"/>
</g>
<!-- gql_websocket_link&#45;&gt;gql -->
<g id="edge7" class="edge">
<title>gql_websocket_link&#45;&gt;gql</title>
<path fill="none" stroke="#68217c" d="M614.19,-1140.95C598.74,-1050.71 526.8,-630.43 507.76,-519.17"/>
<polygon fill="#68217c" stroke="#68217c" points="511.17,-518.37 506.03,-509.11 504.27,-519.55 511.17,-518.37"/>
</g>
<!-- gql_websocket_link&#45;&gt;gql_exec -->
<g id="edge8" class="edge">
<title>gql_websocket_link&#45;&gt;gql_exec</title>
<path fill="none" stroke="#5b9240" d="M630.73,-1140.95C702.84,-1050.16 1040.29,-625.33 1126.19,-517.18"/>
<polygon fill="#5b9240" stroke="#5b9240" points="1129.12,-519.11 1132.6,-509.11 1123.64,-514.76 1129.12,-519.11"/>
</g>
<!-- gql_websocket_link&#45;&gt;gql_link -->
<g id="edge9" class="edge">
<title>gql_websocket_link&#45;&gt;gql_link</title>
<path fill="none" stroke="#7c0063" d="M643.16,-1140.94C727.31,-1085.5 991.99,-911.15 1086.86,-848.65"/>
<polygon fill="#7c0063" stroke="#7c0063" points="1088.81,-851.56 1095.24,-843.14 1084.96,-845.71 1088.81,-851.56"/>
</g>
<!-- gql_tristate_value -->
<g id="node6" class="node">
<title>gql_tristate_value</title>
<polygon fill="none" stroke="#548b12" points="347.62,-509.09 234.62,-509.09 234.62,-473.09 347.62,-473.09 347.62,-509.09"/>
<text text-anchor="middle" x="291.12" y="-487.39" font-family="Times,serif" font-size="14.00">gql_tristate_value</text>
</g>
<!-- gql_transform_link -->
<g id="node7" class="node">
<title>gql_transform_link</title>
<polygon fill="none" stroke="#21d185" points="1058.12,-1177.09 936.12,-1177.09 936.12,-1141.09 1058.12,-1141.09 1058.12,-1177.09"/>
<text text-anchor="middle" x="997.12" y="-1155.39" font-family="Times,serif" font-size="14.00">gql_transform_link</text>
</g>
<!-- gql_transform_link&#45;&gt;gql_pedantic -->
<g id="edge14" class="edge">
<title>gql_transform_link&#45;&gt;gql_pedantic</title>
<path fill="none" stroke="#89da51" stroke-dasharray="5,2" d="M988.27,-1140.75C927.63,-1021.96 573.76,-328.8 500.42,-185.14"/>
<polygon fill="#89da51" stroke="#89da51" points="503.48,-183.44 495.82,-176.12 497.25,-186.62 503.48,-183.44"/>
</g>
<!-- gql_transform_link&#45;&gt;gql -->
<g id="edge13" class="edge">
<title>gql_transform_link&#45;&gt;gql</title>
<path fill="none" stroke="#68217c" stroke-dasharray="5,2" d="M984.41,-1140.95C917.07,-1050.16 601.95,-625.33 521.73,-517.18"/>
<polygon fill="#68217c" stroke="#68217c" points="524.51,-515.05 515.74,-509.11 518.89,-519.22 524.51,-515.05"/>
</g>
<!-- gql_transform_link&#45;&gt;gql_exec -->
<g id="edge11" class="edge">
<title>gql_transform_link&#45;&gt;gql_exec</title>
<path fill="none" stroke="#5b9240" d="M1000.95,-1140.95C1021.14,-1050.71 1115.17,-630.43 1140.06,-519.17"/>
<polygon fill="#5b9240" stroke="#5b9240" points="1143.54,-519.63 1142.31,-509.11 1136.71,-518.1 1143.54,-519.63"/>
</g>
<!-- gql_transform_link&#45;&gt;gql_link -->
<g id="edge12" class="edge">
<title>gql_transform_link&#45;&gt;gql_link</title>
<path fill="none" stroke="#7c0063" d="M1003.61,-1140.7C1023.95,-1086.25 1086.54,-918.67 1111.09,-852.94"/>
<polygon fill="#7c0063" stroke="#7c0063" points="1114.47,-853.89 1114.69,-843.3 1107.91,-851.44 1114.47,-853.89"/>
</g>
<!-- gql_http_link -->
<g id="node8" class="node">
<title>gql_http_link</title>
<polygon fill="none" stroke="#ab8a09" points="1165.62,-1177.09 1076.62,-1177.09 1076.62,-1141.09 1165.62,-1141.09 1165.62,-1177.09"/>
<text text-anchor="middle" x="1121.12" y="-1155.39" font-family="Times,serif" font-size="14.00">gql_http_link</text>
</g>
<!-- gql_http_link&#45;&gt;gql_pedantic -->
<g id="edge18" class="edge">
<title>gql_http_link&#45;&gt;gql_pedantic</title>
<path fill="none" stroke="#89da51" stroke-dasharray="5,2" d="M1110.12,-1140.75C1034.65,-1021.84 593.94,-327.41 503.38,-184.71"/>
<polygon fill="#89da51" stroke="#89da51" points="506.25,-182.69 497.93,-176.12 500.34,-186.44 506.25,-182.69"/>
</g>
<!-- gql_http_link&#45;&gt;gql -->
<g id="edge15" class="edge">
<title>gql_http_link&#45;&gt;gql</title>
<path fill="none" stroke="#68217c" d="M1105.22,-1140.95C1020.81,-1049.98 625.17,-623.62 525.81,-516.54"/>
<polygon fill="#68217c" stroke="#68217c" points="528.28,-514.06 518.91,-509.11 523.15,-518.82 528.28,-514.06"/>
</g>
<!-- gql_http_link&#45;&gt;gql_exec -->
<g id="edge16" class="edge">
<title>gql_http_link&#45;&gt;gql_exec</title>
<path fill="none" stroke="#5b9240" d="M1124.05,-1141.09C1132,-1093.95 1153.88,-957.52 1161.12,-843.09 1168.75,-722.46 1155.58,-578.26 1149.24,-519.27"/>
<polygon fill="#5b9240" stroke="#5b9240" points="1152.71,-518.82 1148.14,-509.27 1145.75,-519.59 1152.71,-518.82"/>
</g>
<!-- gql_http_link&#45;&gt;gql_link -->
<g id="edge17" class="edge">
<title>gql_http_link&#45;&gt;gql_link</title>
<path fill="none" stroke="#7c0063" d="M1121.12,-1140.7C1121.12,-1086.36 1121.12,-919.36 1121.12,-853.35"/>
<polygon fill="#7c0063" stroke="#7c0063" points="1124.62,-853.3 1121.12,-843.3 1117.62,-853.3 1124.62,-853.3"/>
</g>
<!-- gql_error_link -->
<g id="node9" class="node">
<title>gql_error_link</title>
<polygon fill="none" stroke="#5f79bc" points="917.62,-1177.09 822.62,-1177.09 822.62,-1141.09 917.62,-1141.09 917.62,-1177.09"/>
<text text-anchor="middle" x="870.12" y="-1155.39" font-family="Times,serif" font-size="14.00">gql_error_link</text>
</g>
<!-- gql_error_link&#45;&gt;gql_pedantic -->
<g id="edge22" class="edge">
<title>gql_error_link&#45;&gt;gql_pedantic</title>
<path fill="none" stroke="#89da51" stroke-dasharray="5,2" d="M863.47,-1140.75C817.98,-1022.08 552.71,-330.18 497.27,-185.58"/>
<polygon fill="#89da51" stroke="#89da51" points="500.5,-184.21 493.65,-176.12 493.96,-186.72 500.5,-184.21"/>
</g>
<!-- gql_error_link&#45;&gt;gql -->
<g id="edge21" class="edge">
<title>gql_error_link&#45;&gt;gql</title>
<path fill="none" stroke="#68217c" stroke-dasharray="5,2" d="M860.68,-1140.95C810.8,-1050.44 577.95,-627.88 517.49,-518.17"/>
<polygon fill="#68217c" stroke="#68217c" points="520.39,-516.18 512.5,-509.11 514.26,-519.55 520.39,-516.18"/>
</g>
<!-- gql_error_link&#45;&gt;gql_exec -->
<g id="edge19" class="edge">
<title>gql_error_link&#45;&gt;gql_exec</title>
<path fill="none" stroke="#5b9240" d="M880.63,-1140.87C908.76,-1094.27 986.96,-961.23 1036.12,-843.09 1084.96,-725.73 1124.35,-578.67 1139.46,-519.05"/>
<polygon fill="#5b9240" stroke="#5b9240" points="1142.87,-519.83 1141.92,-509.28 1136.08,-518.12 1142.87,-519.83"/>
</g>
<!-- gql_error_link&#45;&gt;gql_link -->
<g id="edge20" class="edge">
<title>gql_error_link&#45;&gt;gql_link</title>
<path fill="none" stroke="#7c0063" d="M883.26,-1140.7C924.77,-1085.8 1053.22,-915.9 1102.03,-851.34"/>
<polygon fill="#7c0063" stroke="#7c0063" points="1104.87,-853.39 1108.11,-843.3 1099.29,-849.16 1104.87,-853.39"/>
</g>
<!-- gql_code_builder_serializers -->
<g id="node10" class="node">
<title>gql_code_builder_serializers</title>
<polygon fill="none" stroke="#10ee6a" points="216.62,-509.09 43.62,-509.09 43.62,-473.09 216.62,-473.09 216.62,-509.09"/>
<text text-anchor="middle" x="130.12" y="-487.39" font-family="Times,serif" font-size="14.00">gql_code_builder_serializers</text>
</g>
<!-- gql_code_builder_serializers&#45;&gt;gql -->
<g id="edge23" class="edge">
<title>gql_code_builder_serializers&#45;&gt;gql</title>
<path fill="none" stroke="#68217c" d="M134.8,-509.36C145.33,-546.2 174.76,-628.71 234.12,-662.09 305.02,-701.95 347.88,-704.77 417.12,-662.09 468.02,-630.71 489.85,-558.97 498.33,-519.1"/>
<polygon fill="#68217c" stroke="#68217c" points="501.78,-519.72 500.3,-509.23 494.91,-518.36 501.78,-519.72"/>
</g>
<!-- gql_code_builder_serializers&#45;&gt;gql_exec -->
<g id="edge24" class="edge">
<title>gql_code_builder_serializers&#45;&gt;gql_exec</title>
<path fill="none" stroke="#5b9240" d="M134.8,-509.36C145.33,-546.2 174.76,-628.71 234.12,-662.09 557.99,-844.18 758.57,-864.55 1070.12,-662.09 1119.03,-630.3 1136.72,-558.99 1142.92,-519.23"/>
<polygon fill="#5b9240" stroke="#5b9240" points="1146.41,-519.54 1144.35,-509.15 1139.48,-518.55 1146.41,-519.54"/>
</g>
<!-- gql_code_builder -->
<g id="node11" class="node">
<title>gql_code_builder</title>
<polygon fill="none" stroke="#1da059" points="307.62,-843.09 196.62,-843.09 196.62,-807.09 307.62,-807.09 307.62,-843.09"/>
<text text-anchor="middle" x="252.12" y="-821.39" font-family="Times,serif" font-size="14.00">gql_code_builder</text>
</g>
<!-- gql_code_builder&#45;&gt;gql_pedantic -->
<g id="edge29" class="edge">
<title>gql_code_builder&#45;&gt;gql_pedantic</title>
<path fill="none" stroke="#89da51" stroke-dasharray="5,2" d="M258.16,-806.98C290.04,-716.79 438.58,-296.44 477.67,-185.82"/>
<polygon fill="#89da51" stroke="#89da51" points="480.97,-186.98 481.01,-176.39 474.37,-184.65 480.97,-186.98"/>
</g>
<!-- gql_code_builder&#45;&gt;gql -->
<g id="edge25" class="edge">
<title>gql_code_builder&#45;&gt;gql</title>
<path fill="none" stroke="#68217c" d="M265.26,-806.7C306.77,-751.8 435.22,-581.9 484.03,-517.34"/>
<polygon fill="#68217c" stroke="#68217c" points="486.87,-519.39 490.11,-509.3 481.29,-515.16 486.87,-519.39"/>
</g>
<!-- gql_code_builder&#45;&gt;gql_exec -->
<g id="edge26" class="edge">
<title>gql_code_builder&#45;&gt;gql_exec</title>
<path fill="none" stroke="#5b9240" d="M297.99,-807.05C452.8,-749.56 954.62,-563.2 1103.87,-507.78"/>
<polygon fill="#5b9240" stroke="#5b9240" points="1105.44,-510.93 1113.59,-504.17 1103,-504.37 1105.44,-510.93"/>
</g>
<!-- gql_code_builder&#45;&gt;gql_tristate_value -->
<g id="edge27" class="edge">
<title>gql_code_builder&#45;&gt;gql_tristate_value</title>
<path fill="none" stroke="#548b12" d="M254.16,-806.7C260.55,-752.36 280.16,-585.36 287.92,-519.35"/>
<polygon fill="#548b12" stroke="#548b12" points="291.41,-519.64 289.1,-509.3 284.46,-518.82 291.41,-519.64"/>
</g>
<!-- gql_code_builder&#45;&gt;gql_code_builder_serializers -->
<g id="edge28" class="edge">
<title>gql_code_builder&#45;&gt;gql_code_builder_serializers</title>
<path fill="none" stroke="#10ee6a" d="M245.73,-806.7C225.72,-752.25 164.14,-584.67 139.99,-518.94"/>
<polygon fill="#10ee6a" stroke="#10ee6a" points="143.18,-517.48 136.44,-509.3 136.61,-519.89 143.18,-517.48"/>
</g>
<!-- gql_build -->
<g id="node12" class="node">
<title>gql_build</title>
<polygon fill="none" stroke="#3380b0" points="346.12,-1177.09 278.12,-1177.09 278.12,-1141.09 346.12,-1141.09 346.12,-1177.09"/>
<text text-anchor="middle" x="312.12" y="-1155.39" font-family="Times,serif" font-size="14.00">gql_build</text>
</g>
<!-- gql_build&#45;&gt;gql_pedantic -->
<g id="edge33" class="edge">
<title>gql_build&#45;&gt;gql_pedantic</title>
<path fill="none" stroke="#89da51" stroke-dasharray="5,2" d="M294.33,-1140.87C214.31,-1061.28 -102.42,-722.09 34.12,-465.09 120.2,-303.07 334.58,-211.25 434.42,-176"/>
<polygon fill="#89da51" stroke="#89da51" points="435.71,-179.26 444,-172.67 433.41,-172.65 435.71,-179.26"/>
</g>
<!-- gql_build&#45;&gt;gql -->
<g id="edge30" class="edge">
<title>gql_build&#45;&gt;gql</title>
<path fill="none" stroke="#68217c" d="M312.71,-1140.92C314.86,-1089.37 324.13,-931.77 360.12,-807.09 392.58,-694.64 458.48,-570.86 488.11,-518.16"/>
<polygon fill="#68217c" stroke="#68217c" points="491.32,-519.59 493.2,-509.16 485.23,-516.14 491.32,-519.59"/>
</g>
<!-- gql_build&#45;&gt;gql_tristate_value -->
<g id="edge32" class="edge">
<title>gql_build&#45;&gt;gql_tristate_value</title>
<path fill="none" stroke="#548b12" d="M302.65,-1141.03C277.6,-1094.84 209.99,-962.71 187.12,-843.09 163.38,-718.91 239.33,-575.78 274.38,-518.13"/>
<polygon fill="#548b12" stroke="#548b12" points="277.54,-519.66 279.83,-509.32 271.59,-515.98 277.54,-519.66"/>
</g>
<!-- gql_build&#45;&gt;gql_code_builder -->
<g id="edge31" class="edge">
<title>gql_build&#45;&gt;gql_code_builder</title>
<path fill="none" stroke="#1da059" d="M308.98,-1140.7C299.16,-1086.36 268.98,-919.36 257.05,-853.35"/>
<polygon fill="#1da059" stroke="#1da059" points="260.45,-852.52 255.23,-843.3 253.56,-853.76 260.45,-852.52"/>
</g>
<!-- gql_example_http_auth_link -->
<g id="node13" class="node">
<title>gql_example_http_auth_link</title>
<polygon fill="none" stroke="#8a0733" points="1083.62,-1562.09 910.62,-1562.09 910.62,-1526.09 1083.62,-1526.09 1083.62,-1562.09"/>
<text text-anchor="middle" x="997.12" y="-1540.39" font-family="Times,serif" font-size="14.00">gql_example_http_auth_link</text>
</g>
<!-- gql_example_http_auth_link&#45;&gt;gql_pedantic -->
<g id="edge41" class="edge">
<title>gql_example_http_auth_link&#45;&gt;gql_pedantic</title>
<path fill="none" stroke="#89da51" stroke-dasharray="5,2" d="M1036.82,-1526.08C1124.77,-1485.91 1334.62,-1375.76 1415.12,-1208.09 1560.31,-905.66 1517.31,-704.31 1282.12,-465.09 1067.93,-247.23 681.74,-181.71 540.62,-164.54"/>
<polygon fill="#89da51" stroke="#89da51" points="540.83,-161.04 530.49,-163.34 540.01,-167.99 540.83,-161.04"/>
</g>
<!-- gql_example_http_auth_link&#45;&gt;gql -->
<g id="edge34" class="edge">
<title>gql_example_http_auth_link&#45;&gt;gql</title>
<path fill="none" stroke="#68217c" d="M918.38,-1526.04C783.52,-1492.12 511.9,-1402.08 398.12,-1208.09 259.1,-971.06 434.27,-616.41 488.24,-518.14"/>
<polygon fill="#68217c" stroke="#68217c" points="491.42,-519.63 493.21,-509.19 485.3,-516.23 491.42,-519.63"/>
</g>
<!-- gql_example_http_auth_link&#45;&gt;gql_exec -->
<g id="edge36" class="edge">
<title>gql_example_http_auth_link&#45;&gt;gql_exec</title>
<path fill="none" stroke="#5b9240" d="M1033.11,-1525.95C1114.81,-1484.74 1313.02,-1371.31 1388.12,-1208.09 1462.61,-1046.18 1445.46,-975.83 1388.12,-807.09 1345.07,-680.39 1228.25,-564.78 1174.22,-516.25"/>
<polygon fill="#5b9240" stroke="#5b9240" points="1176.22,-513.34 1166.42,-509.31 1171.57,-518.57 1176.22,-513.34"/>
</g>
<!-- gql_example_http_auth_link&#45;&gt;gql_link -->
<g id="edge38" class="edge">
<title>gql_example_http_auth_link&#45;&gt;gql_link</title>
<path fill="none" stroke="#7c0063" d="M1019.88,-1525.93C1077,-1481.24 1225.7,-1354.49 1279.12,-1208.09 1329.03,-1071.3 1200.58,-911.39 1145.14,-850.93"/>
<polygon fill="#7c0063" stroke="#7c0063" points="1147.51,-848.33 1138.14,-843.39 1142.39,-853.1 1147.51,-848.33"/>
</g>
<!-- gql_example_http_auth_link&#45;&gt;gql_transform_link -->
<g id="edge39" class="edge">
<title>gql_example_http_auth_link&#45;&gt;gql_transform_link</title>
<path fill="none" stroke="#21d185" d="M997.12,-1525.89C997.12,-1465.38 997.12,-1262.03 997.12,-1187.64"/>
<polygon fill="#21d185" stroke="#21d185" points="1000.62,-1187.24 997.12,-1177.24 993.62,-1187.24 1000.62,-1187.24"/>
</g>
<!-- gql_example_http_auth_link&#45;&gt;gql_http_link -->
<g id="edge37" class="edge">
<title>gql_example_http_auth_link&#45;&gt;gql_http_link</title>
<path fill="none" stroke="#ab8a09" d="M1002.69,-1525.89C1022.32,-1465.26 1088.39,-1261.19 1112.35,-1187.18"/>
<polygon fill="#ab8a09" stroke="#ab8a09" points="1115.82,-1187.83 1115.57,-1177.24 1109.16,-1185.68 1115.82,-1187.83"/>
</g>
<!-- gql_example_http_auth_link&#45;&gt;gql_error_link -->
<g id="edge35" class="edge">
<title>gql_example_http_auth_link&#45;&gt;gql_error_link</title>
<path fill="none" stroke="#5f79bc" d="M991.42,-1525.89C971.31,-1465.26 903.64,-1261.19 879.1,-1187.18"/>
<polygon fill="#5f79bc" stroke="#5f79bc" points="882.28,-1185.63 875.81,-1177.24 875.63,-1187.83 882.28,-1185.63"/>
</g>
<!-- gql_example_http_auth_link&#45;&gt;gql_build -->
<g id="edge40" class="edge">
<title>gql_example_http_auth_link&#45;&gt;gql_build</title>
<path fill="none" stroke="#3380b0" stroke-dasharray="5,2" d="M954.35,-1525.95C848,-1482.22 565.37,-1359.24 360.12,-1208.09 351.01,-1201.38 341.98,-1192.95 334.26,-1185.04"/>
<polygon fill="#3380b0" stroke="#3380b0" points="336.43,-1182.24 327.01,-1177.38 331.34,-1187.05 336.43,-1182.24"/>
</g>
<!-- gql_example_flutter -->
<g id="node14" class="node">
<title>gql_example_flutter</title>
<polygon fill="none" stroke="#671702" points="1661.62,-1562.09 1534.62,-1562.09 1534.62,-1526.09 1661.62,-1526.09 1661.62,-1562.09"/>
<text text-anchor="middle" x="1598.12" y="-1540.39" font-family="Times,serif" font-size="14.00">gql_example_flutter</text>
</g>
<!-- gql_example_flutter&#45;&gt;gql_pedantic -->
<g id="edge46" class="edge">
<title>gql_example_flutter&#45;&gt;gql_pedantic</title>
<path fill="none" stroke="#89da51" stroke-dasharray="5,2" d="M1602.26,-1525.74C1628.4,-1411.47 1759.23,-762.17 1433.12,-465.09 1164.46,-220.35 697.86,-171.2 540.61,-161.46"/>
<polygon fill="#89da51" stroke="#89da51" points="540.45,-157.94 530.26,-160.84 540.04,-164.93 540.45,-157.94"/>
</g>
<!-- gql_example_flutter&#45;&gt;gql -->
<g id="edge42" class="edge">
<title>gql_example_flutter&#45;&gt;gql</title>
<path fill="none" stroke="#68217c" d="M1549.11,-1526.06C1541.11,-1523.35 1532.89,-1520.61 1525.12,-1518.09 1077.23,-1372.91 794.5,-1584.84 512.12,-1208.09 348.67,-990.02 458.56,-620.38 493.5,-518.67"/>
<polygon fill="#68217c" stroke="#68217c" points="496.83,-519.75 496.82,-509.16 490.22,-517.45 496.83,-519.75"/>
</g>
<!-- gql_example_flutter&#45;&gt;gql_exec -->
<g id="edge45" class="edge">
<title>gql_example_flutter&#45;&gt;gql_exec</title>
<path fill="none" stroke="#5b9240" d="M1598.59,-1525.84C1600.19,-1441.59 1598.99,-1066.91 1462.12,-807.09 1391.98,-673.94 1246.31,-561.47 1180.14,-514.97"/>
<polygon fill="#5b9240" stroke="#5b9240" points="1181.93,-511.95 1171.72,-509.11 1177.93,-517.7 1181.93,-511.95"/>
</g>
<!-- gql_example_flutter&#45;&gt;gql_link -->
<g id="edge43" class="edge">
<title>gql_example_flutter&#45;&gt;gql_link</title>
<path fill="none" stroke="#7c0063" d="M1590.85,-1525.86C1566.39,-1468.7 1483.3,-1281.08 1389.12,-1141.09 1310.59,-1024.35 1195.27,-901.78 1145.48,-850.69"/>
<polygon fill="#7c0063" stroke="#7c0063" points="1147.84,-848.1 1138.35,-843.4 1142.84,-852.99 1147.84,-848.1"/>
</g>
<!-- gql_example_flutter&#45;&gt;gql_http_link -->
<g id="edge44" class="edge">
<title>gql_example_flutter&#45;&gt;gql_http_link</title>
<path fill="none" stroke="#ab8a09" d="M1575.75,-1526.09C1512.12,-1477.59 1325.09,-1333.95 1175.12,-1208.09 1166,-1200.43 1156.22,-1191.85 1147.52,-1184.09"/>
<polygon fill="#ab8a09" stroke="#ab8a09" points="1149.66,-1181.31 1139.88,-1177.24 1144.99,-1186.52 1149.66,-1181.31"/>
</g>
<!-- gql_example_flutter&#45;&gt;gql_build -->
<g id="edge47" class="edge">
<title>gql_example_flutter&#45;&gt;gql_build</title>
<path fill="none" stroke="#3380b0" stroke-dasharray="5,2" d="M1549.13,-1525.99C1541.13,-1523.29 1532.91,-1520.57 1525.12,-1518.09 1061.09,-1370.27 941.15,-1346.15 474.12,-1208.09 434.1,-1196.26 388.52,-1182.75 355.93,-1173.08"/>
<polygon fill="#3380b0" stroke="#3380b0" points="356.83,-1169.7 346.25,-1170.21 354.84,-1176.41 356.83,-1169.7"/>
</g>
<!-- gql_dio_link -->
<g id="node15" class="node">
<title>gql_dio_link</title>
<polygon fill="none" stroke="#45c9c3" points="1270.12,-1177.09 1184.12,-1177.09 1184.12,-1141.09 1270.12,-1141.09 1270.12,-1177.09"/>
<text text-anchor="middle" x="1227.12" y="-1155.39" font-family="Times,serif" font-size="14.00">gql_dio_link</text>
</g>
<!-- gql_dio_link&#45;&gt;gql_pedantic -->
<g id="edge51" class="edge">
<title>gql_dio_link&#45;&gt;gql_pedantic</title>
<path fill="none" stroke="#89da51" stroke-dasharray="5,2" d="M1214.28,-1140.75C1126.11,-1021.72 610.78,-326.03 505.79,-184.29"/>
<polygon fill="#89da51" stroke="#89da51" points="508.51,-182.08 499.74,-176.12 502.88,-186.24 508.51,-182.08"/>
</g>
<!-- gql_dio_link&#45;&gt;gql -->
<g id="edge48" class="edge">
<title>gql_dio_link&#45;&gt;gql</title>
<path fill="none" stroke="#68217c" d="M1208.5,-1140.95C1109.4,-1049.8 644.25,-621.91 529,-515.9"/>
<polygon fill="#68217c" stroke="#68217c" points="531.35,-513.3 521.62,-509.11 526.61,-518.45 531.35,-513.3"/>
</g>
<!-- gql_dio_link&#45;&gt;gql_exec -->
<g id="edge49" class="edge">
<title>gql_dio_link&#45;&gt;gql_exec</title>
<path fill="none" stroke="#5b9240" d="M1225.04,-1140.95C1214.06,-1050.71 1162.94,-630.43 1149.41,-519.17"/>
<polygon fill="#5b9240" stroke="#5b9240" points="1152.87,-518.61 1148.19,-509.11 1145.92,-519.46 1152.87,-518.61"/>
</g>
<!-- gql_dio_link&#45;&gt;gql_link -->
<g id="edge50" class="edge">
<title>gql_dio_link&#45;&gt;gql_link</title>
<path fill="none" stroke="#7c0063" d="M1221.57,-1140.7C1204.18,-1086.25 1150.68,-918.67 1129.69,-852.94"/>
<polygon fill="#7c0063" stroke="#7c0063" points="1132.99,-851.76 1126.61,-843.3 1126.32,-853.89 1132.99,-851.76"/>
</g>
<!-- gql_example_dio_link -->
<g id="node16" class="node">
<title>gql_example_dio_link</title>
<polygon fill="none" stroke="#058cba" points="1818.62,-1562.09 1679.62,-1562.09 1679.62,-1526.09 1818.62,-1526.09 1818.62,-1562.09"/>
<text text-anchor="middle" x="1749.12" y="-1540.39" font-family="Times,serif" font-size="14.00">gql_example_dio_link</text>
</g>
<!-- gql_example_dio_link&#45;&gt;gql -->
<g id="edge52" class="edge">
<title>gql_example_dio_link&#45;&gt;gql</title>
<path fill="none" stroke="#68217c" d="M1696.77,-1525.97C1688.21,-1523.27 1679.43,-1520.56 1671.12,-1518.09 1172.36,-1369.76 868.75,-1613.15 542.12,-1208.09 454.97,-1100.02 490.07,-636.77 500.56,-519.27"/>
<polygon fill="#68217c" stroke="#68217c" points="504.05,-519.57 501.46,-509.29 497.07,-518.94 504.05,-519.57"/>
</g>
<!-- gql_example_dio_link&#45;&gt;gql_exec -->
<g id="edge54" class="edge">
<title>gql_example_dio_link&#45;&gt;gql_exec</title>
<path fill="none" stroke="#5b9240" d="M1746,-1525.98C1730.01,-1441.64 1651.38,-1063.85 1482.12,-807.09 1396.41,-677.07 1246.65,-562.57 1179.89,-515.22"/>
<polygon fill="#5b9240" stroke="#5b9240" points="1181.61,-512.15 1171.42,-509.26 1177.58,-517.87 1181.61,-512.15"/>
</g>
<!-- gql_example_dio_link&#45;&gt;gql_link -->
<g id="edge53" class="edge">
<title>gql_example_dio_link&#45;&gt;gql_link</title>
<path fill="none" stroke="#7c0063" d="M1735.89,-1525.84C1692.41,-1469.38 1549.47,-1285.48 1422.12,-1141.09 1323.4,-1029.16 1198.06,-902.66 1145.77,-850.53"/>
<polygon fill="#7c0063" stroke="#7c0063" points="1148.15,-847.96 1138.6,-843.38 1143.22,-852.92 1148.15,-847.96"/>
</g>
<!-- gql_example_dio_link&#45;&gt;gql_dio_link -->
<g id="edge55" class="edge">
<title>gql_example_dio_link&#45;&gt;gql_dio_link</title>
<path fill="none" stroke="#45c9c3" d="M1725.68,-1525.89C1641.52,-1464.14 1354.59,-1253.61 1258.65,-1183.22"/>
<polygon fill="#45c9c3" stroke="#45c9c3" points="1260.63,-1180.33 1250.5,-1177.24 1256.49,-1185.98 1260.63,-1180.33"/>
</g>
<!-- gql_example_cli_github -->
<g id="node17" class="node">
<title>gql_example_cli_github</title>
<polygon fill="none" stroke="#9b3b01" points="1250.62,-1562.09 1101.62,-1562.09 1101.62,-1526.09 1250.62,-1526.09 1250.62,-1562.09"/>
<text text-anchor="middle" x="1176.12" y="-1540.39" font-family="Times,serif" font-size="14.00">gql_example_cli_github</text>
</g>
<!-- gql_example_cli_github&#45;&gt;gql_pedantic -->
<g id="edge62" class="edge">
<title>gql_example_cli_github&#45;&gt;gql_pedantic</title>
<path fill="none" stroke="#89da51" stroke-dasharray="5,2" d="M1193.75,-1525.97C1272.6,-1447.31 1585.59,-1111.32 1507.12,-807.09 1463.75,-638.92 1449.89,-578.21 1318.12,-465.09 1076.85,-257.97 683.02,-185.79 540.62,-165.7"/>
<polygon fill="#89da51" stroke="#89da51" points="540.8,-162.19 530.41,-164.28 539.84,-169.12 540.8,-162.19"/>
</g>
<!-- gql_example_cli_github&#45;&gt;gql -->
<g id="edge56" class="edge">
<title>gql_example_cli_github&#45;&gt;gql</title>
<path fill="none" stroke="#68217c" d="M1119.1,-1526.06C959.73,-1477.19 516.09,-1332.08 436.12,-1208.09 287.95,-978.36 442.25,-617.82 490.01,-518.29"/>
<polygon fill="#68217c" stroke="#68217c" points="493.19,-519.76 494.41,-509.23 486.89,-516.7 493.19,-519.76"/>
</g>
<!-- gql_example_cli_github&#45;&gt;gql_exec -->
<g id="edge57" class="edge">
<title>gql_example_cli_github&#45;&gt;gql_exec</title>
<path fill="none" stroke="#5b9240" d="M1190.75,-1526.08C1258.52,-1445.15 1534.14,-1091.21 1426.12,-807.09 1375.7,-674.49 1241.05,-562.06 1178.67,-515.31"/>
<polygon fill="#5b9240" stroke="#5b9240" points="1180.48,-512.29 1170.37,-509.15 1176.32,-517.92 1180.48,-512.29"/>
</g>
<!-- gql_example_cli_github&#45;&gt;gql_link -->
<g id="edge59" class="edge">
<title>gql_example_cli_github&#45;&gt;gql_link</title>
<path fill="none" stroke="#7c0063" d="M1193.44,-1525.91C1246.49,-1471.13 1400.2,-1295.14 1350.12,-1141.09 1309.46,-1016.02 1198.38,-899.15 1147.37,-850.23"/>
<polygon fill="#7c0063" stroke="#7c0063" points="1149.67,-847.58 1140,-843.24 1144.85,-852.66 1149.67,-847.58"/>
</g>
<!-- gql_example_cli_github&#45;&gt;gql_transform_link -->
<g id="edge60" class="edge">
<title>gql_example_cli_github&#45;&gt;gql_transform_link</title>
<path fill="none" stroke="#21d185" d="M1168.08,-1525.89C1139.69,-1465.14 1043.98,-1260.35 1009.57,-1186.73"/>
<polygon fill="#21d185" stroke="#21d185" points="1012.54,-1184.82 1005.14,-1177.24 1006.2,-1187.78 1012.54,-1184.82"/>
</g>
<!-- gql_example_cli_github&#45;&gt;gql_http_link -->
<g id="edge58" class="edge">
<title>gql_example_cli_github&#45;&gt;gql_http_link</title>
<path fill="none" stroke="#ab8a09" d="M1173.65,-1525.89C1164.94,-1465.26 1135.64,-1261.19 1125.01,-1187.18"/>
<polygon fill="#ab8a09" stroke="#ab8a09" points="1128.47,-1186.64 1123.58,-1177.24 1121.54,-1187.64 1128.47,-1186.64"/>
</g>
<!-- gql_example_cli_github&#45;&gt;gql_build -->
<g id="edge61" class="edge">
<title>gql_example_cli_github&#45;&gt;gql_build</title>
<path fill="none" stroke="#3380b0" stroke-dasharray="5,2" d="M1131.97,-1525.92C1012.15,-1478.95 671.51,-1342.8 398.12,-1208.09 382.12,-1200.2 364.87,-1190.77 350.05,-1182.36"/>
<polygon fill="#3380b0" stroke="#3380b0" points="351.59,-1179.21 341.18,-1177.28 348.12,-1185.29 351.59,-1179.21"/>
</g>
<!-- gql_example_cli -->
<g id="node18" class="node">
<title>gql_example_cli</title>
<polygon fill="none" stroke="#18510b" points="1375.62,-1562.09 1268.62,-1562.09 1268.62,-1526.09 1375.62,-1526.09 1375.62,-1562.09"/>
<text text-anchor="middle" x="1322.12" y="-1540.39" font-family="Times,serif" font-size="14.00">gql_example_cli</text>
</g>
<!-- gql_example_cli&#45;&gt;gql_pedantic -->
<g id="edge68" class="edge">
<title>gql_example_cli&#45;&gt;gql_pedantic</title>
<path fill="none" stroke="#89da51" stroke-dasharray="5,2" d="M1331.97,-1525.97C1359.26,-1477.73 1436.21,-1335.88 1473.12,-1208.09 1565.83,-887.05 1607.48,-687.52 1358.12,-465.09 1109.04,-242.9 688.81,-179.71 540.72,-163.86"/>
<polygon fill="#89da51" stroke="#89da51" points="540.85,-160.36 530.54,-162.8 540.12,-167.32 540.85,-160.36"/>
</g>
<!-- gql_example_cli&#45;&gt;gql -->
<g id="edge63" class="edge">
<title>gql_example_cli&#45;&gt;gql</title>
<path fill="none" stroke="#68217c" d="M1279.78,-1525.97C1273.2,-1523.32 1266.48,-1520.62 1260.12,-1518.09 911.31,-1378.98 685.4,-1518.53 474.12,-1208.09 320.84,-982.87 451.01,-619.06 491.86,-518.55"/>
<polygon fill="#68217c" stroke="#68217c" points="495.16,-519.72 495.74,-509.14 488.69,-517.05 495.16,-519.72"/>
</g>
<!-- gql_example_cli&#45;&gt;gql_exec -->
<g id="edge64" class="edge">
<title>gql_example_cli&#45;&gt;gql_exec</title>
<path fill="none" stroke="#5b9240" d="M1331.36,-1526.07C1374.8,-1443.63 1552.26,-1078.75 1444.12,-807.09 1390.3,-671.87 1247.82,-561.24 1181.29,-515.17"/>
<polygon fill="#5b9240" stroke="#5b9240" points="1183.03,-512.12 1172.8,-509.36 1179.07,-517.9 1183.03,-512.12"/>
</g>
<!-- gql_example_cli&#45;&gt;gql_link -->
<g id="edge66" class="edge">
<title>gql_example_cli&#45;&gt;gql_link</title>
<path fill="none" stroke="#7c0063" d="M1329.23,-1526.05C1351.77,-1469.49 1417.3,-1283.51 1368.12,-1141.09 1324.01,-1013.36 1204.42,-897.94 1149.45,-849.82"/>
<polygon fill="#7c0063" stroke="#7c0063" points="1151.68,-847.11 1141.83,-843.21 1147.09,-852.4 1151.68,-847.11"/>
</g>
<!-- gql_example_cli&#45;&gt;gql_http_link -->
<g id="edge65" class="edge">
<title>gql_example_cli&#45;&gt;gql_http_link</title>
<path fill="none" stroke="#ab8a09" d="M1313.09,-1525.89C1281.15,-1465.01 1173.3,-1259.51 1134.87,-1186.28"/>
<polygon fill="#ab8a09" stroke="#ab8a09" points="1137.87,-1184.47 1130.12,-1177.24 1131.67,-1187.72 1137.87,-1184.47"/>
</g>
<!-- gql_example_cli&#45;&gt;gql_build -->
<g id="edge67" class="edge">
<title>gql_example_cli&#45;&gt;gql_build</title>
<path fill="none" stroke="#3380b0" stroke-dasharray="5,2" d="M1280.15,-1526.01C1273.46,-1523.33 1266.61,-1520.62 1260.12,-1518.09 895.54,-1376.03 801.68,-1347.6 436.12,-1208.09 409.39,-1197.89 379.48,-1186.31 355.74,-1177.09"/>
<polygon fill="#3380b0" stroke="#3380b0" points="356.89,-1173.78 346.3,-1173.42 354.35,-1180.3 356.89,-1173.78"/>
</g>
<!-- gql_example_build -->
<g id="node19" class="node">
<title>gql_example_build</title>
<polygon fill="none" stroke="#628320" points="1516.12,-1562.09 1394.12,-1562.09 1394.12,-1526.09 1516.12,-1526.09 1516.12,-1562.09"/>
<text text-anchor="middle" x="1455.12" y="-1540.39" font-family="Times,serif" font-size="14.00">gql_example_build</text>
</g>
<!-- gql_example_build&#45;&gt;gql_pedantic -->
<g id="edge70" class="edge">
<title>gql_example_build&#45;&gt;gql_pedantic</title>
<path fill="none" stroke="#89da51" stroke-dasharray="5,2" d="M1461.58,-1525.96C1503.41,-1411.74 1724.27,-756.16 1398.12,-465.09 1137.11,-232.15 692.5,-175.51 540.16,-162.64"/>
<polygon fill="#89da51" stroke="#89da51" points="540.38,-159.14 530.13,-161.82 539.81,-166.12 540.38,-159.14"/>
</g>
<!-- gql_example_build&#45;&gt;gql_build -->
<g id="edge69" class="edge">
<title>gql_example_build&#45;&gt;gql_build</title>
<path fill="none" stroke="#3380b0" stroke-dasharray="5,2" d="M1407.72,-1526.01C1400.17,-1523.33 1392.44,-1520.61 1385.12,-1518.09 986.83,-1380.54 502.4,-1222.06 356.04,-1174.37"/>
<polygon fill="#3380b0" stroke="#3380b0" points="357.08,-1171.03 346.49,-1171.26 354.91,-1177.69 357.08,-1171.03"/>
</g>
<!-- gql_dedupe_link -->
<g id="node20" class="node">
<title>gql_dedupe_link</title>
<polygon fill="none" stroke="#cf6bf6" points="804.62,-1177.09 697.62,-1177.09 697.62,-1141.09 804.62,-1141.09 804.62,-1177.09"/>
<text text-anchor="middle" x="751.12" y="-1155.39" font-family="Times,serif" font-size="14.00">gql_dedupe_link</text>
</g>
<!-- gql_dedupe_link&#45;&gt;gql_pedantic -->
<g id="edge74" class="edge">
<title>gql_dedupe_link&#45;&gt;gql_pedantic</title>
<path fill="none" stroke="#89da51" stroke-dasharray="5,2" d="M746.54,-1140.75C715.21,-1022.2 532.7,-331.57 494.23,-186.01"/>
<polygon fill="#89da51" stroke="#89da51" points="497.56,-184.9 491.62,-176.12 490.79,-186.69 497.56,-184.9"/>
</g>
<!-- gql_dedupe_link&#45;&gt;gql -->
<g id="edge73" class="edge">
<title>gql_dedupe_link&#45;&gt;gql</title>
<path fill="none" stroke="#68217c" stroke-dasharray="5,2" d="M744.74,-1140.95C711.07,-1050.53 554,-628.73 512.95,-518.5"/>
<polygon fill="#68217c" stroke="#68217c" points="516.23,-517.26 509.46,-509.11 509.67,-519.7 516.23,-517.26"/>
</g>
<!-- gql_dedupe_link&#45;&gt;gql_exec -->
<g id="edge71" class="edge">
<title>gql_dedupe_link&#45;&gt;gql_exec</title>
<path fill="none" stroke="#5b9240" d="M769.36,-1140.97C816.21,-1096.15 942.25,-970.02 1016.12,-843.09 1081.33,-731.03 1123.86,-580.43 1139.45,-519.44"/>
<polygon fill="#5b9240" stroke="#5b9240" points="1142.92,-520 1141.97,-509.45 1136.13,-518.29 1142.92,-520"/>
</g>
<!-- gql_dedupe_link&#45;&gt;gql_link -->
<g id="edge72" class="edge">
<title>gql_dedupe_link&#45;&gt;gql_link</title>
<path fill="none" stroke="#7c0063" d="M770.23,-1140.94C831.5,-1085.96 1023.14,-914 1094.23,-850.21"/>
<polygon fill="#7c0063" stroke="#7c0063" points="1096.79,-852.62 1101.9,-843.33 1092.12,-847.41 1096.79,-852.62"/>
</g>
<!-- end_to_end_test_tristate -->
<g id="node21" class="node">
<title>end_to_end_test_tristate</title>
<polygon fill="none" stroke="#a1e7f8" points="224.62,-1562.09 75.62,-1562.09 75.62,-1526.09 224.62,-1526.09 224.62,-1562.09"/>
<text text-anchor="middle" x="150.12" y="-1540.39" font-family="Times,serif" font-size="14.00">end_to_end_test_tristate</text>
</g>
<!-- end_to_end_test_tristate&#45;&gt;gql_exec -->
<g id="edge75" class="edge">
<title>end_to_end_test_tristate&#45;&gt;gql_exec</title>
<path fill="none" stroke="#5b9240" d="M206.81,-1525.97C215.62,-1523.33 224.61,-1520.63 233.12,-1518.09 697.7,-1379.28 989.03,-1596.62 1279.12,-1208.09 1363.56,-1094.99 1199.56,-634.58 1156.23,-518.67"/>
<polygon fill="#5b9240" stroke="#5b9240" points="1159.44,-517.27 1152.65,-509.14 1152.89,-519.73 1159.44,-517.27"/>
</g>
<!-- end_to_end_test_tristate&#45;&gt;gql_tristate_value -->
<g id="edge77" class="edge">
<title>end_to_end_test_tristate&#45;&gt;gql_tristate_value</title>
<path fill="none" stroke="#548b12" stroke-dasharray="5,2" d="M150.13,-1526.01C150.27,-1429.47 152.41,-951.36 180.12,-807.09 201.39,-696.35 254.4,-572.08 278.65,-518.74"/>
<polygon fill="#548b12" stroke="#548b12" points="281.98,-519.88 282.96,-509.34 275.61,-516.97 281.98,-519.88"/>
</g>
<!-- end_to_end_test_tristate&#45;&gt;gql_code_builder_serializers -->
<g id="edge76" class="edge">
<title>end_to_end_test_tristate&#45;&gt;gql_code_builder_serializers</title>
<path fill="none" stroke="#10ee6a" d="M149.56,-1526.03C146.99,-1447.83 136.4,-1115.67 132.12,-843.09 130.23,-722.59 130.07,-578.81 130.09,-519.62"/>
<polygon fill="#10ee6a" stroke="#10ee6a" points="133.59,-519.26 130.1,-509.25 126.59,-519.25 133.59,-519.26"/>
</g>
<!-- end_to_end_test_tristate&#45;&gt;gql_code_builder -->
<g id="edge79" class="edge">
<title>end_to_end_test_tristate&#45;&gt;gql_code_builder</title>
<path fill="none" stroke="#1da059" stroke-dasharray="5,2" d="M152.54,-1526.07C166,-1431.47 231.59,-970.38 248.26,-853.21"/>
<polygon fill="#1da059" stroke="#1da059" points="251.73,-853.66 249.68,-843.26 244.8,-852.67 251.73,-853.66"/>
</g>
<!-- end_to_end_test_tristate&#45;&gt;gql_build -->
<g id="edge78" class="edge">
<title>end_to_end_test_tristate&#45;&gt;gql_build</title>
<path fill="none" stroke="#3380b0" stroke-dasharray="5,2" d="M157.4,-1525.89C183.09,-1465.14 269.71,-1260.35 300.85,-1186.73"/>
<polygon fill="#3380b0" stroke="#3380b0" points="304.19,-1187.81 304.86,-1177.24 297.75,-1185.09 304.19,-1187.81"/>
</g>
<!-- end_to_end_test -->
<g id="node22" class="node">
<title>end_to_end_test</title>
<polygon fill="none" stroke="#97b336" points="347.62,-1562.09 242.62,-1562.09 242.62,-1526.09 347.62,-1526.09 347.62,-1562.09"/>
<text text-anchor="middle" x="295.12" y="-1540.39" font-family="Times,serif" font-size="14.00">end_to_end_test</text>
</g>
<!-- end_to_end_test&#45;&gt;gql_exec -->
<g id="edge80" class="edge">
<title>end_to_end_test&#45;&gt;gql_exec</title>
<path fill="none" stroke="#5b9240" d="M347.84,-1533.99C539.37,-1499.75 1193.35,-1372.26 1312.12,-1208.09 1476.56,-980.78 1236.1,-615.78 1164.94,-517.27"/>
<polygon fill="#5b9240" stroke="#5b9240" points="1167.69,-515.11 1158.97,-509.09 1162.04,-519.23 1167.69,-515.11"/>
</g>
<!-- end_to_end_test&#45;&gt;gql_code_builder_serializers -->
<g id="edge81" class="edge">
<title>end_to_end_test&#45;&gt;gql_code_builder_serializers</title>
<path fill="none" stroke="#10ee6a" d="M292.18,-1526.05C278.75,-1447.94 221.98,-1116.08 180.12,-843.09 161.63,-722.52 141.81,-578.29 133.79,-519.28"/>
<polygon fill="#10ee6a" stroke="#10ee6a" points="137.25,-518.71 132.44,-509.27 130.31,-519.65 137.25,-518.71"/>
</g>
<!-- end_to_end_test&#45;&gt;gql_code_builder -->
<g id="edge82" class="edge">
<title>end_to_end_test&#45;&gt;gql_code_builder</title>
<path fill="none" stroke="#1da059" stroke-dasharray="5,2" d="M293.59,-1526.02C289.24,-1476.76 276.57,-1330.07 269.12,-1208.09 261.01,-1075.26 255.18,-916.22 253.03,-853.47"/>
<polygon fill="#1da059" stroke="#1da059" points="256.52,-853.11 252.68,-843.23 249.52,-853.34 256.52,-853.11"/>
</g>
<!-- end_to_end_test&#45;&gt;gql_build -->
<g id="edge83" class="edge">
<title>end_to_end_test&#45;&gt;gql_build</title>
<path fill="none" stroke="#3380b0" stroke-dasharray="5,2" d="M295.88,-1525.89C298.57,-1465.38 307.6,-1262.03 310.9,-1187.64"/>
<polygon fill="#3380b0" stroke="#3380b0" points="314.41,-1187.39 311.36,-1177.24 307.42,-1187.08 314.41,-1187.39"/>
</g>
</g>
</svg>
