<?xml version="1.0" encoding="UTF-8" standalone="no"?>
<!DOCTYPE svg PUBLIC "-//W3C//DTD SVG 1.1//EN"
 "http://www.w3.org/Graphics/SVG/1.1/DTD/svg11.dtd">
<!-- Generated by graphviz version 2.40.1 (20161225.0304)
 -->
<!-- Title: packages Pages: 1 -->
<svg width="720pt" height="720pt"
 viewBox="0.00 0.00 720.00 720.00" xmlns="http://www.w3.org/2000/svg" xmlns:xlink="http://www.w3.org/1999/xlink">
<g id="graph0" class="graph" transform="scale(.414 .414) rotate(0) translate(4 1735)">
<title>packages</title>
<polygon fill="#ffffff" stroke="transparent" points="-4,4 -4,-1735 1735,-1735 1735,4 -4,4"/>
<g id="clust1" class="cluster">
<title>cluster </title>
<polygon fill="none" stroke="#a473ff" points="188,-35.5077 188,-585.8769 386,-585.8769 386,-35.5077 188,-35.5077"/>
</g>
<g id="clust2" class="cluster">
<title>cluster links</title>
<polygon fill="none" stroke="#e2446b" points="394,-355.0769 394,-1327.1 1276,-1327.1 1276,-355.0769 394,-355.0769"/>
<text text-anchor="middle" x="835" y="-1311.9" font-family="Times,serif" font-size="14.00" fill="#000000">links</text>
</g>
<g id="clust3" class="cluster">
<title>cluster codegen</title>
<polygon fill="none" stroke="#856663" points="8,-674.6462 8,-1695.4923 164,-1695.4923 164,-674.6462 8,-674.6462"/>
<text text-anchor="middle" x="86" y="-1680.2923" font-family="Times,serif" font-size="14.00" fill="#000000">codegen</text>
</g>
<g id="clust4" class="cluster">
<title>cluster examples</title>
<polygon fill="none" stroke="#e8f445" points="602,-1362.6077 602,-1695.4923 1723,-1695.4923 1723,-1362.6077 602,-1362.6077"/>
<text text-anchor="middle" x="1162.5" y="-1680.2923" font-family="Times,serif" font-size="14.00" fill="#000000">examples</text>
</g>
<!-- gql_pedantic -->
<g id="node1" class="node">
<title>gql_pedantic</title>
<polygon fill="none" stroke="#89da51" points="377.5,-168.5077 268.5,-168.5077 268.5,-132.5077 377.5,-132.5077 377.5,-168.5077"/>
<text text-anchor="middle" x="323" y="-146.8077" font-family="Times,serif" font-size="14.00" fill="#000000">gql_pedantic</text>
</g>
<!-- cats -->
<g id="node2" class="node">
<title>cats</title>
<polygon fill="none" stroke="#e2592e" points="250,-168.5077 196,-168.5077 196,-132.5077 250,-132.5077 250,-168.5077"/>
<text text-anchor="middle" x="223" y="-146.8077" font-family="Times,serif" font-size="14.00" fill="#000000">cats</text>
</g>
<!-- gql -->
<g id="node3" class="node">
<title>gql</title>
<polygon fill="none" stroke="#68217c" points="378,-488.5077 324,-488.5077 324,-452.5077 378,-452.5077 378,-488.5077"/>
<!-- gql_dedupe_link&#45;&gt;gql -->
<g id="edge69" class="edge">
<title>gql_dedupe_link&#45;&gt;gql</title>
<path fill="none" stroke="#68217c" stroke-dasharray="5,2" d="M1176.9304,-1091.413C1056.6567,-1000.9955 521.1218,-598.3993 383.3857,-494.8542"/>
<polygon fill="#68217c" stroke="#68217c" points="385.3614,-491.9606 375.2649,-488.7492 381.155,-497.5559 385.3614,-491.9606"/>
</g>
<!-- gql_dedupe_link&#45;&gt;gql_exec -->
<g id="edge67" class="edge">
<title>gql_dedupe_link&#45;&gt;gql_exec</title>
<path fill="none" stroke="#5b9240" d="M1198.1369,-1091.4666C1189.8955,-1040.1204 1164.9747,-888.8681 1138,-764.5077 1116.6541,-666.0977 1085.8832,-550.5749 1071.6967,-498.4813"/>
<polygon fill="#5b9240" stroke="#5b9240" points="1075.0209,-497.3682 1069.0093,-488.644 1068.2684,-499.2129 1075.0209,-497.3682"/>
</g>
<!-- gql_dedupe_link&#45;&gt;gql_link -->
<g id="edge68" class="edge">
<title>gql_dedupe_link&#45;&gt;gql_link</title>
<path fill="none" stroke="#7c0063" d="M1194.8274,-1091.4429C1176.6966,-1038.3811 1123.5029,-882.7041 1101.5963,-818.5923"/>
<polygon fill="#7c0063" stroke="#7c0063" points="1104.7855,-817.1009 1098.24,-808.7698 1098.1615,-819.3643 1104.7855,-817.1009"/>
</g>
<!-- end_to_end_test -->
<g id="node20" class="node">
<title>end_to_end_test</title>
<polygon fill="none" stroke="#97b336" points="156,-1496.5077 22,-1496.5077 22,-1460.5077 156,-1460.5077 156,-1496.5077"/>
<text text-anchor="middle" x="89" y="-1474.8077" font-family="Times,serif" font-size="14.00" fill="#000000">end_to_end_test</text>
</g>
<!-- end_to_end_test&#45;&gt;gql_exec -->
<g id="edge71" class="edge">
<title>end_to_end_test&#45;&gt;gql_exec</title>
<path fill="none" stroke="#5b9240" d="M156.271,-1470.9705C386.5304,-1443.6602 1136.6045,-1341.7242 1277,-1158.5077 1361.4296,-1048.3268 1139.187,-611.7457 1078.7171,-497.8173"/>
<polygon fill="#5b9240" stroke="#5b9240" points="1081.6464,-495.872 1073.8537,-488.694 1075.4693,-499.1649 1081.6464,-495.872"/>
</g>
<!-- end_to_end_test&#45;&gt;gql_code_builder -->
<g id="edge73" class="edge">
<title>end_to_end_test&#45;&gt;gql_code_builder</title>
<path fill="none" stroke="#1da059" d="M86.4241,-1460.393C78.859,-1405.1363 57.5705,-1233.8261 63,-1091.5077 66.8319,-991.0665 77.8311,-872.1828 83.108,-818.8626"/>
<polygon fill="#1da059" stroke="#1da059" points="86.6014,-819.1018 84.1129,-808.8034 79.6361,-818.4059 86.6014,-819.1018"/>
</g>
<!-- end_to_end_test&#45;&gt;gql_build -->
<g id="edge72" class="edge">
<title>end_to_end_test&#45;&gt;gql_build</title>
<path fill="none" stroke="#3380b0" d="M90.2227,-1460.4603C94.2602,-1400.8664 107.1878,-1210.056 112.0903,-1137.6942"/>
<polygon fill="#3380b0" stroke="#3380b0" points="115.5956,-1137.7341 112.7796,-1127.5204 108.6116,-1137.2609 115.5956,-1137.7341"/>
</g>
</g>
</svg>