<?xml version="1.0" encoding="UTF-8" standalone="no"?>
<!DOCTYPE svg PUBLIC "-//W3C//DTD SVG 1.1//EN"
 "http://www.w3.org/Graphics/SVG/1.1/DTD/svg11.dtd">
<!-- Generated by graphviz version 2.40.1 (20161225.0304)
 -->
<!-- Title: packages Pages: 1 -->
<svg width="720pt" height="675pt"
 viewBox="0.00 0.00 720.00 675.38" xmlns="http://www.w3.org/2000/svg" xmlns:xlink="http://www.w3.org/1999/xlink">
<g id="graph0" class="graph" transform="scale(.42 .42) rotate(0) translate(4 1604)">
<title>packages</title>
<polygon fill="#ffffff" stroke="transparent" points="-4,4 -4,-1604 1710.227,-1604 1710.227,4 -4,4"/>
<g id="clust1" class="cluster">
<title>cluster </title>
<polygon fill="none" stroke="#a473ff" points="260,-32.8205 260,-541.5385 386,-541.5385 386,-32.8205 260,-32.8205"/>
</g>
<g id="clust2" class="cluster">
<title>cluster links</title>
<polygon fill="none" stroke="#e2446b" points="394,-328.2051 394,-1226.6667 1277,-1226.6667 1277,-328.2051 394,-328.2051"/>
<text text-anchor="middle" x="835.5" y="-1211.4667" font-family="Times,serif" font-size="14.00" fill="#000000">links</text>
</g>
<g id="clust3" class="cluster">
<title>cluster codegen</title>
<polygon fill="none" stroke="#856663" points="8,-623.5897 8,-1567.1795 164,-1567.1795 164,-623.5897 8,-623.5897"/>
<text text-anchor="middle" x="86" y="-1551.9795" font-family="Times,serif" font-size="14.00" fill="#000000">codegen</text>
</g>
<g id="clust4" class="cluster">
<title>cluster examples</title>
<polygon fill="none" stroke="#e8f445" points="471,-1259.4872 471,-1567.1795 1592,-1567.1795 1592,-1259.4872 471,-1259.4872"/>
<text text-anchor="middle" x="1031.5" y="-1551.9795" font-family="Times,serif" font-size="14.00" fill="#000000">examples</text>
</g>
<!-- gql_pedantic -->
<g id="node1" class="node">
<title>gql_pedantic</title>
<polygon fill="none" stroke="#89da51" points="377.5,-157.8205 268.5,-157.8205 268.5,-121.8205 377.5,-121.8205 377.5,-157.8205"/>
<text text-anchor="middle" x="323" y="-136.1205" font-family="Times,serif" font-size="14.00" fill="#000000">gql_pedantic</text>
</g>
<!-- gql -->
<g id="node2" class="node">
<title>gql</title>
<polygon fill="none" stroke="#68217c" points="378,-452.8205 324,-452.8205 324,-416.8205 378,-416.8205 378,-452.8205"/>
<text text-anchor="middle" x="351" y="-431.1205" font-family="Times,serif" font-size="14.00" fill="#000000">gql</text>
</g>
<!-- gql&#45;&gt;gql_pedantic -->
<g id="edge1" class="edge">
<title>gql&#45;&gt;gql_pedantic</title>
<path fill="none" stroke="#89da51" stroke-dasharray="5,2" d="M349.2906,-416.811C344.5848,-367.2317 331.4108,-228.4345 325.6986,-168.2524"/>
<polygon fill="#89da51" stroke="#89da51" points="329.1519,-167.5937 324.7226,-157.9691 322.1832,-168.2551 329.1519,-167.5937"/>
</g>
<!-- gql_exec -->
<g id="node3" class="node">
<title>gql_exec</title>
<polygon fill="none" stroke="#5b9240" points="1043,-452.8205 963,-452.8205 963,-416.8205 1043,-416.8205 1043,-452.8205"/>
<text text-anchor="middle" x="1003" y="-431.1205" font-family="Times,serif" font-size="14.00" fill="#000000">gql_exec</text>
</g>
<!-- gql_exec&#45;&gt;gql_pedantic -->
<g id="edge3" class="edge">
<title>gql_exec&#45;&gt;gql_pedantic</title>
<path fill="none" stroke="#89da51" stroke-dasharray="5,2" d="M962.4993,-417.2504C844.926,-366.2443 503.7069,-218.2154 373.9207,-161.9111"/>
<polygon fill="#89da51" stroke="#89da51" points="375.148,-158.6284 364.5811,-157.8594 372.362,-165.0501 375.148,-158.6284"/>
</g>
<!-- gql_exec&#45;&gt;gql -->
<g id="edge2" class="edge">
<title>gql_exec&#45;&gt;gql</title>
<path fill="none" stroke="#68217c" d="M962.7207,-434.8205C771.2597,-434.8205 579.7988,-434.8205 388.3378,-434.8205"/>
<polygon fill="#68217c" stroke="#68217c" points="388.0606,-431.3206 378.0605,-434.8205 388.0605,-438.3206 388.0606,-431.3206"/>
</g>
<!-- gql_link -->
<g id="node4" class="node">
<title>gql_link</title>
<polygon fill="none" stroke="#7c0063" points="1012,-747.8205 938,-747.8205 938,-711.8205 1012,-711.8205 1012,-747.8205"/>
<text text-anchor="middle" x="975" y="-726.1205" font-family="Times,serif" font-size="14.00" fill="#000000">gql_link</text>
</g>
<!-- gql_link&#45;&gt;gql_pedantic -->
<g id="edge6" class="edge">
<title>gql_link&#45;&gt;gql_pedantic</title>
<path fill="none" stroke="#89da51" stroke-dasharray="5,2" d="M972.0942,-711.4869C962.8092,-658.3455 929.3081,-502.0937 844,-408.8205 715.2526,-268.0522 495.812,-189.2287 387.45,-157.0923"/>
<polygon fill="#89da51" stroke="#89da51" points="388.2128,-153.6688 377.6322,-154.2186 386.2463,-160.3869 388.2128,-153.6688"/>
</g>
<!-- gql_link&#45;&gt;gql -->
<g id="edge4" class="edge">
<title>gql_link&#45;&gt;gql</title>
<path fill="none" stroke="#68217c" d="M937.7298,-715.0782C843.5981,-677.3371 589.566,-572.3186 390,-460.8205 388.668,-460.0763 387.3219,-459.3017 385.9709,-458.505"/>
<polygon fill="#68217c" stroke="#68217c" points="387.4294,-455.2922 377.0816,-453.0175 383.7524,-461.2487 387.4294,-455.2922"/>
</g>
<!-- gql_link&#45;&gt;gql_exec -->
<g id="edge5" class="edge">
<title>gql_link&#45;&gt;gql_exec</title>
<path fill="none" stroke="#5b9240" d="M976.7094,-711.811C981.4152,-662.2317 994.5892,-523.4345 1000.3014,-463.2524"/>
<polygon fill="#5b9240" stroke="#5b9240" points="1003.8168,-463.2551 1001.2774,-452.9691 996.8481,-462.5937 1003.8168,-463.2551"/>
</g>
<!-- gql_websocket_link -->
<g id="node5" class="node">
<title>gql_websocket_link</title>
<polygon fill="none" stroke="#bb5677" points="1269,-1043.8205 1111,-1043.8205 1111,-1007.8205 1269,-1007.8205 1269,-1043.8205"/>
<text text-anchor="middle" x="1190" y="-1022.1205" font-family="Times,serif" font-size="14.00" fill="#000000">gql_websocket_link</text>
</g>
<!-- gql_websocket_link&#45;&gt;gql_pedantic -->
<g id="edge10" class="edge">
<title>gql_websocket_link&#45;&gt;gql_pedantic</title>
<path fill="none" stroke="#89da51" stroke-dasharray="5,2" d="M1172.2885,-1007.7208C1062.5656,-895.5934 476.0646,-296.2394 347.7959,-165.1599"/>
<polygon fill="#89da51" stroke="#89da51" points="350.179,-162.5908 340.6834,-157.8914 345.1759,-167.4867 350.179,-162.5908"/>
</g>
<!-- gql_websocket_link&#45;&gt;gql -->
<g id="edge7" class="edge">
<title>gql_websocket_link&#45;&gt;gql</title>
<path fill="none" stroke="#68217c" d="M1164.4323,-1007.8104C1042.8462,-922.1639 523.3136,-556.1999 384.9618,-458.7435"/>
<polygon fill="#68217c" stroke="#68217c" points="386.9711,-455.8778 376.7802,-452.9803 382.9399,-461.6005 386.9711,-455.8778"/>
</g>
<!-- gql_websocket_link&#45;&gt;gql_exec -->
<g id="edge8" class="edge">
<title>gql_websocket_link&#45;&gt;gql_exec</title>
<path fill="none" stroke="#5b9240" d="M1184.3014,-1007.8104C1157.553,-923.274 1044.3928,-565.6394 1011.811,-462.6671"/>
<polygon fill="#5b9240" stroke="#5b9240" points="1015.0997,-461.4586 1008.746,-452.9803 1008.4258,-463.5703 1015.0997,-461.4586"/>
</g>
<!-- gql_websocket_link&#45;&gt;gql_link -->
<g id="edge9" class="edge">
<title>gql_websocket_link&#45;&gt;gql_link</title>
<path fill="none" stroke="#7c0063" d="M1176.8744,-1007.75C1140.2905,-957.3833 1037.0545,-815.2537 994.1104,-756.1306"/>
<polygon fill="#7c0063" stroke="#7c0063" points="996.9357,-754.0647 988.227,-748.0307 991.272,-758.1785 996.9357,-754.0647"/>
</g>
<!-- gql_transform_link -->
<g id="node6" class="node">
<title>gql_transform_link</title>
<polygon fill="none" stroke="#21d185" points="554,-1043.8205 402,-1043.8205 402,-1007.8205 554,-1007.8205 554,-1043.8205"/>
<text text-anchor="middle" x="478" y="-1022.1205" font-family="Times,serif" font-size="14.00" fill="#000000">gql_transform_link</text>
</g>
<!-- gql_transform_link&#45;&gt;gql_pedantic -->
<g id="edge14" class="edge">
<title>gql_transform_link&#45;&gt;gql_pedantic</title>
<path fill="none" stroke="#89da51" stroke-dasharray="5,2" d="M475.9259,-1007.8047C467.2548,-933.5505 432.2444,-644.0717 387,-408.8205 369.9379,-320.1051 343.3753,-216.4541 330.5008,-167.7687"/>
<polygon fill="#89da51" stroke="#89da51" points="333.8472,-166.7334 327.897,-157.9672 327.0818,-168.5307 333.8472,-166.7334"/>
</g>
<!-- gql_transform_link&#45;&gt;gql -->
<g id="edge13" class="edge">
<title>gql_transform_link&#45;&gt;gql</title>
<path fill="none" stroke="#68217c" stroke-dasharray="5,2" d="M474.1298,-1007.8104C455.9821,-923.3593 379.2669,-566.3616 357.0512,-462.9799"/>
<polygon fill="#68217c" stroke="#68217c" points="360.4253,-462.0218 354.9024,-452.9803 353.5815,-463.4925 360.4253,-462.0218"/>
</g>
<!-- gql_transform_link&#45;&gt;gql_exec -->
<g id="edge11" class="edge">
<title>gql_transform_link&#45;&gt;gql_exec</title>
<path fill="none" stroke="#5b9240" d="M493.9989,-1007.8104C569.6256,-922.6762 891.2951,-560.5683 980.1694,-460.5212"/>
<polygon fill="#5b9240" stroke="#5b9240" points="982.8436,-462.781 986.8682,-452.9803 977.6102,-458.1321 982.8436,-462.781"/>
</g>
<!-- gql_transform_link&#45;&gt;gql_link -->
<g id="edge12" class="edge">
<title>gql_transform_link&#45;&gt;gql_link</title>
<path fill="none" stroke="#7c0063" d="M508.3414,-1007.75C594.3982,-956.4968 840.0013,-810.2222 935.9344,-753.0869"/>
<polygon fill="#7c0063" stroke="#7c0063" points="937.9399,-755.9663 944.7406,-747.8422 934.358,-749.9521 937.9399,-755.9663"/>
</g>
<!-- gql_http_link -->
<g id="node7" class="node">
<title>gql_http_link</title>
<polygon fill="none" stroke="#ab8a09" points="940.5,-1043.8205 829.5,-1043.8205 829.5,-1007.8205 940.5,-1007.8205 940.5,-1043.8205"/>
<text text-anchor="middle" x="885" y="-1022.1205" font-family="Times,serif" font-size="14.00" fill="#000000">gql_http_link</text>
</g>
<!-- gql_http_link&#45;&gt;gql_pedantic -->
<g id="edge18" class="edge">
<title>gql_http_link&#45;&gt;gql_pedantic</title>
<path fill="none" stroke="#89da51" stroke-dasharray="5,2" d="M873.5192,-1007.7208C802.608,-895.9285 424.4875,-299.8169 339.8263,-166.3474"/>
<polygon fill="#89da51" stroke="#89da51" points="342.7746,-164.4611 334.4626,-157.8914 336.8635,-168.2107 342.7746,-164.4611"/>
</g>
<!-- gql_http_link&#45;&gt;gql -->
<g id="edge15" class="edge">
<title>gql_http_link&#45;&gt;gql</title>
<path fill="none" stroke="#68217c" d="M868.7269,-1007.8104C791.8036,-922.6762 464.6198,-560.5683 374.222,-460.5212"/>
<polygon fill="#68217c" stroke="#68217c" points="376.7095,-458.0537 367.4083,-452.9803 371.5156,-462.7466 376.7095,-458.0537"/>
</g>
<!-- gql_http_link&#45;&gt;gql_exec -->
<g id="edge16" class="edge">
<title>gql_http_link&#45;&gt;gql_exec</title>
<path fill="none" stroke="#5b9240" d="M886.6419,-1007.5212C891.2559,-958.1518 905.553,-818.2369 929,-703.8205 947.2994,-614.5234 978.6842,-511.1459 994.0265,-462.6463"/>
<polygon fill="#5b9240" stroke="#5b9240" points="997.4359,-463.4744 997.1332,-452.8839 990.7655,-461.3517 997.4359,-463.4744"/>
</g>
<!-- gql_http_link&#45;&gt;gql_link -->
<g id="edge17" class="edge">
<title>gql_http_link&#45;&gt;gql_link</title>
<path fill="none" stroke="#7c0063" d="M890.4944,-1007.75C905.6831,-957.7962 948.3171,-817.5775 966.5532,-757.6011"/>
<polygon fill="#7c0063" stroke="#7c0063" points="969.9026,-758.6164 969.4631,-748.0307 963.2054,-756.58 969.9026,-758.6164"/>
</g>
<!-- gql_error_link -->
<g id="node8" class="node">
<title>gql_error_link</title>
<polygon fill="none" stroke="#5f79bc" points="690,-1043.8205 572,-1043.8205 572,-1007.8205 690,-1007.8205 690,-1043.8205"/>
<text text-anchor="middle" x="631" y="-1022.1205" font-family="Times,serif" font-size="14.00" fill="#000000">gql_error_link</text>
</g>
<!-- gql_error_link&#45;&gt;gql_pedantic -->
<g id="edge22" class="edge">
<title>gql_error_link&#45;&gt;gql_pedantic</title>
<path fill="none" stroke="#89da51" stroke-dasharray="5,2" d="M624.708,-1007.7208C585.9621,-896.2635 379.8601,-303.3856 332.643,-167.5599"/>
<polygon fill="#89da51" stroke="#89da51" points="335.8715,-166.1877 329.282,-157.8914 329.2597,-168.4862 335.8715,-166.1877"/>
</g>
<!-- gql_error_link&#45;&gt;gql -->
<g id="edge21" class="edge">
<title>gql_error_link&#45;&gt;gql</title>
<path fill="none" stroke="#68217c" stroke-dasharray="5,2" d="M622.4673,-1007.8104C582.3353,-923.1032 412.2934,-564.1933 363.8988,-462.0461"/>
<polygon fill="#68217c" stroke="#68217c" points="367.0482,-460.5188 359.6036,-452.9803 360.7222,-463.5159 367.0482,-460.5188"/>
</g>
<!-- gql_error_link&#45;&gt;gql_exec -->
<g id="edge19" class="edge">
<title>gql_error_link&#45;&gt;gql_exec</title>
<path fill="none" stroke="#5b9240" d="M649.3662,-1007.7099C691.5758,-965.3455 797.0057,-855.2154 864,-747.8205 866.0517,-744.5315 957.0802,-538.7153 990.6956,-462.6643"/>
<polygon fill="#5b9240" stroke="#5b9240" points="994.0215,-463.797 994.8629,-453.2356 987.619,-460.9671 994.0215,-463.797"/>
</g>
<!-- gql_error_link&#45;&gt;gql_link -->
<g id="edge20" class="edge">
<title>gql_error_link&#45;&gt;gql_link</title>
<path fill="none" stroke="#7c0063" d="M652.0009,-1007.75C711.0149,-956.9705 878.4278,-812.9176 946.0934,-754.6936"/>
<polygon fill="#7c0063" stroke="#7c0063" points="948.5396,-757.2062 953.8369,-748.0307 943.9739,-751.9001 948.5396,-757.2062"/>
</g>
<!-- gql_code_builder -->
<g id="node9" class="node">
<title>gql_code_builder</title>
<polygon fill="none" stroke="#1da059" points="155.5,-747.8205 16.5,-747.8205 16.5,-711.8205 155.5,-711.8205 155.5,-747.8205"/>
<text text-anchor="middle" x="86" y="-726.1205" font-family="Times,serif" font-size="14.00" fill="#000000">gql_code_builder</text>
</g>
<!-- gql_code_builder&#45;&gt;gql_pedantic -->
<g id="edge25" class="edge">
<title>gql_code_builder&#45;&gt;gql_pedantic</title>
<path fill="none" stroke="#89da51" stroke-dasharray="5,2" d="M93.3528,-711.516C127.5299,-626.4338 270.9353,-269.433 311.9808,-167.2522"/>
<polygon fill="#89da51" stroke="#89da51" points="315.2532,-168.4955 315.7329,-157.9115 308.7576,-165.8863 315.2532,-168.4955"/>
</g>
<!-- gql_code_builder&#45;&gt;gql -->
<g id="edge23" class="edge">
<title>gql_code_builder&#45;&gt;gql</title>
<path fill="none" stroke="#68217c" d="M102.178,-711.811C147.3622,-661.5117 275.036,-519.3842 327.7698,-460.6806"/>
<polygon fill="#68217c" stroke="#68217c" points="330.618,-462.7473 334.697,-452.9691 325.4106,-458.0694 330.618,-462.7473"/>
</g>
<!-- gql_code_builder&#45;&gt;gql_exec -->
<g id="edge24" class="edge">
<title>gql_code_builder&#45;&gt;gql_exec</title>
<path fill="none" stroke="#5b9240" d="M141.9821,-711.811C307.8808,-658.4412 795.1378,-501.69 953.0093,-450.9026"/>
<polygon fill="#5b9240" stroke="#5b9240" points="954.4771,-454.1071 962.9248,-447.7128 952.3334,-447.4434 954.4771,-454.1071"/>
</g>
<!-- gql_build -->
<g id="node10" class="node">
<title>gql_build</title>
<polygon fill="none" stroke="#3380b0" points="155.5,-1043.8205 72.5,-1043.8205 72.5,-1007.8205 155.5,-1007.8205 155.5,-1043.8205"/>
<text text-anchor="middle" x="114" y="-1022.1205" font-family="Times,serif" font-size="14.00" fill="#000000">gql_build</text>
</g>
<!-- gql_build&#45;&gt;gql_pedantic -->
<g id="edge28" class="edge">
<title>gql_build&#45;&gt;gql_pedantic</title>
<path fill="none" stroke="#89da51" stroke-dasharray="5,2" d="M100.0992,-1007.5613C64.7392,-958.8533 -23.7261,-821.522 7,-703.8205 66.3727,-476.3834 240.087,-243.6096 301.3261,-166.4446"/>
<polygon fill="#89da51" stroke="#89da51" points="304.3851,-168.2229 307.8923,-158.2254 298.916,-163.8537 304.3851,-168.2229"/>
</g>
<!-- gql_build&#45;&gt;gql -->
<g id="edge26" class="edge">
<title>gql_build&#45;&gt;gql</title>
<path fill="none" stroke="#68217c" d="M117.9407,-1007.5803C128.9916,-957.7827 162.4698,-815.7548 208,-703.8205 245.5519,-611.5007 305.3013,-509.3417 334.2234,-461.8491"/>
<polygon fill="#68217c" stroke="#68217c" points="337.3443,-463.4546 339.5811,-453.0986 331.3744,-459.7994 337.3443,-463.4546"/>
</g>
<!-- gql_build&#45;&gt;gql_code_builder -->
<g id="edge27" class="edge">
<title>gql_build&#45;&gt;gql_code_builder</title>
<path fill="none" stroke="#1da059" d="M112.2906,-1007.75C107.5848,-958.0026 94.4108,-818.7348 88.6986,-758.3487"/>
<polygon fill="#1da059" stroke="#1da059" points="92.1489,-757.6566 87.7226,-748.0307 85.18,-758.3159 92.1489,-757.6566"/>
</g>
<!-- gql_example_http_auth_link -->
<g id="node11" class="node">
<title>gql_example_http_auth_link</title>
<polygon fill="none" stroke="#8a0733" points="900,-1383.8205 682,-1383.8205 682,-1347.8205 900,-1347.8205 900,-1383.8205"/>
<text text-anchor="middle" x="791" y="-1362.1205" font-family="Times,serif" font-size="14.00" fill="#000000">gql_example_http_auth_link</text>
</g>
<!-- gql_example_http_auth_link&#45;&gt;gql_pedantic -->
<g id="edge36" class="edge">
<title>gql_example_http_auth_link&#45;&gt;gql_pedantic</title>
<path fill="none" stroke="#89da51" stroke-dasharray="5,2" d="M866.0254,-1347.7869C1038.6405,-1304.621 1455.1888,-1190.3276 1534,-1074.8205 1564.5448,-1030.0535 1653.1895,-1084.4669 1526,-703.8205 1474.9958,-551.1778 1448.065,-500.7992 1316,-408.8205 1014.3449,-198.7283 555.8919,-152.5789 387.7412,-142.5589"/>
<polygon fill="#89da51" stroke="#89da51" points="387.7491,-139.0537 377.5652,-141.9758 387.3486,-146.0422 387.7491,-139.0537"/>
</g>
<!-- gql_example_http_auth_link&#45;&gt;gql -->
<g id="edge29" class="edge">
<title>gql_example_http_auth_link&#45;&gt;gql</title>
<path fill="none" stroke="#68217c" d="M714.4959,-1347.7998C597.3532,-1315.6196 377.3212,-1235.9839 284,-1074.8205 201.3741,-932.1275 263.9249,-867.4828 284,-703.8205 294.9999,-614.1437 325.8954,-511.3372 341.5925,-462.8793"/>
<polygon fill="#68217c" stroke="#68217c" points="345.0034,-463.7096 344.7885,-453.1169 338.3508,-461.5316 345.0034,-463.7096"/>
</g>
<!-- gql_example_http_auth_link&#45;&gt;gql_exec -->
<g id="edge31" class="edge">
<title>gql_example_http_auth_link&#45;&gt;gql_exec</title>
<path fill="none" stroke="#5b9240" d="M860.9166,-1347.762C1024.8464,-1303.8616 1425.8094,-1186.8991 1501,-1074.8205 1592.8624,-937.8912 1585.4596,-845.4359 1501,-703.8205 1401.5068,-536.9979 1158.7515,-467.4183 1053.2886,-444.3709"/>
<polygon fill="#5b9240" stroke="#5b9240" points="1053.7304,-440.8864 1043.22,-442.2214 1052.2689,-447.7322 1053.7304,-440.8864"/>
</g>
<!-- gql_example_http_auth_link&#45;&gt;gql_link -->
<g id="edge33" class="edge">
<title>gql_example_http_auth_link&#45;&gt;gql_link</title>
<path fill="none" stroke="#7c0063" d="M861.3981,-1347.7894C973.2166,-1314.9162 1187.9593,-1233.5137 1278,-1074.8205 1357.1574,-935.3087 1124.6816,-801.9675 1021.5612,-751.2884"/>
<polygon fill="#7c0063" stroke="#7c0063" points="1022.8192,-748.0084 1012.2951,-746.786 1019.7599,-754.3045 1022.8192,-748.0084"/>
</g>
<!-- gql_example_http_auth_link&#45;&gt;gql_transform_link -->
<g id="edge34" class="edge">
<title>gql_example_http_auth_link&#45;&gt;gql_transform_link</title>
<path fill="none" stroke="#21d185" d="M774.1718,-1347.5406C721.9476,-1290.8115 562.5159,-1117.6269 501.8112,-1051.6857"/>
<polygon fill="#21d185" stroke="#21d185" points="504.2594,-1049.1774 494.9114,-1044.1908 499.1094,-1053.9185 504.2594,-1049.1774"/>
</g>
<!-- gql_example_http_auth_link&#45;&gt;gql_http_link -->
<g id="edge32" class="edge">
<title>gql_example_http_auth_link&#45;&gt;gql_http_link</title>
<path fill="none" stroke="#ab8a09" d="M796.0538,-1347.5406C811.5465,-1291.5034 858.4552,-1121.8336 877.1689,-1054.1456"/>
<polygon fill="#ab8a09" stroke="#ab8a09" points="880.6298,-1054.7619 879.9212,-1044.1908 873.8829,-1052.8965 880.6298,-1054.7619"/>
</g>
<!-- gql_example_http_auth_link&#45;&gt;gql_error_link -->
<g id="edge30" class="edge">
<title>gql_example_http_auth_link&#45;&gt;gql_error_link</title>
<path fill="none" stroke="#5f79bc" d="M782.3977,-1347.5406C755.9187,-1291.2728 675.5246,-1120.4352 643.9387,-1053.3152"/>
<polygon fill="#5f79bc" stroke="#5f79bc" points="647.0697,-1051.7487 639.6448,-1044.1908 640.736,-1054.7293 647.0697,-1051.7487"/>
</g>
<!-- gql_example_http_auth_link&#45;&gt;gql_build -->
<g id="edge35" class="edge">
<title>gql_example_http_auth_link&#45;&gt;gql_build</title>
<path fill="none" stroke="#3380b0" stroke-dasharray="5,2" d="M755.0795,-1347.7807C640.8041,-1290.3898 285.7656,-1112.0839 159.302,-1048.5719"/>
<polygon fill="#3380b0" stroke="#3380b0" points="160.7517,-1045.3834 150.2446,-1044.0231 157.6101,-1051.6389 160.7517,-1045.3834"/>
</g>
<!-- gql_example_flutter -->
<g id="node12" class="node">
<title>gql_example_flutter</title>
<polygon fill="none" stroke="#671702" points="1416,-1383.8205 1256,-1383.8205 1256,-1347.8205 1416,-1347.8205 1416,-1383.8205"/>
<text text-anchor="middle" x="1336" y="-1362.1205" font-family="Times,serif" font-size="14.00" fill="#000000">gql_example_flutter</text>
</g>
<!-- gql_example_flutter&#45;&gt;gql_pedantic -->
<g id="edge41" class="edge">
<title>gql_example_flutter&#45;&gt;gql_pedantic</title>
<path fill="none" stroke="#89da51" stroke-dasharray="5,2" d="M1361.6367,-1347.5185C1417.1888,-1306.2126 1548.1548,-1199.5676 1604,-1074.8205 1730.0724,-793.2 1666.4436,-577.3768 1408,-408.8205 1234.2571,-295.5058 594.14,-183.8677 387.6614,-150.1167"/>
<polygon fill="#89da51" stroke="#89da51" points="388.0119,-146.6277 377.5792,-148.4743 386.8864,-153.5366 388.0119,-146.6277"/>
</g>
<!-- gql_example_flutter&#45;&gt;gql -->
<g id="edge37" class="edge">
<title>gql_example_flutter&#45;&gt;gql</title>
<path fill="none" stroke="#68217c" d="M1275.5386,-1347.7194C1068.0352,-1285.5343 397.1842,-1083.9519 390,-1074.8205 314.1448,-978.4062 339.9989,-573.5918 348.6535,-462.8991"/>
<polygon fill="#68217c" stroke="#68217c" points="352.1494,-463.0885 349.4565,-452.8416 345.1716,-462.5313 352.1494,-463.0885"/>
</g>
<!-- gql_example_flutter&#45;&gt;gql_exec -->
<g id="edge40" class="edge">
<title>gql_example_flutter&#45;&gt;gql_exec</title>
<path fill="none" stroke="#5b9240" d="M1368.5013,-1347.8114C1435.4859,-1308.574 1587.4412,-1208.0915 1645,-1074.8205 1681.4612,-990.3988 1769.3649,-906.0346 1628,-703.8205 1490.2181,-506.7317 1176.3622,-452.9932 1053.5762,-439.248"/>
<polygon fill="#5b9240" stroke="#5b9240" points="1053.6534,-435.7362 1043.3362,-438.1455 1052.904,-442.6959 1053.6534,-435.7362"/>
</g>
<!-- gql_example_flutter&#45;&gt;gql_link -->
<g id="edge38" class="edge">
<title>gql_example_flutter&#45;&gt;gql_link</title>
<path fill="none" stroke="#7c0063" d="M1346.0907,-1347.7615C1375.2537,-1292.9548 1453.6899,-1125.1139 1391,-1007.8205 1311.3958,-858.8804 1112.7744,-775.8265 1021.8194,-744.4864"/>
<polygon fill="#7c0063" stroke="#7c0063" points="1022.911,-741.1609 1012.3167,-741.2659 1020.6641,-747.7905 1022.911,-741.1609"/>
</g>
<!-- gql_example_flutter&#45;&gt;gql_http_link -->
<g id="edge39" class="edge">
<title>gql_example_flutter&#45;&gt;gql_http_link</title>
<path fill="none" stroke="#ab8a09" d="M1312.0707,-1347.7807C1236.5529,-1290.8493 1003.2036,-1114.9319 917.2321,-1050.1197"/>
<polygon fill="#ab8a09" stroke="#ab8a09" points="919.2373,-1047.2482 909.1452,-1044.0231 915.0234,-1052.8378 919.2373,-1047.2482"/>
</g>
<!-- gql_example_flutter&#45;&gt;gql_build -->
<g id="edge42" class="edge">
<title>gql_example_flutter&#45;&gt;gql_build</title>
<path fill="none" stroke="#3380b0" stroke-dasharray="5,2" d="M1274.7504,-1347.8063C1265.459,-1345.1087 1255.9797,-1342.3764 1247,-1339.8205 830.6215,-1221.3097 326.4883,-1083.6409 165.8079,-1039.9036"/>
<polygon fill="#3380b0" stroke="#3380b0" points="166.2936,-1036.4086 155.7255,-1037.1598 164.4555,-1043.1629 166.2936,-1036.4086"/>
</g>
<!-- gql_dio_link -->
<g id="node13" class="node">
<title>gql_dio_link</title>
<polygon fill="none" stroke="#45c9c3" points="811.5,-1043.8205 708.5,-1043.8205 708.5,-1007.8205 811.5,-1007.8205 811.5,-1043.8205"/>
<text text-anchor="middle" x="760" y="-1022.1205" font-family="Times,serif" font-size="14.00" fill="#000000">gql_dio_link</text>
</g>
<!-- gql_dio_link&#45;&gt;gql_pedantic -->
<g id="edge46" class="edge">
<title>gql_dio_link&#45;&gt;gql_pedantic</title>
<path fill="none" stroke="#89da51" stroke-dasharray="5,2" d="M751.0727,-1007.7208C696.0438,-896.1518 403.0886,-302.197 336.4811,-167.1529"/>
<polygon fill="#89da51" stroke="#89da51" points="339.4756,-165.3116 331.9131,-157.8914 333.1977,-168.4081 339.4756,-165.3116"/>
</g>
<!-- gql_dio_link&#45;&gt;gql -->
<g id="edge45" class="edge">
<title>gql_dio_link&#45;&gt;gql</title>
<path fill="none" stroke="#68217c" stroke-dasharray="5,2" d="M747.5361,-1007.8104C688.7965,-922.9324 439.5298,-562.745 369.416,-461.4315"/>
<polygon fill="#68217c" stroke="#68217c" points="372.1362,-459.2115 363.5674,-452.9803 366.3801,-463.195 372.1362,-459.2115"/>
</g>
<!-- gql_dio_link&#45;&gt;gql_exec -->
<g id="edge43" class="edge">
<title>gql_dio_link&#45;&gt;gql_exec</title>
<path fill="none" stroke="#5b9240" d="M768.481,-1007.7588C789.0816,-963.6876 843.0708,-846.9863 884,-747.8205 927.0276,-643.5706 973.1797,-517.5779 993.0117,-462.6627"/>
<polygon fill="#5b9240" stroke="#5b9240" points="996.4122,-463.5499 996.5103,-452.9555 989.8269,-461.1764 996.4122,-463.5499"/>
</g>
<!-- gql_dio_link&#45;&gt;gql_link -->
<g id="edge44" class="edge">
<title>gql_dio_link&#45;&gt;gql_link</title>
<path fill="none" stroke="#7c0063" d="M773.1256,-1007.75C809.7095,-957.3833 912.9455,-815.2537 955.8896,-756.1306"/>
<polygon fill="#7c0063" stroke="#7c0063" points="958.728,-758.1785 961.773,-748.0307 953.0643,-754.0647 958.728,-758.1785"/>
</g>
<!-- gql_example_dio_link -->
<g id="node14" class="node">
<title>gql_example_dio_link</title>
<polygon fill="none" stroke="#058cba" points="1088,-1383.8205 918,-1383.8205 918,-1347.8205 1088,-1347.8205 1088,-1383.8205"/>
<text text-anchor="middle" x="1003" y="-1362.1205" font-family="Times,serif" font-size="14.00" fill="#000000">gql_example_dio_link</text>
</g>
<!-- gql_example_dio_link&#45;&gt;gql -->
<g id="edge47" class="edge">
<title>gql_example_dio_link&#45;&gt;gql</title>
<path fill="none" stroke="#68217c" d="M937.6305,-1347.8174C781.4097,-1303.3362 394.0296,-1183.9298 322,-1074.8205 254.5428,-972.6373 324.5665,-572.8356 345.49,-462.9194"/>
<polygon fill="#68217c" stroke="#68217c" points="348.9605,-463.4056 347.41,-452.9249 342.0862,-462.085 348.9605,-463.4056"/>
</g>
<!-- gql_example_dio_link&#45;&gt;gql_exec -->
<g id="edge49" class="edge">
<title>gql_example_dio_link&#45;&gt;gql_exec</title>
<path fill="none" stroke="#5b9240" d="M1054.1829,-1347.7363C1183.4201,-1300.9297 1516.9178,-1172.6426 1577,-1074.8205 1663.297,-934.3172 1665.4615,-842.9712 1577,-703.8205 1457.7893,-516.3012 1169.5686,-457.2442 1053.0871,-440.6589"/>
<polygon fill="#5b9240" stroke="#5b9240" points="1053.4035,-437.1695 1043.0192,-439.2709 1052.4475,-444.1039 1053.4035,-437.1695"/>
</g>
<!-- gql_example_dio_link&#45;&gt;gql_link -->
<g id="edge48" class="edge">
<title>gql_example_dio_link&#45;&gt;gql_link</title>
<path fill="none" stroke="#7c0063" d="M1048.2005,-1347.7066C1158.8366,-1300.468 1428.5841,-1166.1384 1349,-1007.8205 1279.5489,-869.6604 1105.3234,-782.8383 1021.4906,-747.71"/>
<polygon fill="#7c0063" stroke="#7c0063" points="1022.7908,-744.4603 1012.2119,-743.8789 1020.1193,-750.9305 1022.7908,-744.4603"/>
</g>
<!-- gql_example_dio_link&#45;&gt;gql_dio_link -->
<g id="edge50" class="edge">
<title>gql_example_dio_link&#45;&gt;gql_dio_link</title>
<path fill="none" stroke="#45c9c3" d="M989.9353,-1347.5406C949.5555,-1291.0422 826.6195,-1119.033 779.0645,-1052.4952"/>
<polygon fill="#45c9c3" stroke="#45c9c3" points="781.7915,-1050.2914 773.1293,-1044.1908 776.0965,-1054.3616 781.7915,-1050.2914"/>
</g>
<!-- gql_example_cli_github -->
<g id="node15" class="node">
<title>gql_example_cli_github</title>
<polygon fill="none" stroke="#9b3b01" points="663.5,-1383.8205 478.5,-1383.8205 478.5,-1347.8205 663.5,-1347.8205 663.5,-1383.8205"/>
<text text-anchor="middle" x="571" y="-1362.1205" font-family="Times,serif" font-size="14.00" fill="#000000">gql_example_cli_github</text>
</g>
<!-- gql_example_cli_github&#45;&gt;gql_pedantic -->
<g id="edge56" class="edge">
<title>gql_example_cli_github&#45;&gt;gql_pedantic</title>
<path fill="none" stroke="#89da51" stroke-dasharray="5,2" d="M630.1916,-1347.7667C803.4409,-1294.3527 1300.0168,-1136.9582 1343,-1074.8205 1512.121,-830.3345 1480.8826,-628.8711 1281,-408.8205 1157.9734,-273.3806 582.587,-177.8979 387.7166,-148.9836"/>
<polygon fill="#89da51" stroke="#89da51" points="388.0302,-145.4921 377.6266,-147.4956 387.0089,-152.4172 388.0302,-145.4921"/>
</g>
<!-- gql_example_cli_github&#45;&gt;gql -->
<g id="edge51" class="edge">
<title>gql_example_cli_github&#45;&gt;gql</title>
<path fill="none" stroke="#68217c" d="M535.791,-1347.6921C464.8992,-1308.9269 306.5656,-1210.3459 246,-1074.8205 147.2772,-853.912 288.285,-552.9043 336.1125,-461.9362"/>
<polygon fill="#68217c" stroke="#68217c" points="339.2171,-463.5525 340.8253,-453.0804 333.0376,-460.2639 339.2171,-463.5525"/>
</g>
<!-- gql_example_cli_github&#45;&gt;gql_exec -->
<g id="edge52" class="edge">
<title>gql_example_cli_github&#45;&gt;gql_exec</title>
<path fill="none" stroke="#5b9240" d="M627.1674,-1347.7766C792.7476,-1294.041 1269.9502,-1135.0728 1311,-1074.8205 1403.8396,-938.5519 1379.2039,-853.9424 1311,-703.8205 1256.5777,-584.0329 1119.5394,-496.7063 1048.0206,-457.6183"/>
<polygon fill="#5b9240" stroke="#5b9240" points="1049.6781,-454.5357 1039.2152,-452.8689 1046.355,-460.6967 1049.6781,-454.5357"/>
</g>
<!-- gql_example_cli_github&#45;&gt;gql_transform_link -->
<g id="edge54" class="edge">
<title>gql_example_cli_github&#45;&gt;gql_transform_link</title>
<path fill="none" stroke="#21d185" d="M565.9999,-1347.5406C550.6721,-1291.5034 504.2624,-1121.8336 485.7478,-1054.1456"/>
<polygon fill="#21d185" stroke="#21d185" points="489.0392,-1052.913 483.0248,-1044.1908 482.2873,-1054.7599 489.0392,-1052.913"/>
</g>
<!-- gql_example_cli_github&#45;&gt;gql_http_link -->
<g id="edge53" class="edge">
<title>gql_example_cli_github&#45;&gt;gql_http_link</title>
<path fill="none" stroke="#ab8a09" d="M587.882,-1347.5406C640.273,-1290.8115 800.2141,-1117.6269 861.1127,-1051.6857"/>
<polygon fill="#ab8a09" stroke="#ab8a09" points="863.8211,-1053.9118 868.0345,-1044.1908 858.6787,-1049.1626 863.8211,-1053.9118"/>
</g>
<!-- gql_example_cli_github&#45;&gt;gql_build -->
<g id="edge55" class="edge">
<title>gql_example_cli_github&#45;&gt;gql_build</title>
<path fill="none" stroke="#3380b0" stroke-dasharray="5,2" d="M546.7524,-1347.7807C470.2299,-1290.8493 233.7761,-1114.9319 146.6609,-1050.1197"/>
<polygon fill="#3380b0" stroke="#3380b0" points="148.5787,-1047.1841 138.4664,-1044.0231 144.4004,-1052.8003 148.5787,-1047.1841"/>
</g>
<!-- gql_example_cli -->
<g id="node16" class="node">
<title>gql_example_cli</title>
<polygon fill="none" stroke="#18510b" points="1237.5,-1383.8205 1106.5,-1383.8205 1106.5,-1347.8205 1237.5,-1347.8205 1237.5,-1383.8205"/>
<text text-anchor="middle" x="1172" y="-1362.1205" font-family="Times,serif" font-size="14.00" fill="#000000">gql_example_cli</text>
</g>
<!-- gql_example_cli&#45;&gt;gql_pedantic -->
<g id="edge62" class="edge">
<title>gql_example_cli&#45;&gt;gql_pedantic</title>
<path fill="none" stroke="#89da51" stroke-dasharray="5,2" d="M1221.6458,-1347.7695C1311.9112,-1311.9 1500.5479,-1222.1562 1576,-1074.8205 1717.6538,-798.2125 1613.3151,-592.9947 1363,-408.8205 1203.0759,-291.1532 589.7332,-183.1333 387.8472,-150.112"/>
<polygon fill="#89da51" stroke="#89da51" points="388.127,-146.6116 377.6943,-148.458 387.0014,-153.5205 388.127,-146.6116"/>
</g>
<!-- gql_example_cli&#45;&gt;gql -->
<g id="edge57" class="edge">
<title>gql_example_cli&#45;&gt;gql</title>
<path fill="none" stroke="#68217c" d="M1120.3912,-1347.7633C942.5712,-1285.4917 365.8899,-1083.0642 360,-1074.8205 288.8862,-975.2869 333.4359,-573.5773 347.3001,-463.0751"/>
<polygon fill="#68217c" stroke="#68217c" points="350.7884,-463.3883 348.5776,-453.0267 343.8442,-462.5054 350.7884,-463.3883"/>
</g>
<!-- gql_example_cli&#45;&gt;gql_exec -->
<g id="edge58" class="edge">
<title>gql_example_cli&#45;&gt;gql_exec</title>
<path fill="none" stroke="#5b9240" d="M1207.5285,-1347.7678C1303.4329,-1298.2229 1563.3627,-1158.2791 1608,-1074.8205 1646.8686,-1002.1476 1769.8059,-957.6039 1602,-703.8205 1474.4644,-510.9404 1172.9805,-454.8347 1053.266,-439.8504"/>
<polygon fill="#5b9240" stroke="#5b9240" points="1053.6182,-436.3675 1043.2706,-438.6426 1052.7785,-443.317 1053.6182,-436.3675"/>
</g>
<!-- gql_example_cli&#45;&gt;gql_link -->
<g id="edge60" class="edge">
<title>gql_example_cli&#45;&gt;gql_link</title>
<path fill="none" stroke="#7c0063" d="M1196.0098,-1347.7487C1262.2994,-1295.5553 1438.5486,-1139.8887 1370,-1007.8205 1295.4352,-864.1613 1108.767,-779.0977 1021.426,-745.9363"/>
<polygon fill="#7c0063" stroke="#7c0063" points="1022.6259,-742.6484 1012.0334,-742.4254 1020.1749,-749.2053 1022.6259,-742.6484"/>
</g>
<!-- gql_example_cli&#45;&gt;gql_http_link -->
<g id="edge59" class="edge">
<title>gql_example_cli&#45;&gt;gql_http_link</title>
<path fill="none" stroke="#ab8a09" d="M1156.5696,-1347.5406C1108.7809,-1290.9268 963.0893,-1118.3304 907.1738,-1052.0891"/>
<polygon fill="#ab8a09" stroke="#ab8a09" points="909.6316,-1049.5747 900.5067,-1044.1908 904.2825,-1054.09 909.6316,-1049.5747"/>
</g>
<!-- gql_example_cli&#45;&gt;gql_build -->
<g id="edge61" class="edge">
<title>gql_example_cli&#45;&gt;gql_build</title>
<path fill="none" stroke="#3380b0" stroke-dasharray="5,2" d="M1120.4146,-1347.7515C1112.5807,-1345.0614 1104.5836,-1342.3458 1097,-1339.8205 741.8313,-1221.5519 311.5764,-1087.1618 165.4183,-1041.7569"/>
<polygon fill="#3380b0" stroke="#3380b0" points="166.3859,-1038.3926 155.7978,-1038.7693 164.3098,-1045.0777 166.3859,-1038.3926"/>
</g>
<!-- gql_example_build -->
<g id="node17" class="node">
<title>gql_example_build</title>
<polygon fill="none" stroke="#628320" points="1584,-1383.8205 1434,-1383.8205 1434,-1347.8205 1584,-1347.8205 1584,-1383.8205"/>
<text text-anchor="middle" x="1509" y="-1362.1205" font-family="Times,serif" font-size="14.00" fill="#000000">gql_example_build</text>
</g>
<!-- gql_example_build&#45;&gt;gql_pedantic -->
<g id="edge64" class="edge">
<title>gql_example_build&#45;&gt;gql_pedantic</title>
<path fill="none" stroke="#89da51" stroke-dasharray="5,2" d="M1520.7511,-1347.6293C1569.7851,-1269.366 1751.7877,-953.9636 1670,-703.8205 1619.4994,-549.3672 1589.3752,-498.7075 1454,-408.8205 1273.4717,-288.9525 600.0397,-180.9102 387.6187,-149.1925"/>
<polygon fill="#89da51" stroke="#89da51" points="387.9634,-145.7054 377.5573,-147.6959 386.9335,-152.6292 387.9634,-145.7054"/>
</g>
<!-- gql_example_build&#45;&gt;gql_build -->
<g id="edge63" class="edge">
<title>gql_example_build&#45;&gt;gql_build</title>
<path fill="none" stroke="#3380b0" stroke-dasharray="5,2" d="M1452.2139,-1347.6952C1443.1405,-1344.9577 1433.8335,-1342.2427 1425,-1339.8205 938.4478,-1206.4053 341.7335,-1075.033 165.3721,-1036.8614"/>
<polygon fill="#3380b0" stroke="#3380b0" points="166.0942,-1033.4367 155.5803,-1034.7444 164.6149,-1040.2786 166.0942,-1033.4367"/>
</g>
<!-- gql_dedupe_link -->
<g id="node18" class="node">
<title>gql_dedupe_link</title>
<polygon fill="none" stroke="#cf6bf6" points="1093,-1043.8205 959,-1043.8205 959,-1007.8205 1093,-1007.8205 1093,-1043.8205"/>
<text text-anchor="middle" x="1026" y="-1022.1205" font-family="Times,serif" font-size="14.00" fill="#000000">gql_dedupe_link</text>
</g>
<!-- gql_dedupe_link&#45;&gt;gql_pedantic -->
<g id="edge68" class="edge">
<title>gql_dedupe_link&#45;&gt;gql_pedantic</title>
<path fill="none" stroke="#89da51" stroke-dasharray="5,2" d="M1011.6387,-1007.7208C922.8481,-895.8168 449.0043,-298.6254 343.7316,-165.9488"/>
<polygon fill="#89da51" stroke="#89da51" points="346.2959,-163.5496 337.3384,-157.8914 340.8123,-167.9006 346.2959,-163.5496"/>
</g>
<!-- gql_dedupe_link&#45;&gt;gql -->
<g id="edge67" class="edge">
<title>gql_dedupe_link&#45;&gt;gql</title>
<path fill="none" stroke="#68217c" stroke-dasharray="5,2" d="M1005.43,-1007.8104C907.903,-922.4201 492.1288,-558.3866 379.3303,-459.6252"/>
<polygon fill="#68217c" stroke="#68217c" points="381.5702,-456.9345 371.7409,-452.9803 376.959,-462.2011 381.5702,-456.9345"/>
</g>
<!-- gql_dedupe_link&#45;&gt;gql_exec -->
<g id="edge65" class="edge">
<title>gql_dedupe_link&#45;&gt;gql_exec</title>
<path fill="none" stroke="#5b9240" d="M1026.0441,-1007.6551C1026.0926,-958.6182 1025.7635,-819.4551 1021,-703.8205 1017.3821,-615.9951 1009.3857,-512.2637 1005.3817,-463.2256"/>
<polygon fill="#5b9240" stroke="#5b9240" points="1008.8543,-462.7474 1004.5454,-453.0683 1001.8779,-463.3218 1008.8543,-462.7474"/>
</g>
<!-- gql_dedupe_link&#45;&gt;gql_link -->
<g id="edge66" class="edge">
<title>gql_dedupe_link&#45;&gt;gql_link</title>
<path fill="none" stroke="#7c0063" d="M1022.8865,-1007.75C1014.2974,-957.8994 990.2201,-818.1566 979.8508,-757.9739"/>
<polygon fill="#7c0063" stroke="#7c0063" points="983.2848,-757.2911 978.1376,-748.0307 976.3864,-758.4798 983.2848,-757.2911"/>
</g>
<!-- end_to_end_test -->
<g id="node19" class="node">
<title>end_to_end_test</title>
<polygon fill="none" stroke="#97b336" points="156,-1383.8205 22,-1383.8205 22,-1347.8205 156,-1347.8205 156,-1383.8205"/>
<text text-anchor="middle" x="89" y="-1362.1205" font-family="Times,serif" font-size="14.00" fill="#000000">end_to_end_test</text>
</g>
<!-- end_to_end_test&#45;&gt;gql_exec -->
<g id="edge69" class="edge">
<title>end_to_end_test&#45;&gt;gql_exec</title>
<path fill="none" stroke="#5b9240" d="M156.2357,-1359.9889C386.3872,-1338.5075 1136.2226,-1255.4814 1278,-1074.8205 1360.6038,-969.562 1094.9434,-568.0993 1021.3621,-461.1366"/>
<polygon fill="#5b9240" stroke="#5b9240" points="1024.1863,-459.0669 1015.6238,-452.827 1018.4262,-463.0445 1024.1863,-459.0669"/>
</g>
<!-- end_to_end_test&#45;&gt;gql_code_builder -->
<g id="edge71" class="edge">
<title>end_to_end_test&#45;&gt;gql_code_builder</title>
<path fill="none" stroke="#1da059" d="M86.205,-1347.5878C78.4556,-1294.9645 57.6132,-1138.2623 63,-1007.8205 66.7791,-916.3085 77.5272,-808.2838 82.8849,-758.0888"/>
<polygon fill="#1da059" stroke="#1da059" points="86.3801,-758.3206 83.9723,-748.003 79.4204,-757.5702 86.3801,-758.3206"/>
</g>
<!-- end_to_end_test&#45;&gt;gql_build -->
<g id="edge70" class="edge">
<title>end_to_end_test&#45;&gt;gql_build</title>
<path fill="none" stroke="#3380b0" d="M90.3441,-1347.5406C94.456,-1291.6187 106.8889,-1122.5314 111.8865,-1054.5648"/>
<polygon fill="#3380b0" stroke="#3380b0" points="115.4064,-1054.4205 112.6492,-1044.1908 108.4253,-1053.9072 115.4064,-1054.4205"/>
</g>
</g>
</svg>
