<?xml version="1.0" encoding="UTF-8" standalone="no"?>
<!DOCTYPE svg PUBLIC "-//W3C//DTD SVG 1.1//EN"
 "http://www.w3.org/Graphics/SVG/1.1/DTD/svg11.dtd">
<!-- Generated by graphviz version 2.47.1 (20210417.1919)
 -->
<!-- Title: packages Pages: 1 -->
<svg width="720pt" height="646pt"
 viewBox="0.00 0.00 720.00 645.93" xmlns="http://www.w3.org/2000/svg" xmlns:xlink="http://www.w3.org/1999/xlink">
<g id="graph0" class="graph" transform="scale(0.47 0.47) rotate(0) translate(4 1368)">
<title>packages</title>
<polygon fill="white" stroke="transparent" points="-4,4 -4,-1368 1525.34,-1368 1525.34,4 -4,4"/>
<g id="clust1" class="cluster">
<title>cluster </title>
<polygon fill="none" stroke="#a473ff" points="184,-27.98 184,-461.66 358,-461.66 358,-27.98 184,-27.98"/>
</g>
<g id="clust2" class="cluster">
<title>cluster links</title>
<polygon fill="none" stroke="#e2446b" points="366,-279.79 366,-1045.73 1098,-1045.73 1098,-279.79 366,-279.79"/>
<text text-anchor="middle" x="732" y="-1030.53" font-family="Times,serif" font-size="14.00">links</text>
</g>
<g id="clust3" class="cluster">
<title>cluster codegen</title>
<polygon fill="none" stroke="#856663" points="8,-531.61 8,-1336.02 136,-1336.02 136,-531.61 8,-531.61"/>
<text text-anchor="middle" x="72" y="-1320.82" font-family="Times,serif" font-size="14.00">codegen</text>
</g>
<g id="clust4" class="cluster">
<title>cluster examples</title>
<polygon fill="none" stroke="#e8f445" points="433,-1073.71 433,-1336.02 1356,-1336.02 1356,-1073.71 433,-1073.71"/>
<text text-anchor="middle" x="894.5" y="-1320.82" font-family="Times,serif" font-size="14.00">examples</text>
</g>
<!-- gql_pedantic -->
<g id="node1" class="node">
<title>gql_pedantic</title>
<polygon fill="none" stroke="#89da51" points="350,-136.98 264,-136.98 264,-100.98 350,-100.98 350,-136.98"/>
<text text-anchor="middle" x="307" y="-115.28" font-family="Times,serif" font-size="14.00">gql_pedantic</text>
</g>
<!-- cats -->
<g id="node2" class="node">
<title>cats</title>
<polygon fill="none" stroke="#e2592e" points="246,-136.98 192,-136.98 192,-100.98 246,-100.98 246,-136.98"/>
<text text-anchor="middle" x="219" y="-115.28" font-family="Times,serif" font-size="14.00">cats</text>
</g>
<!-- gql -->
<g id="node3" class="node">
<title>gql</title>
<polygon fill="none" stroke="#68217c" points="350,-388.98 296,-388.98 296,-352.98 350,-352.98 350,-388.98"/>
<text text-anchor="middle" x="323" y="-367.28" font-family="Times,serif" font-size="14.00">gql</text>
</g>
<!-- gql&#45;&gt;gql_pedantic -->
<g id="edge1" class="edge">
<title>gql&#45;&gt;gql_pedantic</title>
<path fill="none" stroke="#89da51" stroke-dasharray="5,2" d="M321.9,-352.8C319.17,-310.16 312.07,-199.22 308.75,-147.4"/>
<polygon fill="#89da51" stroke="#89da51" points="312.24,-147.04 308.11,-137.28 305.25,-147.49 312.24,-147.04"/>
</g>
<!-- gql&#45;&gt;cats -->
<g id="edge2" class="edge">
<title>gql&#45;&gt;cats</title>
<path fill="none" stroke="#e2592e" stroke-dasharray="5,2" d="M315.85,-352.8C298.04,-309.98 251.58,-198.29 230.14,-146.75"/>
<polygon fill="#e2592e" stroke="#e2592e" points="233.27,-145.17 226.2,-137.28 226.81,-147.86 233.27,-145.17"/>
</g>
<!-- gql_exec -->
<g id="node4" class="node">
<title>gql_exec</title>
<polygon fill="none" stroke="#5b9240" points="998.5,-388.98 933.5,-388.98 933.5,-352.98 998.5,-352.98 998.5,-388.98"/>
<text text-anchor="middle" x="966" y="-367.28" font-family="Times,serif" font-size="14.00">gql_exec</text>
</g>
<!-- gql_exec&#45;&gt;gql_pedantic -->
<g id="edge4" class="edge">
<title>gql_exec&#45;&gt;gql_pedantic</title>
<path fill="none" stroke="#89da51" stroke-dasharray="5,2" d="M933.32,-357.58C827.03,-317.26 490.49,-189.59 359.7,-139.97"/>
<polygon fill="#89da51" stroke="#89da51" points="360.86,-136.67 350.27,-136.4 358.38,-143.22 360.86,-136.67"/>
</g>
<!-- gql_exec&#45;&gt;gql -->
<g id="edge3" class="edge">
<title>gql_exec&#45;&gt;gql</title>
<path fill="none" stroke="#68217c" d="M933.21,-370.98C742.23,-370.98 551.24,-370.98 360.25,-370.98"/>
<polygon fill="#68217c" stroke="#68217c" points="360,-367.48 350,-370.98 360,-374.48 360,-367.48"/>
</g>
<!-- gql_link -->
<g id="node5" class="node">
<title>gql_link</title>
<polygon fill="none" stroke="#7c0063" points="972,-640.98 910,-640.98 910,-604.98 972,-604.98 972,-640.98"/>
<text text-anchor="middle" x="941" y="-619.28" font-family="Times,serif" font-size="14.00">gql_link</text>
</g>
<!-- gql_link&#45;&gt;gql_pedantic -->
<g id="edge7" class="edge">
<title>gql_link&#45;&gt;gql_pedantic</title>
<path fill="none" stroke="#89da51" stroke-dasharray="5,2" d="M937.75,-604.91C927.89,-557.48 894.08,-422.47 816,-344.98 683.56,-213.55 461.28,-152.37 360.07,-130.25"/>
<polygon fill="#89da51" stroke="#89da51" points="360.59,-126.78 350.08,-128.11 359.13,-133.62 360.59,-126.78"/>
</g>
<!-- gql_link&#45;&gt;gql -->
<g id="edge5" class="edge">
<title>gql_link&#45;&gt;gql</title>
<path fill="none" stroke="#68217c" d="M909.93,-612.34C821.69,-584.45 562.92,-499.13 362,-396.98 360.28,-396.1 358.54,-395.17 356.8,-394.21"/>
<polygon fill="#68217c" stroke="#68217c" points="358.56,-391.18 348.16,-389.14 355.01,-397.22 358.56,-391.18"/>
</g>
<!-- gql_link&#45;&gt;gql_exec -->
<g id="edge6" class="edge">
<title>gql_link&#45;&gt;gql_exec</title>
<path fill="none" stroke="#5b9240" d="M942.72,-604.8C946.98,-562.16 958.08,-451.22 963.26,-399.4"/>
<polygon fill="#5b9240" stroke="#5b9240" points="966.76,-399.58 964.27,-389.28 959.79,-398.89 966.76,-399.58"/>
</g>
<!-- gql_websocket_link -->
<g id="node6" class="node">
<title>gql_websocket_link</title>
<polygon fill="none" stroke="#bb5677" points="1089.5,-891.98 964.5,-891.98 964.5,-855.98 1089.5,-855.98 1089.5,-891.98"/>
<text text-anchor="middle" x="1027" y="-870.28" font-family="Times,serif" font-size="14.00">gql_websocket_link</text>
</g>
<!-- gql_websocket_link&#45;&gt;gql_pedantic -->
<g id="edge11" class="edge">
<title>gql_websocket_link&#45;&gt;gql_pedantic</title>
<path fill="none" stroke="#89da51" stroke-dasharray="5,2" d="M1010.61,-855.84C916.18,-757.08 441.89,-261.05 330.46,-144.52"/>
<polygon fill="#89da51" stroke="#89da51" points="332.81,-141.9 323.37,-137.09 327.75,-146.74 332.81,-141.9"/>
</g>
<!-- gql_websocket_link&#45;&gt;gql -->
<g id="edge8" class="edge">
<title>gql_websocket_link&#45;&gt;gql</title>
<path fill="none" stroke="#68217c" d="M1002.77,-855.73C897.09,-780.53 476.49,-481.21 355.63,-395.2"/>
<polygon fill="#68217c" stroke="#68217c" points="357.31,-392.1 347.13,-389.15 353.25,-397.8 357.31,-392.1"/>
</g>
<!-- gql_websocket_link&#45;&gt;gql_exec -->
<g id="edge9" class="edge">
<title>gql_websocket_link&#45;&gt;gql_exec</title>
<path fill="none" stroke="#5b9240" d="M1025.2,-855.85C1020.62,-812.48 1008.02,-694.85 996,-596.98 987.23,-525.55 975.71,-441.55 969.82,-399.25"/>
<polygon fill="#5b9240" stroke="#5b9240" points="973.27,-398.6 968.42,-389.18 966.33,-399.57 973.27,-398.6"/>
</g>
<!-- gql_websocket_link&#45;&gt;gql_link -->
<g id="edge10" class="edge">
<title>gql_websocket_link&#45;&gt;gql_link</title>
<path fill="none" stroke="#7c0063" d="M1021.09,-855.86C1006.39,-813.31 968.1,-702.44 950.32,-650.97"/>
<polygon fill="#7c0063" stroke="#7c0063" points="953.53,-649.52 946.95,-641.21 946.91,-651.81 953.53,-649.52"/>
</g>
<!-- gql_transform_link -->
<g id="node7" class="node">
<title>gql_transform_link</title>
<polygon fill="none" stroke="#21d185" points="496,-891.98 374,-891.98 374,-855.98 496,-855.98 496,-891.98"/>
<text text-anchor="middle" x="435" y="-870.28" font-family="Times,serif" font-size="14.00">gql_transform_link</text>
</g>
<!-- gql_transform_link&#45;&gt;gql_pedantic -->
<g id="edge15" class="edge">
<title>gql_transform_link&#45;&gt;gql_pedantic</title>
<path fill="none" stroke="#89da51" stroke-dasharray="5,2" d="M433.03,-855.57C425.41,-789.01 396.32,-544.34 359,-344.98 345.5,-272.87 324.73,-188.88 313.98,-146.85"/>
<polygon fill="#89da51" stroke="#89da51" points="317.35,-145.91 311.48,-137.09 310.58,-147.65 317.35,-145.91"/>
</g>
<!-- gql_transform_link&#45;&gt;gql -->
<g id="edge14" class="edge">
<title>gql_transform_link&#45;&gt;gql</title>
<path fill="none" stroke="#68217c" stroke-dasharray="5,2" d="M431.14,-855.73C414.57,-781.59 349.28,-489.56 329.03,-398.94"/>
<polygon fill="#68217c" stroke="#68217c" points="332.44,-398.15 326.84,-389.15 325.61,-399.68 332.44,-398.15"/>
</g>
<!-- gql_transform_link&#45;&gt;gql_exec -->
<g id="edge12" class="edge">
<title>gql_transform_link&#45;&gt;gql_exec</title>
<path fill="none" stroke="#5b9240" d="M453.28,-855.73C532.66,-780.83 847.69,-483.6 940.28,-396.25"/>
<polygon fill="#5b9240" stroke="#5b9240" points="942.93,-398.56 947.8,-389.15 938.12,-393.47 942.93,-398.56"/>
</g>
<!-- gql_transform_link&#45;&gt;gql_link -->
<g id="edge13" class="edge">
<title>gql_transform_link&#45;&gt;gql_link</title>
<path fill="none" stroke="#7c0063" d="M469.78,-855.86C560.54,-811.2 804.18,-691.31 900.76,-643.78"/>
<polygon fill="#7c0063" stroke="#7c0063" points="902.48,-646.84 909.91,-639.28 899.39,-640.55 902.48,-646.84"/>
</g>
<!-- gql_http_link -->
<g id="node8" class="node">
<title>gql_http_link</title>
<polygon fill="none" stroke="#ab8a09" points="821.5,-891.98 732.5,-891.98 732.5,-855.98 821.5,-855.98 821.5,-891.98"/>
<text text-anchor="middle" x="777" y="-870.28" font-family="Times,serif" font-size="14.00">gql_http_link</text>
</g>
<!-- gql_http_link&#45;&gt;gql_pedantic -->
<g id="edge19" class="edge">
<title>gql_http_link&#45;&gt;gql_pedantic</title>
<path fill="none" stroke="#89da51" stroke-dasharray="5,2" d="M766.3,-855.84C704.9,-757.47 397.53,-265.01 323.2,-145.93"/>
<polygon fill="#89da51" stroke="#89da51" points="325.95,-143.72 317.68,-137.09 320.01,-147.43 325.95,-143.72"/>
</g>
<!-- gql_http_link&#45;&gt;gql -->
<g id="edge16" class="edge">
<title>gql_http_link&#45;&gt;gql</title>
<path fill="none" stroke="#68217c" d="M761.37,-855.73C693.63,-780.98 425.23,-484.8 345.47,-396.77"/>
<polygon fill="#68217c" stroke="#68217c" points="347.87,-394.21 338.56,-389.15 342.68,-398.91 347.87,-394.21"/>
</g>
<!-- gql_http_link&#45;&gt;gql_exec -->
<g id="edge17" class="edge">
<title>gql_http_link&#45;&gt;gql_exec</title>
<path fill="none" stroke="#5b9240" d="M784.94,-855.71C802.39,-817.45 845.05,-722.44 876,-640.98 909.24,-553.49 942.73,-447.64 957.78,-398.92"/>
<polygon fill="#5b9240" stroke="#5b9240" points="961.19,-399.73 960.79,-389.14 954.5,-397.67 961.19,-399.73"/>
</g>
<!-- gql_http_link&#45;&gt;gql_link -->
<g id="edge18" class="edge">
<title>gql_http_link&#45;&gt;gql_link</title>
<path fill="none" stroke="#7c0063" d="M788.27,-855.86C816.54,-812.95 890.55,-700.58 924.07,-649.69"/>
<polygon fill="#7c0063" stroke="#7c0063" points="927.07,-651.49 929.65,-641.21 921.23,-647.64 927.07,-651.49"/>
</g>
<!-- gql_error_link -->
<g id="node9" class="node">
<title>gql_error_link</title>
<polygon fill="none" stroke="#5f79bc" points="609.5,-891.98 514.5,-891.98 514.5,-855.98 609.5,-855.98 609.5,-891.98"/>
<text text-anchor="middle" x="562" y="-870.28" font-family="Times,serif" font-size="14.00">gql_error_link</text>
</g>
<!-- gql_error_link&#45;&gt;gql_pedantic -->
<g id="edge23" class="edge">
<title>gql_error_link&#45;&gt;gql_pedantic</title>
<path fill="none" stroke="#89da51" stroke-dasharray="5,2" d="M556.19,-855.84C522.95,-757.67 356.78,-266.99 316.03,-146.65"/>
<polygon fill="#89da51" stroke="#89da51" points="319.32,-145.44 312.8,-137.09 312.69,-147.69 319.32,-145.44"/>
</g>
<!-- gql_error_link&#45;&gt;gql -->
<g id="edge22" class="edge">
<title>gql_error_link&#45;&gt;gql</title>
<path fill="none" stroke="#68217c" stroke-dasharray="5,2" d="M553.77,-855.73C518.33,-781.44 378.52,-488.37 335.6,-398.39"/>
<polygon fill="#68217c" stroke="#68217c" points="338.66,-396.67 331.19,-389.15 332.34,-399.69 338.66,-396.67"/>
</g>
<!-- gql_error_link&#45;&gt;gql_exec -->
<g id="edge20" class="edge">
<title>gql_error_link&#45;&gt;gql_exec</title>
<path fill="none" stroke="#5b9240" d="M589.6,-855.72C643.32,-820.93 763.07,-737.43 836,-640.98 848.96,-623.85 846.84,-616.41 856,-596.98 890.15,-524.56 932.09,-439.9 952.94,-398.08"/>
<polygon fill="#5b9240" stroke="#5b9240" points="956.08,-399.63 957.42,-389.12 949.82,-396.5 956.08,-399.63"/>
</g>
<!-- gql_error_link&#45;&gt;gql_link -->
<g id="edge21" class="edge">
<title>gql_error_link&#45;&gt;gql_link</title>
<path fill="none" stroke="#7c0063" d="M588.05,-855.86C654.66,-812.1 831.24,-696.09 906.37,-646.73"/>
<polygon fill="#7c0063" stroke="#7c0063" points="908.58,-649.47 915.02,-641.05 904.74,-643.61 908.58,-649.47"/>
</g>
<!-- gql_code_builder -->
<g id="node10" class="node">
<title>gql_code_builder</title>
<polygon fill="none" stroke="#1da059" points="127.5,-640.98 16.5,-640.98 16.5,-604.98 127.5,-604.98 127.5,-640.98"/>
<text text-anchor="middle" x="72" y="-619.28" font-family="Times,serif" font-size="14.00">gql_code_builder</text>
</g>
<!-- gql_code_builder&#45;&gt;gql_pedantic -->
<g id="edge26" class="edge">
<title>gql_code_builder&#45;&gt;gql_pedantic</title>
<path fill="none" stroke="#89da51" stroke-dasharray="5,2" d="M80.09,-604.7C114.94,-530.25 252.41,-236.6 294.61,-146.45"/>
<polygon fill="#89da51" stroke="#89da51" points="297.87,-147.73 298.94,-137.19 291.54,-144.76 297.87,-147.73"/>
</g>
<!-- gql_code_builder&#45;&gt;gql -->
<g id="edge24" class="edge">
<title>gql_code_builder&#45;&gt;gql</title>
<path fill="none" stroke="#68217c" d="M89.25,-604.8C132.87,-561.35 247.66,-447.02 298.35,-396.53"/>
<polygon fill="#68217c" stroke="#68217c" points="301.01,-398.82 305.63,-389.28 296.07,-393.86 301.01,-398.82"/>
</g>
<!-- gql_code_builder&#45;&gt;gql_exec -->
<g id="edge25" class="edge">
<title>gql_code_builder&#45;&gt;gql_exec</title>
<path fill="none" stroke="#5b9240" d="M127.59,-606.44C292.43,-560.34 776.25,-425.04 923.19,-383.95"/>
<polygon fill="#5b9240" stroke="#5b9240" points="924.49,-387.22 933.18,-381.16 922.61,-380.48 924.49,-387.22"/>
</g>
<!-- gql_build -->
<g id="node11" class="node">
<title>gql_build</title>
<polygon fill="none" stroke="#3380b0" points="128,-891.98 60,-891.98 60,-855.98 128,-855.98 128,-891.98"/>
<text text-anchor="middle" x="94" y="-870.28" font-family="Times,serif" font-size="14.00">gql_build</text>
</g>
<!-- gql_build&#45;&gt;gql_pedantic -->
<g id="edge29" class="edge">
<title>gql_build&#45;&gt;gql_pedantic</title>
<path fill="none" stroke="#89da51" stroke-dasharray="5,2" d="M81.4,-855.95C51.06,-812.82 -21.46,-695.7 7,-596.98 62.99,-402.77 224,-211.36 284.05,-144.71"/>
<polygon fill="#89da51" stroke="#89da51" points="286.73,-146.97 290.86,-137.21 281.55,-142.27 286.73,-146.97"/>
</g>
<!-- gql_build&#45;&gt;gql -->
<g id="edge27" class="edge">
<title>gql_build&#45;&gt;gql</title>
<path fill="none" stroke="#68217c" d="M97.66,-855.92C107.47,-811.75 136.62,-690.55 180,-596.98 215.73,-519.91 273.73,-437.7 303.7,-397.33"/>
<polygon fill="#68217c" stroke="#68217c" points="306.64,-399.25 309.83,-389.14 301.03,-395.06 306.64,-399.25"/>
</g>
<!-- gql_build&#45;&gt;gql_code_builder -->
<g id="edge28" class="edge">
<title>gql_build&#45;&gt;gql_code_builder</title>
<path fill="none" stroke="#1da059" d="M92.49,-855.86C88.74,-813.4 78.97,-702.9 74.41,-651.29"/>
<polygon fill="#1da059" stroke="#1da059" points="77.89,-650.87 73.52,-641.21 70.92,-651.48 77.89,-650.87"/>
</g>
<!-- gql_example_http_auth_link -->
<g id="node12" class="node">
<title>gql_example_http_auth_link</title>
<polygon fill="none" stroke="#8a0733" points="781.5,-1182.98 608.5,-1182.98 608.5,-1146.98 781.5,-1146.98 781.5,-1182.98"/>
<text text-anchor="middle" x="695" y="-1161.28" font-family="Times,serif" font-size="14.00">gql_example_http_auth_link</text>
</g>
<!-- gql_example_http_auth_link&#45;&gt;gql_pedantic -->
<g id="edge37" class="edge">
<title>gql_example_http_auth_link&#45;&gt;gql_pedantic</title>
<path fill="none" stroke="#89da51" stroke-dasharray="5,2" d="M752.82,-1146.97C906.83,-1101.09 1317.77,-974.8 1354,-922.98 1382.56,-882.12 1444.89,-854.76 1346,-596.98 1191.47,-194.15 550.24,-131.5 360.26,-121.77"/>
<polygon fill="#89da51" stroke="#89da51" points="360.4,-118.27 350.24,-121.28 360.06,-125.26 360.4,-118.27"/>
</g>
<!-- gql_example_http_auth_link&#45;&gt;gql -->
<g id="edge30" class="edge">
<title>gql_example_http_auth_link&#45;&gt;gql</title>
<path fill="none" stroke="#68217c" d="M651.75,-1146.88C550.04,-1105.7 300.89,-998.83 256,-922.98 151.43,-746.29 267.33,-482.04 309.15,-398.37"/>
<polygon fill="#68217c" stroke="#68217c" points="312.35,-399.8 313.75,-389.3 306.11,-396.63 312.35,-399.8"/>
</g>
<!-- gql_example_http_auth_link&#45;&gt;gql_exec -->
<g id="edge32" class="edge">
<title>gql_example_http_auth_link&#45;&gt;gql_exec</title>
<path fill="none" stroke="#5b9240" d="M749.5,-1146.93C895.68,-1100.67 1287.68,-972.93 1322,-922.98 1404.04,-803.55 1391.92,-723.88 1322,-596.98 1254.07,-473.7 1086.98,-408.59 1008.29,-383.88"/>
<polygon fill="#5b9240" stroke="#5b9240" points="1009.28,-380.52 998.69,-380.93 1007.22,-387.22 1009.28,-380.52"/>
</g>
<!-- gql_example_http_auth_link&#45;&gt;gql_link -->
<g id="edge34" class="edge">
<title>gql_example_http_auth_link&#45;&gt;gql_link</title>
<path fill="none" stroke="#7c0063" d="M760.7,-1146.91C855.22,-1118.4 1026.21,-1051.17 1099,-922.98 1156.32,-822.05 1030.87,-698.68 970.77,-647.73"/>
<polygon fill="#7c0063" stroke="#7c0063" points="972.66,-644.76 962.75,-641.03 968.18,-650.13 972.66,-644.76"/>
</g>
<!-- gql_example_http_auth_link&#45;&gt;gql_transform_link -->
<g id="edge35" class="edge">
<title>gql_example_http_auth_link&#45;&gt;gql_transform_link</title>
<path fill="none" stroke="#21d185" d="M679.51,-1146.77C635.35,-1097.67 508.64,-956.84 457.15,-899.6"/>
<polygon fill="#21d185" stroke="#21d185" points="459.69,-897.2 450.4,-892.1 454.49,-901.88 459.69,-897.2"/>
</g>
<!-- gql_example_http_auth_link&#45;&gt;gql_http_link -->
<g id="edge33" class="edge">
<title>gql_example_http_auth_link&#45;&gt;gql_http_link</title>
<path fill="none" stroke="#ab8a09" d="M699.88,-1146.77C713.64,-1098.28 752.8,-960.28 769.4,-901.75"/>
<polygon fill="#ab8a09" stroke="#ab8a09" points="772.78,-902.68 772.14,-892.1 766.04,-900.77 772.78,-902.68"/>
</g>
<!-- gql_example_http_auth_link&#45;&gt;gql_error_link -->
<g id="edge31" class="edge">
<title>gql_example_http_auth_link&#45;&gt;gql_error_link</title>
<path fill="none" stroke="#5f79bc" d="M687.08,-1146.77C664.72,-1098.18 600.99,-959.71 574.15,-901.39"/>
<polygon fill="#5f79bc" stroke="#5f79bc" points="577.24,-899.72 569.88,-892.1 570.88,-902.65 577.24,-899.72"/>
</g>
<!-- gql_example_http_auth_link&#45;&gt;gql_build -->
<g id="edge36" class="edge">
<title>gql_example_http_auth_link&#45;&gt;gql_build</title>
<path fill="none" stroke="#3380b0" stroke-dasharray="5,2" d="M659.2,-1146.77C554.74,-1096.53 250.53,-950.25 137.21,-895.76"/>
<polygon fill="#3380b0" stroke="#3380b0" points="138.64,-892.56 128.11,-891.38 135.6,-898.87 138.64,-892.56"/>
</g>
<!-- gql_example_flutter -->
<g id="node13" class="node">
<title>gql_example_flutter</title>
<polygon fill="none" stroke="#671702" points="1208,-1182.98 1082,-1182.98 1082,-1146.98 1208,-1146.98 1208,-1182.98"/>
<text text-anchor="middle" x="1145" y="-1161.28" font-family="Times,serif" font-size="14.00">gql_example_flutter</text>
</g>
<!-- gql_example_flutter&#45;&gt;gql_pedantic -->
<g id="edge42" class="edge">
<title>gql_example_flutter&#45;&gt;gql_pedantic</title>
<path fill="none" stroke="#89da51" stroke-dasharray="5,2" d="M1177.94,-1146.97C1238.47,-1113.59 1365.69,-1033.08 1415,-922.98 1525.08,-677.18 1450.8,-503.4 1233,-344.98 953.12,-141.4 512.31,-120.29 360.48,-119.38"/>
<polygon fill="#89da51" stroke="#89da51" points="360.49,-115.88 350.48,-119.34 360.46,-122.88 360.49,-115.88"/>
</g>
<!-- gql_example_flutter&#45;&gt;gql -->
<g id="edge38" class="edge">
<title>gql_example_flutter&#45;&gt;gql</title>
<path fill="none" stroke="#68217c" d="M1096.68,-1146.91C1088.78,-1144.2 1080.68,-1141.48 1073,-1138.98 758.95,-1036.8 567.93,-1181.17 362,-922.98 296.8,-841.23 314.38,-498.92 321.02,-399.29"/>
<polygon fill="#68217c" stroke="#68217c" points="324.53,-399.35 321.72,-389.14 317.54,-398.87 324.53,-399.35"/>
</g>
<!-- gql_example_flutter&#45;&gt;gql_exec -->
<g id="edge41" class="edge">
<title>gql_example_flutter&#45;&gt;gql_exec</title>
<path fill="none" stroke="#5b9240" d="M1188.23,-1146.93C1261.38,-1115.41 1407.36,-1040.33 1466,-922.98 1497.32,-860.3 1574.85,-770.09 1461,-596.98 1356.17,-437.58 1108.36,-389.63 1008.65,-376.5"/>
<polygon fill="#5b9240" stroke="#5b9240" points="1009,-373.02 998.64,-375.24 1008.12,-379.96 1009,-373.02"/>
</g>
<!-- gql_example_flutter&#45;&gt;gql_link -->
<g id="edge39" class="edge">
<title>gql_example_flutter&#45;&gt;gql_link</title>
<path fill="none" stroke="#7c0063" d="M1157.55,-1146.86C1191.02,-1098.94 1276.63,-960.13 1227,-855.98 1175.76,-748.43 1047.59,-674.53 981.63,-642.28"/>
<polygon fill="#7c0063" stroke="#7c0063" points="982.89,-639 972.36,-637.82 979.86,-645.31 982.89,-639"/>
</g>
<!-- gql_example_flutter&#45;&gt;gql_http_link -->
<g id="edge40" class="edge">
<title>gql_example_flutter&#45;&gt;gql_http_link</title>
<path fill="none" stroke="#ab8a09" d="M1121.31,-1146.71C1068.34,-1107.89 936.68,-1010.31 831,-922.98 821.82,-915.39 812.02,-906.83 803.33,-899.06"/>
<polygon fill="#ab8a09" stroke="#ab8a09" points="805.48,-896.29 795.7,-892.2 800.79,-901.49 805.48,-896.29"/>
</g>
<!-- gql_example_flutter&#45;&gt;gql_build -->
<g id="edge43" class="edge">
<title>gql_example_flutter&#45;&gt;gql_build</title>
<path fill="none" stroke="#3380b0" stroke-dasharray="5,2" d="M1097.52,-1146.96C1089.37,-1144.19 1080.97,-1141.43 1073,-1138.98 715.2,-1028.77 276.21,-919.47 137.88,-885.63"/>
<polygon fill="#3380b0" stroke="#3380b0" points="138.61,-882.21 128.07,-883.24 136.95,-889.01 138.61,-882.21"/>
</g>
<!-- gql_dio_link -->
<g id="node14" class="node">
<title>gql_dio_link</title>
<polygon fill="none" stroke="#45c9c3" points="714,-891.98 628,-891.98 628,-855.98 714,-855.98 714,-891.98"/>
<text text-anchor="middle" x="671" y="-870.28" font-family="Times,serif" font-size="14.00">gql_dio_link</text>
</g>
<!-- gql_dio_link&#45;&gt;gql_pedantic -->
<g id="edge47" class="edge">
<title>gql_dio_link&#45;&gt;gql_pedantic</title>
<path fill="none" stroke="#89da51" stroke-dasharray="5,2" d="M662.71,-855.84C615.21,-757.57 377.59,-266 319.72,-146.29"/>
<polygon fill="#89da51" stroke="#89da51" points="322.78,-144.57 315.27,-137.09 316.47,-147.62 322.78,-144.57"/>
</g>
<!-- gql_dio_link&#45;&gt;gql -->
<g id="edge46" class="edge">
<title>gql_dio_link&#45;&gt;gql</title>
<path fill="none" stroke="#68217c" stroke-dasharray="5,2" d="M659.02,-855.73C607.26,-781.21 402.61,-486.58 340.78,-397.58"/>
<polygon fill="#68217c" stroke="#68217c" points="343.51,-395.37 334.93,-389.15 337.76,-399.36 343.51,-395.37"/>
</g>
<!-- gql_dio_link&#45;&gt;gql_exec -->
<g id="edge44" class="edge">
<title>gql_dio_link&#45;&gt;gql_exec</title>
<path fill="none" stroke="#5b9240" d="M687.5,-855.92C722.36,-819.17 804.51,-728.73 856,-640.98 869,-618.83 930.9,-461.75 955.7,-398.39"/>
<polygon fill="#5b9240" stroke="#5b9240" points="958.96,-399.64 959.34,-389.06 952.44,-397.09 958.96,-399.64"/>
</g>
<!-- gql_dio_link&#45;&gt;gql_link -->
<g id="edge45" class="edge">
<title>gql_dio_link&#45;&gt;gql_link</title>
<path fill="none" stroke="#7c0063" d="M689.56,-855.86C736.57,-812.51 860.47,-698.25 914.82,-648.13"/>
<polygon fill="#7c0063" stroke="#7c0063" points="917.33,-650.57 922.31,-641.21 912.59,-645.42 917.33,-650.57"/>
</g>
<!-- gql_example_dio_link -->
<g id="node15" class="node">
<title>gql_example_dio_link</title>
<polygon fill="none" stroke="#058cba" points="938.5,-1182.98 799.5,-1182.98 799.5,-1146.98 938.5,-1146.98 938.5,-1182.98"/>
<text text-anchor="middle" x="869" y="-1161.28" font-family="Times,serif" font-size="14.00">gql_example_dio_link</text>
</g>
<!-- gql_example_dio_link&#45;&gt;gql -->
<g id="edge48" class="edge">
<title>gql_example_dio_link&#45;&gt;gql</title>
<path fill="none" stroke="#68217c" d="M819.71,-1146.85C686.15,-1099.96 325.21,-969.9 294,-922.98 180.82,-752.83 276.41,-483.64 311.42,-398.62"/>
<polygon fill="#68217c" stroke="#68217c" points="314.73,-399.76 315.37,-389.19 308.28,-397.06 314.73,-399.76"/>
</g>
<!-- gql_example_dio_link&#45;&gt;gql_exec -->
<g id="edge50" class="edge">
<title>gql_example_dio_link&#45;&gt;gql_exec</title>
<path fill="none" stroke="#5b9240" d="M913.5,-1146.91C1035.74,-1099.58 1369.5,-967.27 1398,-922.98 1476.39,-801.13 1473.15,-720.85 1398,-596.98 1311,-453.57 1099.47,-397.32 1008.61,-379.25"/>
<polygon fill="#5b9240" stroke="#5b9240" points="1009.14,-375.79 998.66,-377.33 1007.82,-382.66 1009.14,-375.79"/>
</g>
<!-- gql_example_dio_link&#45;&gt;gql_link -->
<g id="edge49" class="edge">
<title>gql_example_dio_link&#45;&gt;gql_link</title>
<path fill="none" stroke="#7c0063" d="M907.99,-1146.92C976.16,-1114.65 1115,-1037.48 1170,-922.98 1225.75,-806.92 1060.25,-692.5 980.88,-645.87"/>
<polygon fill="#7c0063" stroke="#7c0063" points="982.51,-642.77 972.1,-640.78 979,-648.82 982.51,-642.77"/>
</g>
<!-- gql_example_dio_link&#45;&gt;gql_dio_link -->
<g id="edge51" class="edge">
<title>gql_example_dio_link&#45;&gt;gql_dio_link</title>
<path fill="none" stroke="#45c9c3" d="M857.21,-1146.77C823.78,-1097.98 728.26,-958.56 688.6,-900.67"/>
<polygon fill="#45c9c3" stroke="#45c9c3" points="691.27,-898.37 682.73,-892.1 685.5,-902.33 691.27,-898.37"/>
</g>
<!-- gql_example_cli_github -->
<g id="node16" class="node">
<title>gql_example_cli_github</title>
<polygon fill="none" stroke="#9b3b01" points="590.5,-1182.98 441.5,-1182.98 441.5,-1146.98 590.5,-1146.98 590.5,-1182.98"/>
<text text-anchor="middle" x="516" y="-1161.28" font-family="Times,serif" font-size="14.00">gql_example_cli_github</text>
</g>
<!-- gql_example_cli_github&#45;&gt;gql_pedantic -->
<g id="edge57" class="edge">
<title>gql_example_cli_github&#45;&gt;gql_pedantic</title>
<path fill="none" stroke="#89da51" stroke-dasharray="5,2" d="M572.5,-1146.97C723.52,-1100.97 1127.48,-974.11 1163,-922.98 1177.5,-902.1 1192.18,-932.55 1152,-596.98 1138.43,-483.61 1179.45,-428.88 1102,-344.98 998.88,-233.27 521.48,-152.29 360.31,-127.74"/>
<polygon fill="#89da51" stroke="#89da51" points="360.57,-124.24 350.16,-126.21 359.52,-131.16 360.57,-124.24"/>
</g>
<!-- gql_example_cli_github&#45;&gt;gql -->
<g id="edge52" class="edge">
<title>gql_example_cli_github&#45;&gt;gql</title>
<path fill="none" stroke="#68217c" d="M477.65,-1146.93C410.23,-1114.56 272.46,-1037.07 218,-922.98 155.58,-792.22 186.62,-738.43 218,-596.98 235.06,-520.07 281.28,-438.29 306.33,-397.8"/>
<polygon fill="#68217c" stroke="#68217c" points="309.43,-399.45 311.77,-389.11 303.49,-395.73 309.43,-399.45"/>
</g>
<!-- gql_example_cli_github&#45;&gt;gql_exec -->
<g id="edge53" class="edge">
<title>gql_example_cli_github&#45;&gt;gql_exec</title>
<path fill="none" stroke="#5b9240" d="M569.3,-1146.94C712.72,-1100.57 1098.33,-972.3 1132,-922.98 1213.68,-803.31 1177.28,-734.61 1132,-596.98 1104.34,-512.9 1031.86,-434.44 992.45,-396.26"/>
<polygon fill="#5b9240" stroke="#5b9240" points="994.68,-393.55 985.03,-389.17 989.84,-398.61 994.68,-393.55"/>
</g>
<!-- gql_example_cli_github&#45;&gt;gql_transform_link -->
<g id="edge55" class="edge">
<title>gql_example_cli_github&#45;&gt;gql_transform_link</title>
<path fill="none" stroke="#21d185" d="M511.18,-1146.77C497.59,-1098.28 458.91,-960.28 442.5,-901.75"/>
<polygon fill="#21d185" stroke="#21d185" points="445.87,-900.79 439.8,-892.1 439.13,-902.68 445.87,-900.79"/>
</g>
<!-- gql_example_cli_github&#45;&gt;gql_http_link -->
<g id="edge54" class="edge">
<title>gql_example_cli_github&#45;&gt;gql_http_link</title>
<path fill="none" stroke="#ab8a09" d="M531.55,-1146.77C575.88,-1097.67 703.07,-956.84 754.76,-899.6"/>
<polygon fill="#ab8a09" stroke="#ab8a09" points="757.43,-901.87 761.54,-892.1 752.24,-897.18 757.43,-901.87"/>
</g>
<!-- gql_example_cli_github&#45;&gt;gql_build -->
<g id="edge56" class="edge">
<title>gql_example_cli_github&#45;&gt;gql_build</title>
<path fill="none" stroke="#3380b0" stroke-dasharray="5,2" d="M490.87,-1146.77C418.45,-1097.17 209.31,-953.95 127.43,-897.88"/>
<polygon fill="#3380b0" stroke="#3380b0" points="129.23,-894.86 119,-892.1 125.28,-900.64 129.23,-894.86"/>
</g>
<!-- gql_example_cli -->
<g id="node17" class="node">
<title>gql_example_cli</title>
<polygon fill="none" stroke="#18510b" points="1063.5,-1182.98 956.5,-1182.98 956.5,-1146.98 1063.5,-1146.98 1063.5,-1182.98"/>
<text text-anchor="middle" x="1010" y="-1161.28" font-family="Times,serif" font-size="14.00">gql_example_cli</text>
</g>
<!-- gql_example_cli&#45;&gt;gql_pedantic -->
<g id="edge63" class="edge">
<title>gql_example_cli&#45;&gt;gql_pedantic</title>
<path fill="none" stroke="#89da51" stroke-dasharray="5,2" d="M1045.41,-1146.96C1131.93,-1104.57 1349.78,-992.67 1388,-922.98 1416.43,-871.14 1446.84,-815.31 1367,-596.98 1319.73,-467.71 1300.56,-422.74 1187,-344.98 916.68,-159.87 505.51,-127.02 360.16,-121.22"/>
<polygon fill="#89da51" stroke="#89da51" points="360.29,-117.72 350.16,-120.84 360.03,-124.72 360.29,-117.72"/>
</g>
<!-- gql_example_cli&#45;&gt;gql -->
<g id="edge58" class="edge">
<title>gql_example_cli&#45;&gt;gql</title>
<path fill="none" stroke="#68217c" d="M968.42,-1146.91C961.61,-1144.2 954.63,-1141.48 948,-1138.98 676.5,-1036.7 501.73,-1158.27 332,-922.98 212.59,-757.46 285.94,-485.18 313.71,-399.01"/>
<polygon fill="#68217c" stroke="#68217c" points="317.06,-400.03 316.86,-389.44 310.41,-397.85 317.06,-400.03"/>
</g>
<!-- gql_example_cli&#45;&gt;gql_exec -->
<g id="edge59" class="edge">
<title>gql_example_cli&#45;&gt;gql_exec</title>
<path fill="none" stroke="#5b9240" d="M1051.63,-1146.85C1150.14,-1105.37 1392.55,-997.48 1436,-922.98 1508.99,-797.82 1513.23,-719.57 1436,-596.98 1339.23,-443.37 1105.34,-392.32 1008.79,-377.44"/>
<polygon fill="#5b9240" stroke="#5b9240" points="1009.2,-373.96 998.8,-375.95 1008.17,-380.89 1009.2,-373.96"/>
</g>
<!-- gql_example_cli&#45;&gt;gql_link -->
<g id="edge61" class="edge">
<title>gql_example_cli&#45;&gt;gql_link</title>
<path fill="none" stroke="#7c0063" d="M1035.92,-1146.96C1101.01,-1101.96 1262.32,-975.13 1208,-855.98 1161.12,-753.14 1043.64,-678.25 981.31,-644.28"/>
<polygon fill="#7c0063" stroke="#7c0063" points="982.63,-641.02 972.16,-639.38 979.32,-647.19 982.63,-641.02"/>
</g>
<!-- gql_example_cli&#45;&gt;gql_http_link -->
<g id="edge60" class="edge">
<title>gql_example_cli&#45;&gt;gql_http_link</title>
<path fill="none" stroke="#ab8a09" d="M996.12,-1146.77C956.62,-1097.77 843.46,-957.41 797.14,-899.96"/>
<polygon fill="#ab8a09" stroke="#ab8a09" points="799.81,-897.69 790.8,-892.1 794.36,-902.08 799.81,-897.69"/>
</g>
<!-- gql_example_cli&#45;&gt;gql_build -->
<g id="edge62" class="edge">
<title>gql_example_cli&#45;&gt;gql_build</title>
<path fill="none" stroke="#3380b0" stroke-dasharray="5,2" d="M969.16,-1146.95C962.14,-1144.19 954.89,-1141.43 948,-1138.98 641.55,-1030.04 264.51,-922.54 137.84,-887.13"/>
<polygon fill="#3380b0" stroke="#3380b0" points="138.68,-883.73 128.1,-884.41 136.79,-890.47 138.68,-883.73"/>
</g>
<!-- gql_example_build -->
<g id="node18" class="node">
<title>gql_example_build</title>
<polygon fill="none" stroke="#628320" points="1348,-1182.98 1226,-1182.98 1226,-1146.98 1348,-1146.98 1348,-1182.98"/>
<text text-anchor="middle" x="1287" y="-1161.28" font-family="Times,serif" font-size="14.00">gql_example_build</text>
</g>
<!-- gql_example_build&#45;&gt;gql_pedantic -->
<g id="edge65" class="edge">
<title>gql_example_build&#45;&gt;gql_pedantic</title>
<path fill="none" stroke="#89da51" stroke-dasharray="5,2" d="M1302.25,-1146.8C1334.5,-1109.31 1409.28,-1016.04 1441,-922.98 1527.15,-670.23 1500.71,-490.78 1277,-344.98 972.97,-146.82 515.3,-122.35 360.4,-119.96"/>
<polygon fill="#89da51" stroke="#89da51" points="360.26,-116.46 350.21,-119.83 360.17,-123.46 360.26,-116.46"/>
</g>
<!-- gql_example_build&#45;&gt;gql_build -->
<g id="edge64" class="edge">
<title>gql_example_build&#45;&gt;gql_build</title>
<path fill="none" stroke="#3380b0" stroke-dasharray="5,2" d="M1241.68,-1146.96C1233.52,-1144.13 1225.04,-1141.35 1217,-1138.98 802.95,-1016.79 290.01,-913.21 138.25,-883.52"/>
<polygon fill="#3380b0" stroke="#3380b0" points="138.85,-880.07 128.36,-881.59 137.51,-886.94 138.85,-880.07"/>
</g>
<!-- gql_dedupe_link -->
<g id="node19" class="node">
<title>gql_dedupe_link</title>
<polygon fill="none" stroke="#cf6bf6" points="946.5,-891.98 839.5,-891.98 839.5,-855.98 946.5,-855.98 946.5,-891.98"/>
<text text-anchor="middle" x="893" y="-870.28" font-family="Times,serif" font-size="14.00">gql_dedupe_link</text>
</g>
<!-- gql_dedupe_link&#45;&gt;gql_pedantic -->
<g id="edge69" class="edge">
<title>gql_dedupe_link&#45;&gt;gql_pedantic</title>
<path fill="none" stroke="#89da51" stroke-dasharray="5,2" d="M879.66,-855.84C802.96,-757.27 418.33,-263.04 326.64,-145.22"/>
<polygon fill="#89da51" stroke="#89da51" points="329.22,-142.84 320.32,-137.09 323.7,-147.14 329.22,-142.84"/>
</g>
<!-- gql_dedupe_link&#45;&gt;gql -->
<g id="edge68" class="edge">
<title>gql_dedupe_link&#45;&gt;gql</title>
<path fill="none" stroke="#68217c" stroke-dasharray="5,2" d="M873.38,-855.73C788.08,-780.76 449.32,-483.01 350.31,-395.98"/>
<polygon fill="#68217c" stroke="#68217c" points="352.36,-393.13 342.54,-389.15 347.74,-398.38 352.36,-393.13"/>
</g>
<!-- gql_dedupe_link&#45;&gt;gql_exec -->
<g id="edge66" class="edge">
<title>gql_dedupe_link&#45;&gt;gql_exec</title>
<path fill="none" stroke="#5b9240" d="M901.99,-855.85C921.17,-818.25 965.58,-725.09 981,-640.98 996.99,-553.72 981.06,-448.11 971.72,-399.23"/>
<polygon fill="#5b9240" stroke="#5b9240" points="975.1,-398.28 969.73,-389.15 968.23,-399.64 975.1,-398.28"/>
</g>
<!-- gql_dedupe_link&#45;&gt;gql_link -->
<g id="edge67" class="edge">
<title>gql_dedupe_link&#45;&gt;gql_link</title>
<path fill="none" stroke="#7c0063" d="M896.3,-855.86C904.49,-813.4 925.79,-702.9 935.74,-651.29"/>
<polygon fill="#7c0063" stroke="#7c0063" points="939.22,-651.7 937.68,-641.21 932.35,-650.37 939.22,-651.7"/>
</g>
<!-- end_to_end_test -->
<g id="node20" class="node">
<title>end_to_end_test</title>
<polygon fill="none" stroke="#97b336" points="127.5,-1182.98 22.5,-1182.98 22.5,-1146.98 127.5,-1146.98 127.5,-1182.98"/>
<text text-anchor="middle" x="75" y="-1161.28" font-family="Times,serif" font-size="14.00">end_to_end_test</text>
</g>
<!-- end_to_end_test&#45;&gt;gql_exec -->
<g id="edge70" class="edge">
<title>end_to_end_test&#45;&gt;gql_exec</title>
<path fill="none" stroke="#5b9240" d="M127.82,-1159.94C319.75,-1144.07 975.41,-1079.04 1099,-922.98 1165.82,-838.61 1021.35,-496.15 977.88,-398.24"/>
<polygon fill="#5b9240" stroke="#5b9240" points="981.04,-396.74 973.77,-389.04 974.65,-399.6 981.04,-396.74"/>
</g>
<!-- end_to_end_test&#45;&gt;gql_code_builder -->
<g id="edge72" class="edge">
<title>end_to_end_test&#45;&gt;gql_code_builder</title>
<path fill="none" stroke="#1da059" d="M72.2,-1146.97C64.86,-1100.46 45.98,-967.16 51,-855.98 54.36,-781.68 63.73,-694.39 68.74,-651.13"/>
<polygon fill="#1da059" stroke="#1da059" points="72.23,-651.45 69.91,-641.12 65.27,-650.64 72.23,-651.45"/>
</g>
<!-- end_to_end_test&#45;&gt;gql_build -->
<g id="edge71" class="edge">
<title>end_to_end_test&#45;&gt;gql_build</title>
<path fill="none" stroke="#3380b0" d="M76.13,-1146.77C79.31,-1098.38 88.35,-960.85 92.22,-902.11"/>
<polygon fill="#3380b0" stroke="#3380b0" points="95.71,-902.31 92.87,-892.1 88.73,-901.85 95.71,-902.31"/>
</g>
</g>
</svg>
