<?xml version="1.0" encoding="UTF-8" standalone="no"?>
<!DOCTYPE svg PUBLIC "-//W3C//DTD SVG 1.1//EN"
        "http://www.w3.org/Graphics/SVG/1.1/DTD/svg11.dtd">
<!-- Generated by graphviz version 2.40.1 (20161225.0304)
 -->
<!-- Title: packages Pages: 1 -->
<svg width="720pt" height="720pt"
     viewBox="0.00 0.00 720.00 720.00" xmlns="http://www.w3.org/2000/svg" xmlns:xlink="http://www.w3.org/1999/xlink">
    <g id="graph0" class="graph" transform="scale(.4543 .4543) rotate(0) translate(4 1581)">
        <title>packages</title>
        <polygon fill="#ffffff" stroke="transparent" points="-4,4 -4,-1581 1581,-1581 1581,4 -4,4"/>
        <g id="clust1" class="cluster">
            <title>cluster </title>
            <polygon fill="none" stroke="#a473ff" points="150,-32.3487 150,-533.7538 348,-533.7538 348,-32.3487 150,-32.3487"/>
        </g>
        <g id="clust2" class="cluster">
            <title>cluster links</title>
            <polygon fill="none" stroke="#e2446b" points="356,-323.4872 356,-1209.0333 1118,-1209.0333 1118,-323.4872 356,-323.4872"/>
            <text text-anchor="middle" x="737" y="-1193.8333" font-family="Times,serif" font-size="14.00" fill="#000000">links</text>
        </g>
        <g id="clust3" class="cluster">
            <title>cluster codegen</title>
            <polygon fill="none" stroke="#856663" points="8,-614.6256 8,-1544.6513 164,-1544.6513 164,-614.6256 8,-614.6256"/>
            <text text-anchor="middle" x="86" y="-1529.4513" font-family="Times,serif" font-size="14.00" fill="#000000">codegen</text>
        </g>
        <g id="clust4" class="cluster">
            <title>cluster examples</title>
            <polygon fill="none" stroke="#e8f445" points="635,-1241.3821 635,-1544.6513 1569,-1544.6513 1569,-1241.3821 635,-1241.3821"/>
            <text text-anchor="middle" x="1102" y="-1529.4513" font-family="Times,serif" font-size="14.00" fill="#000000">examples</text>
        </g>
        <!-- gql_pedantic -->
        <g id="node1" class="node">
            <title>gql_pedantic</title>
            <polygon fill="none" stroke="#89da51" points="339.5,-155.3487 230.5,-155.3487 230.5,-119.3487 339.5,-119.3487 339.5,-155.3487"/>
            <text text-anchor="middle" x="285" y="-133.6487" font-family="Times,serif" font-size="14.00" fill="#000000">gql_pedantic</text>
        </g>
        <!-- cats -->
        <g id="node2" class="node">
            <title>cats</title>
            <polygon fill="none" stroke="#e2592e" points="212,-155.3487 158,-155.3487 158,-119.3487 212,-119.3487 212,-155.3487"/>
            <text text-anchor="middle" x="185" y="-133.6487" font-family="Times,serif" font-size="14.00" fill="#000000">cats</text>
        </g>
        <!-- gql -->
        <g id="node3" class="node">
            <title>gql</title>
            <polygon fill="none" stroke="#68217c" points="340,-446.3487 286,-446.3487 286,-410.3487 340,-410.3487 340,-446.3487"/>
            <text text-anchor="middle" x="313" y="-424.6487" font-family="Times,serif" font-size="14.00" fill="#000000">gql</text>
        </g>
        <!-- gql&#45;&gt;gql_pedantic -->
        <g id="edge1" class="edge">
            <title>gql&#45;&gt;gql_pedantic</title>
            <path fill="none" stroke="#89da51" stroke-dasharray="5,2" d="M311.2485,-410.1454C306.5147,-360.9478 293.4385,-225.049 287.7278,-165.6983"/>
            <polygon fill="#89da51" stroke="#89da51" points="291.1926,-165.164 286.7509,-155.5452 284.2248,-165.8345 291.1926,-165.164"/>
        </g>
        <!-- gql&#45;&gt;cats -->
        <g id="edge2" class="edge">
            <title>gql&#45;&gt;cats</title>
            <path fill="none" stroke="#e2592e" stroke-dasharray="5,2" d="M304.993,-410.1454C283.2631,-360.7437 223.0793,-223.9197 197.1467,-164.9635"/>
            <polygon fill="#e2592e" stroke="#e2592e" points="200.2341,-163.2896 193.0039,-155.5452 193.8266,-166.108 200.2341,-163.2896"/>
        </g>
        <!-- gql_exec -->
        <g id="node4" class="node">
            <title>gql_exec</title>
            <polygon fill="none" stroke="#5b9240" points="935,-446.3487 855,-446.3487 855,-410.3487 935,-410.3487 935,-446.3487"/>
            <text text-anchor="middle" x="895" y="-424.6487" font-family="Times,serif" font-size="14.00" fill="#000000">gql_exec</text>
        </g>
        <!-- gql_exec&#45;&gt;gql_pedantic -->
        <g id="edge4" class="edge">
            <title>gql_exec&#45;&gt;gql_pedantic</title>
            <path fill="none" stroke="#89da51" stroke-dasharray="5,2" d="M856.8418,-410.1454C750.0555,-359.2031 448.4052,-215.301 331.8113,-159.68"/>
            <polygon fill="#89da51" stroke="#89da51" points="333.2861,-156.5057 322.7535,-155.359 330.2721,-162.8237 333.2861,-156.5057"/>
        </g>
        <!-- gql_exec&#45;&gt;gql -->
        <g id="edge3" class="edge">
            <title>gql_exec&#45;&gt;gql</title>
            <path fill="none" stroke="#68217c" d="M854.9129,-428.3487C686.7195,-428.3487 518.5261,-428.3487 350.3326,-428.3487"/>
            <polygon fill="#68217c" stroke="#68217c" points="350.2813,-424.8488 340.2813,-428.3487 350.2812,-431.8488 350.2813,-424.8488"/>
        </g>
        <!-- gql_link -->
        <g id="node5" class="node">
            <title>gql_link</title>
            <polygon fill="none" stroke="#7c0063" points="960,-737.3487 886,-737.3487 886,-701.3487 960,-701.3487 960,-737.3487"/>
            <text text-anchor="middle" x="923" y="-715.6487" font-family="Times,serif" font-size="14.00" fill="#000000">gql_link</text>
        </g>
        <!-- gql_link&#45;&gt;gql_pedantic -->
        <g id="edge7" class="edge">
            <title>gql_link&#45;&gt;gql_pedantic</title>
            <path fill="none" stroke="#89da51" stroke-dasharray="5,2" d="M916.4476,-701.101C896.9496,-648.8889 834.762,-496.6047 741,-402.3487 621.2531,-281.971 435.7217,-196.9413 342.5416,-159.2127"/>
            <polygon fill="#89da51" stroke="#89da51" points="343.587,-155.861 333.0029,-155.3854 340.9803,-162.3575 343.587,-155.861"/>
        </g>
        <!-- gql_link&#45;&gt;gql -->
        <g id="edge5" class="edge">
            <title>gql_link&#45;&gt;gql</title>
            <path fill="none" stroke="#68217c" d="M885.9604,-704.4912C793.5811,-666.941 546.4383,-563.4312 352,-454.3487 350.6693,-453.6022 349.3243,-452.8255 347.9743,-452.0272"/>
            <polygon fill="#68217c" stroke="#68217c" points="349.435,-448.8153 339.089,-446.5325 345.7533,-454.7689 349.435,-448.8153"/>
        </g>
        <!-- gql_link&#45;&gt;gql_exec -->
        <g id="edge6" class="edge">
            <title>gql_link&#45;&gt;gql_exec</title>
            <path fill="none" stroke="#5b9240" d="M921.2485,-701.1454C916.5147,-651.9478 903.4385,-516.049 897.7278,-456.6983"/>
            <polygon fill="#5b9240" stroke="#5b9240" points="901.1926,-456.164 896.7509,-446.5452 894.2248,-456.8345 901.1926,-456.164"/>
        </g>
        <!-- gql_websocket_link -->
        <g id="node6" class="node">
            <title>gql_websocket_link</title>
            <polygon fill="none" stroke="#bb5677" points="658,-1029.3487 500,-1029.3487 500,-993.3487 658,-993.3487 658,-1029.3487"/>
            <text text-anchor="middle" x="579" y="-1007.6487" font-family="Times,serif" font-size="14.00" fill="#000000">gql_websocket_link</text>
        </g>
        <!-- gql_websocket_link&#45;&gt;gql_pedantic -->
        <g id="edge11" class="edge">
            <title>gql_websocket_link&#45;&gt;gql_pedantic</title>
            <path fill="none" stroke="#89da51" stroke-dasharray="5,2" d="M572.8594,-993.094C535.5696,-882.2392 339.5888,-299.6296 294.3316,-165.0896"/>
            <polygon fill="#89da51" stroke="#89da51" points="297.6125,-163.8652 291.1068,-155.503 290.9778,-166.0971 297.6125,-163.8652"/>
        </g>
        <!-- gql_websocket_link&#45;&gt;gql -->
        <g id="edge10" class="edge">
            <title>gql_websocket_link&#45;&gt;gql</title>
            <path fill="none" stroke="#68217c" d="M570.7475,-993.2614C532.4308,-909.2816 371.7914,-557.2035 325.5208,-455.7909"/>
            <polygon fill="#68217c" stroke="#68217c" points="328.6228,-454.1578 321.2876,-446.5129 322.2544,-457.0636 328.6228,-454.1578"/>
        </g>
        <!-- gql_websocket_link&#45;&gt;gql_exec -->
        <g id="edge8" class="edge">
            <title>gql_websocket_link&#45;&gt;gql_exec</title>
            <path fill="none" stroke="#5b9240" d="M595.9913,-993.1451C634.4926,-951.0784 729.4214,-842.6457 786,-737.3487 838.3608,-639.9015 874.0694,-512.1957 888.2104,-456.4339"/>
            <polygon fill="#5b9240" stroke="#5b9240" points="891.6448,-457.1266 890.6744,-446.5763 884.8538,-455.429 891.6448,-457.1266"/>
        </g>
        <!-- gql_websocket_link&#45;&gt;gql_link -->
        <g id="edge9" class="edge">
            <title>gql_websocket_link&#45;&gt;gql_link</title>
            <path fill="none" stroke="#7c0063" d="M600.2591,-993.3032C659.3791,-943.1199 825.8351,-801.8259 893.6725,-744.243"/>
            <polygon fill="#7c0063" stroke="#7c0063" points="896.0838,-746.7871 901.4426,-737.6474 891.5538,-741.4505 896.0838,-746.7871"/>
        </g>
        <!-- gql_transform_link -->
        <g id="node7" class="node">
            <title>gql_transform_link</title>
            <polygon fill="none" stroke="#21d185" points="828,-1029.3487 676,-1029.3487 676,-993.3487 828,-993.3487 828,-1029.3487"/>
            <text text-anchor="middle" x="752" y="-1007.6487" font-family="Times,serif" font-size="14.00" fill="#000000">gql_transform_link</text>
        </g>
        <!-- gql_transform_link&#45;&gt;gql_pedantic -->
        <g id="edge15" class="edge">
            <title>gql_transform_link&#45;&gt;gql_pedantic</title>
            <path fill="none" stroke="#89da51" stroke-dasharray="5,2" d="M742.246,-993.094C682.9542,-882.1281 371.0866,-298.4616 299.6073,-164.6865"/>
            <polygon fill="#89da51" stroke="#89da51" points="302.5,-162.6735 294.7003,-155.503 296.3261,-165.9724 302.5,-162.6735"/>
        </g>
        <!-- gql_transform_link&#45;&gt;gql -->
        <g id="edge14" class="edge">
            <title>gql_transform_link&#45;&gt;gql</title>
            <path fill="none" stroke="#68217c" stroke-dasharray="5,2" d="M738.3802,-993.2614C674.888,-908.9426 407.8844,-554.357 332.7486,-454.5752"/>
            <polygon fill="#68217c" stroke="#68217c" points="335.489,-452.396 326.6777,-446.5129 329.8971,-456.6068 335.489,-452.396"/>
        </g>
        <!-- gql_transform_link&#45;&gt;gql_exec -->
        <g id="edge12" class="edge">
            <title>gql_transform_link&#45;&gt;gql_exec</title>
            <path fill="none" stroke="#5b9240" d="M756.6762,-993.0896C767.9218,-949.1126 797.3032,-833.8164 821,-737.3487 846.4138,-633.8914 875.5977,-510.674 888.4002,-456.389"/>
            <polygon fill="#5b9240" stroke="#5b9240" points="891.8488,-457.0137 890.7363,-446.4774 885.0355,-455.4078 891.8488,-457.0137"/>
        </g>
        <!-- gql_transform_link&#45;&gt;gql_link -->
        <g id="edge13" class="edge">
            <title>gql_transform_link&#45;&gt;gql_link</title>
            <path fill="none" stroke="#7c0063" d="M762.6968,-993.0828C791.8466,-943.3065 872.7937,-805.081 907.1999,-746.329"/>
            <polygon fill="#7c0063" stroke="#7c0063" points="910.274,-748.0056 912.3072,-737.6077 904.2336,-744.4682 910.274,-748.0056"/>
        </g>
        <!-- gql_http_link -->
        <g id="node8" class="node">
            <title>gql_http_link</title>
            <polygon fill="none" stroke="#ab8a09" points="957.5,-1029.3487 846.5,-1029.3487 846.5,-993.3487 957.5,-993.3487 957.5,-1029.3487"/>
            <text text-anchor="middle" x="902" y="-1007.6487" font-family="Times,serif" font-size="14.00" fill="#000000">gql_http_link</text>
        </g>
        <!-- gql_http_link&#45;&gt;gql_pedantic -->
        <g id="edge19" class="edge">
            <title>gql_http_link&#45;&gt;gql_pedantic</title>
            <path fill="none" stroke="#89da51" stroke-dasharray="5,2" d="M889.1131,-993.094C810.6199,-881.9059 397.0864,-296.1227 303.7357,-163.8885"/>
            <polygon fill="#89da51" stroke="#89da51" points="306.4426,-161.6539 297.816,-155.503 300.724,-165.691 306.4426,-161.6539"/>
        </g>
        <!-- gql_http_link&#45;&gt;gql -->
        <g id="edge16" class="edge">
            <title>gql_http_link&#45;&gt;gql</title>
            <path fill="none" stroke="#68217c" d="M883.7265,-993.2614C798.2831,-908.6884 438.1424,-552.2163 338.5916,-453.6796"/>
            <polygon fill="#68217c" stroke="#68217c" points="340.9205,-451.0602 331.3511,-446.5129 335.9962,-456.0352 340.9205,-451.0602"/>
        </g>
        <!-- gql_http_link&#45;&gt;gql_exec -->
        <g id="edge17" class="edge">
            <title>gql_http_link&#45;&gt;gql_exec</title>
            <path fill="none" stroke="#5b9240" d="M899.1225,-993.0978C891.7674,-944.4601 873.1229,-807.6399 877,-693.3487 879.9287,-607.014 888.2098,-505.1304 892.4417,-456.6848"/>
            <polygon fill="#5b9240" stroke="#5b9240" points="895.9354,-456.9088 893.3283,-446.6397 888.9625,-456.2932 895.9354,-456.9088"/>
        </g>
        <!-- gql_http_link&#45;&gt;gql_link -->
        <g id="edge18" class="edge">
            <title>gql_http_link&#45;&gt;gql_link</title>
            <path fill="none" stroke="#7c0063" d="M903.3136,-993.0828C906.864,-943.7162 916.6711,-807.3504 920.9542,-747.7957"/>
            <polygon fill="#7c0063" stroke="#7c0063" points="924.4604,-747.8331 921.6869,-737.6077 917.4785,-747.3309 924.4604,-747.8331"/>
        </g>
        <!-- gql_error_link -->
        <g id="node9" class="node">
            <title>gql_error_link</title>
            <polygon fill="none" stroke="#5f79bc" points="482,-1029.3487 364,-1029.3487 364,-993.3487 482,-993.3487 482,-1029.3487"/>
            <text text-anchor="middle" x="423" y="-1007.6487" font-family="Times,serif" font-size="14.00" fill="#000000">gql_error_link</text>
        </g>
        <!-- gql_error_link&#45;&gt;gql_pedantic -->
        <g id="edge23" class="edge">
            <title>gql_error_link&#45;&gt;gql_pedantic</title>
            <path fill="none" stroke="#89da51" stroke-dasharray="5,2" d="M421.5779,-993.2995C415.6047,-919.5427 390.8956,-633.9703 349,-402.3487 333.1855,-314.9176 306.1497,-213.2142 292.8538,-165.1849"/>
            <polygon fill="#89da51" stroke="#89da51" points="296.213,-164.2008 290.1588,-155.5062 289.4696,-166.0786 296.213,-164.2008"/>
        </g>
        <!-- gql_error_link&#45;&gt;gql -->
        <g id="edge22" class="edge">
            <title>gql_error_link&#45;&gt;gql</title>
            <path fill="none" stroke="#68217c" stroke-dasharray="5,2" d="M419.5873,-993.2614C403.774,-909.4511 337.5802,-558.6235 318.2942,-456.408"/>
            <polygon fill="#68217c" stroke="#68217c" points="321.7207,-455.6906 316.4272,-446.5129 314.842,-456.9885 321.7207,-455.6906"/>
        </g>
        <!-- gql_error_link&#45;&gt;gql_exec -->
        <g id="edge20" class="edge">
            <title>gql_error_link&#45;&gt;gql_exec</title>
            <path fill="none" stroke="#5b9240" d="M437.6436,-993.2614C505.9085,-908.9426 792.983,-554.357 873.7669,-454.5752"/>
            <polygon fill="#5b9240" stroke="#5b9240" points="876.722,-456.4874 880.2942,-446.5129 871.2815,-452.0827 876.722,-456.4874"/>
        </g>
        <!-- gql_error_link&#45;&gt;gql_link -->
        <g id="edge21" class="edge">
            <title>gql_error_link&#45;&gt;gql_link</title>
            <path fill="none" stroke="#7c0063" d="M453.8999,-993.3032C540.6319,-942.6517 786.3002,-799.1814 883.095,-742.6532"/>
            <polygon fill="#7c0063" stroke="#7c0063" points="885.1169,-745.5256 891.9872,-737.4602 881.5868,-739.4809 885.1169,-745.5256"/>
        </g>
        <!-- gql_code_builder -->
        <g id="node10" class="node">
            <title>gql_code_builder</title>
            <polygon fill="none" stroke="#1da059" points="155.5,-737.3487 16.5,-737.3487 16.5,-701.3487 155.5,-701.3487 155.5,-737.3487"/>
            <text text-anchor="middle" x="86" y="-715.6487" font-family="Times,serif" font-size="14.00" fill="#000000">gql_code_builder</text>
        </g>
        <!-- gql_code_builder&#45;&gt;gql_pedantic -->
        <g id="edge26" class="edge">
            <title>gql_code_builder&#45;&gt;gql_pedantic</title>
            <path fill="none" stroke="#89da51" stroke-dasharray="5,2" d="M92.1739,-701.2924C120.8105,-617.5413 240.7745,-266.6916 275.5279,-165.0511"/>
            <polygon fill="#89da51" stroke="#89da51" points="278.8762,-166.0763 278.7999,-155.4818 272.2527,-163.8115 278.8762,-166.0763"/>
        </g>
        <!-- gql_code_builder&#45;&gt;gql -->
        <g id="edge24" class="edge">
            <title>gql_code_builder&#45;&gt;gql</title>
            <path fill="none" stroke="#68217c" d="M100.1999,-701.1454C139.0551,-651.3354 247.2375,-512.6522 292.5863,-454.5178"/>
            <polygon fill="#68217c" stroke="#68217c" points="295.4145,-456.5827 298.8055,-446.5452 289.8951,-452.2772 295.4145,-456.5827"/>
        </g>
        <!-- gql_code_builder&#45;&gt;gql_exec -->
        <g id="edge25" class="edge">
            <title>gql_code_builder&#45;&gt;gql_exec</title>
            <path fill="none" stroke="#5b9240" d="M136.3009,-701.2553C281.5743,-649 700.5966,-498.2763 845.217,-446.2558"/>
            <polygon fill="#5b9240" stroke="#5b9240" points="846.5195,-449.5069 854.7446,-442.8287 844.1502,-442.9201 846.5195,-449.5069"/>
        </g>
        <!-- gql_build -->
        <g id="node11" class="node">
            <title>gql_build</title>
            <polygon fill="none" stroke="#3380b0" points="155.5,-1029.3487 72.5,-1029.3487 72.5,-993.3487 155.5,-993.3487 155.5,-1029.3487"/>
            <text text-anchor="middle" x="114" y="-1007.6487" font-family="Times,serif" font-size="14.00" fill="#000000">gql_build</text>
        </g>
        <!-- gql_build&#45;&gt;gql_pedantic -->
        <g id="edge29" class="edge">
            <title>gql_build&#45;&gt;gql_pedantic</title>
            <path fill="none" stroke="#89da51" stroke-dasharray="5,2" d="M100.1942,-993.06C65.5157,-944.8797 -20.5691,-810.1334 7,-693.3487 58.9284,-473.3767 211.9468,-241.2079 265.9022,-164.016"/>
            <polygon fill="#89da51" stroke="#89da51" points="268.7969,-165.9842 271.6876,-155.7913 263.0715,-161.9568 268.7969,-165.9842"/>
        </g>
        <!-- gql_build&#45;&gt;gql -->
        <g id="edge27" class="edge">
            <title>gql_build&#45;&gt;gql</title>
            <path fill="none" stroke="#68217c" d="M118.74,-993.2387C131.6573,-944.3882 169.1213,-805.9978 208,-693.3487 238.3717,-605.3483 280.8057,-503.583 301.1738,-455.8021"/>
            <polygon fill="#68217c" stroke="#68217c" points="304.4592,-457.0207 305.173,-446.45 298.023,-454.2685 304.4592,-457.0207"/>
        </g>
        <!-- gql_build&#45;&gt;gql_code_builder -->
        <g id="edge28" class="edge">
            <title>gql_build&#45;&gt;gql_code_builder</title>
            <path fill="none" stroke="#1da059" d="M112.2485,-993.0828C107.5147,-943.7162 94.4385,-807.3504 88.7278,-747.7957"/>
            <polygon fill="#1da059" stroke="#1da059" points="92.1895,-747.2279 87.7509,-737.6077 85.2215,-747.8962 92.1895,-747.2279"/>
        </g>
        <!-- gql_example_http_auth_link -->
        <g id="node12" class="node">
            <title>gql_example_http_auth_link</title>
            <polygon fill="none" stroke="#8a0733" points="861,-1364.3487 643,-1364.3487 643,-1328.3487 861,-1328.3487 861,-1364.3487"/>
            <text text-anchor="middle" x="752" y="-1342.6487" font-family="Times,serif" font-size="14.00" fill="#000000">gql_example_http_auth_link</text>
        </g>
        <!-- gql_example_http_auth_link&#45;&gt;gql_pedantic -->
        <g id="edge36" class="edge">
            <title>gql_example_http_auth_link&#45;&gt;gql_pedantic</title>
            <path fill="none" stroke="#89da51" stroke-dasharray="5,2" d="M801.9536,-1328.227C891.2764,-1292.7566 1075.9382,-1204.7695 1150,-1060.3487 1190.8322,-980.7258 1463.209,-845.8631 1122,-402.3487 1024.9031,-276.1391 528.7278,-179.4181 349.6014,-148.1252"/>
            <polygon fill="#89da51" stroke="#89da51" points="349.9845,-144.6394 339.5332,-146.377 348.787,-151.5362 349.9845,-144.6394"/>
        </g>
        <!-- gql_example_http_auth_link&#45;&gt;gql -->
        <g id="edge30" class="edge">
            <title>gql_example_http_auth_link&#45;&gt;gql</title>
            <path fill="none" stroke="#68217c" d="M672.8038,-1328.2356C555.256,-1296.6085 338.5533,-1218.9757 246,-1060.3487 163.7992,-919.4648 225.8551,-855.2111 246,-693.3487 257.0023,-604.9463 287.8967,-503.6961 303.593,-455.9776"/>
            <polygon fill="#68217c" stroke="#68217c" points="306.9554,-456.958 306.7888,-446.3644 300.3128,-454.7496 306.9554,-456.958"/>
        </g>
        <!-- gql_example_http_auth_link&#45;&gt;gql_exec -->
        <g id="edge32" class="edge">
            <title>gql_example_http_auth_link&#45;&gt;gql_exec</title>
            <path fill="none" stroke="#5b9240" d="M799.5994,-1328.2342C886.1368,-1292.3661 1066.9469,-1203.1911 1139,-1060.3487 1253.1496,-834.0517 1002.2236,-540.9072 919.9639,-453.8104"/>
            <polygon fill="#5b9240" stroke="#5b9240" points="922.4244,-451.3189 912.9914,-446.4949 917.3573,-456.1484 922.4244,-451.3189"/>
        </g>
        <!-- gql_example_http_auth_link&#45;&gt;gql_link -->
        <g id="edge31" class="edge">
            <title>gql_example_http_auth_link&#45;&gt;gql_link</title>
            <path fill="none" stroke="#7c0063" d="M795.6236,-1328.22C877.1767,-1291.6128 1050.6593,-1200.2477 1119,-1060.3487 1178.906,-937.7162 1025.788,-798.7074 955.7699,-743.6497"/>
            <polygon fill="#7c0063" stroke="#7c0063" points="957.7089,-740.7242 947.6629,-737.3583 953.4172,-746.2543 957.7089,-740.7242"/>
        </g>
        <!-- gql_example_http_auth_link&#45;&gt;gql_transform_link -->
        <g id="edge34" class="edge">
            <title>gql_example_http_auth_link&#45;&gt;gql_transform_link</title>
            <path fill="none" stroke="#21d185" d="M752,-1328.3377C752,-1273.2381 752,-1106.6374 752,-1039.6703"/>
            <polygon fill="#21d185" stroke="#21d185" points="755.5001,-1039.4488 752,-1029.4488 748.5001,-1039.4489 755.5001,-1039.4488"/>
        </g>
        <!-- gql_example_http_auth_link&#45;&gt;gql_http_link -->
        <g id="edge35" class="edge">
            <title>gql_example_http_auth_link&#45;&gt;gql_http_link</title>
            <path fill="none" stroke="#ab8a09" d="M760.0647,-1328.3377C784.8378,-1273.0109 859.9495,-1105.2614 889.6874,-1038.8469"/>
            <polygon fill="#ab8a09" stroke="#ab8a09" points="893.0032,-1040.006 893.8955,-1029.4488 886.6144,-1037.1453 893.0032,-1040.006"/>
        </g>
        <!-- gql_example_http_auth_link&#45;&gt;gql_error_link -->
        <g id="edge33" class="edge">
            <title>gql_example_http_auth_link&#45;&gt;gql_error_link</title>
            <path fill="none" stroke="#5f79bc" d="M734.3115,-1328.3377C679.4178,-1272.4428 511.8362,-1101.805 448.0284,-1036.8335"/>
            <polygon fill="#5f79bc" stroke="#5f79bc" points="450.28,-1034.1311 440.7759,-1029.4488 445.2857,-1039.0359 450.28,-1034.1311"/>
        </g>
        <!-- gql_example_http_auth_link&#45;&gt;gql_build -->
        <g id="edge37" class="edge">
            <title>gql_example_http_auth_link&#45;&gt;gql_build</title>
            <path fill="none" stroke="#3380b0" stroke-dasharray="5,2" d="M717.6983,-1328.3377C609.7333,-1271.6476 276.9805,-1096.9263 157.3773,-1034.1252"/>
            <polygon fill="#3380b0" stroke="#3380b0" points="158.9521,-1030.999 148.4712,-1029.4488 155.6978,-1037.1966 158.9521,-1030.999"/>
        </g>
        <!-- gql_example_flutter -->
        <g id="node13" class="node">
            <title>gql_example_flutter</title>
            <polygon fill="none" stroke="#671702" points="1243,-1364.3487 1083,-1364.3487 1083,-1328.3487 1243,-1328.3487 1243,-1364.3487"/>
            <text text-anchor="middle" x="1163" y="-1342.6487" font-family="Times,serif" font-size="14.00" fill="#000000">gql_example_flutter</text>
        </g>
        <!-- gql_example_flutter&#45;&gt;gql_pedantic -->
        <g id="edge42" class="edge">
            <title>gql_example_flutter&#45;&gt;gql_pedantic</title>
            <path fill="none" stroke="#89da51" stroke-dasharray="5,2" d="M1174.3316,-1328.1978C1200.9971,-1284.283 1267.1794,-1167.9702 1290,-1060.3487 1351.3871,-770.8483 1396.1276,-612.7335 1188,-402.3487 1067.2036,-280.2422 535.7053,-179.9536 349.6202,-148.0121"/>
            <polygon fill="#89da51" stroke="#89da51" points="350.151,-144.5521 339.7045,-146.3187 348.9726,-151.4523 350.151,-144.5521"/>
        </g>
        <!-- gql_example_flutter&#45;&gt;gql -->
        <g id="edge38" class="edge">
            <title>gql_example_flutter&#45;&gt;gql</title>
            <path fill="none" stroke="#68217c" d="M1103.8198,-1328.2733C916.3091,-1270.7374 346.2298,-1093.6773 322,-1060.3487 250.9669,-962.6414 295.4585,-565.534 309.3048,-456.2843"/>
            <polygon fill="#68217c" stroke="#68217c" points="312.7783,-456.7141 310.5807,-446.3497 305.8353,-455.8223 312.7783,-456.7141"/>
        </g>
        <!-- gql_example_flutter&#45;&gt;gql_exec -->
        <g id="edge41" class="edge">
            <title>gql_example_flutter&#45;&gt;gql_exec</title>
            <path fill="none" stroke="#5b9240" d="M1172.4726,-1328.2301C1212.8329,-1248.3665 1363.2678,-921.6262 1249,-693.3487 1184.8554,-565.2044 1026.0458,-483.0433 944.7239,-447.9371"/>
            <polygon fill="#5b9240" stroke="#5b9240" points="945.7746,-444.5807 935.2023,-443.8892 943.0358,-451.0227 945.7746,-444.5807"/>
        </g>
        <!-- gql_example_flutter&#45;&gt;gql_link -->
        <g id="edge39" class="edge">
            <title>gql_example_flutter&#45;&gt;gql_link</title>
            <path fill="none" stroke="#7c0063" d="M1167.9702,-1328.2738C1181.7165,-1274.8342 1216.2752,-1113.7948 1170,-993.3487 1126.9606,-881.3247 1014.5943,-786.4958 957.4485,-743.7079"/>
            <polygon fill="#7c0063" stroke="#7c0063" points="959.2225,-740.6667 949.1012,-737.5345 955.0601,-746.2947 959.2225,-740.6667"/>
        </g>
        <!-- gql_example_flutter&#45;&gt;gql_http_link -->
        <g id="edge40" class="edge">
            <title>gql_example_flutter&#45;&gt;gql_http_link</title>
            <path fill="none" stroke="#ab8a09" d="M1148.9675,-1328.3377C1105.5966,-1272.67 973.5543,-1103.1904 922.4767,-1037.6311"/>
            <polygon fill="#ab8a09" stroke="#ab8a09" points="925.0088,-1035.1862 916.1019,-1029.4488 919.4869,-1039.4884 925.0088,-1035.1862"/>
        </g>
        <!-- gql_example_flutter&#45;&gt;gql_build -->
        <g id="edge43" class="edge">
            <title>gql_example_flutter&#45;&gt;gql_build</title>
            <path fill="none" stroke="#3380b0" stroke-dasharray="5,2" d="M1106.6012,-1328.3377C922.6191,-1269.5827 341.6257,-1084.0414 165.2618,-1027.7193"/>
            <polygon fill="#3380b0" stroke="#3380b0" points="166.2892,-1024.3733 155.6984,-1024.6652 164.1596,-1031.0415 166.2892,-1024.3733"/>
        </g>
        <!-- gql_example_cli_github -->
        <g id="node14" class="node">
            <title>gql_example_cli_github</title>
            <polygon fill="none" stroke="#9b3b01" points="1064.5,-1364.3487 879.5,-1364.3487 879.5,-1328.3487 1064.5,-1328.3487 1064.5,-1364.3487"/>
            <text text-anchor="middle" x="972" y="-1342.6487" font-family="Times,serif" font-size="14.00" fill="#000000">gql_example_cli_github</text>
        </g>
        <!-- gql_example_cli_github&#45;&gt;gql_pedantic -->
        <g id="edge49" class="edge">
            <title>gql_example_cli_github&#45;&gt;gql_pedantic</title>
            <path fill="none" stroke="#89da51" stroke-dasharray="5,2" d="M995.1704,-1328.2684C1045.9839,-1287.0908 1166.7559,-1180.5401 1218,-1060.3487 1333.2708,-789.9845 1362.4206,-607.5495 1152,-402.3487 1034.1493,-287.4214 530.0682,-183.386 349.5911,-149.1699"/>
            <polygon fill="#89da51" stroke="#89da51" points="350.1825,-145.7198 339.7068,-147.3045 348.8843,-152.5984 350.1825,-145.7198"/>
        </g>
        <!-- gql_example_cli_github&#45;&gt;gql -->
        <g id="edge44" class="edge">
            <title>gql_example_cli_github&#45;&gt;gql</title>
            <path fill="none" stroke="#68217c" d="M903.6449,-1328.2904C744.3904,-1284.6931 356.6495,-1169.2256 284,-1060.3487 216.9612,-959.8805 286.5098,-565.5981 307.4414,-456.4747"/>
            <polygon fill="#68217c" stroke="#68217c" points="310.8995,-457.0263 309.3639,-446.5434 304.0271,-455.6959 310.8995,-457.0263"/>
        </g>
        <!-- gql_example_cli_github&#45;&gt;gql_exec -->
        <g id="edge46" class="edge">
            <title>gql_example_cli_github&#45;&gt;gql_exec</title>
            <path fill="none" stroke="#5b9240" d="M990.0496,-1328.2662C1065.4152,-1250.4994 1345.6797,-937.3928 1228,-693.3487 1168.7142,-570.4019 1021.5793,-486.899 944.2605,-449.9379"/>
            <polygon fill="#5b9240" stroke="#5b9240" points="945.7259,-446.7593 935.1881,-445.6616 942.7414,-453.0912 945.7259,-446.7593"/>
        </g>
        <!-- gql_example_cli_github&#45;&gt;gql_link -->
        <g id="edge45" class="edge">
            <title>gql_example_cli_github&#45;&gt;gql_link</title>
            <path fill="none" stroke="#7c0063" d="M993.3443,-1328.3254C1050.7555,-1277.5401 1200.9246,-1128.1786 1152,-993.3487 1112.2558,-883.8186 1007.4395,-787.43 954.5198,-743.9229"/>
            <polygon fill="#7c0063" stroke="#7c0063" points="956.4588,-740.9887 946.49,-737.4004 952.0453,-746.422 956.4588,-740.9887"/>
        </g>
        <!-- gql_example_cli_github&#45;&gt;gql_transform_link -->
        <g id="edge48" class="edge">
            <title>gql_example_cli_github&#45;&gt;gql_transform_link</title>
            <path fill="none" stroke="#21d185" d="M960.1718,-1328.3377C923.6886,-1272.7836 812.7679,-1103.8817 769.5245,-1038.0338"/>
            <polygon fill="#21d185" stroke="#21d185" points="772.3015,-1035.8863 763.8866,-1029.4488 766.4504,-1039.7288 772.3015,-1035.8863"/>
        </g>
        <!-- gql_example_cli_github&#45;&gt;gql_http_link -->
        <g id="edge47" class="edge">
            <title>gql_example_cli_github&#45;&gt;gql_http_link</title>
            <path fill="none" stroke="#ab8a09" d="M968.2365,-1328.3377C956.6994,-1273.1245 921.7674,-1105.9499 907.8316,-1039.2573"/>
            <polygon fill="#ab8a09" stroke="#ab8a09" points="911.2536,-1038.5215 905.7821,-1029.4488 904.4016,-1039.9533 911.2536,-1038.5215"/>
        </g>
        <!-- gql_example_cli_github&#45;&gt;gql_build -->
        <g id="edge50" class="edge">
            <title>gql_example_cli_github&#45;&gt;gql_build</title>
            <path fill="none" stroke="#3380b0" stroke-dasharray="5,2" d="M925.8702,-1328.3377C778.5612,-1270.8219 320.0818,-1091.8119 165.4914,-1031.4532"/>
            <polygon fill="#3380b0" stroke="#3380b0" points="166.3429,-1028.0284 155.7548,-1027.6516 163.797,-1034.549 166.3429,-1028.0284"/>
        </g>
        <!-- gql_example_cli -->
        <g id="node15" class="node">
            <title>gql_example_cli</title>
            <polygon fill="none" stroke="#18510b" points="1392.5,-1364.3487 1261.5,-1364.3487 1261.5,-1328.3487 1392.5,-1328.3487 1392.5,-1364.3487"/>
            <text text-anchor="middle" x="1327" y="-1342.6487" font-family="Times,serif" font-size="14.00" fill="#000000">gql_example_cli</text>
        </g>
        <!-- gql_example_cli&#45;&gt;gql_pedantic -->
        <g id="edge55" class="edge">
            <title>gql_example_cli&#45;&gt;gql_pedantic</title>
            <path fill="none" stroke="#89da51" stroke-dasharray="5,2" d="M1332.4875,-1328.2248C1364.1338,-1219.6216 1512.0957,-651.412 1224,-402.3487 1088.8941,-285.5475 539.2522,-181.3646 349.6603,-148.262"/>
            <polygon fill="#89da51" stroke="#89da51" points="350.0176,-144.7717 339.5659,-146.5074 348.8188,-151.6683 350.0176,-144.7717"/>
        </g>
        <!-- gql_example_cli&#45;&gt;gql -->
        <g id="edge51" class="edge">
            <title>gql_example_cli&#45;&gt;gql</title>
            <path fill="none" stroke="#68217c" d="M1275.8821,-1328.2268C1267.9107,-1325.517 1259.7495,-1322.8095 1252,-1320.3487 855.1689,-1194.3401 612.3745,-1385.246 352,-1060.3487 313.914,-1012.8247 312.5415,-574.0087 312.8603,-456.9404"/>
            <polygon fill="#68217c" stroke="#68217c" points="316.3612,-456.6514 312.8952,-446.6395 309.3612,-456.6275 316.3612,-456.6514"/>
        </g>
        <!-- gql_example_cli&#45;&gt;gql_exec -->
        <g id="edge53" class="edge">
            <title>gql_example_cli&#45;&gt;gql_exec</title>
            <path fill="none" stroke="#5b9240" d="M1330.602,-1328.1116C1345.609,-1247.0721 1396.6726,-913.9013 1270,-693.3487 1195.3554,-563.3832 1028.0982,-481.3861 944.5145,-446.9966"/>
            <polygon fill="#5b9240" stroke="#5b9240" points="945.8159,-443.7476 935.2336,-443.2327 943.1851,-450.2344 945.8159,-443.7476"/>
        </g>
        <!-- gql_example_cli&#45;&gt;gql_link -->
        <g id="edge52" class="edge">
            <title>gql_example_cli&#45;&gt;gql_link</title>
            <path fill="none" stroke="#7c0063" d="M1322.8856,-1328.2606C1310.0053,-1274.1122 1266.7944,-1109.8506 1192,-993.3487 1123.8311,-887.167 1009.408,-788.21 954.3978,-743.8429"/>
            <polygon fill="#7c0063" stroke="#7c0063" points="956.4039,-740.9656 946.41,-737.4482 952.0292,-746.4301 956.4039,-740.9656"/>
        </g>
        <!-- gql_example_cli&#45;&gt;gql_http_link -->
        <g id="edge54" class="edge">
            <title>gql_example_cli&#45;&gt;gql_http_link</title>
            <path fill="none" stroke="#ab8a09" d="M1304.1502,-1328.3377C1232.8064,-1272.102 1014.1126,-1099.7198 932.8387,-1035.6569"/>
            <polygon fill="#ab8a09" stroke="#ab8a09" points="934.9831,-1032.8906 924.9628,-1029.4488 930.6497,-1038.3881 934.9831,-1032.8906"/>
        </g>
        <!-- gql_example_cli&#45;&gt;gql_build -->
        <g id="edge56" class="edge">
            <title>gql_example_cli&#45;&gt;gql_build</title>
            <path fill="none" stroke="#3380b0" stroke-dasharray="5,2" d="M1276.3222,-1328.2529C1268.2179,-1325.5116 1259.9007,-1322.7877 1252,-1320.3487 836.6361,-1192.1259 327.3952,-1064.0251 165.7705,-1024.0585"/>
            <polygon fill="#3380b0" stroke="#3380b0" points="166.1795,-1020.5545 155.632,-1021.5544 164.5009,-1027.3502 166.1795,-1020.5545"/>
        </g>
        <!-- gql_example_build -->
        <g id="node16" class="node">
            <title>gql_example_build</title>
            <polygon fill="none" stroke="#628320" points="1561,-1364.3487 1411,-1364.3487 1411,-1328.3487 1561,-1328.3487 1561,-1364.3487"/>
            <text text-anchor="middle" x="1486" y="-1342.6487" font-family="Times,serif" font-size="14.00" fill="#000000">gql_example_build</text>
        </g>
        <!-- gql_example_build&#45;&gt;gql_pedantic -->
        <g id="edge57" class="edge">
            <title>gql_example_build&#45;&gt;gql_pedantic</title>
            <path fill="none" stroke="#89da51" stroke-dasharray="5,2" d="M1488.5283,-1328.264C1502.548,-1219.8894 1559.7883,-652.7833 1262,-402.3487 1119.6184,-282.6083 544.5378,-179.6774 349.8209,-147.647"/>
            <polygon fill="#89da51" stroke="#89da51" points="350.173,-144.1581 339.7388,-145.9961 349.0418,-151.0661 350.173,-144.1581"/>
        </g>
        <!-- gql_example_build&#45;&gt;gql_build -->
        <g id="edge58" class="edge">
            <title>gql_example_build&#45;&gt;gql_build</title>
            <path fill="none" stroke="#3380b0" stroke-dasharray="5,2" d="M1429.2131,-1328.2263C1420.1398,-1325.4884 1410.833,-1322.7726 1402,-1320.3487 925.0188,-1189.4621 340.3153,-1060.384 165.6208,-1022.4722"/>
            <polygon fill="#3380b0" stroke="#3380b0" points="166.1876,-1019.0139 155.6731,-1020.3158 164.7046,-1025.855 166.1876,-1019.0139"/>
        </g>
        <!-- gql_dedupe_link -->
        <g id="node17" class="node">
            <title>gql_dedupe_link</title>
            <polygon fill="none" stroke="#cf6bf6" points="1110,-1029.3487 976,-1029.3487 976,-993.3487 1110,-993.3487 1110,-1029.3487"/>
            <text text-anchor="middle" x="1043" y="-1007.6487" font-family="Times,serif" font-size="14.00" fill="#000000">gql_dedupe_link</text>
        </g>
        <!-- gql_dedupe_link&#45;&gt;gql_pedantic -->
        <g id="edge62" class="edge">
            <title>gql_dedupe_link&#45;&gt;gql_pedantic</title>
            <path fill="none" stroke="#89da51" stroke-dasharray="5,2" d="M1027.1681,-993.094C930.5446,-881.6838 420.6692,-293.78 307.3346,-163.1013"/>
            <polygon fill="#89da51" stroke="#89da51" points="309.9409,-160.7645 300.7448,-155.503 304.6526,-165.3508 309.9409,-160.7645"/>
        </g>
        <!-- gql_dedupe_link&#45;&gt;gql -->
        <g id="edge61" class="edge">
            <title>gql_dedupe_link&#45;&gt;gql</title>
            <path fill="none" stroke="#68217c" stroke-dasharray="5,2" d="M1020.3521,-993.2614C914.1361,-908.4342 465.4135,-550.0707 343.614,-452.798"/>
            <polygon fill="#68217c" stroke="#68217c" points="345.7423,-450.0185 335.7442,-446.5129 341.374,-455.4882 345.7423,-450.0185"/>
        </g>
        <!-- gql_dedupe_link&#45;&gt;gql_exec -->
        <g id="edge59" class="edge">
            <title>gql_dedupe_link&#45;&gt;gql_exec</title>
            <path fill="none" stroke="#5b9240" d="M1039.024,-992.9977C1028.3692,-944.1149 998.0125,-806.7475 969,-693.3487 946.774,-606.4759 917.3525,-504.5119 903.2402,-456.304"/>
            <polygon fill="#5b9240" stroke="#5b9240" points="906.5633,-455.1981 900.3898,-446.5877 899.8463,-457.1685 906.5633,-455.1981"/>
        </g>
        <!-- gql_dedupe_link&#45;&gt;gql_link -->
        <g id="edge60" class="edge">
            <title>gql_dedupe_link&#45;&gt;gql_link</title>
            <path fill="none" stroke="#7c0063" d="M1035.4935,-993.0828C1015.1216,-943.5113 958.6994,-806.2172 934.3875,-747.0583"/>
            <polygon fill="#7c0063" stroke="#7c0063" points="937.5422,-745.5267 930.5037,-737.6077 931.0676,-748.1875 937.5422,-745.5267"/>
        </g>
        <!-- end_to_end_test -->
        <g id="node18" class="node">
            <title>end_to_end_test</title>
            <polygon fill="none" stroke="#97b336" points="156,-1364.3487 22,-1364.3487 22,-1328.3487 156,-1328.3487 156,-1364.3487"/>
            <text text-anchor="middle" x="89" y="-1342.6487" font-family="Times,serif" font-size="14.00" fill="#000000">end_to_end_test</text>
        </g>
        <!-- end_to_end_test&#45;&gt;gql_exec -->
        <g id="edge65" class="edge">
            <title>end_to_end_test&#45;&gt;gql_exec</title>
            <path fill="none" stroke="#5b9240" d="M156.2936,-1338.1702C365.7743,-1311.1985 999.3901,-1217.6961 1119,-1060.3487 1271.8199,-859.3134 1004.8077,-545.18 919.7412,-453.9726"/>
            <polygon fill="#5b9240" stroke="#5b9240" points="922.1828,-451.46 912.7818,-446.5741 917.0841,-456.2561 922.1828,-451.46"/>
        </g>
        <!-- end_to_end_test&#45;&gt;gql_code_builder -->
        <g id="edge64" class="edge">
            <title>end_to_end_test&#45;&gt;gql_code_builder</title>
            <path fill="none" stroke="#1da059" d="M86.149,-1327.998C78.3554,-1275.7473 57.6238,-1121.6682 63,-993.3487 66.7699,-903.3688 77.4743,-797.2039 82.8452,-747.5755"/>
            <polygon fill="#1da059" stroke="#1da059" points="86.329,-747.914 83.9365,-737.5929 79.3704,-747.1533 86.329,-747.914"/>
        </g>
        <!-- end_to_end_test&#45;&gt;gql_build -->
        <g id="edge63" class="edge">
            <title>end_to_end_test&#45;&gt;gql_build</title>
            <path fill="none" stroke="#3380b0" d="M90.3441,-1328.3377C94.456,-1273.2381 106.8889,-1106.6374 111.8865,-1039.6703"/>
            <polygon fill="#3380b0" stroke="#3380b0" points="115.3953,-1039.6816 112.6492,-1029.4488 108.4147,-1039.1606 115.3953,-1039.6816"/>
        </g>
    </g>
</svg>
