<?xml version="1.0" encoding="UTF-8" standalone="no"?>
<!DOCTYPE svg PUBLIC "-//W3C//DTD SVG 1.1//EN"
 "http://www.w3.org/Graphics/SVG/1.1/DTD/svg11.dtd">
<!-- Generated by graphviz version 2.40.1 (20161225.0304)
 -->
<!-- Title: packages Pages: 1 -->
<svg width="720pt" height="696pt"
 viewBox="0.00 0.00 720.00 695.71" xmlns="http://www.w3.org/2000/svg" xmlns:xlink="http://www.w3.org/1999/xlink">
<g id="graph0" class="graph" transform="scale(.3857 .3857) rotate(0) translate(4 1800)">
<title>packages</title>
<polygon fill="#ffffff" stroke="transparent" points="-4,4 -4,-1800 1862.9727,-1800 1862.9727,4 -4,4"/>
<g id="clust1" class="cluster">
<title>cluster </title>
<polygon fill="none" stroke="#a473ff" points="1652.1582,-36.841 1652.1582,-607.8769 1850.1582,-607.8769 1850.1582,-36.841 1652.1582,-36.841"/>
</g>
<g id="clust2" class="cluster">
<title>cluster links</title>
<polygon fill="none" stroke="#e2446b" points="760.1582,-368.4103 760.1582,-1376.9333 1644.1582,-1376.9333 1644.1582,-368.4103 760.1582,-368.4103"/>
<text text-anchor="middle" x="1202.1582" y="-1361.7333" font-family="Times,serif" font-size="14.00" fill="#000000">links</text>
</g>
<g id="clust3" class="cluster">
<title>cluster codegen</title>
<polygon fill="none" stroke="#856663" points="70.1582,-699.9795 70.1582,-1759.159 226.1582,-1759.159 226.1582,-699.9795 70.1582,-699.9795"/>
<text text-anchor="middle" x="148.1582" y="-1743.959" font-family="Times,serif" font-size="14.00" fill="#000000">codegen</text>
</g>
<g id="clust4" class="cluster">
<title>cluster examples</title>
<polygon fill="none" stroke="#e8f445" points="234.1582,-1413.7744 234.1582,-1759.159 1167.1582,-1759.159 1167.1582,-1413.7744 234.1582,-1413.7744"/>
<text text-anchor="middle" x="700.6582" y="-1743.959" font-family="Times,serif" font-size="14.00" fill="#000000">examples</text>
</g>
<g id="clust5" class="cluster">
<title>cluster links/gql_dio_link</title>
<polygon fill="none" stroke="#3489f6" points="1610.1582,-1413.7744 1610.1582,-1759.159 1752.1582,-1759.159 1752.1582,-1413.7744 1610.1582,-1413.7744"/>
<text text-anchor="middle" x="1681.1582" y="-1743.959" font-family="Times,serif" font-size="14.00" fill="#000000">links/gql_dio_link</text>
</g>
<!-- gql_pedantic -->
<g id="node1" class="node">
<title>gql_pedantic</title>
<polygon fill="none" stroke="#89da51" points="1769.6582,-174.841 1660.6582,-174.841 1660.6582,-138.841 1769.6582,-138.841 1769.6582,-174.841"/>
<text text-anchor="middle" x="1715.1582" y="-153.141" font-family="Times,serif" font-size="14.00" fill="#000000">gql_pedantic</text>
</g>
<!-- cats -->
<g id="node2" class="node">
<title>cats</title>
<polygon fill="none" stroke="#e2592e" points="1842.1582,-174.841 1788.1582,-174.841 1788.1582,-138.841 1842.1582,-138.841 1842.1582,-174.841"/>
<text text-anchor="middle" x="1815.1582" y="-153.141" font-family="Times,serif" font-size="14.00" fill="#000000">cats</text>
</g>
<!-- gql -->
<g id="node3" class="node">
<title>gql</title>
<polygon fill="none" stroke="#68217c" points="1714.1582,-505.841 1660.1582,-505.841 1660.1582,-469.841 1714.1582,-469.841 1714.1582,-505.841"/>
<text text-anchor="middle" x="1687.1582" y="-484.141" font-family="Times,serif" font-size="14.00" fill="#000000">gql</text>
</g>
<!-- gql&#45;&gt;gql_pedantic -->
<g id="edge1" class="edge">
<title>gql&#45;&gt;gql_pedantic</title>
<path fill="none" stroke="#89da51" stroke-dasharray="5,2" d="M1688.7035,-469.5735C1693.3407,-414.7547 1707.1617,-251.3715 1712.7619,-185.1694"/>
<polygon fill="#89da51" stroke="#89da51" points="1716.2623,-185.3115 1713.6177,-175.052 1709.2872,-184.7214 1716.2623,-185.3115"/>
</g>
<!-- gql&#45;&gt;cats -->
<g id="edge2" class="edge">
<title>gql&#45;&gt;cats</title>
<path fill="none" stroke="#e2592e" stroke-dasharray="5,2" d="M1694.2224,-469.5735C1715.4649,-414.6417 1778.8634,-250.6972 1804.3613,-184.7612"/>
<polygon fill="#e2592e" stroke="#e2592e" points="1807.7735,-185.6414 1808.1159,-175.052 1801.2446,-183.1166 1807.7735,-185.6414"/>
</g>
<!-- gql_exec -->
<g id="node4" class="node">
<title>gql_exec</title>
<polygon fill="none" stroke="#5b9240" points="1024.1582,-505.841 944.1582,-505.841 944.1582,-469.841 1024.1582,-469.841 1024.1582,-505.841"/>
<text text-anchor="middle" x="984.1582" y="-484.141" font-family="Times,serif" font-size="14.00" fill="#000000">gql_exec</text>
</g>
<!-- gql_exec&#45;&gt;gql_pedantic -->
<g id="edge4" class="edge">
<title>gql_exec&#45;&gt;gql_pedantic</title>
<path fill="none" stroke="#89da51" stroke-dasharray="5,2" d="M1023.9791,-469.81C1148.3616,-413.489 1529.4429,-240.9337 1665.9056,-179.1428"/>
<polygon fill="#89da51" stroke="#89da51" points="1667.6353,-182.2017 1675.3013,-174.8884 1664.7479,-175.825 1667.6353,-182.2017"/>
</g>
<!-- gql_exec&#45;&gt;gql -->
<g id="edge3" class="edge">
<title>gql_exec&#45;&gt;gql</title>
<path fill="none" stroke="#68217c" d="M1024.3198,-487.841C1232.7896,-487.841 1441.2593,-487.841 1649.7291,-487.841"/>
<polygon fill="#68217c" stroke="#68217c" points="1649.9715,-491.3411 1659.9715,-487.841 1649.9715,-484.3411 1649.9715,-491.3411"/>
</g>
<!-- gql_link -->
<g id="node5" class="node">
<title>gql_link</title>
<polygon fill="none" stroke="#7c0063" points="1049.1582,-837.841 975.1582,-837.841 975.1582,-801.841 1049.1582,-801.841 1049.1582,-837.841"/>
<text text-anchor="middle" x="1012.1582" y="-816.141" font-family="Times,serif" font-size="14.00" fill="#000000">gql_link</text>
</g>
<!-- gql_link&#45;&gt;gql_pedantic -->
<g id="edge7" class="edge">
<title>gql_link&#45;&gt;gql_pedantic</title>
<path fill="none" stroke="#89da51" stroke-dasharray="5,2" d="M1019.4219,-801.4597C1042.4398,-745.0187 1118.6408,-571.4105 1226.1582,-461.841 1360.4414,-324.9949 1567.6717,-222.1282 1663.4106,-179.0438"/>
<polygon fill="#89da51" stroke="#89da51" points="1664.8946,-182.2143 1672.5971,-174.9396 1662.0392,-175.8231 1664.8946,-182.2143"/>
</g>
<!-- gql_link&#45;&gt;gql -->
<g id="edge5" class="edge">
<title>gql_link&#45;&gt;gql</title>
<path fill="none" stroke="#68217c" d="M1049.283,-804.1555C1148.6537,-761.7108 1428.0856,-639.3269 1648.1582,-513.841 1649.4837,-513.0852 1650.8242,-512.3007 1652.1704,-511.4957"/>
<polygon fill="#68217c" stroke="#68217c" points="1654.4011,-514.2298 1661.0398,-505.9728 1650.7009,-508.2877 1654.4011,-514.2298"/>
</g>
<!-- gql_link&#45;&gt;gql_exec -->
<g id="edge6" class="edge">
<title>gql_link&#45;&gt;gql_exec</title>
<path fill="none" stroke="#5b9240" d="M1010.6129,-801.5184C1005.9757,-746.5339 992.1548,-582.657 986.5546,-516.255"/>
<polygon fill="#5b9240" stroke="#5b9240" points="990.0268,-515.7775 985.6987,-506.1071 983.0516,-516.3659 990.0268,-515.7775"/>
</g>
<!-- gql_websocket_link -->
<g id="node6" class="node">
<title>gql_websocket_link</title>
<polygon fill="none" stroke="#bb5677" points="926.1582,-1168.841 768.1582,-1168.841 768.1582,-1132.841 926.1582,-1132.841 926.1582,-1168.841"/>
<text text-anchor="middle" x="847.1582" y="-1147.141" font-family="Times,serif" font-size="14.00" fill="#000000">gql_websocket_link</text>
</g>
<!-- gql_websocket_link&#45;&gt;gql_pedantic -->
<g id="edge11" class="edge">
<title>gql_websocket_link&#45;&gt;gql_pedantic</title>
<path fill="none" stroke="#89da51" stroke-dasharray="5,2" d="M862.9649,-1132.7398C968.285,-1012.1314 1568.0419,-325.3129 1692.5328,-182.7508"/>
<polygon fill="#89da51" stroke="#89da51" points="1695.4578,-184.7224 1699.399,-174.8878 1690.1851,-180.1181 1695.4578,-184.7224"/>
</g>
<!-- gql_websocket_link&#45;&gt;gql -->
<g id="edge10" class="edge">
<title>gql_websocket_link&#45;&gt;gql</title>
<path fill="none" stroke="#68217c" d="M871.1693,-1132.6964C934.2913,-1084.9275 1109.965,-951.536 1254.1582,-837.841 1406.9649,-717.3544 1587.2123,-569.9228 1657.2445,-512.4353"/>
<polygon fill="#68217c" stroke="#68217c" points="1659.7223,-514.9295 1665.2294,-505.8784 1655.2799,-509.5197 1659.7223,-514.9295"/>
</g>
<!-- gql_websocket_link&#45;&gt;gql_exec -->
<g id="edge8" class="edge">
<title>gql_websocket_link&#45;&gt;gql_exec</title>
<path fill="none" stroke="#5b9240" d="M850.8937,-1132.7635C869.8381,-1041.0834 955.296,-627.5174 978.3902,-515.755"/>
<polygon fill="#5b9240" stroke="#5b9240" points="981.83,-516.4037 980.4261,-505.9023 974.9748,-514.9872 981.83,-516.4037"/>
</g>
<!-- gql_websocket_link&#45;&gt;gql_link -->
<g id="edge9" class="edge">
<title>gql_websocket_link&#45;&gt;gql_link</title>
<path fill="none" stroke="#7c0063" d="M856.2644,-1132.5735C883.7037,-1077.5287 965.7084,-913.0221 998.4426,-847.3554"/>
<polygon fill="#7c0063" stroke="#7c0063" points="1001.7512,-848.5632 1003.0802,-838.052 995.4865,-845.4403 1001.7512,-848.5632"/>
</g>
<!-- gql_transform_link -->
<g id="node7" class="node">
<title>gql_transform_link</title>
<polygon fill="none" stroke="#21d185" points="1378.1582,-1168.841 1226.1582,-1168.841 1226.1582,-1132.841 1378.1582,-1132.841 1378.1582,-1168.841"/>
<text text-anchor="middle" x="1302.1582" y="-1147.141" font-family="Times,serif" font-size="14.00" fill="#000000">gql_transform_link</text>
</g>
<!-- gql_transform_link&#45;&gt;gql_pedantic -->
<g id="edge15" class="edge">
<title>gql_transform_link&#45;&gt;gql_pedantic</title>
<path fill="none" stroke="#89da51" stroke-dasharray="5,2" d="M1309.6792,-1132.7398C1359.5915,-1012.6119 1642.8892,-330.7766 1703.6742,-184.4806"/>
<polygon fill="#89da51" stroke="#89da51" points="1707.055,-185.4654 1707.6599,-174.8878 1700.5908,-182.7795 1707.055,-185.4654"/>
</g>
<!-- gql_transform_link&#45;&gt;gql -->
<g id="edge14" class="edge">
<title>gql_transform_link&#45;&gt;gql</title>
<path fill="none" stroke="#68217c" stroke-dasharray="5,2" d="M1313.0078,-1132.5338C1341.5311,-1084.3722 1420.9215,-950.1144 1486.1582,-837.841 1555.8539,-717.8937 1637.964,-574.1432 1671.6038,-515.1437"/>
<polygon fill="#68217c" stroke="#68217c" points="1674.8491,-516.5178 1676.7608,-506.0969 1668.7678,-513.0512 1674.8491,-516.5178"/>
</g>
<!-- gql_transform_link&#45;&gt;gql_exec -->
<g id="edge12" class="edge">
<title>gql_transform_link&#45;&gt;gql_exec</title>
<path fill="none" stroke="#5b9240" d="M1293.4876,-1132.7635C1249.4257,-1040.8986 1050.3518,-625.8484 997.2243,-515.0827"/>
<polygon fill="#5b9240" stroke="#5b9240" points="1000.3016,-513.4052 992.8211,-505.9023 993.99,-516.4325 1000.3016,-513.4052"/>
</g>
<!-- gql_transform_link&#45;&gt;gql_link -->
<g id="edge13" class="edge">
<title>gql_transform_link&#45;&gt;gql_link</title>
<path fill="none" stroke="#7c0063" d="M1286.1535,-1132.5735C1237.5307,-1077.0766 1091.4231,-910.3124 1034.8645,-845.7575"/>
<polygon fill="#7c0063" stroke="#7c0063" points="1037.336,-843.2671 1028.1135,-838.052 1032.0709,-847.8801 1037.336,-843.2671"/>
</g>
<!-- gql_http_link -->
<g id="node8" class="node">
<title>gql_http_link</title>
<polygon fill="none" stroke="#ab8a09" points="1207.6582,-1168.841 1096.6582,-1168.841 1096.6582,-1132.841 1207.6582,-1132.841 1207.6582,-1168.841"/>
<text text-anchor="middle" x="1152.1582" y="-1147.141" font-family="Times,serif" font-size="14.00" fill="#000000">gql_http_link</text>
</g>
<!-- gql_http_link&#45;&gt;gql_pedantic -->
<g id="edge19" class="edge">
<title>gql_http_link&#45;&gt;gql_pedantic</title>
<path fill="none" stroke="#89da51" stroke-dasharray="5,2" d="M1162.4107,-1132.7398C1230.5871,-1012.3716 1618.1875,-328.047 1699.9967,-183.6092"/>
<polygon fill="#89da51" stroke="#89da51" points="1703.0536,-185.314 1704.9365,-174.8878 1696.9627,-181.8641 1703.0536,-185.314"/>
</g>
<!-- gql_http_link&#45;&gt;gql -->
<g id="edge16" class="edge">
<title>gql_http_link&#45;&gt;gql</title>
<path fill="none" stroke="#68217c" d="M1167.4078,-1132.6C1207.4907,-1084.5984 1319.0046,-950.6936 1410.1582,-837.841 1507.154,-717.7556 1620.9205,-572.6319 1666.6272,-514.1478"/>
<polygon fill="#68217c" stroke="#68217c" points="1669.4686,-516.196 1672.8669,-506.161 1663.9524,-511.8865 1669.4686,-516.196"/>
</g>
<!-- gql_http_link&#45;&gt;gql_exec -->
<g id="edge17" class="edge">
<title>gql_http_link&#45;&gt;gql_exec</title>
<path fill="none" stroke="#5b9240" d="M1147.5775,-1132.7635C1124.3463,-1041.0834 1019.5513,-627.5174 991.2314,-515.755"/>
<polygon fill="#5b9240" stroke="#5b9240" points="994.584,-514.7362 988.7348,-505.9023 987.7985,-516.4557 994.584,-514.7362"/>
</g>
<!-- gql_http_link&#45;&gt;gql_link -->
<g id="edge18" class="edge">
<title>gql_http_link&#45;&gt;gql_link</title>
<path fill="none" stroke="#7c0063" d="M1144.4318,-1132.5735C1121.15,-1077.5287 1051.5702,-913.0221 1023.7957,-847.3554"/>
<polygon fill="#7c0063" stroke="#7c0063" points="1026.9798,-845.8987 1019.8608,-838.052 1020.5328,-848.6256 1026.9798,-845.8987"/>
</g>
<!-- gql_error_link -->
<g id="node9" class="node">
<title>gql_error_link</title>
<polygon fill="none" stroke="#5f79bc" points="1514.1582,-1168.841 1396.1582,-1168.841 1396.1582,-1132.841 1514.1582,-1132.841 1514.1582,-1168.841"/>
<text text-anchor="middle" x="1455.1582" y="-1147.141" font-family="Times,serif" font-size="14.00" fill="#000000">gql_error_link</text>
</g>
<!-- gql_error_link&#45;&gt;gql_pedantic -->
<g id="edge23" class="edge">
<title>gql_error_link&#45;&gt;gql_pedantic</title>
<path fill="none" stroke="#89da51" stroke-dasharray="5,2" d="M1466.0483,-1132.7069C1509.5772,-1059.0167 1671.216,-773.5521 1723.1582,-513.841 1747.2442,-393.4111 1729.2616,-245.5835 1719.8962,-184.8802"/>
<polygon fill="#89da51" stroke="#89da51" points="1723.3385,-184.2404 1718.3134,-174.9131 1716.4252,-185.3383 1723.3385,-184.2404"/>
</g>
<!-- gql_error_link&#45;&gt;gql -->
<g id="edge22" class="edge">
<title>gql_error_link&#45;&gt;gql</title>
<path fill="none" stroke="#68217c" stroke-dasharray="5,2" d="M1461.484,-1132.7635C1493.5974,-1040.991 1638.5739,-626.6832 1677.5084,-515.4179"/>
<polygon fill="#68217c" stroke="#68217c" points="1680.8388,-516.4972 1680.8381,-505.9023 1674.2316,-514.1851 1680.8388,-516.4972"/>
</g>
<!-- gql_error_link&#45;&gt;gql_exec -->
<g id="edge20" class="edge">
<title>gql_error_link&#45;&gt;gql_exec</title>
<path fill="none" stroke="#5b9240" d="M1439.3121,-1132.7426C1398.3369,-1085.6168 1286.2803,-954.648 1203.1582,-837.841 1120.513,-721.7042 1034.1165,-574.8005 999.6665,-515.0089"/>
<polygon fill="#5b9240" stroke="#5b9240" points="1002.6093,-513.1052 994.5921,-506.1788 996.5401,-516.593 1002.6093,-513.1052"/>
</g>
<!-- gql_error_link&#45;&gt;gql_link -->
<g id="edge21" class="edge">
<title>gql_error_link&#45;&gt;gql_link</title>
<path fill="none" stroke="#7c0063" d="M1431.026,-1132.81C1356.4016,-1077.0522 1129.3086,-907.3732 1044.5314,-844.0296"/>
<polygon fill="#7c0063" stroke="#7c0063" points="1046.4181,-841.0702 1036.3123,-837.8884 1042.2282,-846.6778 1046.4181,-841.0702"/>
</g>
<!-- gql_code_builder -->
<g id="node10" class="node">
<title>gql_code_builder</title>
<polygon fill="none" stroke="#1da059" points="217.6582,-837.841 78.6582,-837.841 78.6582,-801.841 217.6582,-801.841 217.6582,-837.841"/>
<text text-anchor="middle" x="148.1582" y="-816.141" font-family="Times,serif" font-size="14.00" fill="#000000">gql_code_builder</text>
</g>
<!-- gql_code_builder&#45;&gt;gql_pedantic -->
<g id="edge26" class="edge">
<title>gql_code_builder&#45;&gt;gql_pedantic</title>
<path fill="none" stroke="#89da51" stroke-dasharray="5,2" d="M146.2915,-801.7868C141.3265,-743.2657 134.2284,-557.1015 232.1582,-461.841 440.0666,-259.5996 1391.6334,-179.385 1650.17,-161.105"/>
<polygon fill="#89da51" stroke="#89da51" points="1650.7867,-164.5705 1660.5178,-160.3804 1650.2977,-157.5876 1650.7867,-164.5705"/>
</g>
<!-- gql_code_builder&#45;&gt;gql -->
<g id="edge24" class="edge">
<title>gql_code_builder&#45;&gt;gql</title>
<path fill="none" stroke="#68217c" d="M217.822,-815.1755C436.6166,-798.5556 1126.4765,-731.1041 1648.1582,-513.841 1650.2334,-512.9768 1652.3149,-511.9963 1654.3772,-510.9347"/>
<polygon fill="#68217c" stroke="#68217c" points="1656.2795,-513.8785 1663.2162,-505.8702 1652.7995,-507.8049 1656.2795,-513.8785"/>
</g>
<!-- gql_code_builder&#45;&gt;gql_exec -->
<g id="edge25" class="edge">
<title>gql_code_builder&#45;&gt;gql_exec</title>
<path fill="none" stroke="#5b9240" d="M193.6989,-801.7555C338.0659,-744.4232 784.8118,-567.0073 934.6149,-507.5161"/>
<polygon fill="#5b9240" stroke="#5b9240" points="936.0443,-510.7144 944.0464,-503.7706 933.4606,-504.2087 936.0443,-510.7144"/>
</g>
<!-- gql_build -->
<g id="node11" class="node">
<title>gql_build</title>
<polygon fill="none" stroke="#3380b0" points="217.6582,-1168.841 134.6582,-1168.841 134.6582,-1132.841 217.6582,-1132.841 217.6582,-1168.841"/>
<text text-anchor="middle" x="176.1582" y="-1147.141" font-family="Times,serif" font-size="14.00" fill="#000000">gql_build</text>
</g>
<!-- gql_build&#45;&gt;gql_pedantic -->
<g id="edge29" class="edge">
<title>gql_build&#45;&gt;gql_pedantic</title>
<path fill="none" stroke="#89da51" stroke-dasharray="5,2" d="M167.6482,-1132.6871C146.0234,-1085.4291 89.3219,-954.1723 70.1582,-837.841 44.6676,-683.1031 156.6569,-492.2411 192.1582,-461.841 418.5381,-267.9897 1389.4802,-181.5067 1650.3965,-161.5045"/>
<polygon fill="#89da51" stroke="#89da51" points="1650.7644,-164.9867 1660.4701,-160.7383 1650.2335,-158.0069 1650.7644,-164.9867"/>
</g>
<!-- gql_build&#45;&gt;gql -->
<g id="edge27" class="edge">
<title>gql_build&#45;&gt;gql</title>
<path fill="none" stroke="#68217c" d="M200.631,-1132.6544C278.2471,-1075.6792 527.2882,-898.24 756.1582,-793.841 1134.2025,-621.3963 1273.3016,-693.1093 1648.1582,-513.841 1649.9201,-512.9984 1651.6944,-512.0853 1653.4633,-511.1223"/>
<polygon fill="#68217c" stroke="#68217c" points="1655.341,-514.0784 1662.1805,-505.9869 1651.7879,-508.0471 1655.341,-514.0784"/>
</g>
<!-- gql_build&#45;&gt;gql_code_builder -->
<g id="edge28" class="edge">
<title>gql_build&#45;&gt;gql_code_builder</title>
<path fill="none" stroke="#1da059" d="M174.6129,-1132.5735C169.9757,-1077.7547 156.1548,-914.3715 150.5546,-848.1694"/>
<polygon fill="#1da059" stroke="#1da059" points="154.0293,-847.7214 149.6987,-838.052 147.0542,-848.3115 154.0293,-847.7214"/>
</g>
<!-- gql_example_http_auth_link -->
<g id="node12" class="node">
<title>gql_example_http_auth_link</title>
<polygon fill="none" stroke="#8a0733" points="1159.1582,-1551.841 941.1582,-1551.841 941.1582,-1515.841 1159.1582,-1515.841 1159.1582,-1551.841"/>
<text text-anchor="middle" x="1050.1582" y="-1530.141" font-family="Times,serif" font-size="14.00" fill="#000000">gql_example_http_auth_link</text>
</g>
<!-- gql_example_http_auth_link&#45;&gt;gql_pedantic -->
<g id="edge36" class="edge">
<title>gql_example_http_auth_link&#45;&gt;gql_pedantic</title>
<path fill="none" stroke="#89da51" stroke-dasharray="5,2" d="M1016.191,-1515.697C940.0351,-1472.8141 756.9403,-1356.8891 688.1582,-1199.841 644.2431,-1099.5709 360.9335,-948.6512 756.1582,-461.841 872.987,-317.9394 1454.9751,-203.0507 1650.7668,-167.9396"/>
<polygon fill="#89da51" stroke="#89da51" points="1651.395,-171.3829 1660.6248,-166.1808 1650.1654,-164.4917 1651.395,-171.3829"/>
</g>
<!-- gql_example_http_auth_link&#45;&gt;gql -->
<g id="edge30" class="edge">
<title>gql_example_http_auth_link&#45;&gt;gql</title>
<path fill="none" stroke="#68217c" d="M1159.3007,-1518.4739C1321.842,-1489.0685 1622.471,-1408.0738 1754.1582,-1199.841 1898.8191,-971.0935 1748.533,-615.6452 1700.7173,-515.139"/>
<polygon fill="#68217c" stroke="#68217c" points="1703.7892,-513.451 1696.2961,-505.9607 1697.4827,-516.4889 1703.7892,-513.451"/>
</g>
<!-- gql_example_http_auth_link&#45;&gt;gql_exec -->
<g id="edge32" class="edge">
<title>gql_example_http_auth_link&#45;&gt;gql_exec</title>
<path fill="none" stroke="#5b9240" d="M1019.259,-1515.7787C948.2608,-1472.233 774.6481,-1353.5943 710.1582,-1199.841 598.7775,-934.2935 874.2071,-606.2517 959.7681,-513.3938"/>
<polygon fill="#5b9240" stroke="#5b9240" points="962.5065,-515.5887 966.7512,-505.8813 957.3793,-510.8229 962.5065,-515.5887"/>
</g>
<!-- gql_example_http_auth_link&#45;&gt;gql_link -->
<g id="edge31" class="edge">
<title>gql_example_http_auth_link&#45;&gt;gql_link</title>
<path fill="none" stroke="#7c0063" d="M1021.1742,-1515.7147C953.7489,-1471.599 787.4605,-1351.0778 726.1582,-1199.841 663.5829,-1045.4634 877.2482,-898.4101 970.6295,-843.0105"/>
<polygon fill="#7c0063" stroke="#7c0063" points="972.4225,-846.0165 979.2776,-837.9382 968.881,-839.9785 972.4225,-846.0165"/>
</g>
<!-- gql_example_http_auth_link&#45;&gt;gql_transform_link -->
<g id="edge34" class="edge">
<title>gql_example_http_auth_link&#45;&gt;gql_transform_link</title>
<path fill="none" stroke="#21d185" d="M1062.1432,-1515.6258C1102.853,-1453.7533 1235.9769,-1251.4261 1284.3695,-1177.8771"/>
<polygon fill="#21d185" stroke="#21d185" points="1287.5272,-1179.4455 1290.0999,-1169.1678 1281.6794,-1175.5979 1287.5272,-1179.4455"/>
</g>
<!-- gql_example_http_auth_link&#45;&gt;gql_http_link -->
<g id="edge35" class="edge">
<title>gql_example_http_auth_link&#45;&gt;gql_http_link</title>
<path fill="none" stroke="#ab8a09" d="M1055.0093,-1515.6258C1071.3864,-1454.1314 1124.7135,-1253.8933 1144.5952,-1179.2396"/>
<polygon fill="#ab8a09" stroke="#ab8a09" points="1148.086,-1179.7317 1147.2775,-1169.1678 1141.3218,-1177.9302 1148.086,-1179.7317"/>
</g>
<!-- gql_example_http_auth_link&#45;&gt;gql_error_link -->
<g id="edge33" class="edge">
<title>gql_example_http_auth_link&#45;&gt;gql_error_link</title>
<path fill="none" stroke="#5f79bc" d="M1069.4198,-1515.6258C1135.3793,-1453.2493 1352.2912,-1248.1202 1428.4427,-1176.1053"/>
<polygon fill="#5f79bc" stroke="#5f79bc" points="1430.9179,-1178.5818 1435.7788,-1169.1678 1426.1082,-1173.4958 1430.9179,-1178.5818"/>
</g>
<!-- gql_example_http_auth_link&#45;&gt;gql_build -->
<g id="edge37" class="edge">
<title>gql_example_http_auth_link&#45;&gt;gql_build</title>
<path fill="none" stroke="#3380b0" stroke-dasharray="5,2" d="M1008.884,-1515.754C864.7965,-1452.6127 384.3588,-1242.0777 226.7315,-1173.003"/>
<polygon fill="#3380b0" stroke="#3380b0" points="227.8253,-1169.6611 217.2613,-1168.853 225.0157,-1176.0725 227.8253,-1169.6611"/>
</g>
<!-- gql_example_flutter -->
<g id="node13" class="node">
<title>gql_example_flutter</title>
<polygon fill="none" stroke="#671702" points="570.1582,-1551.841 410.1582,-1551.841 410.1582,-1515.841 570.1582,-1515.841 570.1582,-1551.841"/>
<text text-anchor="middle" x="490.1582" y="-1530.141" font-family="Times,serif" font-size="14.00" fill="#000000">gql_example_flutter</text>
</g>
<!-- gql_example_flutter&#45;&gt;gql_pedantic -->
<g id="edge42" class="edge">
<title>gql_example_flutter&#45;&gt;gql_pedantic</title>
<path fill="none" stroke="#89da51" stroke-dasharray="5,2" d="M486.1951,-1515.6463C462.7089,-1402.584 352.2811,-790.2471 638.1582,-461.841 775.0738,-304.5569 1439.328,-196.6333 1650.5403,-165.8469"/>
<polygon fill="#89da51" stroke="#89da51" points="1651.154,-169.2946 1660.5487,-164.3965 1650.15,-162.3669 1651.154,-169.2946"/>
</g>
<!-- gql_example_flutter&#45;&gt;gql -->
<g id="edge38" class="edge">
<title>gql_example_flutter&#45;&gt;gql</title>
<path fill="none" stroke="#68217c" d="M552.6134,-1515.7944C561.849,-1513.1269 571.2514,-1510.4119 580.1582,-1507.841 1054.7933,-1370.8427 1340.4663,-1586.3286 1648.1582,-1199.841 1691.2888,-1145.6654 1688.8181,-642.2954 1687.5109,-516.3182"/>
<polygon fill="#68217c" stroke="#68217c" points="1691.0069,-515.9267 1687.397,-505.9658 1684.0073,-516.0038 1691.0069,-515.9267"/>
</g>
<!-- gql_example_flutter&#45;&gt;gql_exec -->
<g id="edge41" class="edge">
<title>gql_example_flutter&#45;&gt;gql_exec</title>
<path fill="none" stroke="#5b9240" d="M492.0567,-1515.713C501.6952,-1429.6691 550.6741,-1055.7715 698.1582,-793.841 766.9888,-671.5985 894.5058,-559.815 953.1637,-512.1525"/>
<polygon fill="#5b9240" stroke="#5b9240" points="955.3823,-514.8596 960.9703,-505.8582 950.9886,-509.4103 955.3823,-514.8596"/>
</g>
<!-- gql_example_flutter&#45;&gt;gql_link -->
<g id="edge39" class="edge">
<title>gql_example_flutter&#45;&gt;gql_link</title>
<path fill="none" stroke="#7c0063" d="M495.0112,-1515.6459C511.4392,-1456.3074 569.2881,-1264.6537 664.1582,-1132.841 756.1118,-1005.0806 908.1654,-891.4509 976.7118,-843.7212"/>
<polygon fill="#7c0063" stroke="#7c0063" points="978.804,-846.5298 985.0375,-837.9627 974.8221,-840.7727 978.804,-846.5298"/>
</g>
<!-- gql_example_flutter&#45;&gt;gql_http_link -->
<g id="edge40" class="edge">
<title>gql_example_flutter&#45;&gt;gql_http_link</title>
<path fill="none" stroke="#ab8a09" d="M526.478,-1515.7185C621.1803,-1468.0011 882.4982,-1333.3491 1087.1582,-1199.841 1098.7392,-1192.2863 1110.9627,-1183.3486 1121.6459,-1175.1886"/>
<polygon fill="#ab8a09" stroke="#ab8a09" points="1124.0709,-1177.7379 1129.8417,-1168.8525 1119.7895,-1172.1998 1124.0709,-1177.7379"/>
</g>
<!-- gql_example_flutter&#45;&gt;gql_build -->
<g id="edge43" class="edge">
<title>gql_example_flutter&#45;&gt;gql_build</title>
<path fill="none" stroke="#3380b0" stroke-dasharray="5,2" d="M475.2246,-1515.6258C424.2922,-1453.5013 257.269,-1249.7755 197.592,-1176.9847"/>
<polygon fill="#3380b0" stroke="#3380b0" points="200.23,-1174.682 191.1833,-1169.1678 194.8167,-1179.1201 200.23,-1174.682"/>
</g>
<!-- gql_example_cli_github -->
<g id="node14" class="node">
<title>gql_example_cli_github</title>
<polygon fill="none" stroke="#9b3b01" points="922.6582,-1551.841 737.6582,-1551.841 737.6582,-1515.841 922.6582,-1515.841 922.6582,-1551.841"/>
<text text-anchor="middle" x="830.1582" y="-1530.141" font-family="Times,serif" font-size="14.00" fill="#000000">gql_example_cli_github</text>
</g>
<!-- gql_example_cli_github&#45;&gt;gql_pedantic -->
<g id="edge49" class="edge">
<title>gql_example_cli_github&#45;&gt;gql_pedantic</title>
<path fill="none" stroke="#89da51" stroke-dasharray="5,2" d="M818.2054,-1515.6659C787.0153,-1467.0141 703.6113,-1328.7451 675.1582,-1199.841 622.9795,-963.4503 244.4385,-1058.9554 714.1582,-461.841 833.8683,-309.6639 1448.1867,-199.4544 1650.4779,-166.8247"/>
<polygon fill="#89da51" stroke="#89da51" points="1651.0469,-170.2782 1660.3664,-165.2386 1649.9383,-163.3666 1651.0469,-170.2782"/>
</g>
<!-- gql_example_cli_github&#45;&gt;gql -->
<g id="edge44" class="edge">
<title>gql_example_cli_github&#45;&gt;gql</title>
<path fill="none" stroke="#68217c" d="M889.5033,-1515.7638C1079.9282,-1457.1862 1666.0976,-1272.2122 1716.1582,-1199.841 1869.7475,-977.8015 1740.401,-616.9102 1698.8938,-515.2599"/>
<polygon fill="#68217c" stroke="#68217c" points="1702.112,-513.8831 1695.0532,-505.9822 1695.6443,-516.5605 1702.112,-513.8831"/>
</g>
<!-- gql_example_cli_github&#45;&gt;gql_exec -->
<g id="edge46" class="edge">
<title>gql_example_cli_github&#45;&gt;gql_exec</title>
<path fill="none" stroke="#5b9240" d="M819.1978,-1515.5078C790.599,-1466.469 714.1352,-1327.3354 688.1582,-1199.841 663.1439,-1077.0714 683.5991,-920.8955 739.1582,-793.841 791.5472,-674.0363 903.3056,-561.6964 955.8051,-513.1023"/>
<polygon fill="#5b9240" stroke="#5b9240" points="958.4024,-515.4693 963.4057,-506.1302 953.6705,-510.3108 958.4024,-515.4693"/>
</g>
<!-- gql_example_cli_github&#45;&gt;gql_link -->
<g id="edge45" class="edge">
<title>gql_example_cli_github&#45;&gt;gql_link</title>
<path fill="none" stroke="#7c0063" d="M815.9332,-1515.4441C773.1934,-1457.8037 652.3422,-1276.0296 710.1582,-1132.841 764.3823,-998.5484 906.8721,-889.7914 974.9325,-843.687"/>
<polygon fill="#7c0063" stroke="#7c0063" points="976.8847,-846.5921 983.2441,-838.1181 972.9883,-840.7767 976.8847,-846.5921"/>
</g>
<!-- gql_example_cli_github&#45;&gt;gql_transform_link -->
<g id="edge48" class="edge">
<title>gql_example_cli_github&#45;&gt;gql_transform_link</title>
<path fill="none" stroke="#21d185" d="M852.6062,-1515.6258C929.7216,-1453.0513 1183.8805,-1246.8164 1271.8634,-1175.4235"/>
<polygon fill="#21d185" stroke="#21d185" points="1274.2878,-1177.9636 1279.8476,-1168.9448 1269.877,-1172.528 1274.2878,-1177.9636"/>
</g>
<!-- gql_example_cli_github&#45;&gt;gql_http_link -->
<g id="edge47" class="edge">
<title>gql_example_cli_github&#45;&gt;gql_http_link</title>
<path fill="none" stroke="#ab8a09" d="M845.4723,-1515.6258C897.7023,-1453.5013 1068.9809,-1249.7755 1130.1784,-1176.9847"/>
<polygon fill="#ab8a09" stroke="#ab8a09" points="1132.9941,-1179.0744 1136.7504,-1169.1678 1127.6361,-1174.5698 1132.9941,-1179.0744"/>
</g>
<!-- gql_example_cli_github&#45;&gt;gql_build -->
<g id="edge50" class="edge">
<title>gql_example_cli_github&#45;&gt;gql_build</title>
<path fill="none" stroke="#3380b0" stroke-dasharray="5,2" d="M799.0544,-1515.6258C691.5576,-1452.6728 335.774,-1244.3163 215.9479,-1174.1429"/>
<polygon fill="#3380b0" stroke="#3380b0" points="217.4696,-1170.9781 207.0717,-1168.9448 213.9321,-1177.0185 217.4696,-1170.9781"/>
</g>
<!-- gql_example_cli -->
<g id="node15" class="node">
<title>gql_example_cli</title>
<polygon fill="none" stroke="#18510b" points="719.6582,-1551.841 588.6582,-1551.841 588.6582,-1515.841 719.6582,-1515.841 719.6582,-1551.841"/>
<text text-anchor="middle" x="654.1582" y="-1530.141" font-family="Times,serif" font-size="14.00" fill="#000000">gql_example_cli</text>
</g>
<!-- gql_example_cli&#45;&gt;gql_pedantic -->
<g id="edge55" class="edge">
<title>gql_example_cli&#45;&gt;gql_pedantic</title>
<path fill="none" stroke="#89da51" stroke-dasharray="5,2" d="M647.3879,-1515.4988C607.0728,-1402.7964 409.357,-797.9029 679.1582,-461.841 804.6883,-305.4819 1443.6548,-197.4896 1650.4722,-166.192"/>
<polygon fill="#89da51" stroke="#89da51" points="1651.2045,-169.6213 1660.5726,-164.6726 1650.1632,-162.6992 1651.2045,-169.6213"/>
</g>
<!-- gql_example_cli&#45;&gt;gql -->
<g id="edge51" class="edge">
<title>gql_example_cli&#45;&gt;gql</title>
<path fill="none" stroke="#68217c" d="M705.7542,-1515.8036C713.5866,-1513.1091 721.5805,-1510.3839 729.1582,-1507.841 1149.5548,-1366.7675 1415.192,-1556.8898 1678.1582,-1199.841 1759.5567,-1089.3202 1706.5091,-634.783 1691.0161,-516.2275"/>
<polygon fill="#68217c" stroke="#68217c" points="1694.4613,-515.5819 1689.6801,-506.1272 1687.5217,-516.4998 1694.4613,-515.5819"/>
</g>
<!-- gql_example_cli&#45;&gt;gql_exec -->
<g id="edge53" class="edge">
<title>gql_example_cli&#45;&gt;gql_exec</title>
<path fill="none" stroke="#5b9240" d="M651.5654,-1515.5641C640.2017,-1429.6024 600.4667,-1058.6318 719.1582,-793.841 774.3658,-670.6774 895.8859,-560.0888 953.1494,-512.5263"/>
<polygon fill="#5b9240" stroke="#5b9240" points="955.6173,-515.0282 961.1163,-505.9722 951.1701,-509.6224 955.6173,-515.0282"/>
</g>
<!-- gql_example_cli&#45;&gt;gql_link -->
<g id="edge52" class="edge">
<title>gql_example_cli&#45;&gt;gql_link</title>
<path fill="none" stroke="#7c0063" d="M651.5661,-1515.4943C644.0892,-1456.4825 626.9039,-1267.5692 691.1582,-1132.841 755.4225,-998.092 903.573,-889.5625 973.8413,-843.6009"/>
<polygon fill="#7c0063" stroke="#7c0063" points="975.9243,-846.4219 982.4173,-838.0498 972.1206,-840.5454 975.9243,-846.4219"/>
</g>
<!-- gql_example_cli&#45;&gt;gql_http_link -->
<g id="edge54" class="edge">
<title>gql_example_cli&#45;&gt;gql_http_link</title>
<path fill="none" stroke="#ab8a09" d="M677.8428,-1515.6258C759.288,-1452.9882 1027.906,-1246.4004 1120.4748,-1175.208"/>
<polygon fill="#ab8a09" stroke="#ab8a09" points="1122.8255,-1177.8156 1128.6186,-1168.9448 1118.558,-1172.2668 1122.8255,-1177.8156"/>
</g>
<!-- gql_example_cli&#45;&gt;gql_build -->
<g id="edge56" class="edge">
<title>gql_example_cli&#45;&gt;gql_build</title>
<path fill="none" stroke="#3380b0" stroke-dasharray="5,2" d="M631.4249,-1515.6258C553.2505,-1452.9882 295.4204,-1246.4004 206.5692,-1175.208"/>
<polygon fill="#3380b0" stroke="#3380b0" points="208.7449,-1172.4664 198.7525,-1168.9448 204.3679,-1177.9291 208.7449,-1172.4664"/>
</g>
<!-- gql_example_build -->
<g id="node16" class="node">
<title>gql_example_build</title>
<polygon fill="none" stroke="#628320" points="392.1582,-1551.841 242.1582,-1551.841 242.1582,-1515.841 392.1582,-1515.841 392.1582,-1551.841"/>
<text text-anchor="middle" x="317.1582" y="-1530.141" font-family="Times,serif" font-size="14.00" fill="#000000">gql_example_build</text>
</g>
<!-- gql_example_build&#45;&gt;gql_pedantic -->
<g id="edge57" class="edge">
<title>gql_example_build&#45;&gt;gql_pedantic</title>
<path fill="none" stroke="#89da51" stroke-dasharray="5,2" d="M315.3008,-1515.5855C304.6053,-1399.582 262.3539,-760.5291 594.1582,-461.841 755.2881,-316.7929 1436.327,-200.2704 1650.4455,-166.6521"/>
<polygon fill="#89da51" stroke="#89da51" points="1651.2459,-170.0696 1660.5854,-165.0673 1650.1649,-163.1536 1651.2459,-170.0696"/>
</g>
<!-- gql_example_build&#45;&gt;gql_build -->
<g id="edge58" class="edge">
<title>gql_example_build&#45;&gt;gql_build</title>
<path fill="none" stroke="#3380b0" stroke-dasharray="5,2" d="M310.4524,-1515.6258C287.767,-1454.0054 213.7942,-1253.0721 186.4447,-1178.7822"/>
<polygon fill="#3380b0" stroke="#3380b0" points="189.6445,-1177.3429 182.9051,-1169.1678 183.0755,-1179.7612 189.6445,-1177.3429"/>
</g>
<!-- gql_dio_link -->
<g id="node17" class="node">
<title>gql_dio_link</title>
<polygon fill="none" stroke="#45c9c3" points="1635.6582,-1168.841 1532.6582,-1168.841 1532.6582,-1132.841 1635.6582,-1132.841 1635.6582,-1168.841"/>
<text text-anchor="middle" x="1584.1582" y="-1147.141" font-family="Times,serif" font-size="14.00" fill="#000000">gql_dio_link</text>
</g>
<!-- gql_dio_link&#45;&gt;gql_pedantic -->
<g id="edge62" class="edge">
<title>gql_dio_link&#45;&gt;gql_pedantic</title>
<path fill="none" stroke="#89da51" stroke-dasharray="5,2" d="M1593.1643,-1132.5942C1631.0217,-1053.9493 1774.4725,-735.5469 1756.1582,-461.841 1749.3005,-359.3529 1729.6193,-238.7827 1720.243,-185.0923"/>
<polygon fill="#89da51" stroke="#89da51" points="1723.6426,-184.2161 1718.4594,-174.9756 1716.7489,-185.4315 1723.6426,-184.2161"/>
</g>
<!-- gql_dio_link&#45;&gt;gql -->
<g id="edge61" class="edge">
<title>gql_dio_link&#45;&gt;gql</title>
<path fill="none" stroke="#68217c" stroke-dasharray="5,2" d="M1586.9666,-1132.7635C1601.1952,-1041.1759 1665.3294,-628.3508 1682.769,-516.0939"/>
<polygon fill="#68217c" stroke="#68217c" points="1686.2756,-516.3211 1684.3523,-505.9023 1679.3586,-515.2465 1686.2756,-516.3211"/>
</g>
<!-- gql_dio_link&#45;&gt;gql_exec -->
<g id="edge60" class="edge">
<title>gql_dio_link&#45;&gt;gql_exec</title>
<path fill="none" stroke="#5b9240" d="M1567.7985,-1132.7635C1484.2446,-1040.4365 1105.2656,-621.6647 1007.3196,-513.4343"/>
<polygon fill="#5b9240" stroke="#5b9240" points="1009.8084,-510.9684 1000.5033,-505.9023 1004.6182,-515.6654 1009.8084,-510.9684"/>
</g>
<!-- gql_dio_link&#45;&gt;gql_link -->
<g id="edge59" class="edge">
<title>gql_dio_link&#45;&gt;gql_link</title>
<path fill="none" stroke="#7c0063" d="M1552.9988,-1132.81C1456.1574,-1076.7706 1160.4554,-905.6564 1052.3139,-843.078"/>
<polygon fill="#7c0063" stroke="#7c0063" points="1053.7542,-839.8677 1043.3459,-837.8884 1050.2482,-845.9264 1053.7542,-839.8677"/>
</g>
<!-- gql_dedupe_link -->
<g id="node18" class="node">
<title>gql_dedupe_link</title>
<polygon fill="none" stroke="#cf6bf6" points="1078.1582,-1168.841 944.1582,-1168.841 944.1582,-1132.841 1078.1582,-1132.841 1078.1582,-1168.841"/>
<text text-anchor="middle" x="1011.1582" y="-1147.141" font-family="Times,serif" font-size="14.00" fill="#000000">gql_dedupe_link</text>
</g>
<!-- gql_dedupe_link&#45;&gt;gql_pedantic -->
<g id="edge66" class="edge">
<title>gql_dedupe_link&#45;&gt;gql_pedantic</title>
<path fill="none" stroke="#89da51" stroke-dasharray="5,2" d="M1025.8228,-1132.8125C1064.3031,-1085.3235 1170.9395,-952.5499 1254.1582,-837.841 1347.0187,-709.842 1624.3594,-293.443 1697.3784,-183.6051"/>
<polygon fill="#89da51" stroke="#89da51" points="1700.423,-185.3474 1703.0436,-175.0818 1694.5932,-181.4726 1700.423,-185.3474"/>
</g>
<!-- gql_dedupe_link&#45;&gt;gql -->
<g id="edge65" class="edge">
<title>gql_dedupe_link&#45;&gt;gql</title>
<path fill="none" stroke="#68217c" stroke-dasharray="5,2" d="M1029.9302,-1132.5125C1079.3023,-1084.2995 1216.8571,-949.9284 1331.1582,-837.841 1454.9369,-716.4597 1602.6201,-571.0904 1661.2901,-513.3178"/>
<polygon fill="#68217c" stroke="#68217c" points="1663.9746,-515.5864 1668.6441,-506.076 1659.063,-510.5987 1663.9746,-515.5864"/>
</g>
<!-- gql_dedupe_link&#45;&gt;gql_exec -->
<g id="edge63" class="edge">
<title>gql_dedupe_link&#45;&gt;gql_exec</title>
<path fill="none" stroke="#5b9240" d="M1007.6022,-1132.5945C998.448,-1084.5794 974.2256,-950.6449 966.1582,-837.841 957.6185,-718.4327 972.8381,-575.8267 980.3401,-516.2156"/>
<polygon fill="#5b9240" stroke="#5b9240" points="983.84,-516.4397 981.6436,-506.0751 976.8971,-515.5472 983.84,-516.4397"/>
</g>
<!-- gql_dedupe_link&#45;&gt;gql_link -->
<g id="edge64" class="edge">
<title>gql_dedupe_link&#45;&gt;gql_link</title>
<path fill="none" stroke="#7c0063" d="M1011.2134,-1132.5735C1011.379,-1077.7547 1011.8726,-914.3715 1012.0726,-848.1694"/>
<polygon fill="#7c0063" stroke="#7c0063" points="1015.5729,-848.0626 1012.1032,-838.052 1008.5729,-848.0414 1015.5729,-848.0626"/>
</g>
<!-- example -->
<g id="node19" class="node">
<title>example</title>
<polygon fill="none" stroke="#ae12e6" points="1719.6582,-1551.841 1642.6582,-1551.841 1642.6582,-1515.841 1719.6582,-1515.841 1719.6582,-1551.841"/>
<text text-anchor="middle" x="1681.1582" y="-1530.141" font-family="Times,serif" font-size="14.00" fill="#000000">example</text>
</g>
<!-- example&#45;&gt;gql -->
<g id="edge67" class="edge">
<title>example&#45;&gt;gql</title>
<path fill="none" stroke="#68217c" d="M1692.6533,-1515.5915C1722.6482,-1466.7576 1802.8506,-1328.0819 1830.1582,-1199.841 1867.7395,-1023.3535 1869.2868,-969.992 1830.1582,-793.841 1805.6873,-683.6768 1737.1969,-566.2178 1704.6981,-514.6867"/>
<polygon fill="#68217c" stroke="#68217c" points="1707.5749,-512.6882 1699.2509,-506.1336 1701.6706,-516.4484 1707.5749,-512.6882"/>
</g>
<!-- example&#45;&gt;gql_exec -->
<g id="edge69" class="edge">
<title>example&#45;&gt;gql_exec</title>
<path fill="none" stroke="#5b9240" d="M1683.8068,-1515.4994C1691.4634,-1456.5027 1709.2067,-1267.63 1645.1582,-1132.841 1499.2854,-825.8543 1141.777,-585.019 1023.1344,-511.2675"/>
<polygon fill="#5b9240" stroke="#5b9240" points="1024.7033,-508.1228 1014.3561,-505.8454 1021.0247,-514.0783 1024.7033,-508.1228"/>
</g>
<!-- example&#45;&gt;gql_link -->
<g id="edge68" class="edge">
<title>example&#45;&gt;gql_link</title>
<path fill="none" stroke="#7c0063" d="M1642.4303,-1525.9188C1481.3381,-1492.1107 867.6676,-1354.559 759.1582,-1199.841 665.9147,-1066.8899 883.9902,-903.3394 974.7825,-843.3343"/>
<polygon fill="#7c0063" stroke="#7c0063" points="976.7051,-846.259 983.1568,-837.8551 972.8725,-840.4014 976.7051,-846.259"/>
</g>
<!-- example&#45;&gt;gql_dio_link -->
<g id="edge70" class="edge">
<title>example&#45;&gt;gql_dio_link</title>
<path fill="none" stroke="#45c9c3" d="M1676.545,-1515.6258C1660.9707,-1454.1314 1610.2576,-1253.8933 1591.3505,-1179.2396"/>
<polygon fill="#45c9c3" stroke="#45c9c3" points="1594.6478,-1178.0024 1588.7997,-1169.1678 1587.862,-1179.721 1594.6478,-1178.0024"/>
</g>
<!-- end_to_end_test -->
<g id="node20" class="node">
<title>end_to_end_test</title>
<polygon fill="none" stroke="#97b336" points="212.1582,-1551.841 78.1582,-1551.841 78.1582,-1515.841 212.1582,-1515.841 212.1582,-1551.841"/>
<text text-anchor="middle" x="145.1582" y="-1530.141" font-family="Times,serif" font-size="14.00" fill="#000000">end_to_end_test</text>
</g>
<!-- end_to_end_test&#45;&gt;gql_exec -->
<g id="edge73" class="edge">
<title>end_to_end_test&#45;&gt;gql_exec</title>
<path fill="none" stroke="#5b9240" d="M135.4403,-1515.7897C89.0716,-1426.955 -100.5137,-1030.9635 70.1582,-793.841 176.1274,-646.6131 758.1617,-529.2847 933.8978,-496.8096"/>
<polygon fill="#5b9240" stroke="#5b9240" points="934.7064,-500.2197 943.9093,-494.9703 933.4415,-493.3349 934.7064,-500.2197"/>
</g>
<!-- end_to_end_test&#45;&gt;gql_code_builder -->
<g id="edge72" class="edge">
<title>end_to_end_test&#45;&gt;gql_code_builder</title>
<path fill="none" stroke="#1da059" d="M143.208,-1515.4617C137.4066,-1458.603 120.9751,-1280.5059 126.1582,-1132.841 129.8486,-1027.7022 140.4914,-903.0639 145.4967,-848.1824"/>
<polygon fill="#1da059" stroke="#1da059" points="148.9876,-848.4413 146.4188,-838.1626 142.017,-847.7998 148.9876,-848.4413"/>
</g>
<!-- end_to_end_test&#45;&gt;gql_build -->
<g id="edge71" class="edge">
<title>end_to_end_test&#45;&gt;gql_build</title>
<path fill="none" stroke="#3380b0" d="M146.6326,-1515.6258C151.6099,-1454.1314 167.8172,-1253.8933 173.8596,-1179.2396"/>
<polygon fill="#3380b0" stroke="#3380b0" points="177.3566,-1179.4176 174.6749,-1169.1678 170.3794,-1178.8528 177.3566,-1179.4176"/>
</g>
</g>
</svg>
