<?xml version="1.0" encoding="UTF-8" standalone="no"?>
<!DOCTYPE svg PUBLIC "-//W3C//DTD SVG 1.1//EN"
 "http://www.w3.org/Graphics/SVG/1.1/DTD/svg11.dtd">
<!-- Generated by graphviz version 5.0.0 (0)
 -->
<!-- Title: packages Pages: 1 -->
<svg width="720pt" height="646pt"
 viewBox="0.00 0.00 720.00 645.95" xmlns="http://www.w3.org/2000/svg" xmlns:xlink="http://www.w3.org/1999/xlink">
<g id="graph0" class="graph" transform="scale(0.470812 0.470812) rotate(0) translate(4 1368)">
<title>packages</title>
<polygon fill="white" stroke="transparent" points="-4,4 -4,-1368 1525.27,-1368 1525.27,4 -4,4"/>
<g id="clust1" class="cluster">
<title>cluster </title>
<polygon fill="none" stroke="#a473ff" points="255.94,-27.98 255.94,-461.66 357.94,-461.66 357.94,-27.98 255.94,-27.98"/>
</g>
<g id="clust2" class="cluster">
<title>cluster links</title>
<polygon fill="none" stroke="#e2446b" points="365.94,-279.79 365.94,-1045.73 1097.94,-1045.73 1097.94,-279.79 365.94,-279.79"/>
<text text-anchor="middle" x="731.94" y="-1030.53" font-family="Times,serif" font-size="14.00">links</text>
</g>
<g id="clust3" class="cluster">
<title>cluster codegen</title>
<polygon fill="none" stroke="#856663" points="8.94,-531.61 8.94,-1336.02 134.94,-1336.02 134.94,-531.61 8.94,-531.61"/>
<text text-anchor="middle" x="71.94" y="-1320.82" font-family="Times,serif" font-size="14.00">codegen</text>
</g>
<g id="clust4" class="cluster">
<title>cluster examples</title>
<polygon fill="none" stroke="#e8f445" points="433.94,-1073.71 433.94,-1336.02 1356.94,-1336.02 1356.94,-1073.71 433.94,-1073.71"/>
<text text-anchor="middle" x="895.44" y="-1320.82" font-family="Times,serif" font-size="14.00">examples</text>
</g>
<!-- gql_pedantic -->
<g id="node1" class="node">
<title>gql_pedantic</title>
<polygon fill="none" stroke="#89da51" points="349.94,-136.98 263.94,-136.98 263.94,-100.98 349.94,-100.98 349.94,-136.98"/>
<text text-anchor="middle" x="306.94" y="-115.28" font-family="Times,serif" font-size="14.00">gql_pedantic</text>
</g>
<!-- gql -->
<g id="node2" class="node">
<title>gql</title>
<polygon fill="none" stroke="#68217c" points="349.94,-388.98 295.94,-388.98 295.94,-352.98 349.94,-352.98 349.94,-388.98"/>
<text text-anchor="middle" x="322.94" y="-367.28" font-family="Times,serif" font-size="14.00">gql</text>
</g>
<!-- gql&#45;&gt;gql_pedantic -->
<g id="edge1" class="edge">
<title>gql&#45;&gt;gql_pedantic</title>
<path fill="none" stroke="#89da51" stroke-dasharray="5,2" d="M321.84,-352.8C319.11,-310.16 312.01,-199.22 308.69,-147.4"/>
<polygon fill="#89da51" stroke="#89da51" points="312.17,-147.04 308.04,-137.28 305.19,-147.49 312.17,-147.04"/>
</g>
<!-- gql_exec -->
<g id="node3" class="node">
<title>gql_exec</title>
<polygon fill="none" stroke="#5b9240" points="998.44,-388.98 933.44,-388.98 933.44,-352.98 998.44,-352.98 998.44,-388.98"/>
<text text-anchor="middle" x="965.94" y="-367.28" font-family="Times,serif" font-size="14.00">gql_exec</text>
</g>
<!-- gql_exec&#45;&gt;gql_pedantic -->
<g id="edge3" class="edge">
<title>gql_exec&#45;&gt;gql_pedantic</title>
<path fill="none" stroke="#89da51" stroke-dasharray="5,2" d="M933.26,-357.58C826.97,-317.26 490.42,-189.59 359.63,-139.97"/>
<polygon fill="#89da51" stroke="#89da51" points="360.8,-136.67 350.21,-136.4 358.32,-143.22 360.8,-136.67"/>
</g>
<!-- gql_exec&#45;&gt;gql -->
<g id="edge2" class="edge">
<title>gql_exec&#45;&gt;gql</title>
<path fill="none" stroke="#68217c" d="M933.15,-370.98C742.16,-370.98 551.18,-370.98 360.19,-370.98"/>
<polygon fill="#68217c" stroke="#68217c" points="359.94,-367.48 349.94,-370.98 359.94,-374.48 359.94,-367.48"/>
</g>
<!-- gql_link -->
<g id="node4" class="node">
<title>gql_link</title>
<polygon fill="none" stroke="#7c0063" points="971.94,-640.98 909.94,-640.98 909.94,-604.98 971.94,-604.98 971.94,-640.98"/>
<text text-anchor="middle" x="940.94" y="-619.28" font-family="Times,serif" font-size="14.00">gql_link</text>
</g>
<!-- gql_link&#45;&gt;gql_pedantic -->
<g id="edge6" class="edge">
<title>gql_link&#45;&gt;gql_pedantic</title>
<path fill="none" stroke="#89da51" stroke-dasharray="5,2" d="M937.69,-604.91C927.83,-557.48 894.02,-422.47 815.94,-344.98 683.49,-213.55 461.22,-152.37 360.01,-130.25"/>
<polygon fill="#89da51" stroke="#89da51" points="360.53,-126.78 350.02,-128.11 359.06,-133.62 360.53,-126.78"/>
</g>
<!-- gql_link&#45;&gt;gql -->
<g id="edge4" class="edge">
<title>gql_link&#45;&gt;gql</title>
<path fill="none" stroke="#68217c" d="M909.87,-612.34C821.63,-584.45 562.85,-499.13 361.94,-396.98 360.22,-396.1 358.47,-395.17 356.73,-394.21"/>
<polygon fill="#68217c" stroke="#68217c" points="358.49,-391.18 348.1,-389.14 354.95,-397.22 358.49,-391.18"/>
</g>
<!-- gql_link&#45;&gt;gql_exec -->
<g id="edge5" class="edge">
<title>gql_link&#45;&gt;gql_exec</title>
<path fill="none" stroke="#5b9240" d="M942.65,-604.8C946.92,-562.16 958.01,-451.22 963.19,-399.4"/>
<polygon fill="#5b9240" stroke="#5b9240" points="966.69,-399.58 964.21,-389.28 959.73,-398.89 966.69,-399.58"/>
</g>
<!-- gql_websocket_link -->
<g id="node5" class="node">
<title>gql_websocket_link</title>
<polygon fill="none" stroke="#bb5677" points="1089.44,-891.98 964.44,-891.98 964.44,-855.98 1089.44,-855.98 1089.44,-891.98"/>
<text text-anchor="middle" x="1026.94" y="-870.28" font-family="Times,serif" font-size="14.00">gql_websocket_link</text>
</g>
<!-- gql_websocket_link&#45;&gt;gql_pedantic -->
<g id="edge10" class="edge">
<title>gql_websocket_link&#45;&gt;gql_pedantic</title>
<path fill="none" stroke="#89da51" stroke-dasharray="5,2" d="M1010.54,-855.84C916.11,-757.08 441.83,-261.05 330.4,-144.52"/>
<polygon fill="#89da51" stroke="#89da51" points="332.74,-141.9 323.3,-137.09 327.68,-146.74 332.74,-141.9"/>
</g>
<!-- gql_websocket_link&#45;&gt;gql -->
<g id="edge7" class="edge">
<title>gql_websocket_link&#45;&gt;gql</title>
<path fill="none" stroke="#68217c" d="M1002.7,-855.73C897.03,-780.53 476.43,-481.21 355.57,-395.2"/>
<polygon fill="#68217c" stroke="#68217c" points="357.24,-392.1 347.07,-389.15 353.19,-397.8 357.24,-392.1"/>
</g>
<!-- gql_websocket_link&#45;&gt;gql_exec -->
<g id="edge8" class="edge">
<title>gql_websocket_link&#45;&gt;gql_exec</title>
<path fill="none" stroke="#5b9240" d="M1025.14,-855.85C1020.55,-812.48 1007.96,-694.85 995.94,-596.98 987.16,-525.55 975.64,-441.55 969.76,-399.25"/>
<polygon fill="#5b9240" stroke="#5b9240" points="973.2,-398.6 968.35,-389.18 966.27,-399.57 973.2,-398.6"/>
</g>
<!-- gql_websocket_link&#45;&gt;gql_link -->
<g id="edge9" class="edge">
<title>gql_websocket_link&#45;&gt;gql_link</title>
<path fill="none" stroke="#7c0063" d="M1021.02,-855.86C1006.33,-813.31 968.03,-702.44 950.26,-650.97"/>
<polygon fill="#7c0063" stroke="#7c0063" points="953.46,-649.52 946.89,-641.21 946.84,-651.81 953.46,-649.52"/>
</g>
<!-- gql_transform_link -->
<g id="node6" class="node">
<title>gql_transform_link</title>
<polygon fill="none" stroke="#21d185" points="495.94,-891.98 373.94,-891.98 373.94,-855.98 495.94,-855.98 495.94,-891.98"/>
<text text-anchor="middle" x="434.94" y="-870.28" font-family="Times,serif" font-size="14.00">gql_transform_link</text>
</g>
<!-- gql_transform_link&#45;&gt;gql_pedantic -->
<g id="edge14" class="edge">
<title>gql_transform_link&#45;&gt;gql_pedantic</title>
<path fill="none" stroke="#89da51" stroke-dasharray="5,2" d="M432.97,-855.57C425.34,-789.01 396.25,-544.34 358.94,-344.98 345.44,-272.87 324.67,-188.88 313.92,-146.85"/>
<polygon fill="#89da51" stroke="#89da51" points="317.29,-145.91 311.41,-137.09 310.51,-147.65 317.29,-145.91"/>
</g>
<!-- gql_transform_link&#45;&gt;gql -->
<g id="edge13" class="edge">
<title>gql_transform_link&#45;&gt;gql</title>
<path fill="none" stroke="#68217c" stroke-dasharray="5,2" d="M431.08,-855.73C414.5,-781.59 349.22,-489.56 328.96,-398.94"/>
<polygon fill="#68217c" stroke="#68217c" points="332.37,-398.15 326.77,-389.15 325.54,-399.68 332.37,-398.15"/>
</g>
<!-- gql_transform_link&#45;&gt;gql_exec -->
<g id="edge11" class="edge">
<title>gql_transform_link&#45;&gt;gql_exec</title>
<path fill="none" stroke="#5b9240" d="M453.21,-855.73C532.6,-780.83 847.63,-483.6 940.22,-396.25"/>
<polygon fill="#5b9240" stroke="#5b9240" points="942.86,-398.56 947.73,-389.15 938.06,-393.47 942.86,-398.56"/>
</g>
<!-- gql_transform_link&#45;&gt;gql_link -->
<g id="edge12" class="edge">
<title>gql_transform_link&#45;&gt;gql_link</title>
<path fill="none" stroke="#7c0063" d="M469.72,-855.86C560.47,-811.2 804.11,-691.31 900.69,-643.78"/>
<polygon fill="#7c0063" stroke="#7c0063" points="902.42,-646.84 909.84,-639.28 899.33,-640.55 902.42,-646.84"/>
</g>
<!-- gql_http_link -->
<g id="node7" class="node">
<title>gql_http_link</title>
<polygon fill="none" stroke="#ab8a09" points="821.44,-891.98 732.44,-891.98 732.44,-855.98 821.44,-855.98 821.44,-891.98"/>
<text text-anchor="middle" x="776.94" y="-870.28" font-family="Times,serif" font-size="14.00">gql_http_link</text>
</g>
<!-- gql_http_link&#45;&gt;gql_pedantic -->
<g id="edge18" class="edge">
<title>gql_http_link&#45;&gt;gql_pedantic</title>
<path fill="none" stroke="#89da51" stroke-dasharray="5,2" d="M766.24,-855.84C704.84,-757.47 397.46,-265.01 323.13,-145.93"/>
<polygon fill="#89da51" stroke="#89da51" points="325.88,-143.72 317.62,-137.09 319.94,-147.43 325.88,-143.72"/>
</g>
<!-- gql_http_link&#45;&gt;gql -->
<g id="edge15" class="edge">
<title>gql_http_link&#45;&gt;gql</title>
<path fill="none" stroke="#68217c" d="M761.31,-855.73C693.57,-780.98 425.17,-484.8 345.4,-396.77"/>
<polygon fill="#68217c" stroke="#68217c" points="347.81,-394.21 338.5,-389.15 342.62,-398.91 347.81,-394.21"/>
</g>
<!-- gql_http_link&#45;&gt;gql_exec -->
<g id="edge16" class="edge">
<title>gql_http_link&#45;&gt;gql_exec</title>
<path fill="none" stroke="#5b9240" d="M784.87,-855.71C802.33,-817.45 844.98,-722.44 875.94,-640.98 909.18,-553.49 942.67,-447.64 957.71,-398.92"/>
<polygon fill="#5b9240" stroke="#5b9240" points="961.13,-399.73 960.72,-389.14 954.43,-397.67 961.13,-399.73"/>
</g>
<!-- gql_http_link&#45;&gt;gql_link -->
<g id="edge17" class="edge">
<title>gql_http_link&#45;&gt;gql_link</title>
<path fill="none" stroke="#7c0063" d="M788.21,-855.86C816.47,-812.95 890.48,-700.58 924,-649.69"/>
<polygon fill="#7c0063" stroke="#7c0063" points="927.01,-651.49 929.58,-641.21 921.16,-647.64 927.01,-651.49"/>
</g>
<!-- gql_error_link -->
<g id="node8" class="node">
<title>gql_error_link</title>
<polygon fill="none" stroke="#5f79bc" points="609.44,-891.98 514.44,-891.98 514.44,-855.98 609.44,-855.98 609.44,-891.98"/>
<text text-anchor="middle" x="561.94" y="-870.28" font-family="Times,serif" font-size="14.00">gql_error_link</text>
</g>
<!-- gql_error_link&#45;&gt;gql_pedantic -->
<g id="edge22" class="edge">
<title>gql_error_link&#45;&gt;gql_pedantic</title>
<path fill="none" stroke="#89da51" stroke-dasharray="5,2" d="M556.13,-855.84C522.89,-757.67 356.72,-266.99 315.97,-146.65"/>
<polygon fill="#89da51" stroke="#89da51" points="319.25,-145.44 312.73,-137.09 312.62,-147.69 319.25,-145.44"/>
</g>
<!-- gql_error_link&#45;&gt;gql -->
<g id="edge21" class="edge">
<title>gql_error_link&#45;&gt;gql</title>
<path fill="none" stroke="#68217c" stroke-dasharray="5,2" d="M553.71,-855.73C518.26,-781.44 378.46,-488.37 335.54,-398.39"/>
<polygon fill="#68217c" stroke="#68217c" points="338.59,-396.67 331.13,-389.15 332.27,-399.69 338.59,-396.67"/>
</g>
<!-- gql_error_link&#45;&gt;gql_exec -->
<g id="edge19" class="edge">
<title>gql_error_link&#45;&gt;gql_exec</title>
<path fill="none" stroke="#5b9240" d="M589.53,-855.72C643.26,-820.93 763,-737.43 835.94,-640.98 848.89,-623.85 846.77,-616.41 855.94,-596.98 890.09,-524.56 932.03,-439.9 952.88,-398.08"/>
<polygon fill="#5b9240" stroke="#5b9240" points="956.02,-399.63 957.35,-389.12 949.75,-396.5 956.02,-399.63"/>
</g>
<!-- gql_error_link&#45;&gt;gql_link -->
<g id="edge20" class="edge">
<title>gql_error_link&#45;&gt;gql_link</title>
<path fill="none" stroke="#7c0063" d="M587.99,-855.86C654.6,-812.1 831.17,-696.09 906.31,-646.73"/>
<polygon fill="#7c0063" stroke="#7c0063" points="908.52,-649.47 914.95,-641.05 904.67,-643.61 908.52,-649.47"/>
</g>
<!-- gql_code_builder -->
<g id="node9" class="node">
<title>gql_code_builder</title>
<polygon fill="none" stroke="#1da059" points="127.44,-640.98 16.44,-640.98 16.44,-604.98 127.44,-604.98 127.44,-640.98"/>
<text text-anchor="middle" x="71.94" y="-619.28" font-family="Times,serif" font-size="14.00">gql_code_builder</text>
</g>
<!-- gql_code_builder&#45;&gt;gql_pedantic -->
<g id="edge25" class="edge">
<title>gql_code_builder&#45;&gt;gql_pedantic</title>
<path fill="none" stroke="#89da51" stroke-dasharray="5,2" d="M80.02,-604.7C114.88,-530.25 252.34,-236.6 294.55,-146.45"/>
<polygon fill="#89da51" stroke="#89da51" points="297.81,-147.73 298.88,-137.19 291.47,-144.76 297.81,-147.73"/>
</g>
<!-- gql_code_builder&#45;&gt;gql -->
<g id="edge23" class="edge">
<title>gql_code_builder&#45;&gt;gql</title>
<path fill="none" stroke="#68217c" d="M89.19,-604.8C132.8,-561.35 247.6,-447.02 298.28,-396.53"/>
<polygon fill="#68217c" stroke="#68217c" points="300.95,-398.82 305.56,-389.28 296.01,-393.86 300.95,-398.82"/>
</g>
<!-- gql_code_builder&#45;&gt;gql_exec -->
<g id="edge24" class="edge">
<title>gql_code_builder&#45;&gt;gql_exec</title>
<path fill="none" stroke="#5b9240" d="M127.52,-606.44C292.37,-560.34 776.19,-425.04 923.13,-383.95"/>
<polygon fill="#5b9240" stroke="#5b9240" points="924.43,-387.22 933.12,-381.16 922.54,-380.48 924.43,-387.22"/>
</g>
<!-- gql_build -->
<g id="node10" class="node">
<title>gql_build</title>
<polygon fill="none" stroke="#3380b0" points="126.94,-891.98 58.94,-891.98 58.94,-855.98 126.94,-855.98 126.94,-891.98"/>
<text text-anchor="middle" x="92.94" y="-870.28" font-family="Times,serif" font-size="14.00">gql_build</text>
</g>
<!-- gql_build&#45;&gt;gql_pedantic -->
<g id="edge28" class="edge">
<title>gql_build&#45;&gt;gql_pedantic</title>
<path fill="none" stroke="#89da51" stroke-dasharray="5,2" d="M80.44,-855.94C50.37,-812.78 -21.5,-695.6 6.94,-596.98 62.93,-402.77 223.94,-211.36 283.99,-144.71"/>
<polygon fill="#89da51" stroke="#89da51" points="286.67,-146.97 290.8,-137.21 281.49,-142.27 286.67,-146.97"/>
</g>
<!-- gql_build&#45;&gt;gql -->
<g id="edge26" class="edge">
<title>gql_build&#45;&gt;gql</title>
<path fill="none" stroke="#68217c" d="M96.67,-855.92C106.68,-811.76 136.36,-690.58 179.94,-596.98 215.79,-519.97 273.74,-437.73 303.67,-397.35"/>
<polygon fill="#68217c" stroke="#68217c" points="306.61,-399.26 309.78,-389.15 301,-395.07 306.61,-399.26"/>
</g>
<!-- gql_build&#45;&gt;gql_code_builder -->
<g id="edge27" class="edge">
<title>gql_build&#45;&gt;gql_code_builder</title>
<path fill="none" stroke="#1da059" d="M91.49,-855.86C87.91,-813.4 78.59,-702.9 74.24,-651.29"/>
<polygon fill="#1da059" stroke="#1da059" points="77.72,-650.88 73.39,-641.21 70.74,-651.47 77.72,-650.88"/>
</g>
<!-- gql_example_http_auth_link -->
<g id="node11" class="node">
<title>gql_example_http_auth_link</title>
<polygon fill="none" stroke="#8a0733" points="781.44,-1182.98 608.44,-1182.98 608.44,-1146.98 781.44,-1146.98 781.44,-1182.98"/>
<text text-anchor="middle" x="694.94" y="-1161.28" font-family="Times,serif" font-size="14.00">gql_example_http_auth_link</text>
</g>
<!-- gql_example_http_auth_link&#45;&gt;gql_pedantic -->
<g id="edge36" class="edge">
<title>gql_example_http_auth_link&#45;&gt;gql_pedantic</title>
<path fill="none" stroke="#89da51" stroke-dasharray="5,2" d="M752.76,-1146.97C906.77,-1101.09 1317.71,-974.8 1353.94,-922.98 1382.5,-882.12 1444.82,-854.76 1345.94,-596.98 1191.4,-194.15 550.18,-131.5 360.2,-121.77"/>
<polygon fill="#89da51" stroke="#89da51" points="360.34,-118.27 350.18,-121.28 360,-125.26 360.34,-118.27"/>
</g>
<!-- gql_example_http_auth_link&#45;&gt;gql -->
<g id="edge29" class="edge">
<title>gql_example_http_auth_link&#45;&gt;gql</title>
<path fill="none" stroke="#68217c" d="M651.68,-1146.88C549.97,-1105.7 300.83,-998.83 255.94,-922.98 151.37,-746.29 267.27,-482.04 309.09,-398.37"/>
<polygon fill="#68217c" stroke="#68217c" points="312.29,-399.8 313.69,-389.3 306.05,-396.63 312.29,-399.8"/>
</g>
<!-- gql_example_http_auth_link&#45;&gt;gql_exec -->
<g id="edge31" class="edge">
<title>gql_example_http_auth_link&#45;&gt;gql_exec</title>
<path fill="none" stroke="#5b9240" d="M749.44,-1146.93C895.61,-1100.67 1287.62,-972.93 1321.94,-922.98 1403.98,-803.55 1391.85,-723.88 1321.94,-596.98 1254.01,-473.7 1086.92,-408.59 1008.22,-383.88"/>
<polygon fill="#5b9240" stroke="#5b9240" points="1009.21,-380.52 998.63,-380.93 1007.16,-387.22 1009.21,-380.52"/>
</g>
<!-- gql_example_http_auth_link&#45;&gt;gql_link -->
<g id="edge33" class="edge">
<title>gql_example_http_auth_link&#45;&gt;gql_link</title>
<path fill="none" stroke="#7c0063" d="M760.63,-1146.91C855.16,-1118.4 1026.14,-1051.17 1098.94,-922.98 1156.25,-822.05 1030.81,-698.68 970.7,-647.73"/>
<polygon fill="#7c0063" stroke="#7c0063" points="972.6,-644.76 962.68,-641.03 968.11,-650.13 972.6,-644.76"/>
</g>
<!-- gql_example_http_auth_link&#45;&gt;gql_transform_link -->
<g id="edge34" class="edge">
<title>gql_example_http_auth_link&#45;&gt;gql_transform_link</title>
<path fill="none" stroke="#21d185" d="M679.45,-1146.77C635.28,-1097.67 508.58,-956.84 457.09,-899.6"/>
<polygon fill="#21d185" stroke="#21d185" points="459.63,-897.2 450.34,-892.1 454.43,-901.88 459.63,-897.2"/>
</g>
<!-- gql_example_http_auth_link&#45;&gt;gql_http_link -->
<g id="edge32" class="edge">
<title>gql_example_http_auth_link&#45;&gt;gql_http_link</title>
<path fill="none" stroke="#ab8a09" d="M699.82,-1146.77C713.58,-1098.28 752.73,-960.28 769.34,-901.75"/>
<polygon fill="#ab8a09" stroke="#ab8a09" points="772.71,-902.68 772.08,-892.1 765.98,-900.77 772.71,-902.68"/>
</g>
<!-- gql_example_http_auth_link&#45;&gt;gql_error_link -->
<g id="edge30" class="edge">
<title>gql_example_http_auth_link&#45;&gt;gql_error_link</title>
<path fill="none" stroke="#5f79bc" d="M687.01,-1146.77C664.65,-1098.18 600.93,-959.71 574.09,-901.39"/>
<polygon fill="#5f79bc" stroke="#5f79bc" points="577.18,-899.72 569.82,-892.1 570.82,-902.65 577.18,-899.72"/>
</g>
<!-- gql_example_http_auth_link&#45;&gt;gql_build -->
<g id="edge35" class="edge">
<title>gql_example_http_auth_link&#45;&gt;gql_build</title>
<path fill="none" stroke="#3380b0" stroke-dasharray="5,2" d="M659.08,-1146.77C554.44,-1096.53 249.72,-950.25 136.21,-895.76"/>
<polygon fill="#3380b0" stroke="#3380b0" points="137.63,-892.55 127.1,-891.38 134.6,-898.86 137.63,-892.55"/>
</g>
<!-- gql_example_flutter -->
<g id="node12" class="node">
<title>gql_example_flutter</title>
<polygon fill="none" stroke="#671702" points="1208.44,-1182.98 1081.44,-1182.98 1081.44,-1146.98 1208.44,-1146.98 1208.44,-1182.98"/>
<text text-anchor="middle" x="1144.94" y="-1161.28" font-family="Times,serif" font-size="14.00">gql_example_flutter</text>
</g>
<!-- gql_example_flutter&#45;&gt;gql_pedantic -->
<g id="edge41" class="edge">
<title>gql_example_flutter&#45;&gt;gql_pedantic</title>
<path fill="none" stroke="#89da51" stroke-dasharray="5,2" d="M1177.88,-1146.97C1238.41,-1113.59 1365.63,-1033.08 1414.94,-922.98 1525.01,-677.18 1450.74,-503.4 1232.94,-344.98 953.05,-141.4 512.25,-120.29 360.41,-119.38"/>
<polygon fill="#89da51" stroke="#89da51" points="360.42,-115.88 350.41,-119.34 360.4,-122.88 360.42,-115.88"/>
</g>
<!-- gql_example_flutter&#45;&gt;gql -->
<g id="edge37" class="edge">
<title>gql_example_flutter&#45;&gt;gql</title>
<path fill="none" stroke="#68217c" d="M1096.61,-1146.91C1088.72,-1144.2 1080.61,-1141.48 1072.94,-1138.98 758.88,-1036.8 567.87,-1181.17 361.94,-922.98 296.73,-841.23 314.32,-498.92 320.96,-399.29"/>
<polygon fill="#68217c" stroke="#68217c" points="324.46,-399.35 321.65,-389.14 317.48,-398.87 324.46,-399.35"/>
</g>
<!-- gql_example_flutter&#45;&gt;gql_exec -->
<g id="edge40" class="edge">
<title>gql_example_flutter&#45;&gt;gql_exec</title>
<path fill="none" stroke="#5b9240" d="M1188.16,-1146.93C1261.32,-1115.41 1407.3,-1040.33 1465.94,-922.98 1497.25,-860.3 1574.78,-770.09 1460.94,-596.98 1356.11,-437.58 1108.3,-389.63 1008.59,-376.5"/>
<polygon fill="#5b9240" stroke="#5b9240" points="1008.93,-373.02 998.57,-375.24 1008.05,-379.96 1008.93,-373.02"/>
</g>
<!-- gql_example_flutter&#45;&gt;gql_link -->
<g id="edge38" class="edge">
<title>gql_example_flutter&#45;&gt;gql_link</title>
<path fill="none" stroke="#7c0063" d="M1157.48,-1146.86C1190.96,-1098.94 1276.56,-960.13 1226.94,-855.98 1175.69,-748.43 1047.52,-674.53 981.56,-642.28"/>
<polygon fill="#7c0063" stroke="#7c0063" points="982.83,-639 972.3,-637.82 979.79,-645.31 982.83,-639"/>
</g>
<!-- gql_example_flutter&#45;&gt;gql_http_link -->
<g id="edge39" class="edge">
<title>gql_example_flutter&#45;&gt;gql_http_link</title>
<path fill="none" stroke="#ab8a09" d="M1121.25,-1146.71C1068.28,-1107.89 936.62,-1010.31 830.94,-922.98 821.76,-915.39 811.96,-906.83 803.26,-899.06"/>
<polygon fill="#ab8a09" stroke="#ab8a09" points="805.41,-896.29 795.64,-892.2 800.73,-901.49 805.41,-896.29"/>
</g>
<!-- gql_example_flutter&#45;&gt;gql_build -->
<g id="edge42" class="edge">
<title>gql_example_flutter&#45;&gt;gql_build</title>
<path fill="none" stroke="#3380b0" stroke-dasharray="5,2" d="M1097.46,-1146.96C1089.31,-1144.19 1080.9,-1141.43 1072.94,-1138.98 714.78,-1028.71 275.34,-919.45 136.86,-885.63"/>
<polygon fill="#3380b0" stroke="#3380b0" points="137.58,-882.2 127.04,-883.23 135.92,-889 137.58,-882.2"/>
</g>
<!-- gql_dio_link -->
<g id="node13" class="node">
<title>gql_dio_link</title>
<polygon fill="none" stroke="#45c9c3" points="713.94,-891.98 627.94,-891.98 627.94,-855.98 713.94,-855.98 713.94,-891.98"/>
<text text-anchor="middle" x="670.94" y="-870.28" font-family="Times,serif" font-size="14.00">gql_dio_link</text>
</g>
<!-- gql_dio_link&#45;&gt;gql_pedantic -->
<g id="edge46" class="edge">
<title>gql_dio_link&#45;&gt;gql_pedantic</title>
<path fill="none" stroke="#89da51" stroke-dasharray="5,2" d="M662.65,-855.84C615.15,-757.57 377.52,-266 319.66,-146.29"/>
<polygon fill="#89da51" stroke="#89da51" points="322.71,-144.57 315.21,-137.09 316.41,-147.62 322.71,-144.57"/>
</g>
<!-- gql_dio_link&#45;&gt;gql -->
<g id="edge45" class="edge">
<title>gql_dio_link&#45;&gt;gql</title>
<path fill="none" stroke="#68217c" stroke-dasharray="5,2" d="M658.96,-855.73C607.19,-781.21 402.54,-486.58 340.72,-397.58"/>
<polygon fill="#68217c" stroke="#68217c" points="343.44,-395.37 334.86,-389.15 337.69,-399.36 343.44,-395.37"/>
</g>
<!-- gql_dio_link&#45;&gt;gql_exec -->
<g id="edge43" class="edge">
<title>gql_dio_link&#45;&gt;gql_exec</title>
<path fill="none" stroke="#5b9240" d="M687.44,-855.92C722.29,-819.17 804.44,-728.73 855.94,-640.98 868.93,-618.83 930.84,-461.75 955.63,-398.39"/>
<polygon fill="#5b9240" stroke="#5b9240" points="958.9,-399.64 959.28,-389.06 952.38,-397.09 958.9,-399.64"/>
</g>
<!-- gql_dio_link&#45;&gt;gql_link -->
<g id="edge44" class="edge">
<title>gql_dio_link&#45;&gt;gql_link</title>
<path fill="none" stroke="#7c0063" d="M689.49,-855.86C736.51,-812.51 860.4,-698.25 914.75,-648.13"/>
<polygon fill="#7c0063" stroke="#7c0063" points="917.27,-650.57 922.25,-641.21 912.52,-645.42 917.27,-650.57"/>
</g>
<!-- gql_example_dio_link -->
<g id="node14" class="node">
<title>gql_example_dio_link</title>
<polygon fill="none" stroke="#058cba" points="938.44,-1182.98 799.44,-1182.98 799.44,-1146.98 938.44,-1146.98 938.44,-1182.98"/>
<text text-anchor="middle" x="868.94" y="-1161.28" font-family="Times,serif" font-size="14.00">gql_example_dio_link</text>
</g>
<!-- gql_example_dio_link&#45;&gt;gql -->
<g id="edge47" class="edge">
<title>gql_example_dio_link&#45;&gt;gql</title>
<path fill="none" stroke="#68217c" d="M819.64,-1146.85C686.08,-1099.96 325.15,-969.9 293.94,-922.98 180.76,-752.83 276.34,-483.64 311.35,-398.62"/>
<polygon fill="#68217c" stroke="#68217c" points="314.67,-399.76 315.3,-389.19 308.21,-397.06 314.67,-399.76"/>
</g>
<!-- gql_example_dio_link&#45;&gt;gql_exec -->
<g id="edge49" class="edge">
<title>gql_example_dio_link&#45;&gt;gql_exec</title>
<path fill="none" stroke="#5b9240" d="M913.43,-1146.91C1035.67,-1099.58 1369.44,-967.27 1397.94,-922.98 1476.32,-801.13 1473.09,-720.85 1397.94,-596.98 1310.93,-453.57 1099.4,-397.32 1008.55,-379.25"/>
<polygon fill="#5b9240" stroke="#5b9240" points="1009.08,-375.79 998.6,-377.33 1007.75,-382.66 1009.08,-375.79"/>
</g>
<!-- gql_example_dio_link&#45;&gt;gql_link -->
<g id="edge48" class="edge">
<title>gql_example_dio_link&#45;&gt;gql_link</title>
<path fill="none" stroke="#7c0063" d="M907.93,-1146.92C976.1,-1114.65 1114.93,-1037.48 1169.94,-922.98 1225.69,-806.92 1060.19,-692.5 980.81,-645.87"/>
<polygon fill="#7c0063" stroke="#7c0063" points="982.45,-642.77 972.04,-640.78 978.94,-648.82 982.45,-642.77"/>
</g>
<!-- gql_example_dio_link&#45;&gt;gql_dio_link -->
<g id="edge50" class="edge">
<title>gql_example_dio_link&#45;&gt;gql_dio_link</title>
<path fill="none" stroke="#45c9c3" d="M857.14,-1146.77C823.72,-1097.98 728.2,-958.56 688.54,-900.67"/>
<polygon fill="#45c9c3" stroke="#45c9c3" points="691.21,-898.37 682.67,-892.1 685.43,-902.33 691.21,-898.37"/>
</g>
<!-- gql_example_cli_github -->
<g id="node15" class="node">
<title>gql_example_cli_github</title>
<polygon fill="none" stroke="#9b3b01" points="590.44,-1182.98 441.44,-1182.98 441.44,-1146.98 590.44,-1146.98 590.44,-1182.98"/>
<text text-anchor="middle" x="515.94" y="-1161.28" font-family="Times,serif" font-size="14.00">gql_example_cli_github</text>
</g>
<!-- gql_example_cli_github&#45;&gt;gql_pedantic -->
<g id="edge56" class="edge">
<title>gql_example_cli_github&#45;&gt;gql_pedantic</title>
<path fill="none" stroke="#89da51" stroke-dasharray="5,2" d="M572.44,-1146.97C723.45,-1100.97 1127.42,-974.11 1162.94,-922.98 1177.44,-902.1 1192.11,-932.55 1151.94,-596.98 1138.36,-483.61 1179.38,-428.88 1101.94,-344.98 998.82,-233.27 521.41,-152.29 360.24,-127.74"/>
<polygon fill="#89da51" stroke="#89da51" points="360.5,-124.24 350.09,-126.21 359.46,-131.16 360.5,-124.24"/>
</g>
<!-- gql_example_cli_github&#45;&gt;gql -->
<g id="edge51" class="edge">
<title>gql_example_cli_github&#45;&gt;gql</title>
<path fill="none" stroke="#68217c" d="M477.59,-1146.93C410.17,-1114.56 272.4,-1037.07 217.94,-922.98 155.52,-792.22 186.56,-738.43 217.94,-596.98 235,-520.07 281.22,-438.29 306.26,-397.8"/>
<polygon fill="#68217c" stroke="#68217c" points="309.36,-399.45 311.71,-389.11 303.43,-395.73 309.36,-399.45"/>
</g>
<!-- gql_example_cli_github&#45;&gt;gql_exec -->
<g id="edge52" class="edge">
<title>gql_example_cli_github&#45;&gt;gql_exec</title>
<path fill="none" stroke="#5b9240" d="M569.23,-1146.94C712.65,-1100.57 1098.27,-972.3 1131.94,-922.98 1213.62,-803.31 1177.21,-734.61 1131.94,-596.98 1104.28,-512.9 1031.8,-434.44 992.38,-396.26"/>
<polygon fill="#5b9240" stroke="#5b9240" points="994.61,-393.55 984.97,-389.17 989.78,-398.61 994.61,-393.55"/>
</g>
<!-- gql_example_cli_github&#45;&gt;gql_transform_link -->
<g id="edge54" class="edge">
<title>gql_example_cli_github&#45;&gt;gql_transform_link</title>
<path fill="none" stroke="#21d185" d="M511.11,-1146.77C497.52,-1098.28 458.84,-960.28 442.44,-901.75"/>
<polygon fill="#21d185" stroke="#21d185" points="445.8,-900.79 439.73,-892.1 439.06,-902.68 445.8,-900.79"/>
</g>
<!-- gql_example_cli_github&#45;&gt;gql_http_link -->
<g id="edge53" class="edge">
<title>gql_example_cli_github&#45;&gt;gql_http_link</title>
<path fill="none" stroke="#ab8a09" d="M531.48,-1146.77C575.82,-1097.67 703.01,-956.84 754.7,-899.6"/>
<polygon fill="#ab8a09" stroke="#ab8a09" points="757.37,-901.87 761.47,-892.1 752.17,-897.18 757.37,-901.87"/>
</g>
<!-- gql_example_cli_github&#45;&gt;gql_build -->
<g id="edge55" class="edge">
<title>gql_example_cli_github&#45;&gt;gql_build</title>
<path fill="none" stroke="#3380b0" stroke-dasharray="5,2" d="M490.74,-1146.77C418.15,-1097.17 208.52,-953.95 126.45,-897.88"/>
<polygon fill="#3380b0" stroke="#3380b0" points="128.23,-894.85 118,-892.1 124.28,-900.63 128.23,-894.85"/>
</g>
<!-- gql_example_cli -->
<g id="node16" class="node">
<title>gql_example_cli</title>
<polygon fill="none" stroke="#18510b" points="1063.44,-1182.98 956.44,-1182.98 956.44,-1146.98 1063.44,-1146.98 1063.44,-1182.98"/>
<text text-anchor="middle" x="1009.94" y="-1161.28" font-family="Times,serif" font-size="14.00">gql_example_cli</text>
</g>
<!-- gql_example_cli&#45;&gt;gql_pedantic -->
<g id="edge62" class="edge">
<title>gql_example_cli&#45;&gt;gql_pedantic</title>
<path fill="none" stroke="#89da51" stroke-dasharray="5,2" d="M1045.35,-1146.96C1131.86,-1104.57 1349.72,-992.67 1387.94,-922.98 1416.36,-871.14 1446.77,-815.31 1366.94,-596.98 1319.67,-467.71 1300.5,-422.74 1186.94,-344.98 916.61,-159.87 505.45,-127.02 360.1,-121.22"/>
<polygon fill="#89da51" stroke="#89da51" points="360.22,-117.72 350.1,-120.84 359.96,-124.72 360.22,-117.72"/>
</g>
<!-- gql_example_cli&#45;&gt;gql -->
<g id="edge57" class="edge">
<title>gql_example_cli&#45;&gt;gql</title>
<path fill="none" stroke="#68217c" d="M968.35,-1146.91C961.55,-1144.2 954.56,-1141.48 947.94,-1138.98 676.44,-1036.7 501.67,-1158.27 331.94,-922.98 212.53,-757.46 285.88,-485.18 313.65,-399.01"/>
<polygon fill="#68217c" stroke="#68217c" points="317,-400.03 316.79,-389.44 310.35,-397.85 317,-400.03"/>
</g>
<!-- gql_example_cli&#45;&gt;gql_exec -->
<g id="edge58" class="edge">
<title>gql_example_cli&#45;&gt;gql_exec</title>
<path fill="none" stroke="#5b9240" d="M1051.57,-1146.85C1150.08,-1105.37 1392.49,-997.48 1435.94,-922.98 1508.93,-797.82 1513.16,-719.57 1435.94,-596.98 1339.17,-443.37 1105.28,-392.32 1008.73,-377.44"/>
<polygon fill="#5b9240" stroke="#5b9240" points="1009.14,-373.96 998.73,-375.95 1008.11,-380.89 1009.14,-373.96"/>
</g>
<!-- gql_example_cli&#45;&gt;gql_link -->
<g id="edge60" class="edge">
<title>gql_example_cli&#45;&gt;gql_link</title>
<path fill="none" stroke="#7c0063" d="M1035.86,-1146.96C1100.94,-1101.96 1262.25,-975.13 1207.94,-855.98 1161.05,-753.14 1043.57,-678.25 981.24,-644.28"/>
<polygon fill="#7c0063" stroke="#7c0063" points="982.56,-641.02 972.1,-639.38 979.25,-647.19 982.56,-641.02"/>
</g>
<!-- gql_example_cli&#45;&gt;gql_http_link -->
<g id="edge59" class="edge">
<title>gql_example_cli&#45;&gt;gql_http_link</title>
<path fill="none" stroke="#ab8a09" d="M996.06,-1146.77C956.56,-1097.77 843.4,-957.41 797.07,-899.96"/>
<polygon fill="#ab8a09" stroke="#ab8a09" points="799.74,-897.69 790.74,-892.1 794.29,-902.08 799.74,-897.69"/>
</g>
<!-- gql_example_cli&#45;&gt;gql_build -->
<g id="edge61" class="edge">
<title>gql_example_cli&#45;&gt;gql_build</title>
<path fill="none" stroke="#3380b0" stroke-dasharray="5,2" d="M969.1,-1146.95C962.08,-1144.18 954.83,-1141.43 947.94,-1138.98 641.15,-1029.98 263.65,-922.52 136.83,-887.12"/>
<polygon fill="#3380b0" stroke="#3380b0" points="137.65,-883.72 127.08,-884.41 135.77,-890.46 137.65,-883.72"/>
</g>
<!-- gql_example_build -->
<g id="node17" class="node">
<title>gql_example_build</title>
<polygon fill="none" stroke="#628320" points="1348.94,-1182.98 1226.94,-1182.98 1226.94,-1146.98 1348.94,-1146.98 1348.94,-1182.98"/>
<text text-anchor="middle" x="1287.94" y="-1161.28" font-family="Times,serif" font-size="14.00">gql_example_build</text>
</g>
<!-- gql_example_build&#45;&gt;gql_pedantic -->
<g id="edge64" class="edge">
<title>gql_example_build&#45;&gt;gql_pedantic</title>
<path fill="none" stroke="#89da51" stroke-dasharray="5,2" d="M1303.08,-1146.78C1335.13,-1109.25 1409.41,-1015.91 1440.94,-922.98 1526.72,-670.1 1500.64,-490.78 1276.94,-344.98 972.9,-146.82 515.23,-122.35 360.34,-119.96"/>
<polygon fill="#89da51" stroke="#89da51" points="360.19,-116.46 350.15,-119.83 360.1,-123.46 360.19,-116.46"/>
</g>
<!-- gql_example_build&#45;&gt;gql_build -->
<g id="edge63" class="edge">
<title>gql_example_build&#45;&gt;gql_build</title>
<path fill="none" stroke="#3380b0" stroke-dasharray="5,2" d="M1242.62,-1146.96C1234.45,-1144.13 1225.98,-1141.35 1217.94,-1138.98 803.17,-1016.67 289.3,-913.17 137.26,-883.51"/>
<polygon fill="#3380b0" stroke="#3380b0" points="137.84,-880.06 127.36,-881.58 136.51,-886.93 137.84,-880.06"/>
</g>
<!-- gql_dedupe_link -->
<g id="node18" class="node">
<title>gql_dedupe_link</title>
<polygon fill="none" stroke="#cf6bf6" points="946.44,-891.98 839.44,-891.98 839.44,-855.98 946.44,-855.98 946.44,-891.98"/>
<text text-anchor="middle" x="892.94" y="-870.28" font-family="Times,serif" font-size="14.00">gql_dedupe_link</text>
</g>
<!-- gql_dedupe_link&#45;&gt;gql_pedantic -->
<g id="edge68" class="edge">
<title>gql_dedupe_link&#45;&gt;gql_pedantic</title>
<path fill="none" stroke="#89da51" stroke-dasharray="5,2" d="M879.6,-855.84C802.89,-757.27 418.26,-263.04 326.58,-145.22"/>
<polygon fill="#89da51" stroke="#89da51" points="329.16,-142.84 320.26,-137.09 323.63,-147.14 329.16,-142.84"/>
</g>
<!-- gql_dedupe_link&#45;&gt;gql -->
<g id="edge67" class="edge">
<title>gql_dedupe_link&#45;&gt;gql</title>
<path fill="none" stroke="#68217c" stroke-dasharray="5,2" d="M873.32,-855.73C788.01,-780.76 449.25,-483.01 350.24,-395.98"/>
<polygon fill="#68217c" stroke="#68217c" points="352.3,-393.13 342.47,-389.15 347.67,-398.38 352.3,-393.13"/>
</g>
<!-- gql_dedupe_link&#45;&gt;gql_exec -->
<g id="edge65" class="edge">
<title>gql_dedupe_link&#45;&gt;gql_exec</title>
<path fill="none" stroke="#5b9240" d="M901.93,-855.85C921.1,-818.25 965.52,-725.09 980.94,-640.98 996.93,-553.72 980.99,-448.11 971.66,-399.23"/>
<polygon fill="#5b9240" stroke="#5b9240" points="975.04,-398.28 969.67,-389.15 968.17,-399.64 975.04,-398.28"/>
</g>
<!-- gql_dedupe_link&#45;&gt;gql_link -->
<g id="edge66" class="edge">
<title>gql_dedupe_link&#45;&gt;gql_link</title>
<path fill="none" stroke="#7c0063" d="M896.23,-855.86C904.42,-813.4 925.72,-702.9 935.67,-651.29"/>
<polygon fill="#7c0063" stroke="#7c0063" points="939.16,-651.7 937.61,-641.21 932.28,-650.37 939.16,-651.7"/>
</g>
<!-- end_to_end_test -->
<g id="node19" class="node">
<title>end_to_end_test</title>
<polygon fill="none" stroke="#97b336" points="126.44,-1182.98 21.44,-1182.98 21.44,-1146.98 126.44,-1146.98 126.44,-1182.98"/>
<text text-anchor="middle" x="73.94" y="-1161.28" font-family="Times,serif" font-size="14.00">end_to_end_test</text>
</g>
<!-- end_to_end_test&#45;&gt;gql_exec -->
<g id="edge69" class="edge">
<title>end_to_end_test&#45;&gt;gql_exec</title>
<path fill="none" stroke="#5b9240" d="M126.48,-1159.98C318.16,-1144.19 975.14,-1079.26 1098.94,-922.98 1165.76,-838.61 1021.29,-496.15 977.82,-398.24"/>
<polygon fill="#5b9240" stroke="#5b9240" points="980.98,-396.74 973.71,-389.04 974.59,-399.6 980.98,-396.74"/>
</g>
<!-- end_to_end_test&#45;&gt;gql_code_builder -->
<g id="edge71" class="edge">
<title>end_to_end_test&#45;&gt;gql_code_builder</title>
<path fill="none" stroke="#1da059" d="M71.11,-1146.97C63.71,-1100.45 44.68,-967.15 49.94,-855.98 53.45,-781.65 63.27,-694.38 68.52,-651.13"/>
<polygon fill="#1da059" stroke="#1da059" points="72.01,-651.46 69.75,-641.11 65.06,-650.61 72.01,-651.46"/>
</g>
<!-- end_to_end_test&#45;&gt;gql_build -->
<g id="edge70" class="edge">
<title>end_to_end_test&#45;&gt;gql_build</title>
<path fill="none" stroke="#3380b0" d="M75.07,-1146.77C78.25,-1098.38 87.29,-960.85 91.15,-902.11"/>
<polygon fill="#3380b0" stroke="#3380b0" points="94.65,-902.31 91.81,-892.1 87.66,-901.85 94.65,-902.31"/>
</g>
</g>
</svg>
