<?xml version="1.0" encoding="UTF-8" standalone="no"?>
<!DOCTYPE svg PUBLIC "-//W3C//DTD SVG 1.1//EN"
 "http://www.w3.org/Graphics/SVG/1.1/DTD/svg11.dtd">
<!-- Generated by graphviz version 2.43.0 (0)
 -->
<!-- Title: packages Pages: 1 -->
<svg width="720pt" height="675pt"
 viewBox="0.00 0.00 720.00 675.17" xmlns="http://www.w3.org/2000/svg" xmlns:xlink="http://www.w3.org/1999/xlink">
<g id="graph0" class="graph" transform="scale(2.35 2.35) rotate(0) translate(4 1586)">
<title>packages</title>
<polygon fill="white" stroke="transparent" points="-4,4 -4,-1586 1691.57,-1586 1691.57,4 -4,4"/>
<g id="clust1" class="cluster">
<title>cluster </title>
<polygon fill="none" stroke="#a473ff" points="262,-32.45 262,-535.45 384,-535.45 384,-32.45 262,-32.45"/>
</g>
<g id="clust2" class="cluster">
<title>cluster links</title>
<polygon fill="none" stroke="#e2446b" points="392,-324.51 392,-1212.87 1260,-1212.87 1260,-324.51 392,-324.51"/>
<text text-anchor="middle" x="826" y="-1197.67" font-family="Times,serif" font-size="14.00">links</text>
</g>
<g id="clust3" class="cluster">
<title>cluster codegen</title>
<polygon fill="none" stroke="#856663" points="8,-616.57 8,-1549.55 162,-1549.55 162,-616.57 8,-616.57"/>
<text text-anchor="middle" x="85" y="-1534.35" font-family="Times,serif" font-size="14.00">codegen</text>
</g>
<g id="clust4" class="cluster">
<title>cluster examples</title>
<polygon fill="none" stroke="#e8f445" points="468,-1245.32 468,-1549.55 1574,-1549.55 1574,-1245.32 468,-1245.32"/>
<text text-anchor="middle" x="1021" y="-1534.35" font-family="Times,serif" font-size="14.00">examples</text>
</g>
<!-- gql_pedantic -->
<g id="node1" class="node">
<title>gql_pedantic</title>
<polygon fill="none" stroke="#89da51" points="376.5,-155.45 269.5,-155.45 269.5,-119.45 376.5,-119.45 376.5,-155.45"/>
<text text-anchor="middle" x="323" y="-133.75" font-family="Times,serif" font-size="14.00">gql_pedantic</text>
</g>
<!-- gql -->
<g id="node2" class="node">
<title>gql</title>
<polygon fill="none" stroke="#68217c" points="376,-448.45 322,-448.45 322,-412.45 376,-412.45 376,-448.45"/>
<text text-anchor="middle" x="349" y="-426.75" font-family="Times,serif" font-size="14.00">gql</text>
</g>
<!-- gql&#45;&gt;gql_pedantic -->
<g id="edge1" class="edge">
<title>gql&#45;&gt;gql_pedantic</title>
<path fill="none" stroke="#89da51" stroke-dasharray="5,2" d="M347.45,-412.12C343.1,-363.39 330.73,-224.92 325.44,-165.77"/>
<polygon fill="#89da51" stroke="#89da51" points="328.92,-165.34 324.54,-155.69 321.94,-165.96 328.92,-165.34"/>
</g>
<!-- gql_exec -->
<g id="node3" class="node">
<title>gql_exec</title>
<polygon fill="none" stroke="#5b9240" points="1038,-448.45 960,-448.45 960,-412.45 1038,-412.45 1038,-448.45"/>
<text text-anchor="middle" x="999" y="-426.75" font-family="Times,serif" font-size="14.00">gql_exec</text>
</g>
<!-- gql_exec&#45;&gt;gql_pedantic -->
<g id="edge3" class="edge">
<title>gql_exec&#45;&gt;gql_pedantic</title>
<path fill="none" stroke="#89da51" stroke-dasharray="5,2" d="M959.73,-412.55C843.31,-362.43 500.16,-214.71 372.01,-159.55"/>
<polygon fill="#89da51" stroke="#89da51" points="373.37,-156.32 362.8,-155.58 370.6,-162.75 373.37,-156.32"/>
</g>
<!-- gql_exec&#45;&gt;gql -->
<g id="edge2" class="edge">
<title>gql_exec&#45;&gt;gql</title>
<path fill="none" stroke="#68217c" d="M959.78,-430.45C768.7,-430.45 577.63,-430.45 386.55,-430.45"/>
<polygon fill="#68217c" stroke="#68217c" points="386.29,-426.95 376.29,-430.45 386.29,-433.95 386.29,-426.95"/>
</g>
<!-- gql_link -->
<g id="node4" class="node">
<title>gql_link</title>
<polygon fill="none" stroke="#7c0063" points="1008,-740.45 936,-740.45 936,-704.45 1008,-704.45 1008,-740.45"/>
<text text-anchor="middle" x="972" y="-718.75" font-family="Times,serif" font-size="14.00">gql_link</text>
</g>
<!-- gql_link&#45;&gt;gql_pedantic -->
<g id="edge6" class="edge">
<title>gql_link&#45;&gt;gql_pedantic</title>
<path fill="none" stroke="#89da51" stroke-dasharray="5,2" d="M969.3,-704.44C960.33,-653.03 927.12,-497.08 842,-404.45 713.28,-264.38 493.95,-186.63 386.34,-155.18"/>
<polygon fill="#89da51" stroke="#89da51" points="387.17,-151.77 376.59,-152.36 385.23,-158.5 387.17,-151.77"/>
</g>
<!-- gql_link&#45;&gt;gql -->
<g id="edge4" class="edge">
<title>gql_link&#45;&gt;gql</title>
<path fill="none" stroke="#68217c" d="M935.92,-707.21C843,-670.08 588.77,-565.61 388,-456.45 386.49,-455.63 384.97,-454.78 383.44,-453.9"/>
<polygon fill="#68217c" stroke="#68217c" points="385.08,-450.8 374.7,-448.66 381.48,-456.8 385.08,-450.8"/>
</g>
<!-- gql_link&#45;&gt;gql_exec -->
<g id="edge5" class="edge">
<title>gql_link&#45;&gt;gql_exec</title>
<path fill="none" stroke="#5b9240" d="M973.61,-704.18C978.13,-655.62 990.98,-517.62 996.46,-458.68"/>
<polygon fill="#5b9240" stroke="#5b9240" points="999.96,-458.91 997.4,-448.63 992.99,-458.27 999.96,-458.91"/>
</g>
<!-- gql_websocket_link -->
<g id="node5" class="node">
<title>gql_websocket_link</title>
<polygon fill="none" stroke="#bb5677" points="1252,-1032.45 1098,-1032.45 1098,-996.45 1252,-996.45 1252,-1032.45"/>
<text text-anchor="middle" x="1175" y="-1010.75" font-family="Times,serif" font-size="14.00">gql_websocket_link</text>
</g>
<!-- gql_websocket_link&#45;&gt;gql_pedantic -->
<g id="edge10" class="edge">
<title>gql_websocket_link&#45;&gt;gql_pedantic</title>
<path fill="none" stroke="#89da51" stroke-dasharray="5,2" d="M1158.36,-996.37C1052.44,-887.59 472.69,-292.18 347.03,-163.13"/>
<polygon fill="#89da51" stroke="#89da51" points="349.23,-160.37 339.74,-155.65 344.21,-165.25 349.23,-160.37"/>
</g>
<!-- gql_websocket_link&#45;&gt;gql -->
<g id="edge7" class="edge">
<title>gql_websocket_link&#45;&gt;gql</title>
<path fill="none" stroke="#68217c" d="M1150.73,-996.35C1032.48,-913.03 516.95,-549.79 381.63,-454.44"/>
<polygon fill="#68217c" stroke="#68217c" points="383.47,-451.45 373.27,-448.56 379.43,-457.18 383.47,-451.45"/>
</g>
<!-- gql_websocket_link&#45;&gt;gql_exec -->
<g id="edge8" class="edge">
<title>gql_websocket_link&#45;&gt;gql_exec</title>
<path fill="none" stroke="#5b9240" d="M1169.83,-996.35C1144.96,-914.11 1037.62,-559.17 1007.12,-458.29"/>
<polygon fill="#5b9240" stroke="#5b9240" points="1010.42,-457.11 1004.17,-448.56 1003.72,-459.14 1010.42,-457.11"/>
</g>
<!-- gql_websocket_link&#45;&gt;gql_link -->
<g id="edge9" class="edge">
<title>gql_websocket_link&#45;&gt;gql_link</title>
<path fill="none" stroke="#7c0063" d="M1162.91,-996.18C1128.57,-947.12 1030.31,-806.75 989.79,-748.87"/>
<polygon fill="#7c0063" stroke="#7c0063" points="992.63,-746.82 984.03,-740.63 986.89,-750.83 992.63,-746.82"/>
</g>
<!-- gql_transform_link -->
<g id="node6" class="node">
<title>gql_transform_link</title>
<polygon fill="none" stroke="#21d185" points="550,-1032.45 400,-1032.45 400,-996.45 550,-996.45 550,-1032.45"/>
<text text-anchor="middle" x="475" y="-1010.75" font-family="Times,serif" font-size="14.00">gql_transform_link</text>
</g>
<!-- gql_transform_link&#45;&gt;gql_pedantic -->
<g id="edge14" class="edge">
<title>gql_transform_link&#45;&gt;gql_pedantic</title>
<path fill="none" stroke="#89da51" stroke-dasharray="5,2" d="M473,-996.41C464.45,-924.34 429.31,-637.54 385,-404.45 368.25,-316.32 342.39,-213.17 330.04,-165.34"/>
<polygon fill="#89da51" stroke="#89da51" points="333.38,-164.26 327.48,-155.46 326.6,-166.02 333.38,-164.26"/>
</g>
<!-- gql_transform_link&#45;&gt;gql -->
<g id="edge13" class="edge">
<title>gql_transform_link&#45;&gt;gql</title>
<path fill="none" stroke="#68217c" stroke-dasharray="5,2" d="M471.3,-996.35C453.51,-914.19 376.81,-559.89 354.88,-458.59"/>
<polygon fill="#68217c" stroke="#68217c" points="358.24,-457.59 352.7,-448.56 351.4,-459.07 358.24,-457.59"/>
</g>
<!-- gql_transform_link&#45;&gt;gql_exec -->
<g id="edge11" class="edge">
<title>gql_transform_link&#45;&gt;gql_exec</title>
<path fill="none" stroke="#5b9240" d="M490.4,-996.35C564.97,-913.53 888.55,-554.13 976.73,-456.18"/>
<polygon fill="#5b9240" stroke="#5b9240" points="979.51,-458.33 983.6,-448.56 974.31,-453.64 979.51,-458.33"/>
</g>
<!-- gql_transform_link&#45;&gt;gql_link -->
<g id="edge12" class="edge">
<title>gql_transform_link&#45;&gt;gql_link</title>
<path fill="none" stroke="#7c0063" d="M504.23,-996.39C589.6,-946.58 838.5,-801.35 934.05,-745.6"/>
<polygon fill="#7c0063" stroke="#7c0063" points="935.93,-748.55 942.8,-740.49 932.4,-742.5 935.93,-748.55"/>
</g>
<!-- gql_http_link -->
<g id="node7" class="node">
<title>gql_http_link</title>
<polygon fill="none" stroke="#ab8a09" points="930.5,-1032.45 821.5,-1032.45 821.5,-996.45 930.5,-996.45 930.5,-1032.45"/>
<text text-anchor="middle" x="876" y="-1010.75" font-family="Times,serif" font-size="14.00">gql_http_link</text>
</g>
<!-- gql_http_link&#45;&gt;gql_pedantic -->
<g id="edge18" class="edge">
<title>gql_http_link&#45;&gt;gql_pedantic</title>
<path fill="none" stroke="#89da51" stroke-dasharray="5,2" d="M865.2,-996.37C796.66,-887.91 422.41,-295.74 339.34,-164.3"/>
<polygon fill="#89da51" stroke="#89da51" points="342.17,-162.23 333.87,-155.65 336.25,-165.97 342.17,-162.23"/>
</g>
<!-- gql_http_link&#45;&gt;gql -->
<g id="edge15" class="edge">
<title>gql_http_link&#45;&gt;gql</title>
<path fill="none" stroke="#68217c" d="M860.51,-996.35C785.52,-913.53 460.09,-554.13 371.4,-456.18"/>
<polygon fill="#68217c" stroke="#68217c" points="373.79,-453.62 364.49,-448.56 368.61,-458.32 373.79,-453.62"/>
</g>
<!-- gql_http_link&#45;&gt;gql_exec -->
<g id="edge16" class="edge">
<title>gql_http_link&#45;&gt;gql_exec</title>
<path fill="none" stroke="#5b9240" d="M878.13,-996.15C884.17,-948.22 902.56,-809.79 927,-696.45 945.97,-608.5 976.1,-506.2 990.63,-458.51"/>
<polygon fill="#5b9240" stroke="#5b9240" points="994.06,-459.25 993.64,-448.66 987.37,-457.2 994.06,-459.25"/>
</g>
<!-- gql_http_link&#45;&gt;gql_link -->
<g id="edge17" class="edge">
<title>gql_http_link&#45;&gt;gql_link</title>
<path fill="none" stroke="#7c0063" d="M881.72,-996.18C897.83,-947.52 943.67,-809.05 963.11,-750.31"/>
<polygon fill="#7c0063" stroke="#7c0063" points="966.49,-751.23 966.31,-740.63 959.85,-749.03 966.49,-751.23"/>
</g>
<!-- gql_error_link -->
<g id="node8" class="node">
<title>gql_error_link</title>
<polygon fill="none" stroke="#5f79bc" points="684,-1032.45 568,-1032.45 568,-996.45 684,-996.45 684,-1032.45"/>
<text text-anchor="middle" x="626" y="-1010.75" font-family="Times,serif" font-size="14.00">gql_error_link</text>
</g>
<!-- gql_error_link&#45;&gt;gql_pedantic -->
<g id="edge22" class="edge">
<title>gql_error_link&#45;&gt;gql_pedantic</title>
<path fill="none" stroke="#89da51" stroke-dasharray="5,2" d="M620.08,-996.37C582.64,-888.24 378.69,-299.29 332.37,-165.5"/>
<polygon fill="#89da51" stroke="#89da51" points="335.53,-163.95 328.95,-155.65 328.92,-166.24 335.53,-163.95"/>
</g>
<!-- gql_error_link&#45;&gt;gql -->
<g id="edge21" class="edge">
<title>gql_error_link&#45;&gt;gql</title>
<path fill="none" stroke="#68217c" stroke-dasharray="5,2" d="M617.86,-996.35C578.64,-913.94 409.1,-557.73 361.48,-457.68"/>
<polygon fill="#68217c" stroke="#68217c" points="364.6,-456.08 357.14,-448.56 358.28,-459.09 364.6,-456.08"/>
</g>
<!-- gql_error_link&#45;&gt;gql_exec -->
<g id="edge19" class="edge">
<title>gql_error_link&#45;&gt;gql_exec</title>
<path fill="none" stroke="#5b9240" d="M644.03,-996.4C686.47,-955.52 794.23,-847.33 862,-740.45 864.06,-737.21 954.58,-532.16 987.33,-457.92"/>
<polygon fill="#5b9240" stroke="#5b9240" points="990.54,-459.3 991.38,-448.74 984.14,-456.47 990.54,-459.3"/>
</g>
<!-- gql_error_link&#45;&gt;gql_link -->
<g id="edge20" class="edge">
<title>gql_error_link&#45;&gt;gql_link</title>
<path fill="none" stroke="#7c0063" d="M646.35,-996.39C705.23,-947.04 875.87,-804.02 943.71,-747.16"/>
<polygon fill="#7c0063" stroke="#7c0063" points="946.04,-749.78 951.46,-740.67 941.54,-744.41 946.04,-749.78"/>
</g>
<!-- gql_code_builder -->
<g id="node9" class="node">
<title>gql_code_builder</title>
<polygon fill="none" stroke="#1da059" points="153.5,-740.45 16.5,-740.45 16.5,-704.45 153.5,-704.45 153.5,-740.45"/>
<text text-anchor="middle" x="85" y="-718.75" font-family="Times,serif" font-size="14.00">gql_code_builder</text>
</g>
<!-- gql_code_builder&#45;&gt;gql_pedantic -->
<g id="edge25" class="edge">
<title>gql_code_builder&#45;&gt;gql_pedantic</title>
<path fill="none" stroke="#89da51" stroke-dasharray="5,2" d="M91.99,-704.32C125.66,-621.86 271.06,-265.67 312.15,-165.03"/>
<polygon fill="#89da51" stroke="#89da51" points="315.47,-166.17 316.01,-155.58 308.99,-163.52 315.47,-166.17"/>
</g>
<!-- gql_code_builder&#45;&gt;gql -->
<g id="edge23" class="edge">
<title>gql_code_builder&#45;&gt;gql</title>
<path fill="none" stroke="#68217c" d="M100.72,-704.18C145.57,-654.92 274.22,-513.59 326.5,-456.16"/>
<polygon fill="#68217c" stroke="#68217c" points="329.21,-458.38 333.36,-448.63 324.04,-453.67 329.21,-458.38"/>
</g>
<!-- gql_code_builder&#45;&gt;gql_exec -->
<g id="edge24" class="edge">
<title>gql_code_builder&#45;&gt;gql_exec</title>
<path fill="none" stroke="#5b9240" d="M138.76,-704.39C302.39,-652.48 792.74,-496.9 949.93,-447.02"/>
<polygon fill="#5b9240" stroke="#5b9240" points="951.32,-450.25 959.8,-443.89 949.21,-443.58 951.32,-450.25"/>
</g>
<!-- gql_build -->
<g id="node10" class="node">
<title>gql_build</title>
<polygon fill="none" stroke="#3380b0" points="154,-1032.45 72,-1032.45 72,-996.45 154,-996.45 154,-1032.45"/>
<text text-anchor="middle" x="113" y="-1010.75" font-family="Times,serif" font-size="14.00">gql_build</text>
</g>
<!-- gql_build&#45;&gt;gql_pedantic -->
<g id="edge28" class="edge">
<title>gql_build&#45;&gt;gql_pedantic</title>
<path fill="none" stroke="#89da51" stroke-dasharray="5,2" d="M99.72,-996.17C65.02,-948.84 -23.68,-812.89 7,-696.45 66.68,-469.95 241.7,-238.86 302.17,-163.71"/>
<polygon fill="#89da51" stroke="#89da51" points="305.06,-165.69 308.63,-155.72 299.62,-161.29 305.06,-165.69"/>
</g>
<!-- gql_build&#45;&gt;gql -->
<g id="edge26" class="edge">
<title>gql_build&#45;&gt;gql</title>
<path fill="none" stroke="#68217c" d="M116.72,-996.18C127.43,-947.77 160.52,-807.05 206,-696.45 243.74,-604.66 304.15,-503.28 332.85,-457.01"/>
<polygon fill="#68217c" stroke="#68217c" points="335.83,-458.84 338.15,-448.51 329.89,-455.14 335.83,-458.84"/>
</g>
<!-- gql_build&#45;&gt;gql_code_builder -->
<g id="edge27" class="edge">
<title>gql_build&#45;&gt;gql_code_builder</title>
<path fill="none" stroke="#1da059" d="M111.33,-996.18C106.64,-947.62 93.32,-809.62 87.63,-750.68"/>
<polygon fill="#1da059" stroke="#1da059" points="91.1,-750.25 86.66,-740.63 84.14,-750.92 91.1,-750.25"/>
</g>
<!-- gql_example_http_auth_link -->
<g id="node11" class="node">
<title>gql_example_http_auth_link</title>
<polygon fill="none" stroke="#8a0733" points="891.5,-1368.45 676.5,-1368.45 676.5,-1332.45 891.5,-1332.45 891.5,-1368.45"/>
<text text-anchor="middle" x="784" y="-1346.75" font-family="Times,serif" font-size="14.00">gql_example_http_auth_link</text>
</g>
<!-- gql_example_http_auth_link&#45;&gt;gql_pedantic -->
<g id="edge36" class="edge">
<title>gql_example_http_auth_link&#45;&gt;gql_pedantic</title>
<path fill="none" stroke="#89da51" stroke-dasharray="5,2" d="M855.5,-1332.39C1024.21,-1290.55 1438.83,-1177.86 1517,-1063.45 1547.32,-1019.07 1633.37,-1065.47 1509,-696.45 1457.95,-544.97 1430.33,-495.59 1299,-404.45 1002.04,-198.36 551.72,-151.72 386.58,-141.35"/>
<polygon fill="#89da51" stroke="#89da51" points="386.78,-137.86 376.59,-140.75 386.36,-144.84 386.78,-137.86"/>
</g>
<!-- gql_example_http_auth_link&#45;&gt;gql -->
<g id="edge29" class="edge">
<title>gql_example_http_auth_link&#45;&gt;gql</title>
<path fill="none" stroke="#68217c" d="M710.16,-1332.43C594.69,-1301.38 374.99,-1223.45 282,-1063.45 200.04,-922.43 261.86,-858.31 282,-696.45 293.08,-607.39 324.36,-505.29 339.94,-458.02"/>
<polygon fill="#68217c" stroke="#68217c" points="343.26,-459.12 343.1,-448.53 336.62,-456.91 343.26,-459.12"/>
</g>
<!-- gql_example_http_auth_link&#45;&gt;gql_exec -->
<g id="edge31" class="edge">
<title>gql_example_http_auth_link&#45;&gt;gql_exec</title>
<path fill="none" stroke="#5b9240" d="M850.26,-1332.45C1010.14,-1289.94 1409.43,-1174.47 1484,-1063.45 1574.95,-928.05 1567.21,-836.74 1484,-696.45 1387.24,-533.33 1150.75,-464.12 1048,-441.05"/>
<polygon fill="#5b9240" stroke="#5b9240" points="1048.71,-437.62 1038.19,-438.9 1047.2,-444.46 1048.71,-437.62"/>
</g>
<!-- gql_example_http_auth_link&#45;&gt;gql_link -->
<g id="edge33" class="edge">
<title>gql_example_http_auth_link&#45;&gt;gql_link</title>
<path fill="none" stroke="#7c0063" d="M850.32,-1332.43C959.08,-1300.53 1172.13,-1220.35 1261,-1063.45 1337.66,-928.11 1116.31,-795.93 1017.25,-745.2"/>
<polygon fill="#7c0063" stroke="#7c0063" points="1018.56,-741.94 1008.06,-740.55 1015.4,-748.18 1018.56,-741.94"/>
</g>
<!-- gql_example_http_auth_link&#45;&gt;gql_transform_link -->
<g id="edge34" class="edge">
<title>gql_example_http_auth_link&#45;&gt;gql_transform_link</title>
<path fill="none" stroke="#21d185" d="M768.25,-1332.43C717.54,-1277.61 558.29,-1105.48 498.23,-1040.56"/>
<polygon fill="#21d185" stroke="#21d185" points="500.45,-1037.8 491.09,-1032.84 495.31,-1042.56 500.45,-1037.8"/>
</g>
<!-- gql_example_http_auth_link&#45;&gt;gql_http_link -->
<g id="edge32" class="edge">
<title>gql_example_http_auth_link&#45;&gt;gql_http_link</title>
<path fill="none" stroke="#ab8a09" d="M788.69,-1332.43C803.63,-1278.17 850.24,-1108.98 868.53,-1042.58"/>
<polygon fill="#ab8a09" stroke="#ab8a09" points="871.93,-1043.41 871.21,-1032.84 865.18,-1041.55 871.93,-1043.41"/>
</g>
<!-- gql_example_http_auth_link&#45;&gt;gql_error_link -->
<g id="edge30" class="edge">
<title>gql_example_http_auth_link&#45;&gt;gql_error_link</title>
<path fill="none" stroke="#5f79bc" d="M775.95,-1332.43C750.23,-1278.06 669.91,-1108.28 638.64,-1042.17"/>
<polygon fill="#5f79bc" stroke="#5f79bc" points="641.67,-1040.38 634.23,-1032.84 635.34,-1043.38 641.67,-1040.38"/>
</g>
<!-- gql_example_http_auth_link&#45;&gt;gql_build -->
<g id="edge35" class="edge">
<title>gql_example_http_auth_link&#45;&gt;gql_build</title>
<path fill="none" stroke="#3380b0" stroke-dasharray="5,2" d="M749.8,-1332.43C637.75,-1276.65 281.71,-1099.43 156.81,-1037.26"/>
<polygon fill="#3380b0" stroke="#3380b0" points="158.04,-1033.96 147.53,-1032.64 154.92,-1040.23 158.04,-1033.96"/>
</g>
<!-- gql_example_flutter -->
<g id="node12" class="node">
<title>gql_example_flutter</title>
<polygon fill="none" stroke="#671702" points="1400,-1368.45 1242,-1368.45 1242,-1332.45 1400,-1332.45 1400,-1368.45"/>
<text text-anchor="middle" x="1321" y="-1346.75" font-family="Times,serif" font-size="14.00">gql_example_flutter</text>
</g>
<!-- gql_example_flutter&#45;&gt;gql_pedantic -->
<g id="edge41" class="edge">
<title>gql_example_flutter&#45;&gt;gql_pedantic</title>
<path fill="none" stroke="#89da51" stroke-dasharray="5,2" d="M1345.14,-1332.41C1399.37,-1292.58 1530.47,-1187.29 1586,-1063.45 1710.96,-784.74 1646.81,-571.36 1391,-404.45 1058.36,-187.41 561.8,-147.46 386.81,-140.11"/>
<polygon fill="#89da51" stroke="#89da51" points="386.87,-136.61 376.74,-139.71 386.59,-143.6 386.87,-136.61"/>
</g>
<!-- gql_example_flutter&#45;&gt;gql -->
<g id="edge37" class="edge">
<title>gql_example_flutter&#45;&gt;gql</title>
<path fill="none" stroke="#68217c" d="M1262.23,-1332.41C1059.67,-1273.56 402.19,-1081.46 388,-1063.45 350.14,-1015.41 348.63,-573.19 348.88,-458.51"/>
<polygon fill="#68217c" stroke="#68217c" points="352.38,-458.47 348.91,-448.46 345.38,-458.45 352.38,-458.47"/>
</g>
<!-- gql_example_flutter&#45;&gt;gql_exec -->
<g id="edge40" class="edge">
<title>gql_example_flutter&#45;&gt;gql_exec</title>
<path fill="none" stroke="#5b9240" d="M1352.27,-1332.43C1418.28,-1294.47 1570.46,-1195.7 1628,-1063.45 1664.14,-980.39 1748.73,-893.78 1611,-696.45 1475.94,-502.95 1168.03,-449.59 1048.1,-435.88"/>
<polygon fill="#5b9240" stroke="#5b9240" points="1048.42,-432.39 1038.1,-434.77 1047.65,-439.35 1048.42,-432.39"/>
</g>
<!-- gql_example_flutter&#45;&gt;gql_link -->
<g id="edge38" class="edge">
<title>gql_example_flutter&#45;&gt;gql_link</title>
<path fill="none" stroke="#7c0063" d="M1330.41,-1332.42C1358.43,-1279.23 1435.64,-1112.82 1374,-996.45 1297.3,-851.66 1105.6,-769.43 1017.54,-738.18"/>
<polygon fill="#7c0063" stroke="#7c0063" points="1018.68,-734.87 1008.08,-734.88 1016.37,-741.48 1018.68,-734.87"/>
</g>
<!-- gql_example_flutter&#45;&gt;gql_http_link -->
<g id="edge39" class="edge">
<title>gql_example_flutter&#45;&gt;gql_http_link</title>
<path fill="none" stroke="#ab8a09" d="M1298.32,-1332.43C1224.6,-1277.1 991.66,-1102.26 907.08,-1038.78"/>
<polygon fill="#ab8a09" stroke="#ab8a09" points="909,-1035.84 898.9,-1032.64 904.8,-1041.44 909,-1035.84"/>
</g>
<!-- gql_example_flutter&#45;&gt;gql_build -->
<g id="edge42" class="edge">
<title>gql_example_flutter&#45;&gt;gql_build</title>
<path fill="none" stroke="#3380b0" stroke-dasharray="5,2" d="M1261.37,-1332.45C1251.89,-1329.76 1242.18,-1327.02 1233,-1324.45 821.03,-1209.11 322.92,-1072.79 164.18,-1029.42"/>
<polygon fill="#3380b0" stroke="#3380b0" points="164.79,-1025.96 154.22,-1026.7 162.94,-1032.71 164.79,-1025.96"/>
</g>
<!-- gql_dio_link -->
<g id="node13" class="node">
<title>gql_dio_link</title>
<polygon fill="none" stroke="#45c9c3" points="803.5,-1032.45 702.5,-1032.45 702.5,-996.45 803.5,-996.45 803.5,-1032.45"/>
<text text-anchor="middle" x="753" y="-1010.75" font-family="Times,serif" font-size="14.00">gql_dio_link</text>
</g>
<!-- gql_dio_link&#45;&gt;gql_pedantic -->
<g id="edge46" class="edge">
<title>gql_dio_link&#45;&gt;gql_pedantic</title>
<path fill="none" stroke="#89da51" stroke-dasharray="5,2" d="M744.6,-996.37C691.36,-888.02 400.88,-296.92 335.9,-164.7"/>
<polygon fill="#89da51" stroke="#89da51" points="339,-163.08 331.45,-155.65 332.72,-166.17 339,-163.08"/>
</g>
<!-- gql_dio_link&#45;&gt;gql -->
<g id="edge43" class="edge">
<title>gql_dio_link&#45;&gt;gql</title>
<path fill="none" stroke="#68217c" d="M741.13,-996.35C683.75,-913.69 435.16,-555.57 366.58,-456.78"/>
<polygon fill="#68217c" stroke="#68217c" points="369.45,-454.77 360.87,-448.56 363.7,-458.77 369.45,-454.77"/>
</g>
<!-- gql_dio_link&#45;&gt;gql_exec -->
<g id="edge44" class="edge">
<title>gql_dio_link&#45;&gt;gql_exec</title>
<path fill="none" stroke="#5b9240" d="M761.63,-996.42C783.1,-953.79 840.19,-838.88 882,-740.45 925.72,-637.53 970.7,-512.18 989.67,-458.24"/>
<polygon fill="#5b9240" stroke="#5b9240" points="993,-459.32 993,-448.72 986.39,-457 993,-459.32"/>
</g>
<!-- gql_dio_link&#45;&gt;gql_link -->
<g id="edge45" class="edge">
<title>gql_dio_link&#45;&gt;gql_link</title>
<path fill="none" stroke="#7c0063" d="M766.04,-996.18C803.09,-947.12 909.1,-806.75 952.8,-748.87"/>
<polygon fill="#7c0063" stroke="#7c0063" points="955.79,-750.72 959.02,-740.63 950.21,-746.5 955.79,-750.72"/>
</g>
<!-- gql_example_dio_link -->
<g id="node14" class="node">
<title>gql_example_dio_link</title>
<polygon fill="none" stroke="#058cba" points="1076.5,-1368.45 909.5,-1368.45 909.5,-1332.45 1076.5,-1332.45 1076.5,-1368.45"/>
<text text-anchor="middle" x="993" y="-1346.75" font-family="Times,serif" font-size="14.00">gql_example_dio_link</text>
</g>
<!-- gql_example_dio_link&#45;&gt;gql -->
<g id="edge47" class="edge">
<title>gql_example_dio_link&#45;&gt;gql</title>
<path fill="none" stroke="#68217c" d="M930.66,-1332.45C777.8,-1289.37 391.58,-1171.65 320,-1063.45 253.2,-962.49 322.94,-566.82 343.61,-458.82"/>
<polygon fill="#68217c" stroke="#68217c" points="347.1,-459.21 345.56,-448.73 340.22,-457.89 347.1,-459.21"/>
</g>
<!-- gql_example_dio_link&#45;&gt;gql_exec -->
<g id="edge49" class="edge">
<title>gql_example_dio_link&#45;&gt;gql_exec</title>
<path fill="none" stroke="#5b9240" d="M1041.71,-1332.38C1167.99,-1287.03 1500.32,-1160.39 1560,-1063.45 1645.51,-924.55 1647.3,-834.24 1560,-696.45 1443.72,-512.92 1162.41,-454.09 1048.31,-437.39"/>
<polygon fill="#5b9240" stroke="#5b9240" points="1048.52,-433.88 1038.13,-435.95 1047.54,-440.81 1048.52,-433.88"/>
</g>
<!-- gql_example_dio_link&#45;&gt;gql_link -->
<g id="edge48" class="edge">
<title>gql_example_dio_link&#45;&gt;gql_link</title>
<path fill="none" stroke="#7c0063" d="M1035.26,-1332.42C1142.26,-1286.59 1409.96,-1153.4 1332,-996.45 1265.53,-862.62 1098.63,-776.79 1017.58,-741.64"/>
<polygon fill="#7c0063" stroke="#7c0063" points="1018.71,-738.31 1008.13,-737.6 1015.95,-744.75 1018.71,-738.31"/>
</g>
<!-- gql_example_dio_link&#45;&gt;gql_dio_link -->
<g id="edge50" class="edge">
<title>gql_example_dio_link&#45;&gt;gql_dio_link</title>
<path fill="none" stroke="#45c9c3" d="M980.77,-1332.43C941.46,-1277.72 818.2,-1106.18 771.33,-1040.96"/>
<polygon fill="#45c9c3" stroke="#45c9c3" points="774.17,-1038.92 765.49,-1032.84 768.49,-1043 774.17,-1038.92"/>
</g>
<!-- gql_example_cli_github -->
<g id="node15" class="node">
<title>gql_example_cli_github</title>
<polygon fill="none" stroke="#9b3b01" points="658,-1368.45 476,-1368.45 476,-1332.45 658,-1332.45 658,-1368.45"/>
<text text-anchor="middle" x="567" y="-1346.75" font-family="Times,serif" font-size="14.00">gql_example_cli_github</text>
</g>
<!-- gql_example_cli_github&#45;&gt;gql_pedantic -->
<g id="edge56" class="edge">
<title>gql_example_cli_github&#45;&gt;gql_pedantic</title>
<path fill="none" stroke="#89da51" stroke-dasharray="5,2" d="M622.79,-1332.45C790.89,-1280.69 1283.54,-1124.83 1326,-1063.45 1493.37,-821.52 1461.8,-622.2 1264,-404.45 1143.09,-271.35 577.96,-176.39 386.56,-147.59"/>
<polygon fill="#89da51" stroke="#89da51" points="387.06,-144.12 376.65,-146.1 386.02,-151.04 387.06,-144.12"/>
</g>
<!-- gql_example_cli_github&#45;&gt;gql -->
<g id="edge51" class="edge">
<title>gql_example_cli_github&#45;&gt;gql</title>
<path fill="none" stroke="#68217c" d="M533.09,-1332.32C463.2,-1294.83 304.58,-1198 244,-1063.45 145.53,-844.74 287.46,-546.05 334.65,-457.31"/>
<polygon fill="#68217c" stroke="#68217c" points="337.76,-458.93 339.42,-448.46 331.6,-455.61 337.76,-458.93"/>
</g>
<!-- gql_example_cli_github&#45;&gt;gql_exec -->
<g id="edge52" class="edge">
<title>gql_example_cli_github&#45;&gt;gql_exec</title>
<path fill="none" stroke="#5b9240" d="M620.18,-1332.37C780.96,-1280.19 1253.51,-1122.9 1294,-1063.45 1385.83,-928.65 1360.43,-845.42 1294,-696.45 1241.67,-579.11 1108.87,-492.02 1040.73,-453.44"/>
<polygon fill="#5b9240" stroke="#5b9240" points="1042.39,-450.36 1031.95,-448.53 1038.98,-456.47 1042.39,-450.36"/>
</g>
<!-- gql_example_cli_github&#45;&gt;gql_transform_link -->
<g id="edge54" class="edge">
<title>gql_example_cli_github&#45;&gt;gql_transform_link</title>
<path fill="none" stroke="#21d185" d="M562.31,-1332.43C547.37,-1278.17 500.76,-1108.98 482.47,-1042.58"/>
<polygon fill="#21d185" stroke="#21d185" points="485.82,-1041.55 479.79,-1032.84 479.07,-1043.41 485.82,-1041.55"/>
</g>
<!-- gql_example_cli_github&#45;&gt;gql_http_link -->
<g id="edge53" class="edge">
<title>gql_example_cli_github&#45;&gt;gql_http_link</title>
<path fill="none" stroke="#ab8a09" d="M582.75,-1332.43C633.46,-1277.61 792.71,-1105.48 852.77,-1040.56"/>
<polygon fill="#ab8a09" stroke="#ab8a09" points="855.69,-1042.56 859.91,-1032.84 850.55,-1037.8 855.69,-1042.56"/>
</g>
<!-- gql_example_cli_github&#45;&gt;gql_build -->
<g id="edge55" class="edge">
<title>gql_example_cli_github&#45;&gt;gql_build</title>
<path fill="none" stroke="#3380b0" stroke-dasharray="5,2" d="M543.86,-1332.43C468.58,-1277.04 230.52,-1101.91 144.44,-1038.58"/>
<polygon fill="#3380b0" stroke="#3380b0" points="146.49,-1035.75 136.36,-1032.64 142.34,-1041.38 146.49,-1035.75"/>
</g>
<!-- gql_example_cli -->
<g id="node16" class="node">
<title>gql_example_cli</title>
<polygon fill="none" stroke="#18510b" points="1223.5,-1368.45 1094.5,-1368.45 1094.5,-1332.45 1223.5,-1332.45 1223.5,-1368.45"/>
<text text-anchor="middle" x="1159" y="-1346.75" font-family="Times,serif" font-size="14.00">gql_example_cli</text>
</g>
<!-- gql_example_cli&#45;&gt;gql_pedantic -->
<g id="edge62" class="edge">
<title>gql_example_cli&#45;&gt;gql_pedantic</title>
<path fill="none" stroke="#89da51" stroke-dasharray="5,2" d="M1206.63,-1332.33C1295.21,-1297.57 1483.05,-1209.39 1558,-1063.45 1698.56,-789.76 1593.9,-586.68 1346,-404.45 1039.54,-179.17 558.74,-144.31 386.79,-139.21"/>
<polygon fill="#89da51" stroke="#89da51" points="386.73,-135.71 376.64,-138.93 386.54,-142.7 386.73,-135.71"/>
</g>
<!-- gql_example_cli&#45;&gt;gql -->
<g id="edge57" class="edge">
<title>gql_example_cli&#45;&gt;gql</title>
<path fill="none" stroke="#68217c" d="M1110.2,-1332.44C937.29,-1272.12 363.84,-1071.61 358,-1063.45 287.55,-964.98 331.87,-566.67 345.44,-458.61"/>
<polygon fill="#68217c" stroke="#68217c" points="348.93,-458.89 346.73,-448.53 341.99,-458.01 348.93,-458.89"/>
</g>
<!-- gql_example_cli&#45;&gt;gql_exec -->
<g id="edge58" class="edge">
<title>gql_example_cli&#45;&gt;gql_exec</title>
<path fill="none" stroke="#5b9240" d="M1192.84,-1332.44C1286.73,-1284.48 1546.52,-1146.25 1591,-1063.45 1629.38,-992.01 1748.3,-944.05 1585,-696.45 1460.28,-507.35 1165.21,-451.54 1048.12,-436.52"/>
<polygon fill="#5b9240" stroke="#5b9240" points="1048.37,-433.02 1038.01,-435.27 1047.51,-439.97 1048.37,-433.02"/>
</g>
<!-- gql_example_cli&#45;&gt;gql_link -->
<g id="edge60" class="edge">
<title>gql_example_cli&#45;&gt;gql_link</title>
<path fill="none" stroke="#7c0063" d="M1181.58,-1332.37C1245.74,-1281.67 1420.26,-1127.39 1353,-996.45 1281.4,-857.06 1101.92,-772.9 1017.38,-739.75"/>
<polygon fill="#7c0063" stroke="#7c0063" points="1018.63,-736.48 1008.04,-736.14 1016.11,-743.01 1018.63,-736.48"/>
</g>
<!-- gql_example_cli&#45;&gt;gql_http_link -->
<g id="edge59" class="edge">
<title>gql_example_cli&#45;&gt;gql_http_link</title>
<path fill="none" stroke="#ab8a09" d="M1144.58,-1332.43C1098.13,-1277.61 952.28,-1105.48 897.28,-1040.56"/>
<polygon fill="#ab8a09" stroke="#ab8a09" points="899.87,-1038.21 890.73,-1032.84 894.53,-1042.73 899.87,-1038.21"/>
</g>
<!-- gql_example_cli&#45;&gt;gql_build -->
<g id="edge61" class="edge">
<title>gql_example_cli&#45;&gt;gql_build</title>
<path fill="none" stroke="#3380b0" stroke-dasharray="5,2" d="M1109.57,-1332.36C1101.7,-1329.68 1093.63,-1326.97 1086,-1324.45 734.67,-1208.52 309.37,-1076.2 164.32,-1031.3"/>
<polygon fill="#3380b0" stroke="#3380b0" points="164.95,-1027.83 154.36,-1028.22 162.88,-1034.52 164.95,-1027.83"/>
</g>
<!-- gql_example_build -->
<g id="node17" class="node">
<title>gql_example_build</title>
<polygon fill="none" stroke="#628320" points="1566.5,-1368.45 1417.5,-1368.45 1417.5,-1332.45 1566.5,-1332.45 1566.5,-1368.45"/>
<text text-anchor="middle" x="1492" y="-1346.75" font-family="Times,serif" font-size="14.00">gql_example_build</text>
</g>
<!-- gql_example_build&#45;&gt;gql_pedantic -->
<g id="edge64" class="edge">
<title>gql_example_build&#45;&gt;gql_pedantic</title>
<path fill="none" stroke="#89da51" stroke-dasharray="5,2" d="M1503.08,-1332.29C1550.59,-1256.48 1731.18,-944.29 1651,-696.45 1601.72,-544.11 1573.1,-493.46 1440,-404.45 1093.56,-172.78 568,-142.1 386.93,-138.63"/>
<polygon fill="#89da51" stroke="#89da51" points="386.84,-135.13 376.78,-138.46 386.72,-142.13 386.84,-135.13"/>
</g>
<!-- gql_example_build&#45;&gt;gql_build -->
<g id="edge63" class="edge">
<title>gql_example_build&#45;&gt;gql_build</title>
<path fill="none" stroke="#3380b0" stroke-dasharray="5,2" d="M1436.77,-1332.32C1427.52,-1329.6 1418.01,-1326.88 1409,-1324.45 927.81,-1194.74 338.57,-1064.49 164.01,-1026.49"/>
<polygon fill="#3380b0" stroke="#3380b0" points="164.59,-1023.03 154.08,-1024.33 163.1,-1029.87 164.59,-1023.03"/>
</g>
<!-- gql_dedupe_link -->
<g id="node18" class="node">
<title>gql_dedupe_link</title>
<polygon fill="none" stroke="#cf6bf6" points="1079.5,-1032.45 948.5,-1032.45 948.5,-996.45 1079.5,-996.45 1079.5,-1032.45"/>
<text text-anchor="middle" x="1014" y="-1010.75" font-family="Times,serif" font-size="14.00">gql_dedupe_link</text>
</g>
<!-- gql_dedupe_link&#45;&gt;gql_pedantic -->
<g id="edge68" class="edge">
<title>gql_dedupe_link&#45;&gt;gql_pedantic</title>
<path fill="none" stroke="#89da51" stroke-dasharray="5,2" d="M1000.51,-996.37C914.69,-887.7 445.34,-293.37 342.8,-163.52"/>
<polygon fill="#89da51" stroke="#89da51" points="345.52,-161.33 336.58,-155.65 340.03,-165.66 345.52,-161.33"/>
</g>
<!-- gql_dedupe_link&#45;&gt;gql -->
<g id="edge67" class="edge">
<title>gql_dedupe_link&#45;&gt;gql</title>
<path fill="none" stroke="#68217c" stroke-dasharray="5,2" d="M994.46,-996.35C899.54,-913.28 486.7,-551.96 376.26,-455.31"/>
<polygon fill="#68217c" stroke="#68217c" points="378.37,-452.51 368.54,-448.56 373.76,-457.77 378.37,-452.51"/>
</g>
<!-- gql_dedupe_link&#45;&gt;gql_exec -->
<g id="edge65" class="edge">
<title>gql_dedupe_link&#45;&gt;gql_exec</title>
<path fill="none" stroke="#5b9240" d="M1014.69,-996.26C1016.47,-948.63 1020.88,-810.86 1017,-696.45 1014.05,-609.44 1005.66,-506.64 1001.46,-458.66"/>
<polygon fill="#5b9240" stroke="#5b9240" points="1004.93,-458.13 1000.56,-448.48 997.95,-458.75 1004.93,-458.13"/>
</g>
<!-- gql_dedupe_link&#45;&gt;gql_link -->
<g id="edge66" class="edge">
<title>gql_dedupe_link&#45;&gt;gql_link</title>
<path fill="none" stroke="#7c0063" d="M1011.5,-996.18C1004.47,-947.62 984.48,-809.62 975.94,-750.68"/>
<polygon fill="#7c0063" stroke="#7c0063" points="979.39,-750.03 974.49,-740.63 972.46,-751.03 979.39,-750.03"/>
</g>
<!-- end_to_end_test -->
<g id="node19" class="node">
<title>end_to_end_test</title>
<polygon fill="none" stroke="#97b336" points="153.5,-1368.45 22.5,-1368.45 22.5,-1332.45 153.5,-1332.45 153.5,-1368.45"/>
<text text-anchor="middle" x="88" y="-1346.75" font-family="Times,serif" font-size="14.00">end_to_end_test</text>
</g>
<!-- end_to_end_test&#45;&gt;gql_exec -->
<g id="edge69" class="edge">
<title>end_to_end_test&#45;&gt;gql_exec</title>
<path fill="none" stroke="#5b9240" d="M153.54,-1343.83C379.66,-1322.97 1120.92,-1241.79 1261,-1063.45 1342.27,-959.98 1086.66,-562.28 1016.38,-457.09"/>
<polygon fill="#5b9240" stroke="#5b9240" points="1019.2,-455.01 1010.72,-448.66 1013.38,-458.91 1019.2,-455.01"/>
</g>
<!-- end_to_end_test&#45;&gt;gql_code_builder -->
<g id="edge71" class="edge">
<title>end_to_end_test&#45;&gt;gql_code_builder</title>
<path fill="none" stroke="#1da059" d="M85.42,-1332.21C78.06,-1281.06 57.8,-1125.67 63,-996.45 66.62,-906.34 76.95,-799.91 82.06,-750.8"/>
<polygon fill="#1da059" stroke="#1da059" points="85.56,-750.98 83.13,-740.67 78.6,-750.25 85.56,-750.98"/>
</g>
<!-- end_to_end_test&#45;&gt;gql_build -->
<g id="edge70" class="edge">
<title>end_to_end_test&#45;&gt;gql_build</title>
<path fill="none" stroke="#3380b0" d="M89.27,-1332.43C93.33,-1278.28 105.95,-1109.67 110.94,-1042.99"/>
<polygon fill="#3380b0" stroke="#3380b0" points="114.44,-1043.07 111.7,-1032.84 107.46,-1042.55 114.44,-1043.07"/>
</g>
</g>
</svg>
