<?xml version="1.0" encoding="UTF-8" standalone="no"?>
<!DOCTYPE svg PUBLIC "-//W3C//DTD SVG 1.1//EN"
 "http://www.w3.org/Graphics/SVG/1.1/DTD/svg11.dtd">
<!-- Generated by graphviz version 2.50.0 (20211204.2007)
 -->
<!-- Title: packages Pages: 1 -->
<svg width="720pt" height="646pt"
 viewBox="0.00 0.00 720.00 646.20" xmlns="http://www.w3.org/2000/svg" xmlns:xlink="http://www.w3.org/1999/xlink">
<g id="graph0" class="graph" transform="scale(0.47 0.47) rotate(0) translate(4 1369)">
<title>packages</title>
<polygon fill="white" stroke="transparent" points="-4,4 -4,-1369 1525.79,-1369 1525.79,4 -4,4"/>
<g id="clust1" class="cluster">
<title>cluster </title>
<polygon fill="none" stroke="#a473ff" points="256,-28 256,-462 358,-462 358,-28 256,-28"/>
</g>
<g id="clust2" class="cluster">
<title>cluster links</title>
<polygon fill="none" stroke="#e2446b" points="366,-280 366,-1046.5 1098,-1046.5 1098,-280 366,-280"/>
<text text-anchor="middle" x="732" y="-1031.3" font-family="Times,serif" font-size="14.00">links</text>
</g>
<g id="clust3" class="cluster">
<title>cluster codegen</title>
<polygon fill="none" stroke="#856663" points="8,-532 8,-1337 136,-1337 136,-532 8,-532"/>
<text text-anchor="middle" x="72" y="-1321.8" font-family="Times,serif" font-size="14.00">codegen</text>
</g>
<g id="clust4" class="cluster">
<title>cluster examples</title>
<polygon fill="none" stroke="#e8f445" points="433,-1074.5 433,-1337 1357,-1337 1357,-1074.5 433,-1074.5"/>
<text text-anchor="middle" x="895" y="-1321.8" font-family="Times,serif" font-size="14.00">examples</text>
</g>
<!-- gql_pedantic -->
<g id="node1" class="node">
<title>gql_pedantic</title>
<polygon fill="none" stroke="#89da51" points="350,-137 264,-137 264,-101 350,-101 350,-137"/>
<text text-anchor="middle" x="307" y="-115.3" font-family="Times,serif" font-size="14.00">gql_pedantic</text>
</g>
<!-- gql -->
<g id="node2" class="node">
<title>gql</title>
<polygon fill="none" stroke="#68217c" points="350,-389 296,-389 296,-353 350,-353 350,-389"/>
<text text-anchor="middle" x="323" y="-367.3" font-family="Times,serif" font-size="14.00">gql</text>
</g>
<!-- gql&#45;&gt;gql_pedantic -->
<g id="edge1" class="edge">
<title>gql&#45;&gt;gql_pedantic</title>
<path fill="none" stroke="#89da51" stroke-dasharray="5,2" d="M321.9,-352.82C319.17,-310.18 312.07,-199.24 308.75,-147.42"/>
<polygon fill="#89da51" stroke="#89da51" points="312.24,-147.06 308.11,-137.3 305.25,-147.51 312.24,-147.06"/>
</g>
<!-- gql_exec -->
<g id="node3" class="node">
<title>gql_exec</title>
<polygon fill="none" stroke="#5b9240" points="998.5,-389 933.5,-389 933.5,-353 998.5,-353 998.5,-389"/>
<text text-anchor="middle" x="966" y="-367.3" font-family="Times,serif" font-size="14.00">gql_exec</text>
</g>
<!-- gql_exec&#45;&gt;gql_pedantic -->
<g id="edge3" class="edge">
<title>gql_exec&#45;&gt;gql_pedantic</title>
<path fill="none" stroke="#89da51" stroke-dasharray="5,2" d="M933.32,-357.6C827.03,-317.28 490.49,-189.61 359.7,-139.99"/>
<polygon fill="#89da51" stroke="#89da51" points="360.86,-136.69 350.27,-136.42 358.38,-143.24 360.86,-136.69"/>
</g>
<!-- gql_exec&#45;&gt;gql -->
<g id="edge2" class="edge">
<title>gql_exec&#45;&gt;gql</title>
<path fill="none" stroke="#68217c" d="M933.21,-371C742.23,-371 551.24,-371 360.25,-371"/>
<polygon fill="#68217c" stroke="#68217c" points="360,-367.5 350,-371 360,-374.5 360,-367.5"/>
</g>
<!-- gql_link -->
<g id="node4" class="node">
<title>gql_link</title>
<polygon fill="none" stroke="#7c0063" points="972,-641 910,-641 910,-605 972,-605 972,-641"/>
<text text-anchor="middle" x="941" y="-619.3" font-family="Times,serif" font-size="14.00">gql_link</text>
</g>
<!-- gql_link&#45;&gt;gql_pedantic -->
<g id="edge6" class="edge">
<title>gql_link&#45;&gt;gql_pedantic</title>
<path fill="none" stroke="#89da51" stroke-dasharray="5,2" d="M937.75,-604.93C927.89,-557.5 894.08,-422.49 816,-345 683.56,-213.57 461.28,-152.39 360.07,-130.27"/>
<polygon fill="#89da51" stroke="#89da51" points="360.59,-126.8 350.08,-128.13 359.13,-133.64 360.59,-126.8"/>
</g>
<!-- gql_link&#45;&gt;gql -->
<g id="edge4" class="edge">
<title>gql_link&#45;&gt;gql</title>
<path fill="none" stroke="#68217c" d="M909.93,-612.36C821.69,-584.47 562.92,-499.15 362,-397 360.28,-396.13 358.54,-395.19 356.8,-394.23"/>
<polygon fill="#68217c" stroke="#68217c" points="358.56,-391.2 348.16,-389.16 355.01,-397.24 358.56,-391.2"/>
</g>
<!-- gql_link&#45;&gt;gql_exec -->
<g id="edge5" class="edge">
<title>gql_link&#45;&gt;gql_exec</title>
<path fill="none" stroke="#5b9240" d="M942.72,-604.82C946.98,-562.18 958.08,-451.24 963.26,-399.42"/>
<polygon fill="#5b9240" stroke="#5b9240" points="966.76,-399.6 964.27,-389.3 959.79,-398.91 966.76,-399.6"/>
</g>
<!-- gql_websocket_link -->
<g id="node5" class="node">
<title>gql_websocket_link</title>
<polygon fill="none" stroke="#bb5677" points="1089.5,-893 964.5,-893 964.5,-857 1089.5,-857 1089.5,-893"/>
<text text-anchor="middle" x="1027" y="-871.3" font-family="Times,serif" font-size="14.00">gql_websocket_link</text>
</g>
<!-- gql_websocket_link&#45;&gt;gql_pedantic -->
<g id="edge10" class="edge">
<title>gql_websocket_link&#45;&gt;gql_pedantic</title>
<path fill="none" stroke="#89da51" stroke-dasharray="5,2" d="M1010.61,-856.83C916.18,-757.94 441.89,-261.26 330.46,-144.57"/>
<polygon fill="#89da51" stroke="#89da51" points="332.8,-141.95 323.37,-137.14 327.74,-146.79 332.8,-141.95"/>
</g>
<!-- gql_websocket_link&#45;&gt;gql -->
<g id="edge7" class="edge">
<title>gql_websocket_link&#45;&gt;gql</title>
<path fill="none" stroke="#68217c" d="M1002.77,-856.72C897.09,-781.37 476.49,-481.45 355.63,-395.27"/>
<polygon fill="#68217c" stroke="#68217c" points="357.31,-392.16 347.13,-389.21 353.24,-397.86 357.31,-392.16"/>
</g>
<!-- gql_websocket_link&#45;&gt;gql_exec -->
<g id="edge8" class="edge">
<title>gql_websocket_link&#45;&gt;gql_exec</title>
<path fill="none" stroke="#5b9240" d="M1025.2,-856.8C1020.63,-813.28 1008.04,-695.22 996,-597 987.24,-525.57 975.71,-441.57 969.82,-399.27"/>
<polygon fill="#5b9240" stroke="#5b9240" points="973.27,-398.62 968.42,-389.2 966.34,-399.59 973.27,-398.62"/>
</g>
<!-- gql_websocket_link&#45;&gt;gql_link -->
<g id="edge9" class="edge">
<title>gql_websocket_link&#45;&gt;gql_link</title>
<path fill="none" stroke="#7c0063" d="M1021.09,-856.82C1006.36,-814 967.94,-702.31 950.21,-650.77"/>
<polygon fill="#7c0063" stroke="#7c0063" points="953.52,-649.62 946.95,-641.3 946.9,-651.9 953.52,-649.62"/>
</g>
<!-- gql_transform_link -->
<g id="node6" class="node">
<title>gql_transform_link</title>
<polygon fill="none" stroke="#21d185" points="496,-893 374,-893 374,-857 496,-857 496,-893"/>
<text text-anchor="middle" x="435" y="-871.3" font-family="Times,serif" font-size="14.00">gql_transform_link</text>
</g>
<!-- gql_transform_link&#45;&gt;gql_pedantic -->
<g id="edge14" class="edge">
<title>gql_transform_link&#45;&gt;gql_pedantic</title>
<path fill="none" stroke="#89da51" stroke-dasharray="5,2" d="M433.04,-856.56C425.42,-789.87 396.36,-544.73 359,-345 345.51,-272.89 324.74,-188.9 313.98,-146.87"/>
<polygon fill="#89da51" stroke="#89da51" points="317.36,-145.93 311.48,-137.11 310.58,-147.67 317.36,-145.93"/>
</g>
<!-- gql_transform_link&#45;&gt;gql -->
<g id="edge13" class="edge">
<title>gql_transform_link&#45;&gt;gql</title>
<path fill="none" stroke="#68217c" stroke-dasharray="5,2" d="M431.14,-856.72C414.57,-782.42 349.28,-489.81 329.03,-399.02"/>
<polygon fill="#68217c" stroke="#68217c" points="332.43,-398.21 326.84,-389.21 325.6,-399.73 332.43,-398.21"/>
</g>
<!-- gql_transform_link&#45;&gt;gql_exec -->
<g id="edge11" class="edge">
<title>gql_transform_link&#45;&gt;gql_exec</title>
<path fill="none" stroke="#5b9240" d="M453.28,-856.72C532.66,-781.67 847.69,-483.85 940.28,-396.31"/>
<polygon fill="#5b9240" stroke="#5b9240" points="942.94,-398.62 947.8,-389.21 938.13,-393.53 942.94,-398.62"/>
</g>
<!-- gql_transform_link&#45;&gt;gql_link -->
<g id="edge12" class="edge">
<title>gql_transform_link&#45;&gt;gql_link</title>
<path fill="none" stroke="#7c0063" d="M469.78,-856.82C560.54,-811.98 804.18,-691.6 900.76,-643.88"/>
<polygon fill="#7c0063" stroke="#7c0063" points="902.49,-646.93 909.91,-639.36 899.39,-640.65 902.49,-646.93"/>
</g>
<!-- gql_http_link -->
<g id="node7" class="node">
<title>gql_http_link</title>
<polygon fill="none" stroke="#ab8a09" points="821.5,-893 732.5,-893 732.5,-857 821.5,-857 821.5,-893"/>
<text text-anchor="middle" x="777" y="-871.3" font-family="Times,serif" font-size="14.00">gql_http_link</text>
</g>
<!-- gql_http_link&#45;&gt;gql_pedantic -->
<g id="edge18" class="edge">
<title>gql_http_link&#45;&gt;gql_pedantic</title>
<path fill="none" stroke="#89da51" stroke-dasharray="5,2" d="M766.3,-856.83C704.84,-758.24 396.91,-264.24 322.98,-145.63"/>
<polygon fill="#89da51" stroke="#89da51" points="325.94,-143.77 317.68,-137.14 320,-147.48 325.94,-143.77"/>
</g>
<!-- gql_http_link&#45;&gt;gql -->
<g id="edge15" class="edge">
<title>gql_http_link&#45;&gt;gql</title>
<path fill="none" stroke="#68217c" d="M761.37,-856.72C693.63,-781.82 425.23,-485.04 345.47,-396.84"/>
<polygon fill="#68217c" stroke="#68217c" points="347.87,-394.28 338.56,-389.21 342.67,-398.97 347.87,-394.28"/>
</g>
<!-- gql_http_link&#45;&gt;gql_exec -->
<g id="edge16" class="edge">
<title>gql_http_link&#45;&gt;gql_exec</title>
<path fill="none" stroke="#5b9240" d="M784.8,-856.94C802.16,-818.69 844.92,-722.99 876,-641 909.17,-553.48 942.7,-447.65 957.76,-398.93"/>
<polygon fill="#5b9240" stroke="#5b9240" points="961.18,-399.75 960.78,-389.16 954.49,-397.69 961.18,-399.75"/>
</g>
<!-- gql_http_link&#45;&gt;gql_link -->
<g id="edge17" class="edge">
<title>gql_http_link&#45;&gt;gql_link</title>
<path fill="none" stroke="#7c0063" d="M788.27,-856.82C816.54,-813.73 890.55,-700.91 924.07,-649.81"/>
<polygon fill="#7c0063" stroke="#7c0063" points="927.09,-651.59 929.65,-641.3 921.24,-647.75 927.09,-651.59"/>
</g>
<!-- gql_error_link -->
<g id="node8" class="node">
<title>gql_error_link</title>
<polygon fill="none" stroke="#5f79bc" points="609.5,-893 514.5,-893 514.5,-857 609.5,-857 609.5,-893"/>
<text text-anchor="middle" x="562" y="-871.3" font-family="Times,serif" font-size="14.00">gql_error_link</text>
</g>
<!-- gql_error_link&#45;&gt;gql_pedantic -->
<g id="edge22" class="edge">
<title>gql_error_link&#45;&gt;gql_pedantic</title>
<path fill="none" stroke="#89da51" stroke-dasharray="5,2" d="M556.19,-856.83C522.95,-758.54 356.78,-267.2 316.03,-146.71"/>
<polygon fill="#89da51" stroke="#89da51" points="319.32,-145.49 312.8,-137.14 312.68,-147.73 319.32,-145.49"/>
</g>
<!-- gql_error_link&#45;&gt;gql -->
<g id="edge21" class="edge">
<title>gql_error_link&#45;&gt;gql</title>
<path fill="none" stroke="#68217c" stroke-dasharray="5,2" d="M553.77,-856.72C518.33,-782.27 378.52,-488.62 335.6,-398.47"/>
<polygon fill="#68217c" stroke="#68217c" points="338.65,-396.73 331.19,-389.21 332.33,-399.74 338.65,-396.73"/>
</g>
<!-- gql_error_link&#45;&gt;gql_exec -->
<g id="edge19" class="edge">
<title>gql_error_link&#45;&gt;gql_exec</title>
<path fill="none" stroke="#5b9240" d="M589.18,-856.91C642.69,-822.08 762.85,-737.95 836,-641 848.94,-623.85 846.84,-616.43 856,-597 890.15,-524.58 932.09,-439.92 952.94,-398.1"/>
<polygon fill="#5b9240" stroke="#5b9240" points="956.08,-399.65 957.42,-389.14 949.82,-396.52 956.08,-399.65"/>
</g>
<!-- gql_error_link&#45;&gt;gql_link -->
<g id="edge20" class="edge">
<title>gql_error_link&#45;&gt;gql_link</title>
<path fill="none" stroke="#7c0063" d="M588.05,-856.82C654.66,-812.88 831.24,-696.4 906.37,-646.84"/>
<polygon fill="#7c0063" stroke="#7c0063" points="908.6,-649.57 915.02,-641.14 904.74,-643.72 908.6,-649.57"/>
</g>
<!-- gql_code_builder -->
<g id="node9" class="node">
<title>gql_code_builder</title>
<polygon fill="none" stroke="#1da059" points="127.5,-641 16.5,-641 16.5,-605 127.5,-605 127.5,-641"/>
<text text-anchor="middle" x="72" y="-619.3" font-family="Times,serif" font-size="14.00">gql_code_builder</text>
</g>
<!-- gql_code_builder&#45;&gt;gql_pedantic -->
<g id="edge25" class="edge">
<title>gql_code_builder&#45;&gt;gql_pedantic</title>
<path fill="none" stroke="#89da51" stroke-dasharray="5,2" d="M80.09,-604.72C114.94,-530.27 252.41,-236.62 294.61,-146.47"/>
<polygon fill="#89da51" stroke="#89da51" points="297.87,-147.75 298.94,-137.21 291.54,-144.78 297.87,-147.75"/>
</g>
<!-- gql_code_builder&#45;&gt;gql -->
<g id="edge23" class="edge">
<title>gql_code_builder&#45;&gt;gql</title>
<path fill="none" stroke="#68217c" d="M89.25,-604.82C132.87,-561.38 247.66,-447.04 298.35,-396.56"/>
<polygon fill="#68217c" stroke="#68217c" points="301.01,-398.84 305.63,-389.3 296.07,-393.88 301.01,-398.84"/>
</g>
<!-- gql_code_builder&#45;&gt;gql_exec -->
<g id="edge24" class="edge">
<title>gql_code_builder&#45;&gt;gql_exec</title>
<path fill="none" stroke="#5b9240" d="M127.59,-606.46C292.43,-560.36 776.25,-425.06 923.19,-383.97"/>
<polygon fill="#5b9240" stroke="#5b9240" points="924.49,-387.24 933.18,-381.18 922.61,-380.5 924.49,-387.24"/>
</g>
<!-- gql_build -->
<g id="node10" class="node">
<title>gql_build</title>
<polygon fill="none" stroke="#3380b0" points="128,-893 60,-893 60,-857 128,-857 128,-893"/>
<text text-anchor="middle" x="94" y="-871.3" font-family="Times,serif" font-size="14.00">gql_build</text>
</g>
<!-- gql_build&#45;&gt;gql_pedantic -->
<g id="edge28" class="edge">
<title>gql_build&#45;&gt;gql_pedantic</title>
<path fill="none" stroke="#89da51" stroke-dasharray="5,2" d="M81.39,-856.9C51.03,-813.61 -21.56,-696.05 7,-597 62.99,-402.79 224,-211.38 284.05,-144.73"/>
<polygon fill="#89da51" stroke="#89da51" points="286.73,-146.99 290.86,-137.23 281.55,-142.29 286.73,-146.99"/>
</g>
<!-- gql_build&#45;&gt;gql -->
<g id="edge26" class="edge">
<title>gql_build&#45;&gt;gql</title>
<path fill="none" stroke="#68217c" d="M97.64,-856.88C107.43,-812.54 136.52,-690.9 180,-597 215.69,-519.91 273.7,-437.71 303.69,-397.35"/>
<polygon fill="#68217c" stroke="#68217c" points="306.63,-399.26 309.82,-389.16 301.03,-395.07 306.63,-399.26"/>
</g>
<!-- gql_build&#45;&gt;gql_code_builder -->
<g id="edge27" class="edge">
<title>gql_build&#45;&gt;gql_code_builder</title>
<path fill="none" stroke="#1da059" d="M92.49,-856.82C88.74,-814.18 78.97,-703.24 74.41,-651.42"/>
<polygon fill="#1da059" stroke="#1da059" points="77.89,-650.96 73.52,-641.3 70.91,-651.57 77.89,-650.96"/>
</g>
<!-- gql_example_http_auth_link -->
<g id="node11" class="node">
<title>gql_example_http_auth_link</title>
<polygon fill="none" stroke="#8a0733" points="781.5,-1184 608.5,-1184 608.5,-1148 781.5,-1148 781.5,-1184"/>
<text text-anchor="middle" x="695" y="-1162.3" font-family="Times,serif" font-size="14.00">gql_example_http_auth_link</text>
</g>
<!-- gql_example_http_auth_link&#45;&gt;gql_pedantic -->
<g id="edge36" class="edge">
<title>gql_example_http_auth_link&#45;&gt;gql_pedantic</title>
<path fill="none" stroke="#89da51" stroke-dasharray="5,2" d="M752.82,-1147.99C906.83,-1102.11 1317.77,-975.82 1354,-924 1382.67,-882.99 1445.73,-857.02 1346,-597 1191.49,-194.16 550.25,-131.52 360.27,-121.79"/>
<polygon fill="#89da51" stroke="#89da51" points="360.4,-118.29 350.24,-121.3 360.06,-125.28 360.4,-118.29"/>
</g>
<!-- gql_example_http_auth_link&#45;&gt;gql -->
<g id="edge29" class="edge">
<title>gql_example_http_auth_link&#45;&gt;gql</title>
<path fill="none" stroke="#68217c" d="M651.75,-1147.9C550.04,-1106.72 300.89,-999.85 256,-924 151.24,-746.99 267.27,-482.26 309.14,-398.44"/>
<polygon fill="#68217c" stroke="#68217c" points="312.35,-399.85 313.74,-389.35 306.1,-396.69 312.35,-399.85"/>
</g>
<!-- gql_example_http_auth_link&#45;&gt;gql_exec -->
<g id="edge31" class="edge">
<title>gql_example_http_auth_link&#45;&gt;gql_exec</title>
<path fill="none" stroke="#5b9240" d="M749.5,-1147.95C895.68,-1101.69 1287.68,-973.95 1322,-924 1404.29,-804.21 1392.13,-724.29 1322,-597 1254.07,-473.72 1086.98,-408.61 1008.29,-383.9"/>
<polygon fill="#5b9240" stroke="#5b9240" points="1009.28,-380.55 998.69,-380.95 1007.22,-387.24 1009.28,-380.55"/>
</g>
<!-- gql_example_http_auth_link&#45;&gt;gql_link -->
<g id="edge33" class="edge">
<title>gql_example_http_auth_link&#45;&gt;gql_link</title>
<path fill="none" stroke="#7c0063" d="M760.7,-1147.93C855.22,-1119.42 1026.21,-1052.19 1099,-924 1156.47,-822.8 1030.94,-698.99 970.79,-647.84"/>
<polygon fill="#7c0063" stroke="#7c0063" points="972.68,-644.86 962.76,-641.12 968.18,-650.22 972.68,-644.86"/>
</g>
<!-- gql_example_http_auth_link&#45;&gt;gql_transform_link -->
<g id="edge34" class="edge">
<title>gql_example_http_auth_link&#45;&gt;gql_transform_link</title>
<path fill="none" stroke="#21d185" d="M679.51,-1147.79C635.35,-1098.69 508.64,-957.86 457.15,-900.63"/>
<polygon fill="#21d185" stroke="#21d185" points="459.69,-898.22 450.4,-893.12 454.49,-902.9 459.69,-898.22"/>
</g>
<!-- gql_example_http_auth_link&#45;&gt;gql_http_link -->
<g id="edge32" class="edge">
<title>gql_example_http_auth_link&#45;&gt;gql_http_link</title>
<path fill="none" stroke="#ab8a09" d="M699.88,-1147.79C713.64,-1099.3 752.8,-961.3 769.4,-902.77"/>
<polygon fill="#ab8a09" stroke="#ab8a09" points="772.78,-903.7 772.14,-893.12 766.04,-901.79 772.78,-903.7"/>
</g>
<!-- gql_example_http_auth_link&#45;&gt;gql_error_link -->
<g id="edge30" class="edge">
<title>gql_example_http_auth_link&#45;&gt;gql_error_link</title>
<path fill="none" stroke="#5f79bc" d="M687.08,-1147.79C664.72,-1099.2 600.99,-960.73 574.15,-902.41"/>
<polygon fill="#5f79bc" stroke="#5f79bc" points="577.24,-900.74 569.88,-893.12 570.88,-903.67 577.24,-900.74"/>
</g>
<!-- gql_example_http_auth_link&#45;&gt;gql_build -->
<g id="edge35" class="edge">
<title>gql_example_http_auth_link&#45;&gt;gql_build</title>
<path fill="none" stroke="#3380b0" stroke-dasharray="5,2" d="M659.2,-1147.79C554.74,-1097.55 250.53,-951.27 137.21,-896.78"/>
<polygon fill="#3380b0" stroke="#3380b0" points="138.64,-893.58 128.11,-892.4 135.6,-899.89 138.64,-893.58"/>
</g>
<!-- gql_example_flutter -->
<g id="node12" class="node">
<title>gql_example_flutter</title>
<polygon fill="none" stroke="#671702" points="1208.5,-1184 1081.5,-1184 1081.5,-1148 1208.5,-1148 1208.5,-1184"/>
<text text-anchor="middle" x="1145" y="-1162.3" font-family="Times,serif" font-size="14.00">gql_example_flutter</text>
</g>
<!-- gql_example_flutter&#45;&gt;gql_pedantic -->
<g id="edge41" class="edge">
<title>gql_example_flutter&#45;&gt;gql_pedantic</title>
<path fill="none" stroke="#89da51" stroke-dasharray="5,2" d="M1177.94,-1147.99C1238.47,-1114.61 1365.69,-1034.1 1415,-924 1525.25,-677.81 1451.14,-503.67 1233,-345 953.12,-141.42 512.31,-120.31 360.48,-119.4"/>
<polygon fill="#89da51" stroke="#89da51" points="360.49,-115.9 350.48,-119.36 360.46,-122.9 360.49,-115.9"/>
</g>
<!-- gql_example_flutter&#45;&gt;gql -->
<g id="edge37" class="edge">
<title>gql_example_flutter&#45;&gt;gql</title>
<path fill="none" stroke="#68217c" d="M1096.68,-1147.93C1088.78,-1145.22 1080.68,-1142.5 1073,-1140 758.95,-1037.82 567.91,-1182.21 362,-924 296.69,-842.1 314.35,-499.17 321.01,-399.36"/>
<polygon fill="#68217c" stroke="#68217c" points="324.52,-399.41 321.71,-389.19 317.54,-398.93 324.52,-399.41"/>
</g>
<!-- gql_example_flutter&#45;&gt;gql_exec -->
<g id="edge40" class="edge">
<title>gql_example_flutter&#45;&gt;gql_exec</title>
<path fill="none" stroke="#5b9240" d="M1188.23,-1147.95C1261.38,-1116.43 1407.36,-1041.35 1466,-924 1497.45,-861.06 1575.82,-771.61 1461,-597 1356.18,-437.6 1108.36,-389.65 1008.65,-376.52"/>
<polygon fill="#5b9240" stroke="#5b9240" points="1009,-373.04 998.64,-375.26 1008.12,-379.98 1009,-373.04"/>
</g>
<!-- gql_example_flutter&#45;&gt;gql_link -->
<g id="edge38" class="edge">
<title>gql_example_flutter&#45;&gt;gql_link</title>
<path fill="none" stroke="#7c0063" d="M1157.54,-1147.89C1190.98,-1099.98 1276.52,-961.21 1227,-857 1175.78,-749.21 1047.6,-674.89 981.63,-642.43"/>
<polygon fill="#7c0063" stroke="#7c0063" points="982.89,-639.15 972.37,-637.94 979.84,-645.45 982.89,-639.15"/>
</g>
<!-- gql_example_flutter&#45;&gt;gql_http_link -->
<g id="edge39" class="edge">
<title>gql_example_flutter&#45;&gt;gql_http_link</title>
<path fill="none" stroke="#ab8a09" d="M1121.31,-1147.73C1068.34,-1108.91 936.68,-1011.33 831,-924 821.82,-916.41 812.02,-907.85 803.33,-900.08"/>
<polygon fill="#ab8a09" stroke="#ab8a09" points="805.48,-897.31 795.7,-893.22 800.79,-902.51 805.48,-897.31"/>
</g>
<!-- gql_example_flutter&#45;&gt;gql_build -->
<g id="edge42" class="edge">
<title>gql_example_flutter&#45;&gt;gql_build</title>
<path fill="none" stroke="#3380b0" stroke-dasharray="5,2" d="M1097.52,-1147.98C1089.37,-1145.21 1080.97,-1142.45 1073,-1140 715.2,-1029.79 276.21,-920.49 137.88,-886.65"/>
<polygon fill="#3380b0" stroke="#3380b0" points="138.61,-883.23 128.07,-884.26 136.95,-890.03 138.61,-883.23"/>
</g>
<!-- gql_dio_link -->
<g id="node13" class="node">
<title>gql_dio_link</title>
<polygon fill="none" stroke="#45c9c3" points="714,-893 628,-893 628,-857 714,-857 714,-893"/>
<text text-anchor="middle" x="671" y="-871.3" font-family="Times,serif" font-size="14.00">gql_dio_link</text>
</g>
<!-- gql_dio_link&#45;&gt;gql_pedantic -->
<g id="edge46" class="edge">
<title>gql_dio_link&#45;&gt;gql_pedantic</title>
<path fill="none" stroke="#89da51" stroke-dasharray="5,2" d="M662.71,-856.83C615.21,-758.44 377.59,-266.21 319.72,-146.35"/>
<polygon fill="#89da51" stroke="#89da51" points="322.77,-144.62 315.27,-137.14 316.47,-147.67 322.77,-144.62"/>
</g>
<!-- gql_dio_link&#45;&gt;gql -->
<g id="edge45" class="edge">
<title>gql_dio_link&#45;&gt;gql</title>
<path fill="none" stroke="#68217c" stroke-dasharray="5,2" d="M659.02,-856.72C607.26,-782.05 402.61,-486.83 340.78,-397.65"/>
<polygon fill="#68217c" stroke="#68217c" points="343.5,-395.43 334.93,-389.21 337.75,-399.42 343.5,-395.43"/>
</g>
<!-- gql_dio_link&#45;&gt;gql_exec -->
<g id="edge43" class="edge">
<title>gql_dio_link&#45;&gt;gql_exec</title>
<path fill="none" stroke="#5b9240" d="M687.49,-856.85C722.34,-819.91 804.46,-729.04 856,-641 868.98,-618.84 930.89,-461.77 955.69,-398.4"/>
<polygon fill="#5b9240" stroke="#5b9240" points="958.96,-399.66 959.34,-389.07 952.44,-397.11 958.96,-399.66"/>
</g>
<!-- gql_dio_link&#45;&gt;gql_link -->
<g id="edge44" class="edge">
<title>gql_dio_link&#45;&gt;gql_link</title>
<path fill="none" stroke="#7c0063" d="M689.56,-856.82C736.57,-813.29 860.47,-698.57 914.82,-648.25"/>
<polygon fill="#7c0063" stroke="#7c0063" points="917.35,-650.67 922.31,-641.3 912.6,-645.53 917.35,-650.67"/>
</g>
<!-- gql_example_dio_link -->
<g id="node14" class="node">
<title>gql_example_dio_link</title>
<polygon fill="none" stroke="#058cba" points="938.5,-1184 799.5,-1184 799.5,-1148 938.5,-1148 938.5,-1184"/>
<text text-anchor="middle" x="869" y="-1162.3" font-family="Times,serif" font-size="14.00">gql_example_dio_link</text>
</g>
<!-- gql_example_dio_link&#45;&gt;gql -->
<g id="edge47" class="edge">
<title>gql_example_dio_link&#45;&gt;gql</title>
<path fill="none" stroke="#68217c" d="M819.71,-1147.87C686.15,-1100.98 325.21,-970.92 294,-924 180.62,-753.54 276.34,-483.86 311.4,-398.69"/>
<polygon fill="#68217c" stroke="#68217c" points="314.72,-399.81 315.36,-389.24 308.27,-397.11 314.72,-399.81"/>
</g>
<!-- gql_example_dio_link&#45;&gt;gql_exec -->
<g id="edge49" class="edge">
<title>gql_example_dio_link&#45;&gt;gql_exec</title>
<path fill="none" stroke="#5b9240" d="M913.5,-1147.93C1035.74,-1100.6 1369.5,-968.29 1398,-924 1476.63,-801.77 1473.38,-721.26 1398,-597 1311,-453.59 1099.47,-397.34 1008.61,-379.27"/>
<polygon fill="#5b9240" stroke="#5b9240" points="1009.14,-375.81 998.66,-377.35 1007.82,-382.68 1009.14,-375.81"/>
</g>
<!-- gql_example_dio_link&#45;&gt;gql_link -->
<g id="edge48" class="edge">
<title>gql_example_dio_link&#45;&gt;gql_link</title>
<path fill="none" stroke="#7c0063" d="M907.99,-1147.94C976.16,-1115.67 1115,-1038.5 1170,-924 1225.87,-807.7 1060.3,-692.82 980.9,-645.98"/>
<polygon fill="#7c0063" stroke="#7c0063" points="982.52,-642.88 972.12,-640.87 979,-648.93 982.52,-642.88"/>
</g>
<!-- gql_example_dio_link&#45;&gt;gql_dio_link -->
<g id="edge50" class="edge">
<title>gql_example_dio_link&#45;&gt;gql_dio_link</title>
<path fill="none" stroke="#45c9c3" d="M857.21,-1147.79C823.78,-1099 728.26,-959.58 688.6,-901.69"/>
<polygon fill="#45c9c3" stroke="#45c9c3" points="691.27,-899.39 682.73,-893.12 685.5,-903.35 691.27,-899.39"/>
</g>
<!-- gql_example_cli_github -->
<g id="node15" class="node">
<title>gql_example_cli_github</title>
<polygon fill="none" stroke="#9b3b01" points="590.5,-1184 441.5,-1184 441.5,-1148 590.5,-1148 590.5,-1184"/>
<text text-anchor="middle" x="516" y="-1162.3" font-family="Times,serif" font-size="14.00">gql_example_cli_github</text>
</g>
<!-- gql_example_cli_github&#45;&gt;gql_pedantic -->
<g id="edge56" class="edge">
<title>gql_example_cli_github&#45;&gt;gql_pedantic</title>
<path fill="none" stroke="#89da51" stroke-dasharray="5,2" d="M572.5,-1147.99C723.52,-1101.99 1127.48,-975.13 1163,-924 1177.53,-903.08 1192.5,-935.55 1152,-597 1138.44,-483.63 1179.45,-428.9 1102,-345 998.88,-233.29 521.48,-152.31 360.31,-127.76"/>
<polygon fill="#89da51" stroke="#89da51" points="360.57,-124.26 350.16,-126.23 359.52,-131.18 360.57,-124.26"/>
</g>
<!-- gql_example_cli_github&#45;&gt;gql -->
<g id="edge51" class="edge">
<title>gql_example_cli_github&#45;&gt;gql</title>
<path fill="none" stroke="#68217c" d="M477.65,-1147.95C410.23,-1115.58 272.46,-1038.09 218,-924 155.39,-792.84 186.52,-738.88 218,-597 235.06,-520.09 281.28,-438.31 306.33,-397.82"/>
<polygon fill="#68217c" stroke="#68217c" points="309.43,-399.47 311.77,-389.13 303.49,-395.75 309.43,-399.47"/>
</g>
<!-- gql_example_cli_github&#45;&gt;gql_exec -->
<g id="edge52" class="edge">
<title>gql_example_cli_github&#45;&gt;gql_exec</title>
<path fill="none" stroke="#5b9240" d="M569.3,-1147.96C712.72,-1101.59 1098.33,-973.32 1132,-924 1213.93,-803.96 1177.42,-735.06 1132,-597 1104.34,-512.92 1031.86,-434.46 992.45,-396.28"/>
<polygon fill="#5b9240" stroke="#5b9240" points="994.68,-393.57 985.03,-389.19 989.84,-398.63 994.68,-393.57"/>
</g>
<!-- gql_example_cli_github&#45;&gt;gql_transform_link -->
<g id="edge54" class="edge">
<title>gql_example_cli_github&#45;&gt;gql_transform_link</title>
<path fill="none" stroke="#21d185" d="M511.18,-1147.79C497.59,-1099.3 458.91,-961.3 442.5,-902.77"/>
<polygon fill="#21d185" stroke="#21d185" points="445.87,-901.81 439.8,-893.12 439.13,-903.7 445.87,-901.81"/>
</g>
<!-- gql_example_cli_github&#45;&gt;gql_http_link -->
<g id="edge53" class="edge">
<title>gql_example_cli_github&#45;&gt;gql_http_link</title>
<path fill="none" stroke="#ab8a09" d="M531.55,-1147.79C575.88,-1098.69 703.07,-957.86 754.76,-900.63"/>
<polygon fill="#ab8a09" stroke="#ab8a09" points="757.43,-902.89 761.54,-893.12 752.24,-898.2 757.43,-902.89"/>
</g>
<!-- gql_example_cli_github&#45;&gt;gql_build -->
<g id="edge55" class="edge">
<title>gql_example_cli_github&#45;&gt;gql_build</title>
<path fill="none" stroke="#3380b0" stroke-dasharray="5,2" d="M490.87,-1147.79C418.45,-1098.19 209.31,-954.97 127.43,-898.9"/>
<polygon fill="#3380b0" stroke="#3380b0" points="129.23,-895.89 119,-893.12 125.28,-901.66 129.23,-895.89"/>
</g>
<!-- gql_example_cli -->
<g id="node16" class="node">
<title>gql_example_cli</title>
<polygon fill="none" stroke="#18510b" points="1063.5,-1184 956.5,-1184 956.5,-1148 1063.5,-1148 1063.5,-1184"/>
<text text-anchor="middle" x="1010" y="-1162.3" font-family="Times,serif" font-size="14.00">gql_example_cli</text>
</g>
<!-- gql_example_cli&#45;&gt;gql_pedantic -->
<g id="edge62" class="edge">
<title>gql_example_cli&#45;&gt;gql_pedantic</title>
<path fill="none" stroke="#89da51" stroke-dasharray="5,2" d="M1045.41,-1147.98C1131.93,-1105.59 1349.78,-993.69 1388,-924 1416.5,-872.02 1447.57,-817.44 1367,-597 1319.75,-467.73 1300.56,-422.76 1187,-345 916.68,-159.89 505.51,-127.04 360.16,-121.24"/>
<polygon fill="#89da51" stroke="#89da51" points="360.29,-117.74 350.16,-120.87 360.03,-124.74 360.29,-117.74"/>
</g>
<!-- gql_example_cli&#45;&gt;gql -->
<g id="edge57" class="edge">
<title>gql_example_cli&#45;&gt;gql</title>
<path fill="none" stroke="#68217c" d="M968.42,-1147.93C961.61,-1145.22 954.63,-1142.5 948,-1140 676.5,-1037.72 501.73,-1159.29 332,-924 212.38,-758.18 285.87,-485.4 313.7,-399.08"/>
<polygon fill="#68217c" stroke="#68217c" points="317.05,-400.09 316.85,-389.49 310.4,-397.9 317.05,-400.09"/>
</g>
<!-- gql_example_cli&#45;&gt;gql_exec -->
<g id="edge58" class="edge">
<title>gql_example_cli&#45;&gt;gql_exec</title>
<path fill="none" stroke="#5b9240" d="M1051.63,-1147.87C1150.14,-1106.39 1392.55,-998.5 1436,-924 1509.22,-798.46 1513.46,-719.97 1436,-597 1339.23,-443.39 1105.34,-392.34 1008.79,-377.46"/>
<polygon fill="#5b9240" stroke="#5b9240" points="1009.2,-373.98 998.8,-375.97 1008.17,-380.91 1009.2,-373.98"/>
</g>
<!-- gql_example_cli&#45;&gt;gql_link -->
<g id="edge60" class="edge">
<title>gql_example_cli&#45;&gt;gql_link</title>
<path fill="none" stroke="#7c0063" d="M1035.91,-1147.98C1100.96,-1103 1262.19,-976.21 1208,-857 1161.14,-753.92 1043.65,-678.62 981.31,-644.44"/>
<polygon fill="#7c0063" stroke="#7c0063" points="982.63,-641.17 972.16,-639.5 979.3,-647.33 982.63,-641.17"/>
</g>
<!-- gql_example_cli&#45;&gt;gql_http_link -->
<g id="edge59" class="edge">
<title>gql_example_cli&#45;&gt;gql_http_link</title>
<path fill="none" stroke="#ab8a09" d="M996.12,-1147.79C956.62,-1098.8 843.46,-958.43 797.14,-900.98"/>
<polygon fill="#ab8a09" stroke="#ab8a09" points="799.81,-898.71 790.8,-893.12 794.36,-903.1 799.81,-898.71"/>
</g>
<!-- gql_example_cli&#45;&gt;gql_build -->
<g id="edge61" class="edge">
<title>gql_example_cli&#45;&gt;gql_build</title>
<path fill="none" stroke="#3380b0" stroke-dasharray="5,2" d="M969.16,-1147.97C962.14,-1145.21 954.89,-1142.45 948,-1140 641.55,-1031.06 264.51,-923.56 137.84,-888.15"/>
<polygon fill="#3380b0" stroke="#3380b0" points="138.68,-884.75 128.1,-885.43 136.79,-891.49 138.68,-884.75"/>
</g>
<!-- gql_example_build -->
<g id="node17" class="node">
<title>gql_example_build</title>
<polygon fill="none" stroke="#628320" points="1349,-1184 1227,-1184 1227,-1148 1349,-1148 1349,-1184"/>
<text text-anchor="middle" x="1288" y="-1162.3" font-family="Times,serif" font-size="14.00">gql_example_build</text>
</g>
<!-- gql_example_build&#45;&gt;gql_pedantic -->
<g id="edge64" class="edge">
<title>gql_example_build&#45;&gt;gql_pedantic</title>
<path fill="none" stroke="#89da51" stroke-dasharray="5,2" d="M1303.15,-1147.8C1335.2,-1110.28 1409.49,-1016.93 1441,-924 1526.88,-670.71 1501.07,-491.04 1277,-345 972.97,-146.84 515.3,-122.37 360.4,-119.99"/>
<polygon fill="#89da51" stroke="#89da51" points="360.26,-116.48 350.21,-119.85 360.17,-123.48 360.26,-116.48"/>
</g>
<!-- gql_example_build&#45;&gt;gql_build -->
<g id="edge63" class="edge">
<title>gql_example_build&#45;&gt;gql_build</title>
<path fill="none" stroke="#3380b0" stroke-dasharray="5,2" d="M1242.68,-1147.98C1234.52,-1145.15 1226.05,-1142.37 1218,-1140 803.59,-1017.75 290.19,-914.21 138.29,-884.54"/>
<polygon fill="#3380b0" stroke="#3380b0" points="138.88,-881.08 128.39,-882.61 137.54,-887.96 138.88,-881.08"/>
</g>
<!-- gql_dedupe_link -->
<g id="node18" class="node">
<title>gql_dedupe_link</title>
<polygon fill="none" stroke="#cf6bf6" points="946.5,-893 839.5,-893 839.5,-857 946.5,-857 946.5,-893"/>
<text text-anchor="middle" x="893" y="-871.3" font-family="Times,serif" font-size="14.00">gql_dedupe_link</text>
</g>
<!-- gql_dedupe_link&#45;&gt;gql_pedantic -->
<g id="edge68" class="edge">
<title>gql_dedupe_link&#45;&gt;gql_pedantic</title>
<path fill="none" stroke="#89da51" stroke-dasharray="5,2" d="M879.66,-856.83C802.96,-758.14 418.33,-263.25 326.64,-145.27"/>
<polygon fill="#89da51" stroke="#89da51" points="329.22,-142.89 320.32,-137.14 323.69,-147.18 329.22,-142.89"/>
</g>
<!-- gql_dedupe_link&#45;&gt;gql -->
<g id="edge67" class="edge">
<title>gql_dedupe_link&#45;&gt;gql</title>
<path fill="none" stroke="#68217c" stroke-dasharray="5,2" d="M873.38,-856.72C788.08,-781.59 449.32,-483.25 350.31,-396.05"/>
<polygon fill="#68217c" stroke="#68217c" points="352.36,-393.19 342.54,-389.21 347.73,-398.44 352.36,-393.19"/>
</g>
<!-- gql_dedupe_link&#45;&gt;gql_exec -->
<g id="edge65" class="edge">
<title>gql_dedupe_link&#45;&gt;gql_exec</title>
<path fill="none" stroke="#5b9240" d="M901.99,-856.8C921.17,-819.02 965.59,-725.44 981,-641 996.93,-553.73 981.02,-448.13 971.71,-399.25"/>
<polygon fill="#5b9240" stroke="#5b9240" points="975.09,-398.31 969.73,-389.17 968.22,-399.66 975.09,-398.31"/>
</g>
<!-- gql_dedupe_link&#45;&gt;gql_link -->
<g id="edge66" class="edge">
<title>gql_dedupe_link&#45;&gt;gql_link</title>
<path fill="none" stroke="#7c0063" d="M896.3,-856.82C904.49,-814.18 925.79,-703.24 935.74,-651.42"/>
<polygon fill="#7c0063" stroke="#7c0063" points="939.23,-651.78 937.68,-641.3 932.35,-650.46 939.23,-651.78"/>
</g>
<!-- end_to_end_test -->
<g id="node19" class="node">
<title>end_to_end_test</title>
<polygon fill="none" stroke="#97b336" points="127.5,-1184 22.5,-1184 22.5,-1148 127.5,-1148 127.5,-1184"/>
<text text-anchor="middle" x="75" y="-1162.3" font-family="Times,serif" font-size="14.00">end_to_end_test</text>
</g>
<!-- end_to_end_test&#45;&gt;gql_exec -->
<g id="edge69" class="edge">
<title>end_to_end_test&#45;&gt;gql_exec</title>
<path fill="none" stroke="#5b9240" d="M127.82,-1160.96C319.75,-1145.09 975.41,-1080.06 1099,-924 1165.93,-839.48 1021.39,-496.39 977.89,-398.31"/>
<polygon fill="#5b9240" stroke="#5b9240" points="981.05,-396.8 973.78,-389.09 974.65,-399.65 981.05,-396.8"/>
</g>
<!-- end_to_end_test&#45;&gt;gql_code_builder -->
<g id="edge71" class="edge">
<title>end_to_end_test&#45;&gt;gql_code_builder</title>
<path fill="none" stroke="#1da059" d="M72.2,-1148C64.87,-1101.48 46,-968.18 51,-857 54.36,-782.38 63.73,-694.72 68.74,-651.27"/>
<polygon fill="#1da059" stroke="#1da059" points="72.23,-651.55 69.91,-641.21 65.28,-650.74 72.23,-651.55"/>
</g>
<!-- end_to_end_test&#45;&gt;gql_build -->
<g id="edge70" class="edge">
<title>end_to_end_test&#45;&gt;gql_build</title>
<path fill="none" stroke="#3380b0" d="M76.13,-1147.79C79.31,-1099.4 88.35,-961.87 92.22,-903.13"/>
<polygon fill="#3380b0" stroke="#3380b0" points="95.71,-903.33 92.87,-893.12 88.73,-902.87 95.71,-903.33"/>
</g>
</g>
</svg>
