<?xml version="1.0" encoding="UTF-8" standalone="no"?>
<!DOCTYPE svg PUBLIC "-//W3C//DTD SVG 1.1//EN"
 "http://www.w3.org/Graphics/SVG/1.1/DTD/svg11.dtd">
<!-- Generated by graphviz version 2.49.3 (20211023.0002)
 -->
<!-- Title: packages Pages: 1 -->
<svg width="720pt" height="648pt"
 viewBox="0.00 0.00 720.00 647.87" xmlns="http://www.w3.org/2000/svg" xmlns:xlink="http://www.w3.org/1999/xlink">
<g id="graph0" class="graph" transform="scale(0.46 0.46) rotate(0) translate(4 1392)">
<title>packages</title>
<polygon fill="white" stroke="transparent" points="-4,4 -4,-1392 1547.43,-1392 1547.43,4 -4,4"/>
<g id="clust1" class="cluster">
<title>cluster </title>
<polygon fill="none" stroke="#a473ff" points="254,-28.47 254,-469.78 360,-469.78 360,-28.47 254,-28.47"/>
</g>
<g id="clust2" class="cluster">
<title>cluster links</title>
<polygon fill="none" stroke="#e2446b" points="368,-284.72 368,-1064.13 1118,-1064.13 1118,-284.72 368,-284.72"/>
<text text-anchor="middle" x="743" y="-1048.93" font-family="Times,serif" font-size="14.00">links</text>
</g>
<g id="clust3" class="cluster">
<title>cluster codegen</title>
<polygon fill="none" stroke="#856663" points="8,-540.96 8,-1359.53 138,-1359.53 138,-540.96 8,-540.96"/>
<text text-anchor="middle" x="73" y="-1344.33" font-family="Times,serif" font-size="14.00">codegen</text>
</g>
<g id="clust4" class="cluster">
<title>cluster examples</title>
<polygon fill="none" stroke="#e8f445" points="436,-1092.61 436,-1359.53 1380,-1359.53 1380,-1092.61 436,-1092.61"/>
<text text-anchor="middle" x="908" y="-1344.33" font-family="Times,serif" font-size="14.00">examples</text>
</g>
<!-- gql_pedantic -->
<g id="node1" class="node">
<title>gql_pedantic</title>
<polygon fill="none" stroke="#89da51" points="351.5,-139.47 262.5,-139.47 262.5,-103.47 351.5,-103.47 351.5,-139.47"/>
<text text-anchor="middle" x="307" y="-117.77" font-family="Times,serif" font-size="14.00">gql_pedantic</text>
</g>
<!-- gql -->
<g id="node2" class="node">
<title>gql</title>
<polygon fill="none" stroke="#68217c" points="352,-395.47 298,-395.47 298,-359.47 352,-359.47 352,-395.47"/>
<text text-anchor="middle" x="325" y="-373.77" font-family="Times,serif" font-size="14.00">gql</text>
</g>
<!-- gql&#45;&gt;gql_pedantic -->
<g id="edge1" class="edge">
<title>gql&#45;&gt;gql_pedantic</title>
<path fill="none" stroke="#89da51" stroke-dasharray="5,2" d="M323.79,-359.41C320.74,-316.32 312.69,-202.77 308.96,-150.07"/>
<polygon fill="#89da51" stroke="#89da51" points="312.43,-149.52 308.23,-139.79 305.44,-150.01 312.43,-149.52"/>
</g>
<!-- gql_exec -->
<g id="node3" class="node">
<title>gql_exec</title>
<polygon fill="none" stroke="#5b9240" points="1002.5,-395.47 935.5,-395.47 935.5,-359.47 1002.5,-359.47 1002.5,-395.47"/>
<text text-anchor="middle" x="969" y="-373.77" font-family="Times,serif" font-size="14.00">gql_exec</text>
</g>
<!-- gql_exec&#45;&gt;gql_pedantic -->
<g id="edge3" class="edge">
<title>gql_exec&#45;&gt;gql_pedantic</title>
<path fill="none" stroke="#89da51" stroke-dasharray="5,2" d="M935.26,-363.53C827.81,-322.3 492.97,-193.83 361.13,-143.24"/>
<polygon fill="#89da51" stroke="#89da51" points="362.21,-139.91 351.62,-139.59 359.7,-146.44 362.21,-139.91"/>
</g>
<!-- gql_exec&#45;&gt;gql -->
<g id="edge2" class="edge">
<title>gql_exec&#45;&gt;gql</title>
<path fill="none" stroke="#68217c" d="M935.26,-377.47C744.27,-377.47 553.28,-377.47 362.29,-377.47"/>
<polygon fill="#68217c" stroke="#68217c" points="362.04,-373.97 352.04,-377.47 362.04,-380.97 362.04,-373.97"/>
</g>
<!-- gql_link -->
<g id="node4" class="node">
<title>gql_link</title>
<polygon fill="none" stroke="#7c0063" points="975.5,-651.47 912.5,-651.47 912.5,-615.47 975.5,-615.47 975.5,-651.47"/>
<text text-anchor="middle" x="944" y="-629.77" font-family="Times,serif" font-size="14.00">gql_link</text>
</g>
<!-- gql_link&#45;&gt;gql_pedantic -->
<g id="edge6" class="edge">
<title>gql_link&#45;&gt;gql_pedantic</title>
<path fill="none" stroke="#89da51" stroke-dasharray="5,2" d="M940.74,-615.18C930.83,-567.12 896.83,-430.29 818,-351.47 685.76,-219.26 463.77,-156.45 361.54,-133.38"/>
<polygon fill="#89da51" stroke="#89da51" points="362.26,-129.96 351.74,-131.21 360.74,-136.79 362.26,-129.96"/>
</g>
<!-- gql_link&#45;&gt;gql -->
<g id="edge4" class="edge">
<title>gql_link&#45;&gt;gql</title>
<path fill="none" stroke="#68217c" d="M912.26,-622.37C823.3,-593.54 564.93,-506.31 364,-403.47 362.28,-402.59 360.54,-401.66 358.8,-400.69"/>
<polygon fill="#68217c" stroke="#68217c" points="360.57,-397.66 350.17,-395.61 357.02,-403.7 360.57,-397.66"/>
</g>
<!-- gql_link&#45;&gt;gql_exec -->
<g id="edge5" class="edge">
<title>gql_link&#45;&gt;gql_exec</title>
<path fill="none" stroke="#5b9240" d="M945.68,-615.41C949.92,-572.32 961.1,-458.77 966.28,-406.07"/>
<polygon fill="#5b9240" stroke="#5b9240" points="969.8,-406.09 967.3,-395.79 962.83,-405.4 969.8,-406.09"/>
</g>
<!-- gql_websocket_link -->
<g id="node5" class="node">
<title>gql_websocket_link</title>
<polygon fill="none" stroke="#bb5677" points="1109.5,-907.47 980.5,-907.47 980.5,-871.47 1109.5,-871.47 1109.5,-907.47"/>
<text text-anchor="middle" x="1045" y="-885.77" font-family="Times,serif" font-size="14.00">gql_websocket_link</text>
</g>
<!-- gql_websocket_link&#45;&gt;gql_pedantic -->
<g id="edge10" class="edge">
<title>gql_websocket_link&#45;&gt;gql_pedantic</title>
<path fill="none" stroke="#89da51" stroke-dasharray="5,2" d="M1028.55,-871.4C932.5,-771.7 444.49,-265.18 330.73,-147.1"/>
<polygon fill="#89da51" stroke="#89da51" points="332.95,-144.36 323.49,-139.59 327.91,-149.22 332.95,-144.36"/>
</g>
<!-- gql_websocket_link&#45;&gt;gql -->
<g id="edge7" class="edge">
<title>gql_websocket_link&#45;&gt;gql</title>
<path fill="none" stroke="#68217c" d="M1020.63,-871.21C913.04,-795 480.47,-488.6 357.66,-401.61"/>
<polygon fill="#68217c" stroke="#68217c" points="359.55,-398.65 349.36,-395.73 355.5,-404.36 359.55,-398.65"/>
</g>
<!-- gql_websocket_link&#45;&gt;gql_exec -->
<g id="edge8" class="edge">
<title>gql_websocket_link&#45;&gt;gql_exec</title>
<path fill="none" stroke="#5b9240" d="M1042.43,-871.21C1031.24,-796.14 986.77,-497.74 973.05,-405.67"/>
<polygon fill="#5b9240" stroke="#5b9240" points="976.51,-405.1 971.57,-395.73 969.58,-406.14 976.51,-405.1"/>
</g>
<!-- gql_websocket_link&#45;&gt;gql_link -->
<g id="edge9" class="edge">
<title>gql_websocket_link&#45;&gt;gql_link</title>
<path fill="none" stroke="#7c0063" d="M1038.22,-871.41C1021.01,-828.14 975.55,-713.81 954.71,-661.41"/>
<polygon fill="#7c0063" stroke="#7c0063" points="957.83,-659.79 950.89,-651.79 951.33,-662.38 957.83,-659.79"/>
</g>
<!-- gql_transform_link -->
<g id="node6" class="node">
<title>gql_transform_link</title>
<polygon fill="none" stroke="#21d185" points="501.5,-907.47 376.5,-907.47 376.5,-871.47 501.5,-871.47 501.5,-907.47"/>
<text text-anchor="middle" x="439" y="-885.77" font-family="Times,serif" font-size="14.00">gql_transform_link</text>
</g>
<!-- gql_transform_link&#45;&gt;gql_pedantic -->
<g id="edge14" class="edge">
<title>gql_transform_link&#45;&gt;gql_pedantic</title>
<path fill="none" stroke="#89da51" stroke-dasharray="5,2" d="M437.05,-871.22C429.36,-804.19 399.63,-554.62 361,-351.47 347,-277.86 325.34,-192.15 314.18,-149.48"/>
<polygon fill="#89da51" stroke="#89da51" points="317.51,-148.38 311.58,-139.6 310.74,-150.16 317.51,-148.38"/>
</g>
<!-- gql_transform_link&#45;&gt;gql -->
<g id="edge13" class="edge">
<title>gql_transform_link&#45;&gt;gql</title>
<path fill="none" stroke="#68217c" stroke-dasharray="5,2" d="M435.14,-871.21C418.36,-796.14 351.66,-497.74 331.08,-405.67"/>
<polygon fill="#68217c" stroke="#68217c" points="334.45,-404.72 328.86,-395.73 327.62,-406.25 334.45,-404.72"/>
</g>
<!-- gql_transform_link&#45;&gt;gql_exec -->
<g id="edge11" class="edge">
<title>gql_transform_link&#45;&gt;gql_exec</title>
<path fill="none" stroke="#5b9240" d="M456.94,-871.21C535.74,-795.38 851.38,-491.66 943.59,-402.93"/>
<polygon fill="#5b9240" stroke="#5b9240" points="946.29,-405.18 951.07,-395.73 941.43,-400.14 946.29,-405.18"/>
</g>
<!-- gql_transform_link&#45;&gt;gql_link -->
<g id="edge12" class="edge">
<title>gql_transform_link&#45;&gt;gql_link</title>
<path fill="none" stroke="#7c0063" d="M472.92,-871.41C562.59,-826.31 805.71,-704.03 902.97,-655.11"/>
<polygon fill="#7c0063" stroke="#7c0063" points="904.83,-658.09 912.19,-650.47 901.68,-651.84 904.83,-658.09"/>
</g>
<!-- gql_http_link -->
<g id="node7" class="node">
<title>gql_http_link</title>
<polygon fill="none" stroke="#ab8a09" points="833,-907.47 741,-907.47 741,-871.47 833,-871.47 833,-907.47"/>
<text text-anchor="middle" x="787" y="-885.77" font-family="Times,serif" font-size="14.00">gql_http_link</text>
</g>
<!-- gql_http_link&#45;&gt;gql_pedantic -->
<g id="edge18" class="edge">
<title>gql_http_link&#45;&gt;gql_pedantic</title>
<path fill="none" stroke="#89da51" stroke-dasharray="5,2" d="M776.3,-871.4C714.02,-772 398.32,-268.21 323.1,-148.17"/>
<polygon fill="#89da51" stroke="#89da51" points="326,-146.2 317.72,-139.59 320.07,-149.92 326,-146.2"/>
</g>
<!-- gql_http_link&#45;&gt;gql -->
<g id="edge15" class="edge">
<title>gql_http_link&#45;&gt;gql</title>
<path fill="none" stroke="#68217c" d="M771.36,-871.21C702.74,-795.46 428.08,-492.27 347.4,-403.2"/>
<polygon fill="#68217c" stroke="#68217c" points="349.94,-400.79 340.63,-395.73 344.75,-405.49 349.94,-400.79"/>
</g>
<!-- gql_http_link&#45;&gt;gql_exec -->
<g id="edge16" class="edge">
<title>gql_http_link&#45;&gt;gql_exec</title>
<path fill="none" stroke="#5b9240" d="M793.89,-871.32C809.45,-832.43 848.26,-734.45 878,-651.47 910.12,-561.87 944.83,-454.43 960.49,-405.33"/>
<polygon fill="#5b9240" stroke="#5b9240" points="963.92,-406.09 963.62,-395.49 957.25,-403.96 963.92,-406.09"/>
</g>
<!-- gql_http_link&#45;&gt;gql_link -->
<g id="edge17" class="edge">
<title>gql_http_link&#45;&gt;gql_link</title>
<path fill="none" stroke="#7c0063" d="M797.54,-871.41C824.46,-827.87 895.84,-712.38 927.95,-660.43"/>
<polygon fill="#7c0063" stroke="#7c0063" points="931.01,-662.14 933.29,-651.79 925.06,-658.46 931.01,-662.14"/>
</g>
<!-- gql_error_link -->
<g id="node8" class="node">
<title>gql_error_link</title>
<polygon fill="none" stroke="#5f79bc" points="616.5,-907.47 519.5,-907.47 519.5,-871.47 616.5,-871.47 616.5,-907.47"/>
<text text-anchor="middle" x="568" y="-885.77" font-family="Times,serif" font-size="14.00">gql_error_link</text>
</g>
<!-- gql_error_link&#45;&gt;gql_pedantic -->
<g id="edge22" class="edge">
<title>gql_error_link&#45;&gt;gql_pedantic</title>
<path fill="none" stroke="#89da51" stroke-dasharray="5,2" d="M562.18,-871.4C528.42,-772.3 357.69,-271.23 316.13,-149.27"/>
<polygon fill="#89da51" stroke="#89da51" points="319.37,-147.92 312.83,-139.59 312.74,-150.18 319.37,-147.92"/>
</g>
<!-- gql_error_link&#45;&gt;gql -->
<g id="edge21" class="edge">
<title>gql_error_link&#45;&gt;gql</title>
<path fill="none" stroke="#68217c" stroke-dasharray="5,2" d="M559.78,-871.21C523.9,-795.92 380.96,-495.92 337.56,-404.83"/>
<polygon fill="#68217c" stroke="#68217c" points="340.68,-403.25 333.22,-395.73 334.36,-406.26 340.68,-403.25"/>
</g>
<!-- gql_error_link&#45;&gt;gql_exec -->
<g id="edge19" class="edge">
<title>gql_error_link&#45;&gt;gql_exec</title>
<path fill="none" stroke="#5b9240" d="M593.93,-871.42C646.19,-835.97 765.33,-749.39 838,-651.47 850.8,-634.22 848.87,-626.92 858,-607.47 892.67,-533.64 935.06,-447.2 956.01,-404.73"/>
<polygon fill="#5b9240" stroke="#5b9240" points="959.21,-406.15 960.5,-395.64 952.93,-403.06 959.21,-406.15"/>
</g>
<!-- gql_error_link&#45;&gt;gql_link -->
<g id="edge20" class="edge">
<title>gql_error_link&#45;&gt;gql_link</title>
<path fill="none" stroke="#7c0063" d="M593.25,-871.41C658.92,-827.05 835.08,-708.05 909.77,-657.6"/>
<polygon fill="#7c0063" stroke="#7c0063" points="912.03,-660.29 918.36,-651.79 908.11,-654.49 912.03,-660.29"/>
</g>
<!-- gql_code_builder -->
<g id="node9" class="node">
<title>gql_code_builder</title>
<polygon fill="none" stroke="#1da059" points="130,-651.47 16,-651.47 16,-615.47 130,-615.47 130,-651.47"/>
<text text-anchor="middle" x="73" y="-629.77" font-family="Times,serif" font-size="14.00">gql_code_builder</text>
</g>
<!-- gql_code_builder&#45;&gt;gql_pedantic -->
<g id="edge25" class="edge">
<title>gql_code_builder&#45;&gt;gql_pedantic</title>
<path fill="none" stroke="#89da51" stroke-dasharray="5,2" d="M80.92,-615.21C115.47,-539.92 253.11,-239.92 294.91,-148.83"/>
<polygon fill="#89da51" stroke="#89da51" points="298.09,-150.28 299.08,-139.73 291.73,-147.36 298.09,-150.28"/>
</g>
<!-- gql_code_builder&#45;&gt;gql -->
<g id="edge23" class="edge">
<title>gql_code_builder&#45;&gt;gql</title>
<path fill="none" stroke="#68217c" d="M89.93,-615.41C133.49,-571.51 249.61,-454.46 300.51,-403.16"/>
<polygon fill="#68217c" stroke="#68217c" points="303.26,-405.36 307.82,-395.79 298.29,-400.43 303.26,-405.36"/>
</g>
<!-- gql_code_builder&#45;&gt;gql_exec -->
<g id="edge24" class="edge">
<title>gql_code_builder&#45;&gt;gql_exec</title>
<path fill="none" stroke="#5b9240" d="M130.07,-616.29C296.26,-569.18 777.46,-432.77 925.28,-390.86"/>
<polygon fill="#5b9240" stroke="#5b9240" points="926.68,-394.11 935.34,-388.01 924.77,-387.37 926.68,-394.11"/>
</g>
<!-- gql_build -->
<g id="node10" class="node">
<title>gql_build</title>
<polygon fill="none" stroke="#3380b0" points="130,-907.47 60,-907.47 60,-871.47 130,-871.47 130,-907.47"/>
<text text-anchor="middle" x="95" y="-885.77" font-family="Times,serif" font-size="14.00">gql_build</text>
</g>
<!-- gql_build&#45;&gt;gql_pedantic -->
<g id="edge28" class="edge">
<title>gql_build&#45;&gt;gql_pedantic</title>
<path fill="none" stroke="#89da51" stroke-dasharray="5,2" d="M82.5,-871.46C52.01,-827.83 -21.66,-708.28 7,-607.47 63.06,-410.26 224.73,-214.75 284.47,-147.23"/>
<polygon fill="#89da51" stroke="#89da51" points="287.19,-149.43 291.23,-139.64 281.96,-144.77 287.19,-149.43"/>
</g>
<!-- gql_build&#45;&gt;gql -->
<g id="edge26" class="edge">
<title>gql_build&#45;&gt;gql</title>
<path fill="none" stroke="#68217c" d="M98.65,-871.45C108.56,-826.79 138.22,-703.13 182,-607.47 217.89,-529.05 276.06,-445.06 305.95,-404.02"/>
<polygon fill="#68217c" stroke="#68217c" points="308.96,-405.83 312.05,-395.69 303.31,-401.69 308.96,-405.83"/>
</g>
<!-- gql_build&#45;&gt;gql_code_builder -->
<g id="edge27" class="edge">
<title>gql_build&#45;&gt;gql_code_builder</title>
<path fill="none" stroke="#1da059" d="M93.52,-871.41C89.79,-828.32 79.95,-714.77 75.39,-662.07"/>
<polygon fill="#1da059" stroke="#1da059" points="78.85,-661.45 74.5,-651.79 71.88,-662.06 78.85,-661.45"/>
</g>
<!-- gql_example_http_auth_link -->
<g id="node11" class="node">
<title>gql_example_http_auth_link</title>
<polygon fill="none" stroke="#8a0733" points="792.5,-1203.47 615.5,-1203.47 615.5,-1167.47 792.5,-1167.47 792.5,-1203.47"/>
<text text-anchor="middle" x="704" y="-1181.77" font-family="Times,serif" font-size="14.00">gql_example_http_auth_link</text>
</g>
<!-- gql_example_http_auth_link&#45;&gt;gql_pedantic -->
<g id="edge36" class="edge">
<title>gql_example_http_auth_link&#45;&gt;gql_pedantic</title>
<path fill="none" stroke="#89da51" stroke-dasharray="5,2" d="M761.66,-1167.43C917.36,-1120.84 1337.09,-991.34 1374,-938.47 1402.6,-897.5 1469.63,-878.98 1367,-607.47 1211.54,-196.2 556.53,-133.68 361.81,-124.18"/>
<polygon fill="#89da51" stroke="#89da51" points="361.69,-120.67 351.54,-123.7 361.37,-127.66 361.69,-120.67"/>
</g>
<!-- gql_example_http_auth_link&#45;&gt;gql -->
<g id="edge29" class="edge">
<title>gql_example_http_auth_link&#45;&gt;gql</title>
<path fill="none" stroke="#68217c" d="M661.19,-1167.45C558.59,-1125.7 303.75,-1015.95 258,-938.47 151.69,-758.42 269.36,-489.09 311.31,-404.71"/>
<polygon fill="#68217c" stroke="#68217c" points="314.54,-406.08 315.92,-395.58 308.29,-402.93 314.54,-406.08"/>
</g>
<!-- gql_example_http_auth_link&#45;&gt;gql_exec -->
<g id="edge31" class="edge">
<title>gql_example_http_auth_link&#45;&gt;gql_exec</title>
<path fill="none" stroke="#5b9240" d="M758.39,-1167.39C906.28,-1120.43 1307.01,-989.46 1342,-938.47 1425.23,-817.17 1413.83,-735.86 1342,-607.47 1270.32,-479.36 1094.4,-414.19 1012.4,-389.93"/>
<polygon fill="#5b9240" stroke="#5b9240" points="1013.22,-386.52 1002.64,-387.1 1011.27,-393.24 1013.22,-386.52"/>
</g>
<!-- gql_example_http_auth_link&#45;&gt;gql_link -->
<g id="edge33" class="edge">
<title>gql_example_http_auth_link&#45;&gt;gql_link</title>
<path fill="none" stroke="#7c0063" d="M770.67,-1167.42C867.57,-1138.63 1043.96,-1070.19 1119,-938.47 1178.84,-833.43 1040.65,-708.5 975.57,-657.69"/>
<polygon fill="#7c0063" stroke="#7c0063" points="977.7,-654.91 967.64,-651.58 973.43,-660.46 977.7,-654.91"/>
</g>
<!-- gql_example_http_auth_link&#45;&gt;gql_transform_link -->
<g id="edge34" class="edge">
<title>gql_example_http_auth_link&#45;&gt;gql_transform_link</title>
<path fill="none" stroke="#21d185" d="M688.61,-1167.39C643.87,-1117.77 513.76,-973.41 461.3,-915.22"/>
<polygon fill="#21d185" stroke="#21d185" points="463.73,-912.68 454.44,-907.6 458.53,-917.37 463.73,-912.68"/>
</g>
<!-- gql_example_http_auth_link&#45;&gt;gql_http_link -->
<g id="edge32" class="edge">
<title>gql_example_http_auth_link&#45;&gt;gql_http_link</title>
<path fill="none" stroke="#ab8a09" d="M708.82,-1167.39C722.66,-1118.38 762.59,-976.94 779.4,-917.4"/>
<polygon fill="#ab8a09" stroke="#ab8a09" points="782.82,-918.17 782.17,-907.6 776.08,-916.27 782.82,-918.17"/>
</g>
<!-- gql_example_http_auth_link&#45;&gt;gql_error_link -->
<g id="edge30" class="edge">
<title>gql_example_http_auth_link&#45;&gt;gql_error_link</title>
<path fill="none" stroke="#5f79bc" d="M696.1,-1167.39C673.38,-1118.27 607.73,-976.35 580.28,-917.03"/>
<polygon fill="#5f79bc" stroke="#5f79bc" points="583.3,-915.2 575.92,-907.6 576.94,-918.14 583.3,-915.2"/>
</g>
<!-- gql_example_http_auth_link&#45;&gt;gql_build -->
<g id="edge35" class="edge">
<title>gql_example_http_auth_link&#45;&gt;gql_build</title>
<path fill="none" stroke="#3380b0" stroke-dasharray="5,2" d="M668.63,-1167.39C563.81,-1116.79 255,-967.71 139.38,-911.89"/>
<polygon fill="#3380b0" stroke="#3380b0" points="140.62,-908.61 130.09,-907.41 137.58,-914.91 140.62,-908.61"/>
</g>
<!-- gql_example_flutter -->
<g id="node12" class="node">
<title>gql_example_flutter</title>
<polygon fill="none" stroke="#671702" points="1228.5,-1203.47 1099.5,-1203.47 1099.5,-1167.47 1228.5,-1167.47 1228.5,-1203.47"/>
<text text-anchor="middle" x="1164" y="-1181.77" font-family="Times,serif" font-size="14.00">gql_example_flutter</text>
</g>
<!-- gql_example_flutter&#45;&gt;gql_pedantic -->
<g id="edge41" class="edge">
<title>gql_example_flutter&#45;&gt;gql_pedantic</title>
<path fill="none" stroke="#89da51" stroke-dasharray="5,2" d="M1196.72,-1167.25C1257.53,-1133.14 1386.27,-1050.5 1436,-938.47 1546.61,-689.3 1477.14,-513.64 1258,-351.47 1111.45,-243.02 541.77,-155.4 361.81,-129.96"/>
<polygon fill="#89da51" stroke="#89da51" points="362.16,-126.47 351.77,-128.55 361.19,-133.41 362.16,-126.47"/>
</g>
<!-- gql_example_flutter&#45;&gt;gql -->
<g id="edge37" class="edge">
<title>gql_example_flutter&#45;&gt;gql</title>
<path fill="none" stroke="#68217c" d="M1114.31,-1167.45C1106.2,-1164.74 1097.88,-1162 1090,-1159.47 768.86,-1056.37 574.09,-1202.34 364,-938.47 297.74,-855.25 316.13,-506.7 322.98,-405.89"/>
<polygon fill="#68217c" stroke="#68217c" points="326.49,-405.85 323.7,-395.63 319.51,-405.36 326.49,-405.85"/>
</g>
<!-- gql_example_flutter&#45;&gt;gql_exec -->
<g id="edge40" class="edge">
<title>gql_example_flutter&#45;&gt;gql_exec</title>
<path fill="none" stroke="#5b9240" d="M1206.22,-1167.36C1279.25,-1135.15 1426.99,-1057.82 1486,-938.47 1517.86,-874.03 1599.34,-786.3 1481,-607.47 1372.29,-443.19 1115.66,-395.55 1012.78,-382.79"/>
<polygon fill="#5b9240" stroke="#5b9240" points="1013.08,-379.3 1002.74,-381.59 1012.25,-386.25 1013.08,-379.3"/>
</g>
<!-- gql_example_flutter&#45;&gt;gql_link -->
<g id="edge38" class="edge">
<title>gql_example_flutter&#45;&gt;gql_link</title>
<path fill="none" stroke="#7c0063" d="M1174.65,-1167.31C1203.38,-1118.64 1277.13,-976.47 1228,-871.47 1177.41,-763.37 1050.58,-687.31 984.88,-653.75"/>
<polygon fill="#7c0063" stroke="#7c0063" points="986.16,-650.47 975.65,-649.11 983.01,-656.73 986.16,-650.47"/>
</g>
<!-- gql_example_flutter&#45;&gt;gql_http_link -->
<g id="edge39" class="edge">
<title>gql_example_flutter&#45;&gt;gql_http_link</title>
<path fill="none" stroke="#ab8a09" d="M1140.7,-1167.3C1087.32,-1127.81 952.35,-1027.13 843,-938.47 833.46,-930.74 823.21,-922.06 814.12,-914.24"/>
<polygon fill="#ab8a09" stroke="#ab8a09" points="816.33,-911.52 806.47,-907.62 811.75,-916.81 816.33,-911.52"/>
</g>
<!-- gql_example_flutter&#45;&gt;gql_build -->
<g id="edge42" class="edge">
<title>gql_example_flutter&#45;&gt;gql_build</title>
<path fill="none" stroke="#3380b0" stroke-dasharray="5,2" d="M1114.78,-1167.37C1106.53,-1164.64 1098.04,-1161.92 1090,-1159.47 726.27,-1048.98 281.04,-936.63 140.04,-901.59"/>
<polygon fill="#3380b0" stroke="#3380b0" points="140.58,-898.12 130.03,-899.11 138.89,-904.91 140.58,-898.12"/>
</g>
<!-- gql_dio_link -->
<g id="node13" class="node">
<title>gql_dio_link</title>
<polygon fill="none" stroke="#45c9c3" points="723,-907.47 635,-907.47 635,-871.47 723,-871.47 723,-907.47"/>
<text text-anchor="middle" x="679" y="-885.77" font-family="Times,serif" font-size="14.00">gql_dio_link</text>
</g>
<!-- gql_dio_link&#45;&gt;gql_pedantic -->
<g id="edge46" class="edge">
<title>gql_dio_link&#45;&gt;gql_pedantic</title>
<path fill="none" stroke="#89da51" stroke-dasharray="5,2" d="M670.71,-871.4C622.54,-772.2 378.76,-270.23 319.83,-148.9"/>
<polygon fill="#89da51" stroke="#89da51" points="322.83,-147.05 315.31,-139.59 316.53,-150.11 322.83,-147.05"/>
</g>
<!-- gql_dio_link&#45;&gt;gql -->
<g id="edge45" class="edge">
<title>gql_dio_link&#45;&gt;gql</title>
<path fill="none" stroke="#68217c" stroke-dasharray="5,2" d="M667.02,-871.21C614.6,-795.69 405.26,-494.09 342.73,-404.01"/>
<polygon fill="#68217c" stroke="#68217c" points="345.56,-401.95 336.98,-395.73 339.81,-405.94 345.56,-401.95"/>
</g>
<!-- gql_dio_link&#45;&gt;gql_exec -->
<g id="edge43" class="edge">
<title>gql_dio_link&#45;&gt;gql_exec</title>
<path fill="none" stroke="#5b9240" d="M694.38,-871.44C727.67,-833.94 807.45,-740.47 858,-651.47 870.86,-628.83 933.48,-469.51 958.57,-405.25"/>
<polygon fill="#5b9240" stroke="#5b9240" points="961.89,-406.38 962.26,-395.79 955.37,-403.83 961.89,-406.38"/>
</g>
<!-- gql_dio_link&#45;&gt;gql_link -->
<g id="edge44" class="edge">
<title>gql_dio_link&#45;&gt;gql_link</title>
<path fill="none" stroke="#7c0063" d="M696.8,-871.41C742.7,-827.41 865.22,-709.98 918.58,-658.84"/>
<polygon fill="#7c0063" stroke="#7c0063" points="921.13,-661.24 925.93,-651.79 916.29,-656.18 921.13,-661.24"/>
</g>
<!-- gql_example_dio_link -->
<g id="node14" class="node">
<title>gql_example_dio_link</title>
<polygon fill="none" stroke="#058cba" points="953,-1203.47 811,-1203.47 811,-1167.47 953,-1167.47 953,-1203.47"/>
<text text-anchor="middle" x="882" y="-1181.77" font-family="Times,serif" font-size="14.00">gql_example_dio_link</text>
</g>
<!-- gql_example_dio_link&#45;&gt;gql -->
<g id="edge47" class="edge">
<title>gql_example_dio_link&#45;&gt;gql</title>
<path fill="none" stroke="#68217c" d="M832.74,-1167.33C697.41,-1119.75 327.88,-986.43 296,-938.47 180.91,-765.34 278.01,-491.39 313.38,-405.28"/>
<polygon fill="#68217c" stroke="#68217c" points="316.65,-406.53 317.27,-395.96 310.19,-403.84 316.65,-406.53"/>
</g>
<!-- gql_example_dio_link&#45;&gt;gql_exec -->
<g id="edge49" class="edge">
<title>gql_example_dio_link&#45;&gt;gql_exec</title>
<path fill="none" stroke="#5b9240" d="M926.2,-1167.37C1049.33,-1119.3 1389.08,-983.56 1418,-938.47 1497.42,-814.64 1494.84,-732.92 1418,-607.47 1327.14,-459.13 1106.63,-403.08 1012.63,-385.44"/>
<polygon fill="#5b9240" stroke="#5b9240" points="1013.07,-381.97 1002.6,-383.62 1011.81,-388.85 1013.07,-381.97"/>
</g>
<!-- gql_example_dio_link&#45;&gt;gql_link -->
<g id="edge48" class="edge">
<title>gql_example_dio_link&#45;&gt;gql_link</title>
<path fill="none" stroke="#7c0063" d="M921.34,-1167.34C990.9,-1134.6 1133.55,-1055.8 1190,-938.47 1248.37,-817.14 1068.68,-701.36 984.73,-655.34"/>
<polygon fill="#7c0063" stroke="#7c0063" points="986.18,-652.14 975.71,-650.46 982.85,-658.3 986.18,-652.14"/>
</g>
<!-- gql_example_dio_link&#45;&gt;gql_dio_link -->
<g id="edge50" class="edge">
<title>gql_example_dio_link&#45;&gt;gql_dio_link</title>
<path fill="none" stroke="#45c9c3" d="M870.21,-1167.39C836.08,-1117.97 737.08,-974.59 696.58,-915.94"/>
<polygon fill="#45c9c3" stroke="#45c9c3" points="699.39,-913.84 690.82,-907.6 693.63,-917.81 699.39,-913.84"/>
</g>
<!-- gql_example_cli_github -->
<g id="node15" class="node">
<title>gql_example_cli_github</title>
<polygon fill="none" stroke="#9b3b01" points="597.5,-1203.47 444.5,-1203.47 444.5,-1167.47 597.5,-1167.47 597.5,-1203.47"/>
<text text-anchor="middle" x="521" y="-1181.77" font-family="Times,serif" font-size="14.00">gql_example_cli_github</text>
</g>
<!-- gql_example_cli_github&#45;&gt;gql_pedantic -->
<g id="edge56" class="edge">
<title>gql_example_cli_github&#45;&gt;gql_pedantic</title>
<path fill="none" stroke="#89da51" stroke-dasharray="5,2" d="M577.7,-1167.46C731.33,-1120.81 1146.56,-990.88 1183,-938.47 1197.21,-918.03 1214.57,-960.37 1173,-607.47 1159.43,-492.25 1200.8,-436.61 1122,-351.47 1016.15,-237.11 526.43,-155.08 361.43,-130.29"/>
<polygon fill="#89da51" stroke="#89da51" points="361.91,-126.82 351.5,-128.81 360.88,-133.74 361.91,-126.82"/>
</g>
<!-- gql_example_cli_github&#45;&gt;gql -->
<g id="edge51" class="edge">
<title>gql_example_cli_github&#45;&gt;gql</title>
<path fill="none" stroke="#68217c" d="M483.06,-1167.34C415.23,-1134.35 275.16,-1054.79 220,-938.47 156.97,-805.55 188.62,-751.2 220,-607.47 237.13,-529.01 283.7,-445.3 308.67,-404.23"/>
<polygon fill="#68217c" stroke="#68217c" points="311.68,-406.01 313.94,-395.66 305.72,-402.34 311.68,-406.01"/>
</g>
<!-- gql_example_cli_github&#45;&gt;gql_exec -->
<g id="edge52" class="edge">
<title>gql_example_cli_github&#45;&gt;gql_exec</title>
<path fill="none" stroke="#5b9240" d="M574.54,-1167.43C720.6,-1120.43 1117.42,-989.07 1152,-938.47 1235.01,-817.02 1200.66,-746.3 1152,-607.47 1121.18,-519.53 1040.83,-440.24 997.57,-402.21"/>
<polygon fill="#5b9240" stroke="#5b9240" points="999.79,-399.5 989.94,-395.6 995.2,-404.79 999.79,-399.5"/>
</g>
<!-- gql_example_cli_github&#45;&gt;gql_transform_link -->
<g id="edge54" class="edge">
<title>gql_example_cli_github&#45;&gt;gql_transform_link</title>
<path fill="none" stroke="#21d185" d="M516.24,-1167.39C502.56,-1118.38 463.12,-976.94 446.51,-917.4"/>
<polygon fill="#21d185" stroke="#21d185" points="449.83,-916.29 443.78,-907.6 443.09,-918.17 449.83,-916.29"/>
</g>
<!-- gql_example_cli_github&#45;&gt;gql_http_link -->
<g id="edge53" class="edge">
<title>gql_example_cli_github&#45;&gt;gql_http_link</title>
<path fill="none" stroke="#ab8a09" d="M536.45,-1167.39C581.35,-1117.77 711.96,-973.41 764.61,-915.22"/>
<polygon fill="#ab8a09" stroke="#ab8a09" points="767.39,-917.36 771.51,-907.6 762.2,-912.66 767.39,-917.36"/>
</g>
<!-- gql_example_cli_github&#45;&gt;gql_build -->
<g id="edge55" class="edge">
<title>gql_example_cli_github&#45;&gt;gql_build</title>
<path fill="none" stroke="#3380b0" stroke-dasharray="5,2" d="M496.26,-1167.39C423.61,-1117.26 210.88,-970.45 128.31,-913.46"/>
<polygon fill="#3380b0" stroke="#3380b0" points="130.03,-910.4 119.81,-907.6 126.06,-916.16 130.03,-910.4"/>
</g>
<!-- gql_example_cli -->
<g id="node16" class="node">
<title>gql_example_cli</title>
<polygon fill="none" stroke="#18510b" points="1081,-1203.47 971,-1203.47 971,-1167.47 1081,-1167.47 1081,-1203.47"/>
<text text-anchor="middle" x="1026" y="-1181.77" font-family="Times,serif" font-size="14.00">gql_example_cli</text>
</g>
<!-- gql_example_cli&#45;&gt;gql_pedantic -->
<g id="edge62" class="edge">
<title>gql_example_cli&#45;&gt;gql_pedantic</title>
<path fill="none" stroke="#89da51" stroke-dasharray="5,2" d="M1061.24,-1167.38C1148.47,-1124.26 1370.22,-1009.47 1409,-938.47 1437.41,-886.45 1469.95,-838.53 1388,-607.47 1341.85,-477.34 1325.32,-430.36 1212,-351.47 935.65,-159.08 511.78,-128.14 361.85,-123.31"/>
<polygon fill="#89da51" stroke="#89da51" points="361.63,-119.8 351.53,-123 361.43,-126.8 361.63,-119.8"/>
</g>
<!-- gql_example_cli&#45;&gt;gql -->
<g id="edge57" class="edge">
<title>gql_example_cli&#45;&gt;gql</title>
<path fill="none" stroke="#68217c" d="M983.04,-1167.46C976.03,-1164.75 968.82,-1162 962,-1159.47 684.6,-1056.52 506.94,-1178.56 334,-938.47 212.49,-769.78 287.67,-492.25 315.75,-405.34"/>
<polygon fill="#68217c" stroke="#68217c" points="319.12,-406.31 318.93,-395.71 312.47,-404.11 319.12,-406.31"/>
</g>
<!-- gql_example_cli&#45;&gt;gql_exec -->
<g id="edge58" class="edge">
<title>gql_example_cli&#45;&gt;gql_exec</title>
<path fill="none" stroke="#5b9240" d="M1066.93,-1167.38C1165.67,-1125.24 1412.04,-1014.27 1456,-938.47 1529.81,-811.22 1534.84,-731.67 1456,-607.47 1355.29,-448.82 1112.21,-398.11 1012.64,-383.66"/>
<polygon fill="#5b9240" stroke="#5b9240" points="1013.01,-380.18 1002.63,-382.26 1012.04,-387.11 1013.01,-380.18"/>
</g>
<!-- gql_example_cli&#45;&gt;gql_link -->
<g id="edge60" class="edge">
<title>gql_example_cli&#45;&gt;gql_link</title>
<path fill="none" stroke="#7c0063" d="M1049.83,-1167.2C1110.45,-1121.02 1262.07,-990.13 1209,-871.47 1162.77,-768.09 1046.68,-691.16 984.62,-655.87"/>
<polygon fill="#7c0063" stroke="#7c0063" points="986.31,-652.8 975.87,-650.96 982.88,-658.91 986.31,-652.8"/>
</g>
<!-- gql_example_cli&#45;&gt;gql_http_link -->
<g id="edge59" class="edge">
<title>gql_example_cli&#45;&gt;gql_http_link</title>
<path fill="none" stroke="#ab8a09" d="M1012.12,-1167.39C971.86,-1117.87 854.9,-974 807.41,-915.58"/>
<polygon fill="#ab8a09" stroke="#ab8a09" points="809.94,-913.15 800.92,-907.6 804.51,-917.56 809.94,-913.15"/>
</g>
<!-- gql_example_cli&#45;&gt;gql_build -->
<g id="edge61" class="edge">
<title>gql_example_cli&#45;&gt;gql_build</title>
<path fill="none" stroke="#3380b0" stroke-dasharray="5,2" d="M983.47,-1167.37C976.33,-1164.64 968.98,-1161.91 962,-1159.47 650.97,-1050.63 269.65,-940.14 140.34,-903.3"/>
<polygon fill="#3380b0" stroke="#3380b0" points="140.97,-899.84 130.4,-900.47 139.06,-906.57 140.97,-899.84"/>
</g>
<!-- gql_example_build -->
<g id="node17" class="node">
<title>gql_example_build</title>
<polygon fill="none" stroke="#628320" points="1371.5,-1203.47 1246.5,-1203.47 1246.5,-1167.47 1371.5,-1167.47 1371.5,-1203.47"/>
<text text-anchor="middle" x="1309" y="-1181.77" font-family="Times,serif" font-size="14.00">gql_example_build</text>
</g>
<!-- gql_example_build&#45;&gt;gql_pedantic -->
<g id="edge64" class="edge">
<title>gql_example_build&#45;&gt;gql_pedantic</title>
<path fill="none" stroke="#89da51" stroke-dasharray="5,2" d="M1323.62,-1167.42C1355.31,-1129.36 1430.03,-1033.32 1462,-938.47 1548.37,-682.23 1527.73,-500.35 1302,-351.47 991.24,-146.51 520.72,-123.72 361.7,-122.14"/>
<polygon fill="#89da51" stroke="#89da51" points="361.71,-118.64 351.68,-122.07 361.66,-125.64 361.71,-118.64"/>
</g>
<!-- gql_example_build&#45;&gt;gql_build -->
<g id="edge63" class="edge">
<title>gql_example_build&#45;&gt;gql_build</title>
<path fill="none" stroke="#3380b0" stroke-dasharray="5,2" d="M1262.64,-1167.34C1254.48,-1164.56 1246.03,-1161.82 1238,-1159.47 816.77,-1036.13 295.6,-929.99 140.54,-899.35"/>
<polygon fill="#3380b0" stroke="#3380b0" points="140.92,-895.86 130.44,-897.36 139.57,-902.73 140.92,-895.86"/>
</g>
<!-- gql_dedupe_link -->
<g id="node18" class="node">
<title>gql_dedupe_link</title>
<polygon fill="none" stroke="#cf6bf6" points="962.5,-907.47 851.5,-907.47 851.5,-871.47 962.5,-871.47 962.5,-907.47"/>
<text text-anchor="middle" x="907" y="-885.77" font-family="Times,serif" font-size="14.00">gql_dedupe_link</text>
</g>
<!-- gql_dedupe_link&#45;&gt;gql_pedantic -->
<g id="edge68" class="edge">
<title>gql_dedupe_link&#45;&gt;gql_pedantic</title>
<path fill="none" stroke="#89da51" stroke-dasharray="5,2" d="M893.63,-871.4C815.69,-771.9 420.36,-267.2 326.85,-147.81"/>
<polygon fill="#89da51" stroke="#89da51" points="329.33,-145.3 320.41,-139.59 323.82,-149.62 329.33,-145.3"/>
</g>
<!-- gql_dedupe_link&#45;&gt;gql -->
<g id="edge67" class="edge">
<title>gql_dedupe_link&#45;&gt;gql</title>
<path fill="none" stroke="#68217c" stroke-dasharray="5,2" d="M887.3,-871.21C800.59,-795.23 452.77,-490.43 352.3,-402.4"/>
<polygon fill="#68217c" stroke="#68217c" points="354.52,-399.69 344.69,-395.73 349.91,-404.95 354.52,-399.69"/>
</g>
<!-- gql_dedupe_link&#45;&gt;gql_exec -->
<g id="edge65" class="edge">
<title>gql_dedupe_link&#45;&gt;gql_exec</title>
<path fill="none" stroke="#5b9240" d="M914.72,-871.4C931.59,-833.07 971.32,-736.8 985,-651.47 999.32,-562.16 983.46,-454.58 974.42,-405.39"/>
<polygon fill="#5b9240" stroke="#5b9240" points="977.85,-404.71 972.55,-395.53 970.97,-406.01 977.85,-404.71"/>
</g>
<!-- gql_dedupe_link&#45;&gt;gql_link -->
<g id="edge66" class="edge">
<title>gql_dedupe_link&#45;&gt;gql_link</title>
<path fill="none" stroke="#7c0063" d="M909.49,-871.41C915.78,-828.23 932.37,-714.29 940.03,-661.74"/>
<polygon fill="#7c0063" stroke="#7c0063" points="943.5,-662.19 941.48,-651.79 936.57,-661.18 943.5,-662.19"/>
</g>
<!-- end_to_end_test -->
<g id="node19" class="node">
<title>end_to_end_test</title>
<polygon fill="none" stroke="#97b336" points="130,-1203.47 22,-1203.47 22,-1167.47 130,-1167.47 130,-1203.47"/>
<text text-anchor="middle" x="76" y="-1181.77" font-family="Times,serif" font-size="14.00">end_to_end_test</text>
</g>
<!-- end_to_end_test&#45;&gt;gql_exec -->
<g id="edge69" class="edge">
<title>end_to_end_test&#45;&gt;gql_exec</title>
<path fill="none" stroke="#5b9240" d="M130.14,-1180.3C326.06,-1163.99 993.21,-1097.38 1119,-938.47 1187.4,-852.07 1029.03,-503.73 981.79,-404.8"/>
<polygon fill="#5b9240" stroke="#5b9240" points="984.82,-403.01 977.33,-395.51 978.51,-406.04 984.82,-403.01"/>
</g>
<!-- end_to_end_test&#45;&gt;gql_code_builder -->
<g id="edge71" class="edge">
<title>end_to_end_test&#45;&gt;gql_code_builder</title>
<path fill="none" stroke="#1da059" d="M73.08,-1167.19C65.44,-1119.92 45.77,-984.47 51,-871.47 54.52,-795.36 64.38,-705.95 69.62,-661.87"/>
<polygon fill="#1da059" stroke="#1da059" points="73.13,-662.03 70.85,-651.68 66.18,-661.19 73.13,-662.03"/>
</g>
<!-- end_to_end_test&#45;&gt;gql_build -->
<g id="edge70" class="edge">
<title>end_to_end_test&#45;&gt;gql_build</title>
<path fill="none" stroke="#3380b0" d="M77.1,-1167.39C80.26,-1118.48 89.37,-977.52 93.24,-917.77"/>
<polygon fill="#3380b0" stroke="#3380b0" points="96.74,-917.8 93.89,-907.6 89.76,-917.35 96.74,-917.8"/>
</g>
</g>
</svg>
